/* XPM */
static char * eo_img_xpm[] = {
"64 64 382 2",
"  	c #3C5A84",
". 	c #37537A",
"+ 	c #365278",
"@ 	c #39567F",
"# 	c #405D86",
"$ 	c #46638A",
"% 	c #4B668D",
"& 	c #526D92",
"* 	c #49658C",
"= 	c #425F88",
"- 	c #3D5B84",
"; 	c #38547C",
"> 	c #354F74",
", 	c #355075",
"' 	c #4F6A90",
") 	c #415E87",
"! 	c #456189",
"~ 	c #526C91",
"{ 	c #39557D",
"] 	c #334C70",
"^ 	c #30496B",
"/ 	c #314A6D",
"( 	c #355076",
"_ 	c #3A577F",
": 	c #3A577E",
"< 	c #3D5A83",
"[ 	c #3F5C85",
"} 	c #45628A",
"| 	c #436088",
"1 	c #48648B",
"2 	c #4A668D",
"3 	c #3C5981",
"4 	c #334D71",
"5 	c #304869",
"6 	c #375279",
"7 	c #47638B",
"8 	c #4C688E",
"9 	c #425F87",
"0 	c #446088",
"a 	c #365177",
"b 	c #4C678E",
"c 	c #2C4261",
"d 	c #2E4565",
"e 	c #2E4566",
"f 	c #2A405E",
"g 	c #38557D",
"h 	c #365178",
"i 	c #506B91",
"j 	c #38547A",
"k 	c #3E5A82",
"l 	c #39557C",
"m 	c #46628A",
"n 	c #3E5A83",
"o 	c #344E72",
"p 	c #3F5D86",
"q 	c #3D5A82",
"r 	c #38547B",
"s 	c #3E5B83",
"t 	c #577195",
"u 	c #567094",
"v 	c #597296",
"w 	c #546E93",
"x 	c #516C91",
"y 	c #39567E",
"z 	c #4D688F",
"A 	c #446189",
"B 	c #405D85",
"C 	c #344F73",
"D 	c #415E86",
"E 	c #4E698F",
"F 	c #536E92",
"G 	c #5D7699",
"H 	c #425E86",
"I 	c #3B5881",
"J 	c #324B6E",
"K 	c #3C5A83",
"L 	c #3A5780",
"M 	c #627A9C",
"N 	c #667E9F",
"O 	c #7D91AD",
"P 	c #758AA8",
"Q 	c #7287A6",
"R 	c #7489A7",
"S 	c #7388A6",
"T 	c #7E92AD",
"U 	c #768BA8",
"V 	c #8295B0",
"W 	c #8FA0B8",
"X 	c #90A1B9",
"Y 	c #899BB4",
"Z 	c #7C90AC",
"` 	c #7187A5",
" .	c #6C82A2",
"..	c #6E84A3",
"+.	c #5C7598",
"@.	c #637B9C",
"#.	c #6980A0",
"$.	c #6B82A1",
"%.	c #60799B",
"&.	c #7086A4",
"*.	c #677E9F",
"=.	c #788DAA",
"-.	c #7086A5",
";.	c #7B8FAC",
">.	c #798EAB",
",.	c #798DAA",
"'.	c #879AB3",
").	c #8E9FB8",
"!.	c #5A7397",
"~.	c #39567D",
"{.	c #3D5980",
"].	c #768BA9",
"^.	c #778CA9",
"/.	c #687F9F",
"(.	c #657C9E",
"_.	c #889AB4",
":.	c #38537A",
"<.	c #3E5B85",
"[.	c #3E5B84",
"}.	c #5B7497",
"|.	c #5E7799",
"1.	c #647C9D",
"2.	c #405C83",
"3.	c #3B567B",
"4.	c #395479",
"5.	c #435E83",
"6.	c #486388",
"7.	c #556F93",
"8.	c #6F85A4",
"9.	c #7F92AE",
"0.	c #8497B1",
"a.	c #667D9E",
"b.	c #597396",
"c.	c #61799B",
"d.	c #3F5B83",
"e.	c #324B6F",
"f.	c #3C587F",
"g.	c #3E5980",
"h.	c #4C668C",
"i.	c #3C577C",
"j.	c #4C678C",
"k.	c #31496C",
"l.	c #30486A",
"m.	c #2E4667",
"n.	c #8598B2",
"o.	c #456188",
"p.	c #2F4769",
"q.	c #375278",
"r.	c #425E84",
"s.	c #8093AE",
"t.	c #8A9CB5",
"u.	c #8396B1",
"v.	c #446087",
"w.	c #5F779A",
"x.	c #6C83A2",
"y.	c #49658B",
"z.	c #4B668C",
"A.	c #6D84A3",
"B.	c #3C5982",
"C.	c #3C577E",
"D.	c #8D9FB7",
"E.	c #97A7BD",
"F.	c #9AA9BF",
"G.	c #A3B1C5",
"H.	c #9FAEC2",
"I.	c #93A3BA",
"J.	c #95A5BC",
"K.	c #8B9DB6",
"L.	c #8C9DB6",
"M.	c #8396B0",
"N.	c #7389A7",
"O.	c #283C58",
"P.	c #466188",
"Q.	c #8D9EB7",
"R.	c #ADBACB",
"S.	c #A2B0C4",
"T.	c #3C587E",
"U.	c #273B56",
"V.	c #92A3BA",
"W.	c #3A567D",
"X.	c #3B557B",
"Y.	c #435F85",
"Z.	c #96A6BC",
"`.	c #A0AFC3",
" +	c #577094",
".+	c #8698B2",
"++	c #273B57",
"@+	c #23354E",
"#+	c #3F5C84",
"$+	c #243650",
"%+	c #293E5B",
"&+	c #283D59",
"*+	c #2C4362",
"=+	c #2B405F",
"-+	c #293E5C",
";+	c #2F4668",
">+	c #364F73",
",+	c #7A8FAB",
"'+	c #385277",
")+	c #253853",
"!+	c #283D5A",
"~+	c #4E688E",
"{+	c #2D4363",
"]+	c #405C85",
"^+	c #91A2BA",
"/+	c #99A8BE",
"(+	c #253852",
"_+	c #1F2E44",
":+	c #243751",
"<+	c #395379",
"[+	c #4A6488",
"}+	c #4D678C",
"|+	c #3B5579",
"1+	c #2D4464",
"2+	c #466187",
"3+	c #8194AF",
"4+	c #22334B",
"5+	c #2A3F5C",
"6+	c #8094AF",
"7+	c #445F84",
"8+	c #566F91",
"9+	c #9CABC0",
"0+	c #98A8BE",
"a+	c #A5B3C6",
"b+	c #395276",
"c+	c #1C2B3F",
"d+	c #213249",
"e+	c #466186",
"f+	c #425C82",
"g+	c #A0AEC3",
"h+	c #A8B5C8",
"i+	c #ADB9CB",
"j+	c #A1B0C4",
"k+	c #ABB8CA",
"l+	c #AEBBCC",
"m+	c #A6B3C7",
"n+	c #AAB7C9",
"o+	c #A7B4C7",
"p+	c #B1BDCD",
"q+	c #4F6A8F",
"r+	c #536C90",
"s+	c #273A56",
"t+	c #203047",
"u+	c #93A4BB",
"v+	c #2B4160",
"w+	c #A4B2C5",
"x+	c #B1BDCE",
"y+	c #BAC5D4",
"z+	c #BCC6D5",
"A+	c #9DACC1",
"B+	c #94A5BB",
"C+	c #455E82",
"D+	c #4B658A",
"E+	c #4D688E",
"F+	c #3A567E",
"G+	c #5F789A",
"H+	c #263954",
"I+	c #ACB9CA",
"J+	c #263A55",
"K+	c #334A6A",
"L+	c #637B9D",
"M+	c #425C80",
"N+	c #9AAABF",
"O+	c #5B7394",
"P+	c #23344D",
"Q+	c #22344C",
"R+	c #1F2F45",
"S+	c #203148",
"T+	c #1B293C",
"U+	c #9BAAC0",
"V+	c #24364F",
"W+	c #61799A",
"X+	c #1E2D43",
"Y+	c #2A3F5D",
"Z+	c #486184",
"`+	c #364E6F",
" @	c #516B90",
".@	c #4E698E",
"+@	c #435D82",
"@@	c #21324A",
"#@	c #324969",
"$@	c #69809F",
"%@	c #8699B3",
"&@	c #5F7697",
"*@	c #3E5577",
"=@	c #3D5578",
"-@	c #182434",
";@	c #4E688D",
">@	c #385072",
",@	c #455D80",
"'@	c #C2CBD8",
")@	c #C3CCD9",
"!@	c #C7D0DC",
"~@	c #B7C2D1",
"{@	c #1C2A3D",
"]@	c #0D141D",
"^@	c #A4B2C6",
"/@	c #48648A",
"(@	c #1D2C41",
"_@	c #B6C1D1",
":@	c #CBD3DE",
"<@	c #CED5E0",
"[@	c #D0D7E1",
"}@	c #B4C0D0",
"|@	c #587195",
"1@	c #3B577E",
"2@	c #3C5880",
"3@	c #3A5479",
"4@	c #425D83",
"5@	c #CCD4DF",
"6@	c #D3DAE3",
"7@	c #C6CFDB",
"8@	c #BBC6D4",
"9@	c #4E688B",
"0@	c #4B668B",
"a@	c #A9B6C8",
"b@	c #354E71",
"c@	c #162130",
"d@	c #B4BFCF",
"e@	c #AFBBCC",
"f@	c #B8C3D2",
"g@	c #456086",
"h@	c #4B678D",
"i@	c #9EADC2",
"j@	c #556F92",
"k@	c #476186",
"l@	c #4A6487",
"m@	c #4A6489",
"n@	c #476187",
"o@	c #546E92",
"p@	c #364E71",
"q@	c #536D91",
"r@	c #506A8F",
"s@	c #4D688D",
"t@	c #3E597F",
"u@	c #1E2E43",
"v@	c #3D577B",
"w@	c #354F75",
"x@	c #3C567C",
"y@	c #546E91",
"z@	c #344E73",
"A@	c #425F86",
"B@	c #1A273A",
"C@	c #60789A",
"D@	c #445F86",
"E@	c #395275",
"F@	c #556D90",
"G@	c #375174",
"H@	c #466289",
"I@	c #3B5983",
"J@	c #324B6D",
"K@	c #5A7293",
"L@	c #4F688B",
"M@	c #3E587D",
"N@	c #435F87",
"O@	c #415D85",
"P@	c #516A8E",
"Q@	c #3A557B",
"R@	c #354E72",
"S@	c #49648A",
"T@	c #6A81A1",
"U@	c #4F698F",
"V@	c #3D5981",
"W@	c #3A5478",
"X@	c #496489",
"Y@	c #3A557A",
"Z@	c #546D91",
"`@	c #A7B5C8",
" #	c #3B5982",
".#	c #4A658C",
"+#	c #3E5A81",
"@#	c #4C678D",
"##	c #3C5980",
"$#	c #293D5A",
"%#	c #506A90",
"&#	c #47638A",
"*#	c #436087",
"=#	c #435F86",
"-#	c #3E5C85",
";#	c #405B81",
">#	c #4A658A",
",#	c #3F5B82",
"                                                                                                                                ",
"                                                                  . + . @     @ @ @                     #                       ",
"                                                    $ % & * = -   ; . > , @   @ > + + . . . @           ' =                     ",
"                  @ . + . . . . + . . . . . > + . @ ) ) ! = $ ~ * # { . , . . . . ; . > ] ] , @   @ @ @ * ' =                   ",
"                  > ] > . , + . > + . , . , ^ / > ( _ = : < [ } | 1 2 3 + . > , , . . , 4 5 ] .   @ > _ $ 2 = -                 ",
"                @ + + . ; . , , > , . . + ] 5 / > ^ > , ^ 6 ; ! = | 7 8 } { + + + . @ 9 0 a / 5 , . > > _ b * )                 ",
"            , > ^ c 5 d ^ e e c c ^ ] ] ] e 5 f e ] , + ] . + . 6 [ } } 7 2 # g , + @ # = { h ^ ^ ] , + . ) 2 2 i 1             ",
"        . , ^ ] ^ / > ] , 4 ] / ] + > 4 ( j k l % m 7 ! { _ . ; + + . | | | % 1 { , { 9 * * n o ] > @ + > 4 _ ) } 7 p           ",
"        @ ; + q r s i t u u v t w x . a h 3 _ g 1 = 9 * % * - @ + . . h > r | 7 [ . > , 3 1 7 y ] > . @ , ] ; = 1 b #           ",
"      @ ; _ s 1 = [ 7 1 ! 7 * 7 ! z A w % % 1 ! 1 | = } | 9   @ @ % * B C h { D { . + ] C s 7 * r > ; @ , ^ 5 , - u $           ",
"          | * 7 = ! 8 E 8 ' ' ' 8 w z F % % ' E w z z t G t 2 ! - = ! 9 s H I g r > , > > J _ * * . + K z 3 5 ] L z . .         ",
"          = | 9 - I @ + > 4 ] L 2 M N O P Q R S T U V W X Y Z `  ...M b } } 1 7 y . ] ^ ] ^ J n * A _   2 y ^ ^ { ' { @         ",
"          p p   > , + ^ C ; ' +.+.@.#.$.%.&.#.*.=.-.R ;.>.Z ,.&.;.T '.).'.S !.F * * 7 p + ] > 4 ~.} 9 ) ' = 4 d > * {.I         ",
"                + , ] ^ ( 2 u $.N  .,.].S ;.&.Q R $.=.^.Q P &./.#.@.(.].O )._.Y U @.F ~ 8 [ , ^ C :.! <.1 ' [.e ] 0 q r @       ",
"              @ ^ e > ; F }.@.T #.|.1.i E u 2 8 8 2.3.J 4.5.6.+.7.& G 8. .P U 9.0.O ;.O a.!.1 h a ( ' ! = * 9 C ^ 7 2 { @       ",
"              ] e a 0 z b.|.c.*.' ' i 9 d.e.f.w ' g.h./ > i.4 j.k.e.l.m./ }.*...P n.O X >.|.}.8 6 4 o.) ) b 1 r / A | h @       ",
"            , e C * 7 & v u i x ] e.p.4 a > % ' 2 a ( J ( q.a ' r.|.& > ^ J e.4 u /.(.s.t.u.*.w } h 1 v._ ) ' ! . 7 1 a .       ",
"          @ ^ ] ! * 9 w 8 1 A C k.2.d.+. .M /.(.w.x.U x.../.t u y.i +.v z.( 6 4 e.i ' @.O ).t.A.u ! _ * ! B.! 8 9 * b o .       ",
"          ^ e v.% | - } ; l q.C.u w.O D.E.F.G.H.I.).J.K.D.X L.t.^.u.M.N.w.b.& > O.O.> q.@.V K.V #.E ! 1 } r r 2 7 b 1 l.,       ",
"        ] ] 9 2 = - . o e.P.u (.^.Q.R.S.G.E.X M.^.U V O O u.M.V x.U _.0.t.M.^.b.T.k.U.e C.x.V.D.O 1.~ 8 * ; / W.2 8 2 p.>       ",
"      . ] . % 1 p { o X.Y.}./.9.Z.H.`.n.9.^.R  .M }.%.|.|.c.(.@. +M $.#.=..+u.P +.6 k.++@+> ` ).0.&.M i ' 9 ] h = * 2 ^ +       ",
"      ] / } z 9 #+6 p.a G =.Y H.E.t...7.w ] O.$+@+%+f &+*+f / =+-+;+/ >+@.-.).X ,+u '+l.)+!+~+R 0.O P  .w A o / g ! 7 {+]       ",
"    . ] . ' * ]+{.( > !.` ^+/+J.S !.] f (+_+:+-+f <+k.[+}+|+a c d k.1+;+d 2+R 3+^+N.b./ @+4+J |.S ;.;.,+@.* g 5+^ ) ' 4 +       ",
"    . ] L 2 * 6 a r F G 6+K.).=.7+a 5+@+p.d 8+ ...V.t.E.9+0+a+.+-.G / c k.^ b+c.;.,+n.@.l.c+d+( *.K.t.n.Q c.| f ^ . } e > @     ",
"    + , ! * > k.W.' |.-.'.Z.0.e+;+m.d f+/.R J.g+h+i+j+k+l+m+n+a+o+p+F.s.q+g.p.f r+@.Q.P u s+t+m.(.t.t.Y 9.#.7 c c ; | ] ^ ;     ",
"  @ > , ) 4 d ( x M ,+O u+V G v+d G ..P E.0+w+x+y+z+i+A+/+).0+B+I.j+E.j+9+.+C+++l.D+^.'.Q d d+@+E+;.).w+D.=.u ^ 5 , @ ^ ] @     ",
"  @ ] .   m.d F+G+,+X 0.B+s.4 H+m.a.s.D.w+I+h+`.^+R 8+m.J+$+H+K+x.X I.j+`._.#.c d+e.M '.u+M H+4+o /.t.E.W T L+o d g , d / @     ",
"  @ + @ ] )+v+' ^.u+u+9.S.O d O.M+;.X 0+N+0+-.O+%+H+P+Q+R+$+:+S+T+:+l.R B+U+I.|.c c / #._.a.p.V+%+M L.U+I.>.N 8 3 * h e ^ .     ",
"@ @ . @ ^ )+C b.n.J._.^+`.|.&+%+W+T S.E.t.O =+X+_+s+Y+{+=+Z+`+-+$+Y+X+-+%.O F.^.4 / 4 $.Q.s. @++@+.@u.u+X U 1.* 1 v.5 ^ ^ .     ",
"      ] c {+P. .D.I.O F.W +@m.m.+.u.j+_.*.%+@@$+#@$@T %@V.Y ;.&@*@=@P+-@v+ .A+t.;@d d x.V N.u O.R+4.O I.B+N.c.F z . ] ] ^ .     ",
"      , / h b.N.T _.W S.O k.1+/ 8.u+A+;.>@d+(+,@t.R.'@)@!@~@a+U+).#.{@]@U.1.^@X /@O.e.^.u.8.M ;+4+4 3+E.^+s.a.F z o ^ , > @     ",
"    @ , e ! b.U Q O ^+0+*.;+;+[+^.K.H.R $+(@&+%.L._@:@<@[@}@m+A+Q.(.!+4+^ '.a+O ^ @+k.O t.x.%.] ++o N.U+F.].|@v 1@d > + ] > @   ",
"      ; 2@b.x.^.L+O g+u+!.3@] 4@S =.g+;.O.(@d+*+-.U+_@5@6@7@8@m+Y @.m.9@>.S.A+*.d _+0@X ^+$./.d @+> ].a@/+N.|.' a ] . > ^ > @   ",
"      . #+}.#.1.*.t.9+X %.e.e.J A.O l+L.b@V+c@t+m.#.X n+R.d@z+_@e@H.H.n+f@n+O o _+)+c.X u+V !.f @+g@P j+)...w.% C h@= ] c ^ .   ",
"    @ o b (.x.1.c.Y i@B+$.j@o / k@G+0+H.K.l@)+_+d+(+m@t.E.j+l+S.h+j+a+d@S.;..@d t+e.u.F.J...J U.Y+& V 9+O #.w # 1 8 I d 5+] .   ",
"    @ . z *.(.+.@.W B+u+;.@.4.k.n@|.Q.w+g+D.#.d d+$+v+&+1+G+O V .+L.X E.;.t k.*+m..+I.t.Y o@&+)+d a.%@u+,+(.E ' 8 * ; 5+c , @   ",
"    @ { ~ v ~ |@1.'.X )._.R u ^ J 4@R B+j+j+N+].p@%+;+!+%+H+=+d 5.q@7.r@d p.V+;+/.X K.,+a.v+d+)+}.^.D.L.-.N x 2 } <.] 5+^ . @   ",
"      7 ' x w F c.Z ,+,+K.'. .4 J 4 s@S E.a+`.U+B+..t@{+!+_+u@&+*+*+-+Y+Y+/ v@8.E.`.S u 1 _+c+a *..+I.0.*.t 7 } p ^ c c , @     ",
"      % % b }.u ;.R A.Q .+I..+|.w@C p.x@S _.i@l+I+9+X '.y@^ {+l.4 J ;+4 z@%.` 3+X x.x A@c B@m.u 0.Y M.;.w.E 9   ] e ^ ] ,       ",
"      ~ 1 7 !.M x.F u a.9.L.^+Z v 4 ^ e.t C@` I.j+H.n+R.G.j+N+i@X Z ;.>...O _.;.&.v 6 c O.c x S ^+L.u.#.2 p @ , 5 4 + .         ",
"      b # 1 %.S A.! D@N ^.^.I.X %@&.3.;+3.l.E@F@ .Z ).B+u+I.D.J.X 0.t.u.8.x.c.G@l.*+^ / .@@.8..+K.O ..x ; ] ] ] e.H@#           ",
"    - 7 I@6 u '.c.+ C u x.Q ^+J.Q.t.O M z.e.4 / d J@N K@,+u.n.%@N.(./.L@M@f+;+;+k.y.F F 8.3+t.).s.P |@h e c ] , N@2 -           ",
"      - . k.u 0.G y ] O@x v n.L.D.A+L.t.)...@.P@M@x@Q@Y+;+d &+{+Y+1+] R@S@e.J D+x T@Q  .M.I._.,+G+U@C 5 5+e , < % 1             ",
"        , 5 b.M.G ) / ] V@x S O O B+D.n./+X B+%@^. .+.W@X@2+4 C ;+k.Y@Z@c.w.x.` ,+n.0+).J.K.&.@.o.( ] e f ^ I } 8 ; ;           ",
"      @ > ^ |@s.L+} ; 5 / : c.8.>.V _.`.w+U+S.`@u+E./+_.t.3+T 3+n.Q.t.I.X t.0+u+B+E.N+Y O c.E o.4 p.^ ^ ^  #7 z ! r @           ",
"      @ / / |@P G+~ = ] d C z A.R P N.U D.D._.N+^+E.`@G.`@o+a+9+N+N+u+g+9+F.`.u+).Z R #.w.k ] e.^ ] , , #+b % ! 6 > @           ",
"      . ] h }.&.!.2 8 r e ^ ]+|@8. .-.R O Z ;.D.n._.N+^+u+E.`@j+a+o+N+9+0+U+N+X %@N.w.i e.d e > ; } & z z * = g > . @           ",
"      . ^ C u +.F E 7 9 J ;+a z w.+.|.u M #.N M.s.R _..+.+.+'.n.M.^.#.x.S ;.=.x.*.' {.6 > . 2 w & |.w * * [ a + > . .           ",
"      . ] > |@v w v 8 | h k.( g b.G+G ~ & G 1.>.u.#.G+x F @.#./.S R A.L+%.*.*.a.*.#.M G +.w w ' $ i 8 ! _ , > > ] ] @           ",
"      . ] e.* b x G } # h ;+c , m v -.F H@' E+(.O Y O c.' .#d.z v z x u b.c.T@$.(.#.M u ~ * ' b 7 | C 6 ] ^ ^ ] + ;             ",
"      . > l.9 z ' ..i - ; 4 ^ , D w #.v * . +#@#*.U 8.#.w.x h C o.( +#H ##2 x w & !.t x z [.r e 5+$#c ^ ^ > , . . ; @           ",
"      @ . c ] & z  .w.= / ^ e > . 8 (.M ~ { ] ( %##.&.M #.u b &#m 4 h B *#2 ' =#( ^ l.c O.f f U.5+c e + , , ; ; @               ",
"        . e d H 1 @.G+! / 5 ] > ] C u %.%.' g ] h J .@M &.S (.!.B.] ] > , . y + h ^ ] e e ^ e e d 5 , -#2 )                     ",
"        . ^ ^ 1@7 u 8.i ] ^ , + ] C o }.v |@' ' . ] > g.u #.].^.P w.8 * ! b 7 7 2@o > t ;#a > h { % 2 % *                       ",
"        . > d > 6 s *.@.9 4 ] ] / ] 4 P.~ w z @.x a e.o 4 >#%.#.#.&.+.c.u F v w u u ' 8.$.!.x * $ 2 = ! }                       ",
"        @ . ^ a ; 6 w G+' { > , ^ 5 4 H b & ' c.w.u H@: p.4 t@u a.x.!.G+b b z % u |.@.N...+.& 7 | * = 9 <.@ . ] .               ",
"          @ > > , h 0 @.t L + ] ] ] ^ 6 9 * E t v +.x 2 4 ^ a > f.%#,#G x i 8 7 8 i ' |@|.E * ) p <.@ . , , + +                 ",
"          @ . > > ] r .#u 7 { > > ] ] ( ; #+k % x F +.' > ] ] ] r . k./ ] ] ^ > ; 1 * 7 2 ! { r + > > + + . . + @               ",
"          @ @ + , > , 9 1 . , , , > ^ / y B.B b b * x x }   % &#; a 4 ( h > > > > ^ ^ ^ 5 ^ ^ ] > ] > > , ; @ @                 ",
"            @ . , , . { D y , . ; , > / ] > h [ ' $ 1 * p   | ! } ! 6 C > ] > > , > > ^ ] > ^ 4 ] ^ 4 , . @                     ",
"              @ . > . . . . ; @ @ ; > , . ] r q 7   p } p - $ } = b 1 * 8 # @ @ + > ] ] ] > > , , + . ; @                       ",
"              @ ; + > . @ @ @ @   @ @ . . + . _ | -   -       p ) 7 = 9 *         @ @ @ ; @ @ @ @ ; @ @ @                       ",
"                @ ; + @                 @ ; @ @ @                 = = = 1 -                                                     ",
"                  @ . @                                                 -                                                       "};
