/* XPM */
static char * g_img_xpm[] = {
"64 64 2 1",
" 	c #AADA50",
".	c #92BE43",
"                                                                ",
"                                                                ",
"                                                                ",
"                                                                ",
"                   ..                                           ",
"                  .....                               .         ",
"                 ......                              ....       ",
"                  .....                             .....       ",
"                                                     ....       ",
"                                                                ",
"                                                                ",
"                                                                ",
"                                                                ",
"                                                                ",
"       ..                                                       ",
"      .....                                                     ",
"     ......                                                     ",
"      .....                                                     ",
"                                                                ",
"                                                                ",
"                                       ..                       ",
"                                      .....                     ",
"                                     ......                     ",
"                                      .....                     ",
"                                                                ",
"                                                                ",
"                                                                ",
"                                                                ",
"                                                                ",
"                                                                ",
"                                                                ",
"                                                                ",
"                                                                ",
"                                                                ",
"                                                                ",
"                  ..                                            ",
"                 .....                                          ",
"                ......                            ...           ",
"                 .....                           ......         ",
"                                                .......         ",
"                                                 ......         ",
"                                                                ",
"                                                                ",
"                                                                ",
"                                                                ",
"                                                                ",
"                                                                ",
"                                                                ",
"                                     ....                       ",
"                                    .......                     ",
"                                   ........                     ",
"                                    .......                     ",
"                                                                ",
"          .                                                     ",
"         ....                                                   ",
"        .....                                                   ",
"         ....                                                   ",
"                                                                ",
"                                                                ",
"                                                                ",
"                                                                ",
"                                                                ",
"                                                                ",
"                                                                "};
