/* XPM */
static char * p_img_xpm[] = {
"64 64 398 2",
"  	c #AADA50",
". 	c #5663B5",
"+ 	c #363C6E",
"@ 	c #5662B4",
"# 	c #5764B7",
"$ 	c #5F6CC6",
"% 	c #5F6DC7",
"& 	c #5E6BC4",
"* 	c #4F5BA7",
"= 	c #515CA9",
"- 	c #505BA8",
"; 	c #5D6AC2",
"> 	c #485297",
", 	c #4E59A3",
"' 	c #606ECA",
") 	c #434D8D",
"! 	c #5A67BD",
"~ 	c #5865B8",
"{ 	c #5966BB",
"] 	c #616FCB",
"^ 	c #616ECA",
"/ 	c #434D8C",
"( 	c #5965BA",
"_ 	c #5864B7",
": 	c #3E4783",
"< 	c #5F6DC8",
"[ 	c #5A67BC",
"} 	c #606DC8",
"| 	c #444E8E",
"1 	c #3F4885",
"2 	c #535EAD",
"3 	c #49549A",
"4 	c #606EC9",
"5 	c #495399",
"6 	c #5561B2",
"7 	c #4B559D",
"8 	c #525DAB",
"9 	c #383F73",
"0 	c #606EC8",
"a 	c #5562B3",
"b 	c #5D6BC3",
"c 	c #465093",
"d 	c #313662",
"e 	c #393F74",
"f 	c #2A2B4C",
"g 	c #5865B9",
"h 	c #5E6CC6",
"i 	c #353C6F",
"j 	c #5763B6",
"k 	c #454D8C",
"l 	c #494561",
"m 	c #3E4680",
"n 	c #495398",
"o 	c #5E6CC5",
"p 	c #5966BA",
"q 	c #272848",
"r 	c #5460B1",
"s 	c #373E74",
"t 	c #443446",
"u 	c #604D61",
"v 	c #C1937A",
"w 	c #F3C69E",
"x 	c #B58C7A",
"y 	c #5C5B98",
"z 	c #555085",
"A 	c #4C4267",
"B 	c #393C6B",
"C 	c #373E73",
"D 	c #5460AF",
"E 	c #9E6B64",
"F 	c #2E325B",
"G 	c #4B3A5E",
"H 	c #AC715F",
"I 	c #AD7360",
"J 	c #DE907E",
"K 	c #F9BE98",
"L 	c #F9BF99",
"M 	c #F5BB96",
"N 	c #DA8D7C",
"O 	c #AD725F",
"P 	c #533839",
"Q 	c #513C5E",
"R 	c #9C6964",
"S 	c #463144",
"T 	c #465092",
"U 	c #4F3A57",
"V 	c #4E343D",
"W 	c #1D1A25",
"X 	c #544041",
"Y 	c #F3BC97",
"Z 	c #FCD1A6",
"` 	c #F5BE99",
" .	c #574142",
"..	c #181520",
"+.	c #4E3740",
"@.	c #543B56",
"#.	c #475093",
"$.	c #453044",
"%.	c #394076",
"&.	c #3C447D",
"*.	c #3D4580",
"=.	c #5C69C1",
"-.	c #906660",
";.	c #D6A093",
">.	c #7086C5",
",.	c #ADB0C4",
"'.	c #F7D9B2",
").	c #FFE0B1",
"!.	c #F9DBB2",
"~.	c #ACB0C5",
"{.	c #6981C2",
"].	c #D7A498",
"^.	c #976E63",
"/.	c #5B68BF",
"(.	c #394178",
"_.	c #404987",
":.	c #69527B",
"<.	c #F3BC99",
"[.	c #F1D0CD",
"}.	c #C9B4CD",
"|.	c #CBB6CC",
"1.	c #F0CFCE",
"2.	c #F4BD99",
"3.	c #6E547A",
"4.	c #424B8B",
"5.	c #3A4178",
"6.	c #4E59A4",
"7.	c #4F5AA5",
"8.	c #3F4681",
"9.	c #373E71",
"0.	c #4E58A2",
"a.	c #6C537A",
"b.	c #F3C09B",
"c.	c #FEDDAF",
"d.	c #FEDEAF",
"e.	c #F4C29C",
"f.	c #705579",
"g.	c #383F74",
"h.	c #3F4680",
"i.	c #4F59A4",
"j.	c #5B4D7D",
"k.	c #8B5859",
"l.	c #514B6C",
"m.	c #6B4B61",
"n.	c #BF8370",
"o.	c #F2BF9A",
"p.	c #F2BF9B",
"q.	c #C08571",
"r.	c #6F4B5F",
"s.	c #514D6F",
"t.	c #8E5A59",
"u.	c #5B4E7C",
"v.	c #564374",
"w.	c #F5C69F",
"x.	c #FCD9AC",
"y.	c #79748E",
"z.	c #715F7C",
"A.	c #DB897B",
"B.	c #AB6361",
"C.	c #A36160",
"D.	c #A96260",
"E.	c #735D78",
"F.	c #7C7994",
"G.	c #F7C8A1",
"H.	c #584271",
"I.	c #495499",
"J.	c #4C58A1",
"K.	c #A16E62",
"L.	c #FFDFB1",
"M.	c #F3D5AB",
"N.	c #A4ABD0",
"O.	c #B8BAD3",
"P.	c #D2A88E",
"Q.	c #F5C09C",
"R.	c #E5B094",
"S.	c #D3A98E",
"T.	c #B6B8D0",
"U.	c #A8AFD3",
"V.	c #F1D4AA",
"W.	c #A77565",
"X.	c #4C57A0",
"Y.	c #3F4884",
"Z.	c #4F5AA6",
"`.	c #4A4E92",
" +	c #F8C9A1",
".+	c #F2D5AB",
"++	c #B6BACE",
"@+	c #E2EAFC",
"#+	c #F0F5FE",
"$+	c #CFD0DC",
"%+	c #C9A8A9",
"&+	c #BB706E",
"*+	c #CAA7A7",
"=+	c #CECFDB",
"-+	c #F0F4FE",
";+	c #E3EBFC",
">+	c #B7BBD0",
",+	c #F0D3AA",
"'+	c #F9CBA3",
")+	c #484C8F",
"!+	c #404986",
"~+	c #755066",
"{+	c #BCC0D2",
"]+	c #F2F6FE",
"^+	c #FEFEFF",
"/+	c #FFFFFF",
"(+	c #EBEFF9",
"_+	c #C0C0CB",
":+	c #EAEEF8",
"<+	c #F3F7FE",
"[+	c #BEC2D5",
"}+	c #7C5365",
"|+	c #5561B1",
"1+	c #A9806D",
"2+	c #B8A6A0",
"3+	c #E5EDFC",
"4+	c #FAFBFE",
"5+	c #F3F6FE",
"6+	c #F4F7FE",
"7+	c #E7EEFD",
"8+	c #B5A4A2",
"9+	c #B08871",
"0+	c #F9CBA2",
"a+	c #7F809A",
"b+	c #BAC1E7",
"c+	c #DCDFF2",
"d+	c #F9FBFE",
"e+	c #FDFEFF",
"f+	c #D1D7F1",
"g+	c #F8FAFE",
"h+	c #DDE0F2",
"i+	c #BCC2E7",
"j+	c #E9EFFE",
"k+	c #8386A0",
"l+	c #FBCDA4",
"m+	c #6E6C8B",
"n+	c #CED5F2",
"o+	c #93A0C6",
"p+	c #7F8DB9",
"q+	c #BFC8E9",
"r+	c #ECF0FA",
"s+	c #F0F4FD",
"t+	c #CED3E3",
"u+	c #EFF3FD",
"v+	c #EDF1FB",
"w+	c #BEC7E8",
"x+	c #7F8CB9",
"y+	c #94A1C7",
"z+	c #D0D8F3",
"A+	c #6D6D8F",
"B+	c #FFE1B2",
"C+	c #DBA387",
"D+	c #E6CCA9",
"E+	c #8C96C7",
"F+	c #A0A9DB",
"G+	c #8D97C9",
"H+	c #97A2D1",
"I+	c #CAD2F1",
"J+	c #CBD4F2",
"K+	c #98A2D1",
"L+	c #A0A9DA",
"M+	c #8D97C8",
"N+	c #E2C8A8",
"O+	c #DDA789",
"P+	c #FFDFB0",
"Q+	c #FDDAAD",
"R+	c #75779D",
"S+	c #C2CAE9",
"T+	c #C7CFEE",
"U+	c #DDE6FB",
"V+	c #D0D7F2",
"W+	c #D1D8F3",
"X+	c #DCE5FA",
"Y+	c #C8D0EF",
"Z+	c #C4CBEA",
"`+	c #76789E",
" @	c #FDD9AC",
".@	c #DCA588",
"+@	c #BE8482",
"@@	c #BC8784",
"#@	c #C39DA6",
"$@	c #9698B9",
"%@	c #C3C2C8",
"&@	c #C9C9D6",
"*@	c #C4C2C9",
"=@	c #C29EA8",
"-@	c #BB8684",
";@	c #C18683",
">@	c #DFAA8B",
",@	c #FEDAAD",
"'@	c #D0D3E7",
")@	c #9C98B7",
"!@	c #C9B19C",
"~@	c #F7D9AD",
"{@	c #FBDCAF",
"]@	c #BD8076",
"^@	c #CBB29D",
"/@	c #9E99B6",
"(@	c #FED9AC",
"_@	c #DEA689",
":@	c #72749C",
"<@	c #D8DBEE",
"[@	c #F6F7FB",
"}@	c #D4D8EC",
"|@	c #9C9CBA",
"1@	c #C8B29E",
"2@	c #AE7A6F",
"3@	c #CAB39E",
"4@	c #9D9CB9",
"5@	c #D3D7EC",
"6@	c #F5F7FB",
"7@	c #DADDEF",
"8@	c #73779F",
"9@	c #DEAB8C",
"0@	c #E0AA8C",
"a@	c #F7AF90",
"b@	c #FFDEB0",
"c@	c #FDD8AB",
"d@	c #F9DBAE",
"e@	c #C6AF9A",
"f@	c #C6B6B2",
"g@	c #BCC2DA",
"h@	c #F7F8FD",
"i@	c #C5C3CC",
"j@	c #D8DAED",
"k@	c #F8F9FD",
"l@	c #BDC3DB",
"m@	c #C4B5B3",
"n@	c #C5AF9A",
"o@	c #FADCAF",
"p@	c #FDD7AB",
"q@	c #F7B091",
"r@	c #ED9B85",
"s@	c #F5A489",
"t@	c #E69783",
"u@	c #DD947D",
"v@	c #FDDEAF",
"w@	c #FEDFB1",
"x@	c #F5D8AE",
"y@	c #BCBDCB",
"z@	c #FBFBFD",
"A@	c #FBFBFE",
"B@	c #BDBFCD",
"C@	c #F4D7AD",
"D@	c #FEDFB0",
"E@	c #D9917A",
"F@	c #E79883",
"G@	c #F6A589",
"H@	c #EC9B84",
"I@	c #CB7772",
"J@	c #DA8D7A",
"K@	c #E89981",
"L@	c #DB8E7A",
"M@	c #C57B6F",
"N@	c #F6D9AD",
"O@	c #9796B6",
"P@	c #7B89B5",
"Q@	c #9696B8",
"R@	c #F5D7AD",
"S@	c #C0776C",
"T@	c #DD8F7B",
"U@	c #E69880",
"V@	c #DC8E7A",
"W@	c #CB7872",
"X@	c #F6C79F",
"Y@	c #8B646F",
"Z@	c #F6D8AD",
"`@	c #E69F88",
" #	c #FCDDAF",
".#	c #F5AF90",
"+#	c #FDDEB0",
"@#	c #F5C59E",
"##	c #C28275",
"$#	c #F7C7A0",
"%#	c #FEDBAE",
"&#	c #7F554C",
"*#	c #F9C49E",
"=#	c #FEDCAE",
"-#	c #F7B593",
";#	c #7C4D47",
">#	c #F7B492",
",#	c #F9C59F",
"'#	c #EE9F85",
")#	c #F5A78B",
"!#	c #F0A086",
"~#	c #F3A288",
"{#	c #F5A58A",
"]#	c #F4A388",
"^#	c #F2B08F",
"/#	c #F9C09A",
"(#	c #F9BD98",
"_#	c #7D544B",
":#	c #F4B190",
"<#	c #EEAF8F",
"[#	c #FEDDAE",
"}#	c #FBCDA3",
"|#	c #FBCCA3",
"1#	c #F0B290",
"                                                                                                                                ",
"                                                                                                                                ",
"                                                                                                                                ",
"                                                                                                                                ",
"                                                                                                                                ",
"                                                                                                                                ",
"                                                                                                                                ",
"                                                                                                                                ",
"                                                                                                                                ",
"                                                                                                                                ",
"                                                              . + @ #                                                           ",
"                                                        $ % & * = - ; % %                                                       ",
"                                                      $ - > , . ' # ) > * %                                                     ",
"                                                      ! ~ { $ % ] ^ / ^ ( {                                                     ",
"                                                    _ : < [ < } ] ] | ] ] 1 ~                                                   ",
"                                                    2 3 $ 4 % % ] ] 5 6 ] 7 8                                                   ",
"                                                    9 0 a } b c ] ] % d < 4 e f                                                 ",
"                                                  g < h i j k l @ ] } m n o < p q                                               ",
"                                                  > r s t u v w x y z A B C D 5                                                 ",
"                                                  E F G H I J K L M N O P Q F R                                                 ",
"                                                  S T U V W X Y Z `  ...+.@.#.$.%.                                              ",
"                                                &.*.=.-.;.>.,.'.).!.~.{.].^./.: &.                                              ",
"                                              (.> _.D :.<.[.}.).).).|.1.2.3.2 4.n 5.                                            ",
"                                              6.7.8.9.0.a.b.c.).d.).c.e.f.0.g.h.7.i.                                            ",
"                                              7.7.i.j.k.l.m.n.o.b.p.q.r.s.t.u.6.7.7.                                            ",
"                                            n 7.7.v.w.x.y.z.A.B.C.D.A.E.F.x.G.H.7.7.I.                                          ",
"                                            n 7.J.K.L.M.N.O.P.Q.R.Q.S.T.U.V.).W.X.7.5                                           ",
"                                            Y.Z.`. +.+++@+#+$+%+&+*+=+-+;+>+,+'+)+Z.!+                                          ",
"                                              D ~+M.{+]+^+/+/+(+_+:+/+/+^+<+[+V.}+|+                                            ",
"                                                1+2+3+4+]+<+/+/+5+/+/+6+]+4+7+8+9+                                              ",
"                                                0+a+7+b+c+d+e+^+f+^+^+g+h+i+j+k+l+                                              ",
"                                                ).m+n+o+p+q+r+s+t+u+v+w+x+y+z+A+B+                                              ",
"                                              C+).D+E+F+G+H+I+@+]+@+J+K+G+L+M+N+).O+                                            ",
"                                              P+).Q+  R+S+T+U+V+/+W+X+Y+Z+`+   @).P+                                            ",
"                                            .@).).    +@@@#@$@%@&@*@$@=@-@;@    ).).>@                                          ",
"                                            P+).,@    '@)@!@~@{@]@{@~@^@/@'@    (@).L.                                          ",
"                                          _@).).    :@<@[@}@|@1@2@3@4@5@6@7@8@  9@).).0@                                        ",
"                                          a@b@c@    d@e@f@g@h@<@i@j@k@l@m@n@o@    p@b@q@                                        ",
"                                        r@s@t@u@    v@).w@x@y@z@f+A@B@C@w@).D@    E@F@G@H@                                      ",
"                                      I@J@K@L@M@    v@).).).N@O@P@Q@R@).).).D@    S@T@U@V@W@                                    ",
"                                                    X@).).).).~@Y@Z@).).).). +                                                  ",
"                                                      ).).).).).`@).).).).).                                                    ",
"                                                      P+).).).).q@).).).).).                                                    ",
"                                                       #).).).)..#).).).).+#                                                    ",
"                                                      @#).).).).##).).).).$#                                                    ",
"                                                        L.).).%#&#,@).).).                                                      ",
"                                                        *#c.=#-#;#>#=#c.,#                                                      ",
"                                                        '#)#)#s@;#s@)#)#!#                                                      ",
"                                                          s@s@s@;#s@s@s@                                                        ",
"                                                          s@s@s@;#s@s@s@                                                        ",
"                                                          ~#{#{#;#{#{#]#                                                        ",
"                                                          ^#/#(#_#(#/#:#                                                        ",
"                                                          <#[#}#  |#c.1#                                                        ",
"                                                                                                                                ",
"                                                                                                                                ",
"                                                                                                                                ",
"                                                                                                                                ",
"                                                                                                                                ",
"                                                                                                                                ",
"                                                                                                                                ",
"                                                                                                                                ",
"                                                                                                                                ",
"                                                                                                                                ",
"                                                                                                                                "};
