/* XPM */
static char * l0_xpm[] = {
"64 64 266 2",
"  	c #AADA50",
". 	c #606EC8",
"+ 	c #616FCB",
"@ 	c #616FCA",
"# 	c #5C69C0",
"$ 	c #3E4680",
"% 	c #515DAA",
"& 	c #5A66BB",
"* 	c #606ECA",
"= 	c #535FAE",
"- 	c #5764B7",
"; 	c #505CA8",
"> 	c #5C6AC2",
", 	c #5A67BC",
"' 	c #606EC9",
") 	c #525DAB",
"! 	c #5D6AC2",
"~ 	c #5B68BE",
"{ 	c #505AA6",
"] 	c #5764B6",
"^ 	c #5662B4",
"/ 	c #4E59A2",
"( 	c #4B559C",
"_ 	c #5F6CC6",
": 	c #5F6DC7",
"< 	c #5763B6",
"[ 	c #5F6DC8",
"} 	c #4A549B",
"| 	c #5662B3",
"1 	c #4C569D",
"2 	c #606DC8",
"3 	c #4E59A3",
"4 	c #3C427A",
"5 	c #535FAF",
"6 	c #475092",
"7 	c #515CA9",
"8 	c #3B4278",
"9 	c #545FAF",
"0 	c #525BA6",
"a 	c #5E444D",
"b 	c #4E58A0",
"c 	c #4F5BA6",
"d 	c #4F5AA5",
"e 	c #464F91",
"f 	c #333866",
"g 	c #424B8A",
"h 	c #5B68BF",
"i 	c #5460B0",
"j 	c #91747B",
"k 	c #EDAF8E",
"l 	c #89616A",
"m 	c #414986",
"n 	c #4A549A",
"o 	c #3E457F",
"p 	c #373254",
"q 	c #66444B",
"r 	c #5F4261",
"s 	c #4F5AA4",
"t 	c #505BA7",
"u 	c #7B4B45",
"v 	c #2D1E1F",
"w 	c #222038",
"x 	c #4C579F",
"y 	c #996762",
"z 	c #EDB897",
"A 	c #C49A7F",
"B 	c #464B88",
"C 	c #B29891",
"D 	c #9D97A3",
"E 	c #654653",
"F 	c #4E58A2",
"G 	c #53589A",
"H 	c #DCB694",
"I 	c #F6B392",
"J 	c #C2937A",
"K 	c #454A88",
"L 	c #FCD4A9",
"M 	c #C4A7B5",
"N 	c #C2B1C9",
"O 	c #B8937F",
"P 	c #535282",
"Q 	c #F4C49D",
"R 	c #E9A68A",
"S 	c #6D475A",
"T 	c #465092",
"U 	c #FDD6AA",
"V 	c #FBD7AD",
"W 	c #F9CBA6",
"X 	c #BDA589",
"Y 	c #4D58A1",
"Z 	c #735179",
"` 	c #A67564",
" .	c #906157",
"..	c #3C3E6E",
"+.	c #464F92",
"@.	c #EBBF9A",
"#.	c #FCD0A6",
"$.	c #BB9A81",
"%.	c #4C559D",
"&.	c #7D4855",
"*.	c #C36C6E",
"=.	c #4C2C3C",
"-.	c #3B4279",
";.	c #3D467F",
">.	c #4E59A4",
",.	c #C5917A",
"'.	c #A86962",
").	c #985660",
"!.	c #C66E71",
"~.	c #B46975",
"{.	c #7A526A",
"].	c #373054",
"^.	c #3C447C",
"/.	c #B56972",
"(.	c #C76F72",
"_.	c #977A99",
":.	c #8286B0",
"<.	c #9096C3",
"[.	c #656E94",
"}.	c #3E4270",
"|.	c #475093",
"1.	c #4D58A2",
"2.	c #D0A98E",
"3.	c #EAB596",
"4.	c #8F7D9A",
"5.	c #C8C8D6",
"6.	c #E1C7A7",
"7.	c #F9DBB0",
"8.	c #C3A89E",
"9.	c #605E7D",
"0.	c #FAFBFC",
"a.	c #C7C8D5",
"b.	c #B69095",
"c.	c #AA99A6",
"d.	c #C1C7E0",
"e.	c #C8B4A7",
"f.	c #FFE0B1",
"g.	c #FFDFB0",
"h.	c #BB9B84",
"i.	c #3F457F",
"j.	c #4B569D",
"k.	c #E7EAF7",
"l.	c #F4F6FD",
"m.	c #F4F6FC",
"n.	c #B4B8D0",
"o.	c #E0A38D",
"p.	c #CBA989",
"q.	c #42457C",
"r.	c #475194",
"s.	c #D0D4E6",
"t.	c #D5D8E9",
"u.	c #E6E9F7",
"v.	c #FEFFFF",
"w.	c #FFFFFF",
"x.	c #C8C7D1",
"y.	c #D49180",
"z.	c #FCDCAE",
"A.	c #F7CFA5",
"B.	c #514059",
"C.	c #B4BCE4",
"D.	c #D1D5E2",
"E.	c #DCE0EC",
"F.	c #A57A88",
"G.	c #EFBD9A",
"H.	c #FBDCAE",
"I.	c #503E46",
"J.	c #F9F9FB",
"K.	c #D2D7F0",
"L.	c #868BB4",
"M.	c #CE9B86",
"N.	c #D3D7E9",
"O.	c #F7F9FE",
"P.	c #FCFDFE",
"Q.	c #E6E9F8",
"R.	c #D7DAF0",
"S.	c #929DCD",
"T.	c #998AA9",
"U.	c #FDDDAF",
"V.	c #C3CBEC",
"W.	c #D7DEEF",
"X.	c #BBC2E9",
"Y.	c #ACB4E3",
"Z.	c #F1F4FC",
"`.	c #A3ACDA",
" +	c #8A88AA",
".+	c #FFDEB0",
"++	c #B2BDDA",
"@+	c #A3ABDE",
"#+	c #A4ACDF",
"$+	c #9199C5",
"%+	c #EEF2FC",
"&+	c #CFD5EF",
"*+	c #9888AA",
"=+	c #F9D0A6",
"-+	c #97A0CF",
";+	c #6F729D",
">+	c #7A87B5",
",+	c #9199C4",
"'+	c #ECF1FB",
")+	c #C7CAE1",
"!+	c #AF736F",
"~+	c #FACAA2",
"{+	c #848BBA",
"]+	c #A9B3D6",
"^+	c #B0B9CF",
"/+	c #A88296",
"(+	c #E5B090",
"_+	c #F7C49D",
":+	c #A0A2BB",
"<+	c #C6BBC0",
"[+	c #E6BA99",
"}+	c #FEDEB0",
"|+	c #F6C29C",
"1+	c #F5D7AB",
"2+	c #CC9D81",
"3+	c #D1A184",
"4+	c #F9D4A8",
"5+	c #C9AC89",
"6+	c #F5C69F",
"7+	c #FEDDAF",
"8+	c #E6A18A",
"9+	c #F6C69F",
"0+	c #C9AB89",
"a+	c #F1AA8C",
"b+	c #FAC49E",
"c+	c #F2AB8D",
"d+	c #D98C7B",
"e+	c #F9DAAD",
"f+	c #C07D6F",
"g+	c #E89682",
"h+	c #C98471",
"i+	c #C3766C",
"j+	c #E9C69F",
"k+	c #D7AF8F",
"l+	c #F7C19C",
"m+	c #BB7A69",
"n+	c #FFDFB1",
"o+	c #BC7B69",
"p+	c #FADBAD",
"q+	c #F9C49E",
"r+	c #D88F7C",
"s+	c #9F695B",
"t+	c #EB9C83",
"u+	c #E4B492",
"v+	c #FCDDAF",
"w+	c #F5C59E",
"x+	c #C17F6C",
"y+	c #F3B996",
"z+	c #FCD6AA",
"A+	c #FAC59E",
"B+	c #C7816F",
"C+	c #ECB192",
"D+	c #F6AD8E",
"E+	c #F1A187",
"F+	c #BF756B",
"G+	c #E89782",
"H+	c #F4A389",
"I+	c #F3A288",
"J+	c #F0A086",
"K+	c #C8806F",
"L+	c #C87B71",
"M+	c #EFA086",
"N+	c #F5A489",
"O+	c #CE8372",
"P+	c #F2A187",
"Q+	c #E79781",
"                                                                                                                                ",
"                                                                                                                                ",
"                                                                                                                                ",
"                                                                                                                                ",
"                                                                                                                                ",
"                                                                                                                                ",
"                                                                                                                                ",
"                                                                                                                                ",
"                                                                                                                                ",
"                                                          . + + + @ #                                                           ",
"                                                      $ % & * + + + + @                                                         ",
"                                                  = - ; > # , ' + + + + .                                                       ",
"                                                  @ @ ) ' ! ~ { + + + + +                                                       ",
"                                                ] + + ^ ' ' / ( _ + + + + :                                                     ",
"                                                < + + ) [ @ } | 1 + + + + 2                                                     ",
"                                                3 ! . 4 5 . 6 7 8 # + + + !                                                     ",
"                                                  9 0 a b c d e f g h * ' i                                                     ",
"                                                    j k l m n o p q r s t d                                                     ",
"                                                      u v w o x y z A B d d                                                     ",
"                                                      C D E F G H I J K d d                                                     ",
"                                                    L M N O F P Q R S T d d F                                                   ",
"                                                    U V W X Y Z `  ...+.d d s                                                   ",
"                                                      @.#.$.%.&.*.=.-.;.>.d d                                                   ",
"                                                        ,.'.).!.~.{.].^.3 d d                                                   ",
"                                                          /.(._.:.<.[.}.|.d d 1.                                                ",
"                                                        2.3.4.5.6.7.8.9.e d d F                                                 ",
"                                                    0.a.b.c.d.e.f.f.g.h.i.s j.F                                                 ",
"                                                  k.l.k.0.m.n.o.g.f.f.p.q.3 r.1.                                                ",
"                                                s.t.u.v.w.w.x.y.z.f.f.A.B.Y r.                                                  ",
"                                                C.D.w.w.w.w.E.F.G.f.f.H.I.                                                      ",
"                                                  J.w.w.w.v.K.L.M.g.f.H.                                                        ",
"                                                  N.O.w.P.Q.R.S.T.H.f.U.                                                        ",
"                                                  V.W.R.X.Y.Z.`. +H.f..+                                                        ",
"                                                    ++@+#+$+%+&+*+=+f..+                                                        ",
"                                                    -+;+>+,+'+)+!+~+f.U                                                         ",
"                                                        {+]+^+/+(+g.f._+                                                        ",
"                                                          :+<+[+}+f.f.|+                                                        ",
"                                                          1+2+g.f.}+g.3+                                                        ",
"                                                        4+5+6+f.7+8+9+                                                          ",
"                                                        H.0+a+b+c+d+                                                            ",
"                                                        H.e+f+g+h+i+                                                            ",
"                                                        H.f.j+k+l+m+                                                            ",
"                                                        H.f.f.n+|+o+                                                            ",
"                                                        p+f.n+q+r+s+t+                                                          ",
"                                                        u+g.f..+v+w+x+                                                          ",
"                                                          y+z+n+f.A+B+                                                          ",
"                                                              C+q+D+E+                                                          ",
"                                                                F+G+H+I+                                                        ",
"                                                                J+K+L+H+M+                                                      ",
"                                                              H+N+N+O+P+E+                                                      ",
"                                                              E+Q+                                                              ",
"                                                                                                                                ",
"                                                                                                                                ",
"                                                                                                                                ",
"                                                                                                                                ",
"                                                                                                                                ",
"                                                                                                                                ",
"                                                                                                                                ",
"                                                                                                                                ",
"                                                                                                                                ",
"                                                                                                                                ",
"                                                                                                                                ",
"                                                                                                                                ",
"                                                                                                                                "};
