/* XPM */
static char * l1_xpm[] = {
"64 64 279 2",
"  	c #AADA50",
". 	c #5F6DC7",
"+ 	c #5B68BF",
"@ 	c #5460B1",
"# 	c #606EC9",
"$ 	c #616FCB",
"% 	c #616FCA",
"& 	c #465092",
"* 	c #4F5AA4",
"= 	c #5865B9",
"- 	c #5966BA",
"; 	c #5D6AC2",
"> 	c #5F6CC6",
", 	c #5F6DC8",
"' 	c #4A559B",
") 	c #5A67BC",
"! 	c #5C69C0",
"~ 	c #5763B6",
"{ 	c #606ECA",
"] 	c #606EC8",
"^ 	c #5561B2",
"/ 	c #535FAD",
"( 	c #495499",
"_ 	c #4C559D",
": 	c #535FAE",
"< 	c #4A5499",
"[ 	c #475092",
"} 	c #525EAB",
"| 	c #4D58A1",
"1 	c #4A549A",
"2 	c #5965B9",
"3 	c #30335D",
"4 	c #4F59A4",
"5 	c #5460B0",
"6 	c #444D8D",
"7 	c #4D57A0",
"8 	c #343A68",
"9 	c #505BA8",
"0 	c #464F90",
"a 	c #896960",
"b 	c #545288",
"c 	c #4A549B",
"d 	c #515CA8",
"e 	c #3E457F",
"f 	c #333763",
"g 	c #383865",
"h 	c #4B5296",
"i 	c #505BA7",
"j 	c #C78974",
"k 	c #83564D",
"l 	c #693F50",
"m 	c #454E90",
"n 	c #62414D",
"o 	c #C5A183",
"p 	c #A5746A",
"q 	c #4C5499",
"r 	c #4F5AA5",
"s 	c #4A3733",
"t 	c #574C58",
"u 	c #3E2C3F",
"v 	c #4E58A2",
"w 	c #B68F7A",
"x 	c #EFA98D",
"y 	c #C1A282",
"z 	c #40457F",
"A 	c #ECB695",
"B 	c #D6B3AC",
"C 	c #BEBAC5",
"D 	c #9B6E6C",
"E 	c #B9927C",
"F 	c #EDA98D",
"G 	c #9D6860",
"H 	c #484F90",
"I 	c #FEDDAF",
"J 	c #E1C0BC",
"K 	c #DEAFB6",
"L 	c #BDA387",
"M 	c #C1987F",
"N 	c #D6977D",
"O 	c #5E4266",
"P 	c #464F91",
"Q 	c #F5C09A",
"R 	c #FDDCAE",
"S 	c #BDA589",
"T 	c #4C4272",
"U 	c #9B5759",
"V 	c #4A2E3C",
"W 	c #3B4279",
"X 	c #3D467F",
"Y 	c #4E59A4",
"Z 	c #4D58A2",
"` 	c #E0A386",
" .	c #F5BD97",
"..	c #B68572",
"+.	c #50477B",
"@.	c #B06369",
"#.	c #C76F72",
"$.	c #77424C",
"%.	c #373C6D",
"&.	c #3D457E",
"*.	c #4E59A3",
"=.	c #9D5864",
"-.	c #C66E71",
";.	c #B46975",
">.	c #917596",
",.	c #8082AE",
"'.	c #464062",
").	c #383D6F",
"!.	c #475093",
"~.	c #977688",
"{.	c #D4837B",
"].	c #A96573",
"^.	c #B1B0CC",
"/.	c #A694A3",
"(.	c #C6B5B1",
"_.	c #7B80A2",
":.	c #4E4567",
"<.	c #424A87",
"[.	c #B3B8D4",
"}.	c #C28782",
"|.	c #DBB89D",
"1.	c #B3B5D0",
"2.	c #C7BCBD",
"3.	c #F9D5AA",
"4.	c #FFE0B1",
"5.	c #FBDCAF",
"6.	c #E0AD8E",
"7.	c #493E66",
"8.	c #B6BBCE",
"9.	c #AFB8DB",
"0.	c #C5C3CA",
"a.	c #CFCFDD",
"b.	c #B8BFD9",
"c.	c #B9767B",
"d.	c #FDDDAF",
"e.	c #FADBAD",
"f.	c #524356",
"g.	c #475195",
"h.	c #D4D8E9",
"i.	c #E2E6F5",
"j.	c #FFFFFF",
"k.	c #C5C2CA",
"l.	c #D78D80",
"m.	c #FAD0A6",
"n.	c #FBDCAE",
"o.	c #6B484B",
"p.	c #454E8F",
"q.	c #475194",
"r.	c #D0D4E7",
"s.	c #E3E7F6",
"t.	c #FEFEFF",
"u.	c #CED0DC",
"v.	c #D8A28F",
"w.	c #E1B293",
"x.	c #FFDFB0",
"y.	c #BB9379",
"z.	c #414884",
"A.	c #495398",
"B.	c #CDD1DF",
"C.	c #F3F5FB",
"D.	c #F9FAFB",
"E.	c #A2899E",
"F.	c #D3AB8C",
"G.	c #C0A685",
"H.	c #B3BBE2",
"I.	c #C6CDE0",
"J.	c #F5F8FD",
"K.	c #929CC8",
"L.	c #A27069",
"M.	c #97A0D0",
"N.	c #BBC0D3",
"O.	c #E8EEFD",
"P.	c #A7B1D6",
"Q.	c #8985A6",
"R.	c #EDBB99",
"S.	c #7A81A9",
"T.	c #D7DEEE",
"U.	c #FBFCFD",
"V.	c #F5F7FD",
"W.	c #D0D6F0",
"X.	c #C9D1F0",
"Y.	c #B9C4DF",
"Z.	c #8986A9",
"`.	c #F7CFA5",
" +	c #F7C39D",
".+	c #B1B9E2",
"++	c #9CA7D1",
"@+	c #AAB2E2",
"#+	c #9BA4D5",
"$+	c #CACEDF",
"%+	c #BFC4D5",
"&+	c #8283AC",
"*+	c #CCAA8B",
"=+	c #FCD6AA",
"-+	c #7B85B2",
";+	c #868EBD",
">+	c #7D86B3",
",+	c #CCD1EB",
"'+	c #CAC8D0",
")+	c #E79E89",
"!+	c #C6A987",
"~+	c #FFDEB0",
"{+	c #A3A9BF",
"]+	c #8C92B0",
"^+	c #8086AD",
"/+	c #969ECC",
"(+	c #B1AAB8",
"_+	c #B2A3B8",
":+	c #C0967F",
"<+	c #FDD6AA",
"[+	c #FFDFB1",
"}+	c #C1AC9B",
"|+	c #A3A4BD",
"1+	c #C1C0C7",
"2+	c #C6C6D2",
"3+	c #D2D5EB",
"4+	c #C1C0D2",
"5+	c #D88D7E",
"6+	c #F6AA8D",
"7+	c #FAC49D",
"8+	c #F9C29C",
"9+	c #FEDFB0",
"0+	c #F9DBAF",
"a+	c #9F8A82",
"b+	c #D58F7C",
"c+	c #FAC9A1",
"d+	c #F7AF90",
"e+	c #FDDEAF",
"f+	c #CA987E",
"g+	c #E4A38B",
"h+	c #FCDBAD",
"i+	c #FBDBAD",
"j+	c #BC816D",
"k+	c #D49F84",
"l+	c #F1BE9B",
"m+	c #FBCDA4",
"n+	c #FAD8AB",
"o+	c #BF997C",
"p+	c #BF7B6B",
"q+	c #D18876",
"r+	c #F9BC98",
"s+	c #DEA087",
"t+	c #EB9F85",
"u+	c #FDDDAE",
"v+	c #DFB390",
"w+	c #D89179",
"x+	c #BD7C6A",
"y+	c #A6685D",
"z+	c #C07E6C",
"A+	c #F9D4A8",
"B+	c #FED9AC",
"C+	c #E7B392",
"D+	c #C0826E",
"E+	c #F1A187",
"F+	c #F3A388",
"G+	c #F5C79F",
"H+	c #FFDEAF",
"I+	c #F3B795",
"J+	c #C98270",
"K+	c #F5A489",
"L+	c #F0A086",
"M+	c #F5BA97",
"N+	c #F8B795",
"O+	c #F4A489",
"P+	c #BD756A",
"Q+	c #F1A388",
"R+	c #F5A68A",
"S+	c #C07E6B",
"T+	c #EFA086",
"U+	c #D58777",
"V+	c #BC7B6A",
"W+	c #F3A288",
"X+	c #C7816F",
"Y+	c #BF7E6B",
"Z+	c #E99883",
"`+	c #F4A389",
" @	c #B57166",
".@	c #C6806F",
"+@	c #BA7A69",
"                                                                                                                                ",
"                                                                                                                                ",
"                                                                                                                                ",
"                                                                                                                                ",
"                                                                                                                                ",
"                                                                                                                                ",
"                                                                                                                                ",
"                                                                                                                                ",
"                                                            . . . +                                                             ",
"                                                        @ # $ $ $ $ % +                                                         ",
"                                                    & * = - ; $ $ $ $ $ +                                                       ",
"                                                  > , ' , ) ! ~ $ $ $ $ %                                                       ",
"                                                  % $ = { ] ^ ^ $ $ $ $ $ +                                                     ",
"                                                  $ $ / # # ( _ . $ $ $ $ .                                                     ",
"                                                : { % < + { [ } | { $ $ $ ]                                                     ",
"                                                1 2 + 3 4 5 6 7 8 9 { $ $ 2                                                     ",
"                                                  1 0 a b c d e f g h = = i                                                     ",
"                                                      j k l e m n o p q r r                                                     ",
"                                                      s t u v v w x y z r r                                                     ",
"                                                    A B C D v v E F G H r r                                                     ",
"                                                    I J K L v q M N O P r r                                                     ",
"                                                    Q R I S | T U V W X Y r Z                                                   ",
"                                                      `  ...+.@.#.$.%.&.*.r v                                                   ",
"                                                          =.-.;.>.,.'.).!.r *.                                                  ",
"                                                        ~.{.].^./.(._.:.<.* r                                                   ",
"                                                      [.}.|.1.2.3.4.5.6.7.*.*                                                   ",
"                                                    8.9.0.a.b.c.d.4.4.e.f.P g.                                                  ",
"                                                    h.i.j.j.k.l.m.4.4.n.o.p.q.v                                                 ",
"                                                  r.s.t.j.j.u.v.w.4.4.x.y.z.q.A.                                                ",
"                                                  B.C.j.j.j.D.E.F.4.4.4.G.                                                      ",
"                                                H.I.t.j.j.j.J.K.L.d.4.4.                                                        ",
"                                                M.N.t.j.j.t.O.P.Q.n.4.4.R.                                                      ",
"                                                  S.T.U.V.W.X.Y.Z.`.4.4. +                                                      ",
"                                                    .+++@+#+$+%+&+*+4.4.=+                                                      ",
"                                                      -+;+>+,+'+)+!+4.4.~+                                                      ",
"                                                      {+]+^+/+(+_+:+<+[+I                                                       ",
"                                                      }+|+1+2+3+4+5+6+7+8+                                                      ",
"                                                      9+5.5.0+a+b+c+~+<+d+                                                      ",
"                                                      4.4.4.e+f+g+<+4.[+h+                                                      ",
"                                                    i+4.4.4.n.j+k+l+[+m+n+                                                      ",
"                                                    x.4.4.4.9+o+p+q+r+s+t+                                                      ",
"                                                    4.4.[+u+v+w+x+y+z+                                                          ",
"                                                  A+4.4.B+C+D+E+F+E+E+                                                          ",
"                                                  G+[+4.4.H+I+J+K+K+K+L+                                                        ",
"                                                    M+<+<+N+O+P+E+K+K+K+                                                        ",
"                                                      Q+R+K+K+S+T+K+K+K+                                                        ",
"                                                        E+K+K+U+V+F+K+E+                                                        ",
"                                                          E+K+W+X+Y+F+T+                                                        ",
"                                                            Z+K+`+ @E+                                                          ",
"                                                              `+E+.@K+                                                          ",
"                                                              E+E++@                                                            ",
"                                                                                                                                ",
"                                                                                                                                ",
"                                                                                                                                ",
"                                                                                                                                ",
"                                                                                                                                ",
"                                                                                                                                ",
"                                                                                                                                ",
"                                                                                                                                ",
"                                                                                                                                ",
"                                                                                                                                ",
"                                                                                                                                ",
"                                                                                                                                ",
"                                                                                                                                "};
