/* XPM */
static char * l2_xpm[] = {
"64 64 296 2",
"  	c #AADA50",
". 	c #606EC8",
"+ 	c #616FCB",
"@ 	c #616FCA",
"# 	c #5C69C0",
"$ 	c #3E4680",
"% 	c #515DAA",
"& 	c #5A66BB",
"* 	c #606ECA",
"= 	c #5764B7",
"- 	c #505CA8",
"; 	c #5C6AC2",
"> 	c #5A67BC",
", 	c #606EC9",
"' 	c #4F5AA6",
") 	c #525DAB",
"! 	c #5D6AC2",
"~ 	c #5864B7",
"{ 	c #5865B9",
"] 	c #5662B4",
"^ 	c #4E59A3",
"/ 	c #495398",
"( 	c #5F6CC6",
"_ 	c #5F6DC7",
": 	c #5864B8",
"< 	c #5F6DC8",
"[ 	c #5763B6",
"} 	c #434B8A",
"| 	c #4F5AA4",
"1 	c #606DC8",
"2 	c #3C427A",
"3 	c #535FAF",
"4 	c #434C8B",
"5 	c #404884",
"6 	c #5B68BE",
"7 	c #535EAD",
"8 	c #575B9E",
"9 	c #724C4A",
"0 	c #525491",
"a 	c #525EAC",
"b 	c #454E8F",
"c 	c #3D437B",
"d 	c #424A88",
"e 	c #5B68BF",
"f 	c #5460B0",
"g 	c #B78B74",
"h 	c #F2B391",
"i 	c #D2957D",
"j 	c #876762",
"k 	c #3E457F",
"l 	c #475093",
"m 	c #42467D",
"n 	c #654449",
"o 	c #5F4261",
"p 	c #505BA7",
"q 	c #4F5AA5",
"r 	c #7B4B45",
"s 	c #432A27",
"t 	c #6E434D",
"u 	c #4E58A2",
"v 	c #585481",
"w 	c #EAB796",
"x 	c #C49A7F",
"y 	c #464B88",
"z 	c #4D58A1",
"A 	c #B29891",
"B 	c #9D97A3",
"C 	c #654653",
"D 	c #BAA18F",
"E 	c #F6B392",
"F 	c #C2937A",
"G 	c #454A88",
"H 	c #FCD4A9",
"I 	c #C4A7B5",
"J 	c #C2B1C9",
"K 	c #B8937F",
"L 	c #535A9B",
"M 	c #D9B191",
"N 	c #E9A68A",
"O 	c #6D475A",
"P 	c #FDD6AA",
"Q 	c #FBD7AD",
"R 	c #F9CBA6",
"S 	c #BDA589",
"T 	c #73517A",
"U 	c #A67564",
"V 	c #906157",
"W 	c #3C3E6E",
"X 	c #3C457D",
"Y 	c #4A559B",
"Z 	c #4A5499",
"` 	c #EBBF9A",
" .	c #FCD0A6",
"..	c #BD9B80",
"+.	c #414379",
"@.	c #804752",
"#.	c #C36C6E",
"$.	c #4E2C3B",
"%.	c #373C6D",
"&.	c #3C447C",
"*.	c #424B89",
"=.	c #BF736C",
"-.	c #A85B5F",
";.	c #C66E71",
">.	c #B46975",
",.	c #88576F",
"'.	c #473E5F",
").	c #373D6F",
"!.	c #B36770",
"~.	c #C87073",
"{.	c #9B7E9B",
"].	c #BCBFD6",
"^.	c #929AC7",
"/.	c #878EB9",
"(.	c #5C577A",
"_.	c #393E6F",
":.	c #D9BB99",
"<.	c #DFA48D",
"[.	c #9D829E",
"}.	c #CFD3E9",
"|.	c #A992A3",
"1.	c #DEB69A",
"2.	c #FBDCB0",
"3.	c #F2BF9B",
"4.	c #6B475A",
"5.	c #F1F4FB",
"6.	c #B2B5CC",
"7.	c #966F7B",
"8.	c #9D9FB5",
"9.	c #DAE0F4",
"0.	c #B8BED3",
"a.	c #EBBD9C",
"b.	c #FFDFB0",
"c.	c #FFE0B1",
"d.	c #FFDEB0",
"e.	c #C6977D",
"f.	c #3D3E6E",
"g.	c #F2F4F9",
"h.	c #E7EAF7",
"i.	c #E9EBF6",
"j.	c #EEF2FC",
"k.	c #FAFAFB",
"l.	c #FDFDFE",
"m.	c #FDFEFF",
"n.	c #C2C4D3",
"o.	c #CC887C",
"p.	c #FAD0A6",
"q.	c #F7CFA5",
"r.	c #503E54",
"s.	c #3D457D",
"t.	c #F4F6FC",
"u.	c #C9CBD6",
"v.	c #CBD0E6",
"w.	c #FEFEFE",
"x.	c #FFFFFF",
"y.	c #EAEBF4",
"z.	c #BC8B91",
"A.	c #E0B292",
"B.	c #FBDCAE",
"C.	c #6B484B",
"D.	c #3C437B",
"E.	c #BAC2E9",
"F.	c #ABADC3",
"G.	c #F4F6FB",
"H.	c #FEFFFF",
"I.	c #FCFCFD",
"J.	c #8E92B6",
"K.	c #CE9B86",
"L.	c #BB9379",
"M.	c #9CA6D6",
"N.	c #898EB8",
"O.	c #F2F4FA",
"P.	c #EAF0FD",
"Q.	c #F7F9FE",
"R.	c #F8F9FE",
"S.	c #B6BFDB",
"T.	c #988AA9",
"U.	c #717EA9",
"V.	c #777EA9",
"W.	c #ADB6DB",
"X.	c #B5BEE2",
"Y.	c #EDF1FC",
"Z.	c #D6DAEB",
"`.	c #F5F7FD",
" +	c #DCE2F6",
".+	c #9098C5",
"++	c #8884A6",
"@+	c #EDBB99",
"#+	c #7B84B1",
"$+	c #848AB7",
"%+	c #96A0CC",
"&+	c #D1D6F0",
"*+	c #A9B1E1",
"=+	c #BDC6E5",
"-+	c #8894C2",
";+	c #8081AB",
">+	c #CBA989",
",+	c #F6C39D",
"'+	c #616287",
")+	c #A7B0D6",
"!+	c #B6BED5",
"~+	c #FEFEFF",
"{+	c #E4E8F7",
"]+	c #9EA8D8",
"^+	c #BAC3E2",
"/+	c #777FA8",
"(+	c #7475A0",
"_+	c #C0A686",
":+	c #D38F80",
"<+	c #A2869D",
"[+	c #B7C1DB",
"}+	c #FAFAFC",
"|+	c #EBEFFA",
"1+	c #8E96C3",
"2+	c #ADB3CD",
"3+	c #B68B8A",
"4+	c #9A829A",
"5+	c #C1A687",
"6+	c #F7C39D",
"7+	c #F5A489",
"8+	c #BA817F",
"9+	c #888FBC",
"0+	c #BDC3DA",
"a+	c #C9CCDC",
"b+	c #CDCFDE",
"c+	c #D1D5E6",
"d+	c #D3D4E5",
"e+	c #D7DCF0",
"f+	c #BF8D7A",
"g+	c #F9C49E",
"h+	c #F0A086",
"i+	c #E18E7F",
"j+	c #B97673",
"k+	c #C1AA99",
"l+	c #CBBCB4",
"m+	c #A8A9C0",
"n+	c #C9C9D2",
"o+	c #D5D7E6",
"p+	c #EAEDF6",
"q+	c #C8887A",
"r+	c #F7B191",
"s+	c #F8B896",
"t+	c #E89782",
"u+	c #C3756C",
"v+	c #C1947A",
"w+	c #FBDCAF",
"x+	c #FBDDB0",
"y+	c #E2C8A7",
"z+	c #AFA7B3",
"A+	c #A17A83",
"B+	c #EFBB99",
"C+	c #CF8373",
"D+	c #C47E6D",
"E+	c #E6B996",
"F+	c #CCA989",
"G+	c #E79883",
"H+	c #FCD6AA",
"I+	c #FFDFB1",
"J+	c #FED9AC",
"K+	c #F9D3A7",
"L+	c #A36B5E",
"M+	c #FBDBAD",
"N+	c #F9D4A8",
"O+	c #B27467",
"P+	c #D78B7A",
"Q+	c #FCDBAD",
"R+	c #FBCDA4",
"S+	c #F1BF9B",
"T+	c #F9D7AB",
"U+	c #D89A7F",
"V+	c #AF6D62",
"W+	c #A66B5E",
"X+	c #F4BF9A",
"Y+	c #DEA187",
"Z+	c #F6AE8F",
"`+	c #D08775",
" @	c #EA9F85",
".@	c #DA917A",
"+@	c #BD7C6A",
"@@	c #CA8070",
"#@	c #DE927C",
"$@	c #F6C79F",
"%@	c #FBD4A9",
"&@	c #F3A288",
"*@	c #EFA086",
"=@	c #C07E6B",
"-@	c #F4BF99",
";@	c #FEDDAF",
">@	c #F9C29C",
",@	c #DB8E7C",
"'@	c #E79782",
")@	c #F4A389",
"!@	c #F5A78B",
"~@	c #F5A589",
"{@	c #F1A187",
"]@	c #E79781",
"                                                                                                                                ",
"                                                                                                                                ",
"                                                                                                                                ",
"                                                                                                                                ",
"                                                                                                                                ",
"                                                                                                                                ",
"                                                                                                                                ",
"                                                                                                                                ",
"                                                                                                                                ",
"                                                          . + + + @ #                                                           ",
"                                                      $ % & * + + + + @                                                         ",
"                                                  = = - ; # > , + + + + .                                                       ",
"                                                ' @ @ ) , ! ~ ' + + + + +                                                       ",
"                                                { + + ] , @ ^ / ( + + + + _                                                     ",
"                                                : + + ) < + [ } | + + + + 1                                                     ",
"                                                ^ ! . 2 3 # ' 4 5 6 + + + !                                                     ",
"                                                  7 8 9 0 ^ a b c d e * , f                                                     ",
"                                                    g h i j k l m n o | p q                                                     ",
"                                                      r s t u q v w x y q q z                                                   ",
"                                                      A B C u ^ D E F G q q ^                                                   ",
"                                                    H I J K u L M N O d | q q                                                   ",
"                                                    P Q R S z T U V W X Y q q Z                                                 ",
"                                                      `  ...+.@.#.$.%.&.*.| q ^                                                 ",
"                                                          =.-.;.>.,.'.).X Y q q                                                 ",
"                                                          !.~.{.].^./.(._.*.| q                                                 ",
"                                                        :.<.[.}.|.1.2.3.4.&.Y q                                                 ",
"                                                    5.6.7.8.9.0.a.b.c.d.e.f.*.|                                                 ",
"                                                g.h.i.j.k.l.m.n.o.p.c.c.q.r.s.z                                                 ",
"                                                t.u.v.w.x.x.x.y.z.A.c.c.B.C.D.b                                                 ",
"                                                E.F.G.H.H.x.x.I.J.K.b.c.b.L.                                                    ",
"                                                M.N.O.P.Q.R.x.m.S.T.B.c.c.                                                      ",
"                                                U.V.W.X.Y.Z.`. +.+++q.c.c.@+                                                    ",
"                                                  #+$+%+`.&+*+=+-+;+>+c.c.,+                                                    ",
"                                                  '+)+!+~+{+]+^+/+(+_+c.c.,+                                                    ",
"                                                  :+<+[+}+|+1+2+3+4+5+c.c.6+                                                    ",
"                                                  7+8+9+0+a+b+c+d+e+f+P c.g+                                                    ",
"                                                h+i+j+k+l+m+n+o+t.p+q+r+ .s+                                                    ",
"                                                t+u+v+b.c.w+x+y+z+A+B+d.b.P                                                     ",
"                                                C+D+E+c.c.c.c.c.F+G+H+I+c.J+K+                                                  ",
"                                                  L+M+c.c.c.c.N+O+P+Q+R+d.S+T+                                                  ",
"                                                    b.c.c.c.P U+V+W+X+Y+Z+`+ @                                                  ",
"                                                    c.c.c.P       .@+@@@#@                                                      ",
"                                                  $@c.b.%@        &@*@=@                                                        ",
"                                                  -@;@>@,@        '@7+7+)@                                                      ",
"                                                    !@~@7+h+        7+7+7+'@                                                    ",
"                                                    &@7+7+)@        &@7+7+{@                                                    ",
"                                                    '@7+7+&@        '@7+7+'@                                                    ",
"                                                      7+7+{@          7+7+                                                      ",
"                                                      7+7+'@          7+7+                                                      ",
"                                                      7+7+          )@7+7+                                                      ",
"                                                    )@7+&@          {@]@                                                        ",
"                                                    h+                                                                          ",
"                                                                                                                                ",
"                                                                                                                                ",
"                                                                                                                                ",
"                                                                                                                                ",
"                                                                                                                                ",
"                                                                                                                                ",
"                                                                                                                                ",
"                                                                                                                                ",
"                                                                                                                                ",
"                                                                                                                                ",
"                                                                                                                                ",
"                                                                                                                                "};
