/* XPM */
static char * l3_xpm[] = {
"64 64 299 2",
"  	c #AADA50",
". 	c #5F6DC7",
"+ 	c #5B68BF",
"@ 	c #5460B1",
"# 	c #606EC9",
"$ 	c #616FCB",
"% 	c #616FCA",
"& 	c #464F91",
"* 	c #465093",
"= 	c #4F5AA4",
"- 	c #5865B9",
"; 	c #5966BA",
"> 	c #5D6AC2",
", 	c #606DC8",
"' 	c #5F6DC8",
") 	c #4A559B",
"! 	c #5A67BC",
"~ 	c #5B69BF",
"{ 	c #5763B6",
"] 	c #5864B7",
"^ 	c #606ECA",
"/ 	c #4E59A3",
"( 	c #4A549A",
"_ 	c #5965B9",
": 	c #535FAD",
"< 	c #5561B2",
"[ 	c #4B559C",
"} 	c #5662B4",
"| 	c #5460B0",
"1 	c #4A5499",
"2 	c #535FAE",
"3 	c #434C8B",
"4 	c #495398",
"5 	c #606EC8",
"6 	c #2F335B",
"7 	c #5460AF",
"8 	c #404883",
"9 	c #3D447C",
"0 	c #505BA6",
"a 	c #3E457E",
"b 	c #8F7486",
"c 	c #B88D75",
"d 	c #8F6F70",
"e 	c #48497D",
"f 	c #353B6A",
"g 	c #424A88",
"h 	c #3E447D",
"i 	c #373762",
"j 	c #4B5296",
"k 	c #505BA7",
"l 	c #CD8E77",
"m 	c #B37864",
"n 	c #A07068",
"o 	c #4C579F",
"p 	c #4F5AA5",
"q 	c #4C4D80",
"r 	c #C4A183",
"s 	c #A5746A",
"t 	c #4C5499",
"u 	c #4D58A2",
"v 	c #4A3733",
"w 	c #574C58",
"x 	c #77464C",
"y 	c #494C89",
"z 	c #4F4B7F",
"A 	c #EAA58A",
"B 	c #C1A282",
"C 	c #3F457E",
"D 	c #ECB695",
"E 	c #D6B3AC",
"F 	c #BEBAC5",
"G 	c #E0A98F",
"H 	c #535081",
"I 	c #585180",
"J 	c #E8A58A",
"K 	c #9D6860",
"L 	c #40457C",
"M 	c #FEDDAF",
"N 	c #E1C0BC",
"O 	c #DEAFB6",
"P 	c #FAD9AC",
"Q 	c #545482",
"R 	c #4E58A2",
"S 	c #B69688",
"T 	c #D6977D",
"U 	c #5E4266",
"V 	c #3C447C",
"W 	c #465092",
"X 	c #F5C09A",
"Y 	c #FDDCAE",
"Z 	c #FADBAD",
"` 	c #535380",
" .	c #4E4D88",
"..	c #9A575A",
"+.	c #4A2E3B",
"@.	c #3A4278",
"#.	c #3D467F",
"$.	c #E0A386",
"%.	c #F5BD97",
"&.	c #E8A78B",
"*.	c #6D4049",
"=.	c #B06368",
"-.	c #C76F72",
";.	c #854851",
">.	c #393053",
",.	c #3B4379",
"'.	c #A0565A",
").	c #C87072",
"!.	c #B56B77",
"~.	c #A996AE",
"{.	c #8586B1",
"].	c #7279A3",
"^.	c #4E5577",
"/.	c #373D6F",
"(.	c #3D457F",
"_.	c #DFA48C",
":.	c #C27F81",
"<.	c #B8B8D2",
"[.	c #A9ACC0",
"}.	c #C4ADAC",
"|.	c #C8B7B0",
"1.	c #C7B4AC",
"2.	c #8E6667",
"3.	c #3C4379",
"4.	c #475093",
"5.	c #E1E5F3",
"6.	c #B4BCD2",
"7.	c #AB9B95",
"8.	c #98849D",
"9.	c #D3D8E8",
"0.	c #ECF0FA",
"a.	c #C3A29D",
"b.	c #FCD6AA",
"c.	c #FFE0B1",
"d.	c #E4B794",
"e.	c #483D63",
"f.	c #424B89",
"g.	c #F2F4F9",
"h.	c #E7EBF8",
"i.	c #F2F5FC",
"j.	c #E5E9F7",
"k.	c #EEF2FB",
"l.	c #FBFBFC",
"m.	c #FEFEFF",
"n.	c #F4F6FB",
"o.	c #BF9596",
"p.	c #E8AD91",
"q.	c #FFDFB0",
"r.	c #FBDBAD",
"s.	c #6D4D5D",
"t.	c #3D457D",
"u.	c #F3F5FB",
"v.	c #F4F6FC",
"w.	c #B9C2E3",
"x.	c #EFF3FD",
"y.	c #FFFFFF",
"z.	c #FDFDFE",
"A.	c #AEB0C2",
"B.	c #B87B78",
"C.	c #FCDCAE",
"D.	c #BB937A",
"E.	c #ACB7D9",
"F.	c #D5D8EE",
"G.	c #A7B1D5",
"H.	c #C3CCE8",
"I.	c #F0F4FD",
"J.	c #EDEEF8",
"K.	c #FEFFFF",
"L.	c #E0E4F4",
"M.	c #8B7FA2",
"N.	c #E5B896",
"O.	c #CBAA8A",
"P.	c #41447A",
"Q.	c #9BA5D5",
"R.	c #A3ABDE",
"S.	c #919CCC",
"T.	c #9AA4D0",
"U.	c #EBEFFA",
"V.	c #B4BDE1",
"W.	c #E4E8F7",
"X.	c #A9B1E0",
"Y.	c #707BA5",
"Z.	c #C1A687",
"`.	c #F6C8A0",
" +	c #8D97C6",
".+	c #8C99C5",
"++	c #98A1D3",
"@+	c #9FA9D7",
"#+	c #EAEFFA",
"$+	c #8E99C5",
"%+	c #A4ADD9",
"&+	c #F3F5FC",
"*+	c #ACB6D8",
"=+	c #FDDDAF",
"-+	c #8180A7",
";+	c #8A98C3",
">+	c #8288B5",
",+	c #7B8AB4",
"'+	c #DFE3F3",
")+	c #8E9AC4",
"!+	c #8C98C2",
"~+	c #FAFBFC",
"{+	c #E3EAF9",
"]+	c #997D90",
"^+	c #FCDDAF",
"/+	c #E3937F",
"(+	c #E28E7F",
"_+	c #EC9A84",
":+	c #D99994",
"<+	c #5C6493",
"[+	c #C3C7D8",
"}+	c #B5BFD8",
"|+	c #7881A9",
"1+	c #D9DFF3",
"2+	c #BCC5E2",
"3+	c #967992",
"4+	c #8E8CB5",
"5+	c #E5BA98",
"6+	c #FFDEB0",
"7+	c #E0917D",
"8+	c #F1A187",
"9+	c #ED9E85",
"0+	c #56557A",
"a+	c #72799E",
"b+	c #8F91B7",
"c+	c #A291AD",
"d+	c #ADB7D7",
"e+	c #CBCFDF",
"f+	c #CDD2EC",
"g+	c #A1AAD0",
"h+	c #C3A88B",
"i+	c #BAC2DE",
"j+	c #BBBECF",
"k+	c #C3C1C8",
"l+	c #CACCD9",
"m+	c #E1E4F3",
"n+	c #FBFBFD",
"o+	c #FCFCFE",
"p+	c #BDC3D9",
"q+	c #AE8793",
"r+	c #E89A84",
"s+	c #E1C7A6",
"t+	c #FBDDB0",
"u+	c #FBDCAF",
"v+	c #F9DBB0",
"w+	c #CAB6A8",
"x+	c #B5ACB8",
"y+	c #AEB5D4",
"z+	c #9EA6C8",
"A+	c #847FA3",
"B+	c #DEAF8D",
"C+	c #FAC49D",
"D+	c #F3A389",
"E+	c #FDDEB0",
"F+	c #F5D2A9",
"G+	c #686082",
"H+	c #A1716F",
"I+	c #FBDAAD",
"J+	c #FFDEAF",
"K+	c #FAC29C",
"L+	c #FDDDAE",
"M+	c #FDD7AA",
"N+	c #DDA688",
"O+	c #D38C77",
"P+	c #C6A786",
"Q+	c #FBCDA4",
"R+	c #F3AA8D",
"S+	c #FFDFB1",
"T+	c #F9D0A6",
"U+	c #CB8F78",
"V+	c #DA917A",
"W+	c #E4AD8D",
"X+	c #DBA288",
"Y+	c #F0B796",
"Z+	c #F5A589",
"`+	c #F8CFA5",
" @	c #EF9F86",
".@	c #F5A489",
"+@	c #BF7E6B",
"@@	c #986256",
"#@	c #EFB898",
"$@	c #E0937D",
"%@	c #F9D4A8",
"&@	c #F1A087",
"*@	c #FBD4A9",
"=@	c #F9C9A1",
"-@	c #F6AD8F",
";@	c #FAC49E",
">@	c #F9BC98",
",@	c #E79882",
"'@	c #F3A288",
")@	c #F4A389",
"!@	c #E79782",
"~@	c #E89782",
"{@	c #F0A086",
"]@	c #D48677",
"^@	c #E69681",
"/@	c #EFA086",
"(@	c #ED9E84",
"                                                                                                                                ",
"                                                                                                                                ",
"                                                                                                                                ",
"                                                                                                                                ",
"                                                                                                                                ",
"                                                                                                                                ",
"                                                                                                                                ",
"                                                                                                                                ",
"                                                                                                                                ",
"                                                            . . . +                                                             ",
"                                                        @ # $ $ $ $ % +                                                         ",
"                                                  & * = - ; > $ $ $ $ $ +                                                       ",
"                                                  , ' ) ' ! ~ { $ $ $ $ %                                                       ",
"                                                ] $ $ - ^ # / ( # $ $ $ $ +                                                     ",
"                                                _ $ $ : # $ < [ } $ $ $ $ .                                                     ",
"                                                | ^ % 1 + ^ 2 3 4 # $ $ $ 5                                                     ",
"                                                ( _ + 6 ( 7 / 8 9 0 ^ $ $ _                                                     ",
"                                                  a b c d e f g h i j - - k                                                     ",
"                                                      l m n o p q r s t p p u                                                   ",
"                                                      v w x y p z A B C p p =                                                   ",
"                                                    D E F G H p I J K L / p p                                                   ",
"                                                    M N O P Q R S T U V W p p u                                                 ",
"                                                    X Y M Z `  ...+.@.V #./ p =                                                 ",
"                                                      $.%.&.*.=.-.;.>.,.V W p p                                                 ",
"                                                          '.).!.~.{.].^./.(./ p u                                               ",
"                                                          _.:.<.[.}.|.1.2.3.4.p u                                               ",
"                                                    5.6.7.8.9.0.a.b.c.c.d.e.f.=                                                 ",
"                                                g.h.i.j.k.l.m.n.o.p.q.c.r.s.t./                                                 ",
"                                                u.v.w.x.m.y.y.z.A.B.C.c.q.D.9                                                   ",
"                                                E.F.G.H.I.J.y.K.L.M.N.c.c.O.P.                                                  ",
"                                                Q.R.S.T.U.V.W.x.X.Y.Z.c.c.`.                                                    ",
"                                                 +.+++@+#+$+%+&+*+    =+c.Z                                                     ",
"                                                -+;+>+,+'+)+!+~+{+]+  Z c.^+                                                    ",
"                                          /+(+_+:+    <+[+}+|+1+2+3+4+5+c.6+                                                    ",
"                                          7+8+8+9+    0+a+b+c+d+e+f+g+h+c.6+                                                    ",
"                                                      i+j+k+l+m+n+o+p+q+b.M r+                                                  ",
"                                                      s+t+u+v+w+x+y+z+A+B+C+D+                                                  ",
"                                                    `.c.c.c.c.c.E+F+G+H+I+J+K+                                                  ",
"                                                    L+c.c.c.c.c.M+N+O+P+Q+6+M R+                                                ",
"                                                    S+c.c.c.c.T+U+V+V+W+X+I+Y+Z+                                                ",
"                                                    c.c.c.c.`+   @.@V++@@@  #@$@                                                ",
"                                                  %@c.c.c.`+    &@.@.@8+                                                        ",
"                                                  *@c.q.=@        .@.@.@8+                                                      ",
"                                                  -@;@>@,@        '@.@.@)@                                                      ",
"                                                  .@.@.@            .@.@.@.@                                                    ",
"                                                !@.@.@)@              .@.@.@                                                    ",
"                                                8+.@.@~@                .@.@{@                                                  ",
"                                                8+.@)@                    )@'@                                                  ",
"                                                )@.@                        .@]@                                                ",
"                                              ~@.@'@                        .@^@                                                ",
"                                              )@.@/@                      (@8+                                                  ",
"                                            /+!@                                                                                ",
"                                                                                                                                ",
"                                                                                                                                ",
"                                                                                                                                ",
"                                                                                                                                ",
"                                                                                                                                ",
"                                                                                                                                ",
"                                                                                                                                ",
"                                                                                                                                ",
"                                                                                                                                ",
"                                                                                                                                ",
"                                                                                                                                ",
"                                                                                                                                "};
