/* XPM */
static char * l4_xpm[] = {
"64 64 278 2",
"  	c #AADA50",
". 	c #5F6DC7",
"+ 	c #5B68BF",
"@ 	c #5460B1",
"# 	c #606EC9",
"$ 	c #616FCB",
"% 	c #616FCA",
"& 	c #465092",
"* 	c #4F5AA4",
"= 	c #5865B9",
"- 	c #5966BA",
"; 	c #5D6AC2",
"> 	c #5F6DC8",
", 	c #4A559B",
"' 	c #5A67BC",
") 	c #5C69C0",
"! 	c #5763B6",
"~ 	c #606EC8",
"{ 	c #5561B2",
"] 	c #4B559C",
"^ 	c #5764B7",
"/ 	c #535FAD",
"( 	c #495499",
"_ 	c #535FAE",
": 	c #5662B4",
"< 	c #606ECA",
"[ 	c #4A5499",
"} 	c #475092",
"| 	c #454E8F",
"1 	c #5965B9",
"2 	c #34355D",
"3 	c #4E59A4",
"4 	c #5460B0",
"5 	c #444D8E",
"6 	c #4D57A0",
"7 	c #343A68",
"8 	c #505BA8",
"9 	c #4A549A",
"0 	c #57558B",
"a 	c #BC8C75",
"b 	c #545289",
"c 	c #4E59A2",
"d 	c #515DAA",
"e 	c #3E4680",
"f 	c #333763",
"g 	c #383865",
"h 	c #4B5296",
"i 	c #505BA7",
"j 	c #CD8E77",
"k 	c #83574D",
"l 	c #694051",
"m 	c #3E457F",
"n 	c #495398",
"o 	c #61404D",
"p 	c #C5A183",
"q 	c #A5746A",
"r 	c #4C5499",
"s 	c #4F5AA5",
"t 	c #4A3733",
"u 	c #564B58",
"v 	c #3E2C3F",
"w 	c #4E58A2",
"x 	c #B9917C",
"y 	c #EFA98D",
"z 	c #C1A282",
"A 	c #40457F",
"B 	c #ECB695",
"C 	c #D6B3AC",
"D 	c #BDBAC4",
"E 	c #9B6F6C",
"F 	c #55548B",
"G 	c #F2BD99",
"H 	c #EDA98D",
"I 	c #9E6961",
"J 	c #484F8F",
"K 	c #4D58A2",
"L 	c #FEDDAF",
"M 	c #E1C0BC",
"N 	c #DEAFB6",
"O 	c #BDA387",
"P 	c #514E80",
"Q 	c #E2B793",
"R 	c #D6977D",
"S 	c #5E4366",
"T 	c #3D457F",
"U 	c #4E59A3",
"V 	c #F5C09A",
"W 	c #FDDCAE",
"X 	c #BDA689",
"Y 	c #764962",
"Z 	c #9E585A",
"` 	c #4B2E3B",
" .	c #3A4278",
"..	c #3C447C",
"+.	c #475093",
"@.	c #E0A386",
"#.	c #F6BD97",
"$.	c #B78572",
"%.	c #4F477B",
"&.	c #AF6268",
"*.	c #C86F72",
"=.	c #854851",
"-.	c #393052",
";.	c #3B437A",
">.	c #424B89",
",.	c #9D5863",
"'.	c #C36D71",
").	c #A3697A",
"!.	c #9880A4",
"~.	c #8384B0",
"{.	c #68678D",
"].	c #3D406E",
"^.	c #3D457D",
"/.	c #D28B7F",
"(.	c #9E829E",
"_.	c #C8CCDF",
":.	c #9DA3BD",
"<.	c #C6B5B0",
"[.	c #A49BA4",
"}.	c #656584",
"|.	c #3C3E6B",
"1.	c #A998A9",
"2.	c #C29985",
"3.	c #BDB2B4",
"4.	c #E8ECF7",
"5.	c #AA97A5",
"6.	c #F4C5A0",
"7.	c #FFDFB0",
"8.	c #FDDEB0",
"9.	c #F6D8AC",
"0.	c #4F3E45",
"a.	c #3D447D",
"b.	c #D9DFF2",
"c.	c #E9EBF6",
"d.	c #C8C9D3",
"e.	c #C9CAD4",
"f.	c #FAFBFC",
"g.	c #FAFAFC",
"h.	c #C19D9B",
"i.	c #DC8C7F",
"j.	c #FFE0B1",
"k.	c #FBDCAE",
"l.	c #6B484B",
"m.	c #CDD3ED",
"n.	c #D3D7E9",
"o.	c #DDE2F5",
"p.	c #FCFDFE",
"q.	c #FFFFFF",
"r.	c #FDFDFE",
"s.	c #AFB0C2",
"t.	c #B77978",
"u.	c #FCDBAE",
"v.	c #BB9379",
"w.	c #373C6D",
"x.	c #CBD1EC",
"y.	c #B7BED8",
"z.	c #B5BBD7",
"A.	c #DEE4F6",
"B.	c #FEFEFF",
"C.	c #F3F6FB",
"D.	c #8E809E",
"E.	c #E5B895",
"F.	c #CBAA89",
"G.	c #8F9ACA",
"H.	c #AAB1CD",
"I.	c #F6F9FD",
"J.	c #FDFEFF",
"K.	c #FEFFFF",
"L.	c #DBE0F5",
"M.	c #7F85AE",
"N.	c #C2A688",
"O.	c #F7CFA5",
"P.	c #7A82AD",
"Q.	c #B6BEE5",
"R.	c #FCFCFE",
"S.	c #E0E5F8",
"T.	c #DDE3F7",
"U.	c #FBFCFE",
"V.	c #B1B9DE",
"W.	c #909ACA",
"X.	c #B08A96",
"Y.	c #FDDDAF",
"Z.	c #97A0D0",
"`.	c #8591C0",
" +	c #D6DDED",
".+	c #F4F6FC",
"++	c #A0AAD3",
"@+	c #E6EDFB",
"#+	c #D7DDEE",
"$+	c #A7AFDF",
"%+	c #817F9D",
"&+	c #FADCAE",
"*+	c #848EBA",
"=+	c #68729A",
"-+	c #B6BDD8",
";+	c #F4F7FD",
">+	c #BEC7E5",
",+	c #C2CBE7",
"'+	c #F9FAFD",
")+	c #B9BED1",
"!+	c #5D5065",
"~+	c #CD8780",
"{+	c #906877",
"]+	c #8E6F82",
"^+	c #969AB4",
"/+	c #AAB0C8",
"(+	c #959FBF",
"_+	c #868FB8",
":+	c #7F88B5",
"<+	c #8885A6",
"[+	c #FADBAD",
"}+	c #E49180",
"|+	c #F2A287",
"1+	c #A57988",
"2+	c #ADB4D8",
"3+	c #C3C7D7",
"4+	c #D0D3E8",
"5+	c #CBCFE1",
"6+	c #C4C8D8",
"7+	c #DDE1F3",
"8+	c #BCBFD7",
"9+	c #E6BB99",
"0+	c #C1746C",
"a+	c #F0A086",
"b+	c #C2756D",
"c+	c #686385",
"d+	c #B0A8B5",
"e+	c #CAB7A8",
"f+	c #C7B19C",
"g+	c #B6AEB9",
"h+	c #BAC1DE",
"i+	c #C4AB8D",
"j+	c #FFDEB0",
"k+	c #C0736B",
"l+	c #BEA384",
"m+	c #DDBB9D",
"n+	c #C3A887",
"o+	c #FFDFB1",
"p+	c #EBB192",
"q+	c #DCA687",
"r+	c #C19C7E",
"s+	c #F8C39D",
"t+	c #F8CFA5",
"u+	c #AE6D62",
"v+	c #BB776B",
"w+	c #FCD6AA",
"x+	c #EEA58A",
"y+	c #DB8B7A",
"z+	c #F6C8A0",
"A+	c #CE9B80",
"B+	c #DB8E7A",
"C+	c #A35C5B",
"D+	c #EDB292",
"E+	c #F4AB8D",
"F+	c #DB8B7B",
"G+	c #EF9F86",
"H+	c #CA8572",
"I+	c #F5A489",
"J+	c #D99079",
"K+	c #DF927D",
"L+	c #CD8272",
"M+	c #CB9A7F",
"N+	c #EF9F85",
"O+	c #EA9883",
"P+	c #F7C7A0",
"Q+	c #F8C8A0",
"R+	c #EFA086",
"S+	c #E79983",
"T+	c #F9BC98",
"U+	c #FAC59F",
"V+	c #F9BC99",
"W+	c #F1A388",
"X+	c #F1A187",
"Y+	c #F3A288",
"Z+	c #EA9983",
"`+	c #F4A389",
" @	c #F2A187",
".@	c #E79782",
"                                                                                                                                ",
"                                                                                                                                ",
"                                                                                                                                ",
"                                                                                                                                ",
"                                                                                                                                ",
"                                                                                                                                ",
"                                                                                                                                ",
"                                                                                                                                ",
"                                                                                                                                ",
"                                                            . . . +                                                             ",
"                                                        @ # $ $ $ $ % +                                                         ",
"                                                    & * = - ; $ $ $ $ $ +                                                       ",
"                                                  . > , > ' ) ! $ $ $ $ %                                                       ",
"                                                  $ $ = # ~ { ] # $ $ $ $ +                                                     ",
"                                                ^ $ $ / ~ # ( _ : $ $ $ $ >                                                     ",
"                                                _ < % [ + < } { | < $ $ $ ~                                                     ",
"                                                  1 + 2 3 4 5 6 7 8 < $ $ 1                                                     ",
"                                                  9 0 a b c d e f g h = = i                                                     ",
"                                                      j k l m n o p q r s s                                                     ",
"                                                      t u v w w x y z A s s                                                     ",
"                                                    B C D E w F G H I J s s K                                                   ",
"                                                    L M N O w P Q R S T U s U                                                   ",
"                                                    V W L X 6 Y Z `  ...+.s s                                                   ",
"                                                      @.#.$.%.&.*.=.-.;.>.* s                                                   ",
"                                                          ,.'.).!.~.{.].^.U s                                                   ",
"                                                          /.(._.:.<.[.}.|.& s c                                                 ",
"                                                      1.2.3.4.5.6.7.8.9.0.a.U *                                                 ",
"                                                  b.c.d.e.f.g.h.i.L j.k.l.;.+.s                                                 ",
"                                                m.n.o.p.q.q.r.s.t.u.j.7.v.w.  s                                                 ",
"                                                x.y.z.A.B.q.q.C.D.E.j.j.F.    K                                                 ",
"                                                  G.H.I.J.K.K.L.M.N.j.j.O.                                                      ",
"                                                  P.Q.R.S.T.U.V.W.X.Y.j.k.                                                      ",
"                                                  Z.`. +.+++@+#+$+%+&+j.k.                                                      ",
"                                                  *+=+-+;+>+,+'+)+!+&+j.k.                                                      ",
"                                                  ~+{+]+^+/+(+_+:+<+[+j.k.                                                      ",
"                                                }+|+1+2+3+4+5+6+7+8+9+j.L                                                       ",
"                                              0+a+b+c+d+e+f+f+e+g+h+i+j.j+                                                      ",
"                                                k+  l+8.j.j.j.j.8.m+n+j.o+p+                                                    ",
"                                                      j.j.j.j.j.7.q+r+o+j.s+                                                    ",
"                                                      j.j.j.j.j.t+u+v+W w+x+y+                                                  ",
"                                                    z+j.j.j.j.7.A+B+C+D+E+F+G+                                                  ",
"                                                    [+j.j.j.j.t+H+I+J+K+L+                                                      ",
"                                                    [+j.j.j.j+M+N+I+I+O+                                                        ",
"                                                    P+o+j.o+Q+    I+I+I+R+                                                      ",
"                                                    S+T+U+V+W+    X+I+I+Y+                                                      ",
"                                                      I+I+I+a+      X+I+I+                                                      ",
"                                                      I+I+I+          X+I+Z+                                                    ",
"                                                      I+I+`+            X+I+ @                                                  ",
"                                                      I+I+ @              X+`+                                                  ",
"                                                      I+I+.@                                                                    ",
"                                                      I+I+                                                                      ",
"                                                     @`+X+                                                                      ",
"                                                                                                                                ",
"                                                                                                                                ",
"                                                                                                                                ",
"                                                                                                                                ",
"                                                                                                                                ",
"                                                                                                                                ",
"                                                                                                                                ",
"                                                                                                                                ",
"                                                                                                                                ",
"                                                                                                                                ",
"                                                                                                                                ",
"                                                                                                                                "};
