/* XPM */
static char * l5_xpm[] = {
"64 64 263 2",
"  	c #AADA50",
". 	c #606DC8",
"+ 	c #616FCB",
"@ 	c #616FCA",
"# 	c #5C69BF",
"$ 	c #3E4680",
"% 	c #515DAA",
"& 	c #5A66BB",
"* 	c #606ECA",
"= 	c #535FAE",
"- 	c #5764B7",
"; 	c #505CA8",
"> 	c #5C6AC2",
", 	c #5C69C0",
"' 	c #5A67BC",
") 	c #606EC9",
"! 	c #606EC8",
"~ 	c #525DAB",
"{ 	c #5D6AC2",
"] 	c #5B68BE",
"^ 	c #505AA6",
"/ 	c #5763B6",
"( 	c #5662B4",
"_ 	c #4E59A3",
": 	c #4B559C",
"< 	c #5F6CC6",
"[ 	c #5F6DC7",
"} 	c #525EAB",
"| 	c #5F6DC8",
"1 	c #4A549B",
"2 	c #5662B3",
"3 	c #4C559D",
"4 	c #3C437A",
"5 	c #475092",
"6 	c #515CA9",
"7 	c #3B4278",
"8 	c #545FAF",
"9 	c #525BA6",
"0 	c #5D434D",
"a 	c #4E58A0",
"b 	c #4F5BA6",
"c 	c #4F5AA5",
"d 	c #464F91",
"e 	c #333866",
"f 	c #424B8A",
"g 	c #5B68BF",
"h 	c #5460B0",
"i 	c #91737B",
"j 	c #EDAF8E",
"k 	c #89616A",
"l 	c #414986",
"m 	c #4A549A",
"n 	c #3E457F",
"o 	c #373255",
"p 	c #65444B",
"q 	c #5E4261",
"r 	c #4F5AA4",
"s 	c #505BA7",
"t 	c #7C4C45",
"u 	c #2D1E1F",
"v 	c #222038",
"w 	c #4C579F",
"x 	c #986762",
"y 	c #EDB897",
"z 	c #C49A7F",
"A 	c #464B88",
"B 	c #B19791",
"C 	c #9D97A2",
"D 	c #654653",
"E 	c #4E58A2",
"F 	c #53589A",
"G 	c #DCB694",
"H 	c #F6B392",
"I 	c #C2937B",
"J 	c #454A87",
"K 	c #FCD4A9",
"L 	c #C5A7B5",
"M 	c #C2B0C9",
"N 	c #B8937F",
"O 	c #535282",
"P 	c #F4C49D",
"Q 	c #E9A68A",
"R 	c #6D475A",
"S 	c #FDD6AA",
"T 	c #FBD7AD",
"U 	c #F9CBA6",
"V 	c #BDA689",
"W 	c #4D58A1",
"X 	c #73517A",
"Y 	c #A67565",
"Z 	c #916157",
"` 	c #3C3E6E",
" .	c #3D467F",
"..	c #4E59A4",
"+.	c #EBBF9A",
"@.	c #FCD0A6",
"#.	c #BB9B81",
"$.	c #4C569D",
"%.	c #7D4855",
"&.	c #C36C6E",
"*.	c #4C2C3C",
"=.	c #3B4279",
"-.	c #3C457D",
";.	c #4A559B",
">.	c #C6917A",
",.	c #A86962",
"'.	c #985660",
").	c #C66E71",
"!.	c #B46975",
"~.	c #7A516A",
"{.	c #373054",
"].	c #3B437A",
"^.	c #464F92",
"/.	c #B56A73",
"(.	c #C76F72",
"_.	c #977998",
":.	c #8186B0",
"<.	c #9096C3",
"[.	c #656E94",
"}.	c #3E4270",
"|.	c #4D58A2",
"1.	c #C6A58A",
"2.	c #EABA99",
"3.	c #8F7D9A",
"4.	c #C8C8D7",
"5.	c #E0C7A7",
"6.	c #F9DBB0",
"7.	c #C3A89E",
"8.	c #605E7E",
"9.	c #3C447C",
"0.	c #FAFBFC",
"a.	c #C7C9D5",
"b.	c #B58F95",
"c.	c #AA99A6",
"d.	c #C1C7E0",
"e.	c #C6AAA1",
"f.	c #FFDFB0",
"g.	c #FFE0B1",
"h.	c #BC9B84",
"i.	c #333764",
"j.	c #4B569D",
"k.	c #E7EAF7",
"l.	c #F4F6FD",
"m.	c #FAFAFC",
"n.	c #F4F6FC",
"o.	c #B4B9D0",
"p.	c #D4867E",
"q.	c #FEDDAF",
"r.	c #C0A685",
"s.	c #323560",
"t.	c #454F91",
"u.	c #475194",
"v.	c #D0D4E6",
"w.	c #D5D8E9",
"x.	c #E6E9F7",
"y.	c #FEFFFF",
"z.	c #FFFFFF",
"A.	c #C8C7D1",
"B.	c #D3897B",
"C.	c #FCDCAF",
"D.	c #B4BCE4",
"E.	c #D0D5E2",
"F.	c #DCE0EC",
"G.	c #8C6B80",
"H.	c #FCDCAE",
"I.	c #70779E",
"J.	c #F9F9FA",
"K.	c #D0D6EF",
"L.	c #9A85A3",
"M.	c #FBDBAE",
"N.	c #C1A685",
"O.	c #D3D7E9",
"P.	c #F7F9FE",
"Q.	c #F5F7FD",
"R.	c #ABB3E3",
"S.	c #8985AB",
"T.	c #E4B895",
"U.	c #C2CBEC",
"V.	c #D7DEEF",
"W.	c #D8DCF0",
"X.	c #F6F8FD",
"Y.	c #A0A9D9",
"Z.	c #9AA2D2",
"`.	c #C2A88B",
" +	c #B2BDDA",
".+	c #A3ABDE",
"++	c #B4BDE0",
"@+	c #F9FAFC",
"#+	c #B5BEE1",
"$+	c #A3ABDD",
"%+	c #97A0CF",
"&+	c #6F729D",
"*+	c #7F8DB8",
"=+	c #EEF2FB",
"-+	c #EBF0FB",
";+	c #A1A7D3",
">+	c #C5907C",
",+	c #FDDDAF",
"'+	c #8890BE",
")+	c #BCC6DF",
"!+	c #AFB9D9",
"~+	c #B3AFC2",
"{+	c #A4918A",
"]+	c #FBDCAE",
"^+	c #F5C29C",
"/+	c #8183AD",
"(+	c #B7B8C6",
"_+	c #C2C0C7",
":+	c #C1C0C7",
"<+	c #918C97",
"[+	c #FADCAE",
"}+	c #F8C9A1",
"|+	c #A1656C",
"1+	c #F6D8AC",
"2+	c #FADCAF",
"3+	c #C4A988",
"4+	c #A66160",
"5+	c #F7CFA5",
"6+	c #FDDEAF",
"7+	c #B99179",
"8+	c #FFDFB1",
"9+	c #E3AD8D",
"0+	c #E69581",
"a+	c #CFAB8A",
"b+	c #BE826E",
"c+	c #F2C29E",
"d+	c #FEDEB0",
"e+	c #F4CDA5",
"f+	c #F5B896",
"g+	c #D48677",
"h+	c #F1A187",
"i+	c #C3967B",
"j+	c #C3987C",
"k+	c #D58778",
"l+	c #E6A68D",
"m+	c #EDAC8F",
"n+	c #E2947E",
"o+	c #E49480",
"p+	c #F4A389",
"q+	c #BD796C",
"r+	c #C69A7D",
"s+	c #DC907B",
"t+	c #CA8070",
"u+	c #F5A489",
"v+	c #C1816D",
"w+	c #F7CEA4",
"x+	c #F9DAAC",
"y+	c #F0A086",
"z+	c #E79782",
"A+	c #CA8F78",
"B+	c #F8C8A0",
"C+	c #BD7C6A",
"D+	c #F6AE8F",
"E+	c #F8BC98",
"F+	c #F4A58A",
"G+	c #F3A288",
"H+	c #F2A187",
"I+	c #B47065",
"J+	c #C6806F",
"K+	c #BE7C6A",
"L+	c #EFA086",
"M+	c #E99883",
"N+	c #ED9E85",
"                                                                                                                                ",
"                                                                                                                                ",
"                                                                                                                                ",
"                                                                                                                                ",
"                                                                                                                                ",
"                                                                                                                                ",
"                                                                                                                                ",
"                                                                                                                                ",
"                                                                                                                                ",
"                                                          . + + + @ #                                                           ",
"                                                      $ % & * + + + + @                                                         ",
"                                                  = - ; > , ' ) + + + + !                                                       ",
"                                                  @ @ ~ ) { ] ^ + + + + +                                                       ",
"                                                / + + ( ) ) _ : < + + + + [                                                     ",
"                                                / + + } | @ 1 2 3 + + + + .                                                     ",
"                                                _ { ! 4 = ! 5 6 7 , + + + {                                                     ",
"                                                  8 9 0 a b c d e f g * ) h                                                     ",
"                                                    i j k l m n o p q r s c                                                     ",
"                                                      t u v n w x y z A c c                                                     ",
"                                                      B C D E F G H I J c c                                                     ",
"                                                    K L M N E O P Q R d c c E                                                   ",
"                                                    S T U V W X Y Z `  ...c r                                                   ",
"                                                      +.@.#.$.%.&.*.=.-.;.c c                                                   ",
"                                                        >.,.'.).!.~.{.].^.c c                                                   ",
"                                                          /.(._.:.<.[.}. ...c |.                                                ",
"                                                        1.2.3.4.5.6.7.8.9...c E                                                 ",
"                                                    0.a.b.c.d.e.f.g.f.h.i.m j.E                                                 ",
"                                                  k.l.k.m.n.o.p.q.g.g.r.s.t.u.|.                                                ",
"                                                v.w.x.y.z.z.A.B.C.g.g.r.s.t.u.                                                  ",
"                                                D.E.z.z.z.z.F.G.H.g.g.r.s.                                                      ",
"                                                I.J.z.z.z.y.K.L.M.g.g.N.                                                        ",
"                                                  O.P.z.z.Q.R.S.T.g.g.                                                          ",
"                                                  U.V.W.X.x.Y.Z.`.g.g.                                                          ",
"                                                     +.+++@+#+$+`.g.g.                                                          ",
"                                                    %+&+*+=+-+;+>+,+g.                                                          ",
"                                                        '+)+!+~+{+]+g.^+                                                        ",
"                                                        /+(+_+:+<+[+g.}+                                                        ",
"                                                        |+1+2+2+3+[+g.q.                                                        ",
"                                                        4+5+g.6+7+H.g.8+9+                                                      ",
"                                                        0+a+g.]+b+c+d+e+f+g+                                                    ",
"                                                        h+i+f.6+j+k+l+m+n+o+                                                    ",
"                                                        p+q+]+g.]+r+s+t+                                                        ",
"                                                        u+v+w+g.g.x+                                                            ",
"                                                        y+z+A+q.f.B+                                                            ",
"                                                            C+D+E+F+                                                            ",
"                                                              G+u+u+H+                                                          ",
"                                                              y+u+u+p+I+                                                        ",
"                                                                u+u+h+J+y+                                                      ",
"                                                                u+u+z+K+L+                                                      ",
"                                                                u+u+                                                            ",
"                                                              M+u+u+                                                            ",
"                                                            N+u+p+h+                                                            ",
"                                                                                                                                ",
"                                                                                                                                ",
"                                                                                                                                ",
"                                                                                                                                ",
"                                                                                                                                ",
"                                                                                                                                ",
"                                                                                                                                ",
"                                                                                                                                ",
"                                                                                                                                ",
"                                                                                                                                ",
"                                                                                                                                ",
"                                                                                                                                "};
