/* XPM */
static char * l6_xpm[] = {
"64 64 258 2",
"  	c #AADA50",
". 	c #5F6DC7",
"+ 	c #5B68BF",
"@ 	c #5460B1",
"# 	c #606EC9",
"$ 	c #616FCB",
"% 	c #616FCA",
"& 	c #465092",
"* 	c #4F5AA4",
"= 	c #5865B9",
"- 	c #5966BA",
"; 	c #5D6AC2",
"> 	c #5E6CC6",
", 	c #5F6DC8",
"' 	c #4A559B",
") 	c #5A67BC",
"! 	c #5C69C0",
"~ 	c #5763B6",
"{ 	c #606EC8",
"] 	c #5561B2",
"^ 	c #535FAD",
"/ 	c #495499",
"( 	c #4C559D",
"_ 	c #535FAE",
": 	c #606ECA",
"< 	c #4A5499",
"[ 	c #475092",
"} 	c #525EAB",
"| 	c #4D58A1",
"1 	c #4A549A",
"2 	c #5965B9",
"3 	c #30345D",
"4 	c #4F59A4",
"5 	c #5460B0",
"6 	c #444D8D",
"7 	c #4D57A0",
"8 	c #343A68",
"9 	c #505CA8",
"0 	c #464F90",
"a 	c #896960",
"b 	c #545288",
"c 	c #4A549B",
"d 	c #515CA8",
"e 	c #3E457F",
"f 	c #333763",
"g 	c #383865",
"h 	c #4B5296",
"i 	c #505BA7",
"j 	c #C78974",
"k 	c #83574D",
"l 	c #693F50",
"m 	c #454E90",
"n 	c #61404D",
"o 	c #C5A183",
"p 	c #A5746A",
"q 	c #4C5499",
"r 	c #4F5AA5",
"s 	c #4A3733",
"t 	c #564B58",
"u 	c #3E2C3F",
"v 	c #4E58A2",
"w 	c #B68E7A",
"x 	c #EFA98D",
"y 	c #C1A282",
"z 	c #40457F",
"A 	c #ECB695",
"B 	c #D6B3AC",
"C 	c #BDBAC4",
"D 	c #9B6E6C",
"E 	c #B8927C",
"F 	c #EDA98D",
"G 	c #9E6961",
"H 	c #484F90",
"I 	c #FEDDAF",
"J 	c #E1C0BC",
"K 	c #DEAFB6",
"L 	c #BDA387",
"M 	c #C1977F",
"N 	c #D6977D",
"O 	c #5E4266",
"P 	c #464F91",
"Q 	c #F5C09A",
"R 	c #FDDCAE",
"S 	c #BDA689",
"T 	c #4C4272",
"U 	c #9B5759",
"V 	c #4B2E3C",
"W 	c #3B4279",
"X 	c #3D467F",
"Y 	c #4E59A4",
"Z 	c #4D58A2",
"` 	c #E0A386",
" .	c #F6BD97",
"..	c #B78572",
"+.	c #4F477C",
"@.	c #AD6269",
"#.	c #C66E72",
"$.	c #77424D",
"%.	c #373D6E",
"&.	c #3C447D",
"*.	c #C36D71",
"=.	c #957697",
"-.	c #8585B1",
";.	c #8183AF",
">.	c #555B80",
",.	c #3C437A",
"'.	c #4E59A3",
").	c #B2686A",
"!.	c #9A7F9D",
"~.	c #ABAEC6",
"{.	c #C6B5B0",
"].	c #7982A3",
"^.	c #3E4270",
"/.	c #ADB0C3",
"(.	c #B79683",
"_.	c #C2B9BC",
":.	c #CACCDE",
"<.	c #E3C9A9",
"[.	c #FFE0B1",
"}.	c #DEC3A2",
"|.	c #453B50",
"1.	c #E9EDF9",
"2.	c #CCD2E7",
"3.	c #CACFE2",
"4.	c #DEE6F9",
"5.	c #A998A5",
"6.	c #FDDDAF",
"7.	c #F7CFA5",
"8.	c #513F54",
"9.	c #414986",
"0.	c #475195",
"a.	c #C1C7E3",
"b.	c #F6F8FD",
"c.	c #FEFEFF",
"d.	c #F3F5FB",
"e.	c #BF8D89",
"f.	c #FFDEB0",
"g.	c #CBAA89",
"h.	c #383762",
"i.	c #414A87",
"j.	c #454F91",
"k.	c #475194",
"l.	c #959DC6",
"m.	c #F9F9FB",
"n.	c #FFFFFF",
"o.	c #FBFBFB",
"p.	c #9A6F7A",
"q.	c #FCDCAF",
"r.	c #C0A685",
"s.	c #343763",
"t.	c #424A87",
"u.	c #444E8E",
"v.	c #495399",
"w.	c #DADEEB",
"x.	c #FBFBFC",
"y.	c #978096",
"z.	c #FCDCAE",
"A.	c #FAFAFC",
"B.	c #FCFDFE",
"C.	c #B6A6B9",
"D.	c #EBEFFA",
"E.	c #FEFFFF",
"F.	c #DDE2F6",
"G.	c #9083A1",
"H.	c #9CA6CF",
"I.	c #F2F5FB",
"J.	c #FCFCFE",
"K.	c #F7F9FE",
"L.	c #D3DBF3",
"M.	c #7A7FA6",
"N.	c #CCAC8E",
"O.	c #A9B1E1",
"P.	c #A7AFDB",
"Q.	c #F5F7FD",
"R.	c #EDF1FB",
"S.	c #8B92BE",
"T.	c #C3A98C",
"U.	c #BD8A74",
"V.	c #767DA8",
"W.	c #858EB7",
"X.	c #EAEFF9",
"Y.	c #888CB0",
"Z.	c #E5B998",
"`.	c #FBDCAE",
" +	c #A59AA9",
".+	c #697298",
"++	c #B4BCD3",
"@+	c #C7CCDC",
"#+	c #999298",
"$+	c #FADBAD",
"%+	c #A39EA8",
"&+	c #B4BCE4",
"*+	c #997488",
"=+	c #8D96C4",
"-+	c #ABA2AA",
";+	c #A18B7C",
">+	c #FADCAE",
",+	c #C9A88A",
"'+	c #C5B2A6",
")+	c #E89682",
"!+	c #F1A188",
"~+	c #9C7173",
"{+	c #F8DAAD",
"]+	c #C7AC89",
"^+	c #C39278",
"/+	c #F6D6A9",
"(+	c #F4A389",
"_+	c #F5A489",
":+	c #C2826E",
"<+	c #F5CDA3",
"[+	c #CB9C80",
"}+	c #FCD6A9",
"|+	c #E5B794",
"1+	c #A46B5E",
"2+	c #F0A086",
"3+	c #C8947B",
"4+	c #BF8771",
"5+	c #F2BD9B",
"6+	c #FDD8AB",
"7+	c #F4CCA4",
"8+	c #F6BE99",
"9+	c #D58777",
"0+	c #C7816F",
"a+	c #B87968",
"b+	c #DAA288",
"c+	c #EDA58B",
"d+	c #ECA289",
"e+	c #E2947E",
"f+	c #E49480",
"g+	c #EFA086",
"h+	c #C89B7F",
"i+	c #C6997D",
"j+	c #DC907B",
"k+	c #CB8171",
"l+	c #F1A187",
"m+	c #F3A388",
"n+	c #C88672",
"o+	c #F9D9AB",
"p+	c #C8AB89",
"q+	c #C5A987",
"r+	c #F4D6A9",
"s+	c #C3816D",
"t+	c #F6C79F",
"u+	c #FFDFB1",
"v+	c #CA8572",
"w+	c #FAC39C",
"x+	c #FAC29C",
"y+	c #F5A78B",
"z+	c #F5A589",
"A+	c #F2A187",
"B+	c #E99883",
"C+	c #C07E6C",
"D+	c #D9907A",
"E+	c #E1937D",
"F+	c #F3A288",
"G+	c #ED9E85",
"H+	c #C07E6B",
"I+	c #C88170",
"                                                                                                                                ",
"                                                                                                                                ",
"                                                                                                                                ",
"                                                                                                                                ",
"                                                                                                                                ",
"                                                                                                                                ",
"                                                                                                                                ",
"                                                                                                                                ",
"                                                            . . . +                                                             ",
"                                                        @ # $ $ $ $ % +                                                         ",
"                                                    & * = - ; $ $ $ $ $ +                                                       ",
"                                                  > , ' , ) ! ~ $ $ $ $ %                                                       ",
"                                                  % $ = # { ] ] $ $ $ $ $ +                                                     ",
"                                                  $ $ ^ { # / ( . $ $ $ $ ,                                                     ",
"                                                _ : % < + : [ } | : $ $ $ {                                                     ",
"                                                1 2 + 3 4 5 6 7 8 9 : $ $ 2                                                     ",
"                                                  1 0 a b c d e f g h = = i                                                     ",
"                                                      j k l e m n o p q r r                                                     ",
"                                                      s t u v v w x y z r r                                                     ",
"                                                    A B C D v v E F G H r r                                                     ",
"                                                    I J K L v q M N O P r r                                                     ",
"                                                    Q R I S | T U V W X Y r Z                                                   ",
"                                                      `  ...+.@.#.$.%.&.' r v                                                   ",
"                                                            *.=.-.;.>.,.& r '.                                                  ",
"                                                          ).!.~.{.{.].^.& r r                                                   ",
"                                                      /.(._.:.<.[.[.}.|.P * *                                                   ",
"                                                    1.2.3.4.5.6.[.[.7.8.9.& 0.                                                  ",
"                                                    a.b.c.d.e.f.[.[.g.h.i.j.k.v                                                 ",
"                                                  l.m.c.n.o.p.q.[.[.r.s.t.u.k.v.                                                ",
"                                                  w.n.n.n.x.y.z.[.[.r.                                                          ",
"                                                  A.n.n.n.B.C.z.[.[.                                                            ",
"                                                  D.c.n.E.F.G.7.[.[.                                                            ",
"                                                  H.I.J.K.L.M.N.[.[.                                                            ",
"                                                    O.P.Q.R.S.T.[.f.U.                                                          ",
"                                                    V.W.m.X.Y.Z.[.`. +                                                          ",
"                                                      .+++@+#+$+[.`.%+&+                                                        ",
"                                                      *+=+-+;+>+[.`.,+'+                                                        ",
"                                                    )+!+~+{+]+`.[.f.^+/+                                                        ",
"                                                    (+_+:+<+[+}+[.[.|+1+                                                        ",
"                                                    _+_+2+3+4+5+6+7+8+9+                                                        ",
"                                                  2+_+_+_+0+a+b+c+d+e+f+                                                        ",
"                                                  g+_+_+_+2+h+i+j+k+1+                                                          ",
"                                                    l+_+_+m+n+o+p+q+r+                                                          ",
"                                                      l+_+_+s+t+u+[.z.                                                          ",
"                                                        l+_+2+v+w+I x+                                                          ",
"                                                          l+m+0+(+y+z+A+                                                        ",
"                                                            B+C+l+_+_+_+                                                        ",
"                                                              D+E+_+_+F+                                                        ",
"                                                              G+H+_+_+2+                                                        ",
"                                                                I+_+_+                                                          ",
"                                                                B+_+_+                                                          ",
"                                                              G+_+(+l+                                                          ",
"                                                                                                                                ",
"                                                                                                                                ",
"                                                                                                                                ",
"                                                                                                                                ",
"                                                                                                                                ",
"                                                                                                                                ",
"                                                                                                                                ",
"                                                                                                                                ",
"                                                                                                                                ",
"                                                                                                                                ",
"                                                                                                                                ",
"                                                                                                                                "};
