/* XPM */
static char * l7_xpm[] = {
"64 64 250 2",
"  	c #AADA50",
". 	c #606DC8",
"+ 	c #616FCB",
"@ 	c #616FCA",
"# 	c #5C69BF",
"$ 	c #3E4680",
"% 	c #515DAA",
"& 	c #5A66BB",
"* 	c #606ECA",
"= 	c #5764B6",
"- 	c #5764B7",
"; 	c #505CA8",
"> 	c #5C6AC2",
", 	c #5C69C0",
"' 	c #5A67BC",
") 	c #606EC9",
"! 	c #606EC8",
"~ 	c #4F5AA5",
"{ 	c #525DAB",
"] 	c #5D6AC2",
"^ 	c #5864B7",
"/ 	c #505AA6",
"( 	c #5865B9",
"_ 	c #5662B4",
": 	c #4E59A3",
"< 	c #495398",
"[ 	c #5F6CC6",
"} 	c #5F6DC7",
"| 	c #5864B8",
"1 	c #5F6DC8",
"2 	c #434B8A",
"3 	c #4F59A4",
"4 	c #3C437A",
"5 	c #535FAF",
"6 	c #4F5AA6",
"7 	c #434C8B",
"8 	c #404884",
"9 	c #5B68BE",
"0 	c #535EAD",
"a 	c #575B9E",
"b 	c #714C4A",
"c 	c #525491",
"d 	c #525EAC",
"e 	c #454E8F",
"f 	c #3D437B",
"g 	c #424A88",
"h 	c #5B68BF",
"i 	c #5460B0",
"j 	c #B78B74",
"k 	c #F2B391",
"l 	c #D2957D",
"m 	c #876762",
"n 	c #3E457F",
"o 	c #475093",
"p 	c #42467E",
"q 	c #654349",
"r 	c #5E4261",
"s 	c #4F5AA4",
"t 	c #505BA7",
"u 	c #7C4B45",
"v 	c #432A27",
"w 	c #6F444D",
"x 	c #4E58A2",
"y 	c #575481",
"z 	c #EAB796",
"A 	c #C49A7F",
"B 	c #464B88",
"C 	c #4D58A1",
"D 	c #B19791",
"E 	c #9D97A2",
"F 	c #654653",
"G 	c #BAA18F",
"H 	c #F6B392",
"I 	c #C2937A",
"J 	c #454A87",
"K 	c #FCD4A9",
"L 	c #C5A7B5",
"M 	c #C2B0C9",
"N 	c #B8937F",
"O 	c #535A9B",
"P 	c #D9B191",
"Q 	c #E9A68A",
"R 	c #6D475A",
"S 	c #FDD6AA",
"T 	c #FBD7AD",
"U 	c #F9CBA6",
"V 	c #BDA689",
"W 	c #73517A",
"X 	c #A67565",
"Y 	c #916157",
"Z 	c #3C3E6E",
"` 	c #3C457D",
" .	c #4A559B",
"..	c #4A5499",
"+.	c #EBBF9A",
"@.	c #FCD0A6",
"#.	c #BD9B80",
"$.	c #41437A",
"%.	c #7F4751",
"&.	c #C36C6E",
"*.	c #4C2C3C",
"=.	c #3B4279",
"-.	c #3C447C",
";.	c #424B89",
">.	c #BF746C",
",.	c #A45A5F",
"'.	c #9C6175",
").	c #9E6377",
"!.	c #955967",
"~.	c #413861",
"{.	c #3D457E",
"].	c #987B9B",
"^.	c #9098C5",
"/.	c #9198C5",
"(.	c #7E85AE",
"_.	c #433C5E",
":.	c #3B437A",
"<.	c #C19A89",
"[.	c #A89BA5",
"}.	c #C9C9D6",
"|.	c #E0C7A7",
"1.	c #F9DBB0",
"2.	c #C2AC98",
"3.	c #646381",
"4.	c #333763",
"5.	c #465092",
"6.	c #99A4CD",
"7.	c #B5BCD2",
"8.	c #B7C0DA",
"9.	c #CFD3E5",
"0.	c #DFBBA0",
"a.	c #FFE0B1",
"b.	c #FEDFB0",
"c.	c #B89077",
"d.	c #333661",
"e.	c #B1B5CD",
"f.	c #FAFAFB",
"g.	c #FEFEFF",
"h.	c #F4F6FC",
"i.	c #947E9C",
"j.	c #E6B496",
"k.	c #FBDBAD",
"l.	c #6E484A",
"m.	c #4B559C",
"n.	c #FBFBFB",
"o.	c #FFFFFF",
"p.	c #FBFBFC",
"q.	c #8D6B83",
"r.	c #EFBC9A",
"s.	c #E4B895",
"t.	c #4A3551",
"u.	c #3C437B",
"v.	c #4D57A0",
"w.	c #D2D5E6",
"x.	c #FDFDFE",
"y.	c #BBA8B0",
"z.	c #FBDBAE",
"A.	c #C1A584",
"B.	c #34355E",
"C.	c #424171",
"D.	c #E2E6F6",
"E.	c #F5F7FC",
"F.	c #CBABA5",
"G.	c #FDDDAF",
"H.	c #A46E60",
"I.	c #B5796A",
"J.	c #B7BFE6",
"K.	c #F4F6FD",
"L.	c #FEFFFF",
"M.	c #B3BBDC",
"N.	c #C2A78A",
"O.	c #785056",
"P.	c #EFA086",
"Q.	c #AAB2E2",
"R.	c #DBE1F5",
"S.	c #FBFBFD",
"T.	c #848BB3",
"U.	c #CBAA8B",
"V.	c #E5B996",
"W.	c #9D867B",
"X.	c #C5987D",
"Y.	c #8492BA",
"Z.	c #F1F4FB",
"`.	c #A69BAA",
" +	c #F8CFA5",
".+	c #FFDFB0",
"++	c #C59C7F",
"@+	c #F5D7AD",
"#+	c #885F6D",
"$+	c #6C7398",
"%+	c #A9ADC1",
"&+	c #CA9D87",
"*+	c #F8CFA6",
"=+	c #AE9391",
"-+	c #B0B6D3",
";+	c #CED0DD",
">+	c #C5CBE1",
",+	c #795161",
"'+	c #C99C86",
")+	c #C3C7DD",
"!+	c #C7C7D2",
"~+	c #C7C5CA",
"{+	c #C3C8DA",
"]+	c #C88371",
"^+	c #FBCAA2",
"/+	c #AD8C7A",
"(+	c #E1C7A5",
"_+	c #FBDCB0",
":+	c #FADCAF",
"<+	c #BE7E6C",
"[+	c #F5BA97",
"}+	c #FAC69F",
"|+	c #FED8AC",
"1+	c #D0AE8C",
"2+	c #F9DAAD",
"3+	c #EAB191",
"4+	c #FCD5A9",
"5+	c #B3796A",
"6+	c #FBDCAE",
"7+	c #F4B996",
"8+	c #FEDDAF",
"9+	c #D7937E",
"0+	c #F7CFA5",
"a+	c #AA6960",
"b+	c #CB7C72",
"c+	c #EA9B85",
"d+	c #C67B70",
"e+	c #C0746C",
"f+	c #AC6961",
"g+	c #A65B5E",
"h+	c #BA7868",
"i+	c #B87867",
"j+	c #B16E64",
"k+	c #9F5A5B",
"l+	c #D68E78",
"m+	c #ED9E85",
"n+	c #F1A086",
"o+	c #F1A187",
"p+	c #F5A489",
"q+	c #F4A389",
"r+	c #E79782",
"s+	c #F3A288",
"t+	c #FAD4A8",
"u+	c #F3AB8D",
"v+	c #F8BC98",
"w+	c #F5A78B",
"x+	c #F0A086",
"y+	c #F1A087",
"z+	c #E99883",
"A+	c #F2A187",
"                                                                                                                                ",
"                                                                                                                                ",
"                                                                                                                                ",
"                                                                                                                                ",
"                                                                                                                                ",
"                                                                                                                                ",
"                                                                                                                                ",
"                                                                                                                                ",
"                                                                                                                                ",
"                                                          . + + + @ #                                                           ",
"                                                      $ % & * + + + + @                                                         ",
"                                                  = - ; > , ' ) + + + + !                                                       ",
"                                                ~ @ @ { ) ] ^ / + + + + +                                                       ",
"                                                ( + + _ ) @ : < [ + + + + }                                                     ",
"                                                | + + { 1 + = 2 3 + + + + .                                                     ",
"                                                : ] ! 4 5 , 6 7 8 9 + + + ]                                                     ",
"                                                  0 a b c : d e f g h * ) i                                                     ",
"                                                    j k l m n o p q r s t ~                                                     ",
"                                                      u v w x ~ y z A B ~ ~ C                                                   ",
"                                                      D E F x : G H I J ~ ~ :                                                   ",
"                                                    K L M N x O P Q R g s ~ ~                                                   ",
"                                                    S T U V C W X Y Z `  .~ ~ ..                                                ",
"                                                      +.@.#.$.%.&.*.=.-.;.s ~ :                                                 ",
"                                                          >.,.'.).!.~.-.{.: ~ ~                                                 ",
"                                                            ].^./.(._.:.-.o ~ ~                                                 ",
"                                                        <.[.}.|.1.2.3.4.-.5.~ ~                                                 ",
"                                                    6.7.8.9.0.a.a.b.c.d.-.5.~ ~                                                 ",
"                                                  e.f.g.h.i.j.a.a.k.l.=.-.5.m.:                                                 ",
"                                                  n.o.o.p.q.r.a.a.s.t.u.{.C $ v.                                                ",
"                                                w.o.o.o.x.y.z.a.a.A.B.C.                                                        ",
"                                                D.o.o.o.E.F.G.a.G.H.I.                                                          ",
"                                                J.K.L.x.M.N.a.a.k.O.P.                                                          ",
"                                                  Q.R.S.T.U.a.a.V.W.X.                                                          ",
"                                                    Y.Z.`. +a..+++@+@+#+                                                        ",
"                                                    $+%+&+.+a.*+=+-+;+>+                                                        ",
"                                                      ,+ +a..+'+)+!+~+{+                                                        ",
"                                                      ]+^+.+ +/+(+_+:+1.                                                        ",
"                                                    <+[+}+|+1+2+a.a.a.a.                                                        ",
"                                                    3+.+a.4+5+6+a.a.a.a.                                                        ",
"                                                    7+8+4+9+  0+a.a.a.a.                                                        ",
"                                                  a+b+c+d+e+    .+a.a.a.                                                        ",
"                                                  f+g+h+i+      k.a.a.a.                                                        ",
"                                                    j+k+l+m+      a.a.a.                                                        ",
"                                                    n+o+p+q+      .+a.a.                                                        ",
"                                                    r+p+p+s+      t+.+S u+                                                      ",
"                                                      p+p+o+        v+w+p+                                                      ",
"                                                      p+p+r+        q+p+p+x+                                                    ",
"                                                      p+p+          y+p+p+x+                                                    ",
"                                                    z+p+p+            p+p+                                                      ",
"                                                  m+p+A+              p+p+                                                      ",
"                                                                    z+p+p+                                                      ",
"                                                                  m+p+q+o+                                                      ",
"                                                                                                                                ",
"                                                                                                                                ",
"                                                                                                                                ",
"                                                                                                                                ",
"                                                                                                                                ",
"                                                                                                                                ",
"                                                                                                                                ",
"                                                                                                                                ",
"                                                                                                                                ",
"                                                                                                                                ",
"                                                                                                                                ",
"                                                                                                                                "};
