/* XPM */
static char * l8_xpm[] = {
"64 64 251 2",
"  	c #AADA50",
". 	c #5F6DC7",
"+ 	c #5B68BF",
"@ 	c #5460B1",
"# 	c #606EC9",
"$ 	c #616FCB",
"% 	c #616FCA",
"& 	c #464F91",
"* 	c #465093",
"= 	c #4F5AA4",
"- 	c #5865B9",
"; 	c #5966BA",
"> 	c #5D6AC2",
", 	c #606DC8",
"' 	c #5F6DC8",
") 	c #4A559B",
"! 	c #5A67BC",
"~ 	c #5B69BF",
"{ 	c #5763B6",
"] 	c #5864B7",
"^ 	c #4E59A3",
"/ 	c #4A549A",
"( 	c #5965B9",
"_ 	c #535FAD",
": 	c #5561B2",
"< 	c #4B559C",
"[ 	c #5662B4",
"} 	c #5460B0",
"| 	c #606ECA",
"1 	c #4A5499",
"2 	c #545FAF",
"3 	c #434C8B",
"4 	c #495398",
"5 	c #606EC8",
"6 	c #2F335B",
"7 	c #5460AF",
"8 	c #404884",
"9 	c #3D447C",
"0 	c #505BA6",
"a 	c #3E457E",
"b 	c #8E7486",
"c 	c #B88D75",
"d 	c #8F6F70",
"e 	c #48497D",
"f 	c #353B6A",
"g 	c #424A88",
"h 	c #3E447D",
"i 	c #373762",
"j 	c #4B5296",
"k 	c #505BA7",
"l 	c #CD8E78",
"m 	c #B37864",
"n 	c #A07068",
"o 	c #4C579F",
"p 	c #4F5AA5",
"q 	c #4C4D80",
"r 	c #C4A083",
"s 	c #A4746A",
"t 	c #4C5499",
"u 	c #4D58A2",
"v 	c #4A3733",
"w 	c #564B58",
"x 	c #77454C",
"y 	c #494C89",
"z 	c #4F4B7F",
"A 	c #EAA58A",
"B 	c #C1A282",
"C 	c #40457F",
"D 	c #ECB695",
"E 	c #D6B3AC",
"F 	c #BDBAC4",
"G 	c #E0A98F",
"H 	c #535081",
"I 	c #575180",
"J 	c #E8A58A",
"K 	c #9E6961",
"L 	c #484F8F",
"M 	c #FEDDAF",
"N 	c #E1C0BC",
"O 	c #DEAFB6",
"P 	c #FAD9AC",
"Q 	c #545482",
"R 	c #4E59A2",
"S 	c #B69688",
"T 	c #D6977D",
"U 	c #5E4266",
"V 	c #3D467F",
"W 	c #4E59A4",
"X 	c #F5C09A",
"Y 	c #FDDCAE",
"Z 	c #FADBAD",
"` 	c #535380",
" .	c #4E4D88",
"..	c #9A575A",
"+.	c #4A2E3C",
"@.	c #3B4279",
"#.	c #3C457D",
"$.	c #E0A386",
"%.	c #F6BD97",
"&.	c #E9A78B",
"*.	c #6C3F49",
"=.	c #AC6168",
"-.	c #C66E72",
";.	c #79444D",
">.	c #383C6D",
",.	c #3C447C",
"'.	c #464F92",
").	c #9B5865",
"!.	c #9D677A",
"~.	c #8684AF",
"{.	c #8585B1",
"].	c #8C7395",
"^.	c #473550",
"/.	c #3B4379",
"(.	c #98819E",
"_.	c #C7CADD",
":.	c #A9A0AA",
"<.	c #C8B7B1",
"[.	c #A49BA4",
"}.	c #5A5A7F",
"|.	c #333763",
"1.	c #4B569D",
"2.	c #7681A8",
"3.	c #949BB5",
"4.	c #BAC2DA",
"5.	c #D6DBE8",
"6.	c #C8B5A8",
"7.	c #FDDEB0",
"8.	c #FFE0B1",
"9.	c #FADBAE",
"0.	c #895457",
"a.	c #373D6E",
"b.	c #475194",
"c.	c #CACEDC",
"d.	c #F3F5FA",
"e.	c #FCFDFE",
"f.	c #F7F9FE",
"g.	c #B4B9D0",
"h.	c #DAAF93",
"i.	c #513E43",
"j.	c #3B437A",
"k.	c #465092",
"l.	c #DEE2EE",
"m.	c #FEFFFF",
"n.	c #FFFFFF",
"o.	c #CDC5CE",
"p.	c #DDB193",
"q.	c #E5B997",
"r.	c #56516A",
"s.	c #3D457E",
"t.	c #EDF1FB",
"u.	c #FEFEFF",
"v.	c #B8A8BA",
"w.	c #FBDBAD",
"x.	c #C2A789",
"y.	c #5F698B",
"z.	c #373D6F",
"A.	c #373E70",
"B.	c #3C437B",
"C.	c #D0D4E6",
"D.	c #EAF0FD",
"E.	c #FDFDFE",
"F.	c #F6F8FD",
"G.	c #CFD4EE",
"H.	c #AB848A",
"I.	c #FDDDAF",
"J.	c #A67E82",
"K.	c #977789",
"L.	c #8D6267",
"M.	c #B8C0E8",
"N.	c #CED4EA",
"O.	c #D9DCF1",
"P.	c #9AA2D1",
"Q.	c #CCAA8E",
"R.	c #F7CFA5",
"S.	c #726F8A",
"T.	c #B8807E",
"U.	c #EE9F85",
"V.	c #B0B9DE",
"W.	c #E9EEF8",
"X.	c #A8A6B9",
"Y.	c #9A6D67",
"Z.	c #F9D0A6",
"`.	c #CCAB8D",
" +	c #A38597",
".+	c #BC7F74",
"++	c #D68E78",
"@+	c #A19099",
"#+	c #C6977D",
"$+	c #FBDCAE",
"%+	c #C6AB89",
"&+	c #DCC1A2",
"*+	c #CEA9B2",
"=+	c #AB8FA5",
"-+	c #FFDFB0",
";+	c #E5B996",
">+	c #9F897C",
",+	c #ADA4B3",
"'+	c #BCC3E0",
")+	c #EFF1F8",
"!+	c #EEF0F8",
"~+	c #D88C7B",
"{+	c #FAD1A7",
"]+	c #CBA98B",
"^+	c #B18B96",
"/+	c #B9B7C2",
"(+	c #CACDE0",
"_+	c #CBCEE1",
":+	c #B2A9B6",
"<+	c #C7B19D",
"[+	c #A197A1",
"}+	c #B16163",
"|+	c #F0A086",
"1+	c #F6C09B",
"2+	c #CDA98A",
"3+	c #967184",
"4+	c #7F89B9",
"5+	c #BCC4E1",
"6+	c #B3AAB6",
"7+	c #E1C7A7",
"8+	c #FCDCAF",
"9+	c #D17D75",
"0+	c #A5675D",
"a+	c #BF826E",
"b+	c #DA937B",
"c+	c #F1A188",
"d+	c #986C71",
"e+	c #DEC3A3",
"f+	c #8D5251",
"g+	c #F1A187",
"h+	c #F5A489",
"i+	c #DA917A",
"j+	c #E6B895",
"k+	c #ED9E84",
"l+	c #A77061",
"m+	c #FFDEB0",
"n+	c #F4A389",
"o+	c #F3A388",
"p+	c #F7CEA5",
"q+	c #F2A187",
"r+	c #FFDFB1",
"s+	c #F9C8A1",
"t+	c #F1AB8C",
"u+	c #FAC49E",
"v+	c #F9BC98",
"w+	c #F5A68A",
"x+	c #F3A288",
"y+	c #E99883",
"z+	c #E79782",
"A+	c #E69681",
"B+	c #EFA086",
"                                                                                                                                ",
"                                                                                                                                ",
"                                                                                                                                ",
"                                                                                                                                ",
"                                                                                                                                ",
"                                                                                                                                ",
"                                                                                                                                ",
"                                                                                                                                ",
"                                                                                                                                ",
"                                                            . . . +                                                             ",
"                                                        @ # $ $ $ $ % +                                                         ",
"                                                  & * = - ; > $ $ $ $ $ +                                                       ",
"                                                  , ' ) ' ! ~ { $ $ $ $ %                                                       ",
"                                                ] $ $ - # # ^ / # $ $ $ $ +                                                     ",
"                                                ( $ $ _ # $ : < [ $ $ $ $ .                                                     ",
"                                                } | % 1 + | 2 3 4 # $ $ $ 5                                                     ",
"                                                / ( + 6 / 7 ^ 8 9 0 | $ $ (                                                     ",
"                                                  a b c d e f g h i j - - k                                                     ",
"                                                      l m n o p q r s t p p u                                                   ",
"                                                      v w x y p z A B C p p =                                                   ",
"                                                    D E F G H p I J K L p p p                                                   ",
"                                                    M N O P Q R S T U V W p p u                                                 ",
"                                                    X Y M Z `  ...+.@.#.) p p =                                                 ",
"                                                      $.%.&.*.=.-.;.>.,.'.p p p                                                 ",
"                                                          ).!.~.{.].^./.V W p p u                                               ",
"                                                          (._.:.<.[.}.|.#.) = 1.u                                               ",
"                                                    2.3.4.5.6.7.8.9.0.a.,.'.^ b.                                                ",
"                                                  c.d.e.f.g.h.8.8.Z i.j.,.V / k.                                                ",
"                                                l.m.n.n.n.o.p.8.8.q.r.j.,.s.&                                                   ",
"                                                t.u.n.n.e.v.w.8.8.x.y.z.A.B.s.                                                  ",
"                                                C.D.E.F.G.H.I.8.I.J.K.L.                                                        ",
"                                                  M.N.O.P.Q.8.8.R.S.T.U.                                                        ",
"                                                  V.W.X.Y.Z.8.8.`. +.+++                                                        ",
"                                                    @+#+Z.8.8.$+%+&+*+=+                                                        ",
"                                                    R.-+8.Y ;+>+,+'+)+!+                                                        ",
"                                                ~+M 8.{+]+^+/+(+_+:+<+<+[+                                                      ",
"                                              }+|+1+w.2+3+4+5+6+7+7.8.8.8+                                                      ",
"                                                9+0+a+b+c+d+e+7.8.8.8.8.8.                                                      ",
"                                                  f+g+h+h+i+j+8.8.8.8.8.8.                                                      ",
"                                                  k+h+h+h+g+l+I.8.8.8.8.m+                                                      ",
"                                                  g+h+h+h+    R.8.8.8.8.$+                                                      ",
"                                                  n+h+h+o+      8.8.8.8.$+                                                      ",
"                                                  h+h+h+        I.8.8.8.$+                                                      ",
"                                                  h+h+h+        p+8.8.8.w.                                                      ",
"                                                |+h+h+q+          M 8.r+s+                                                      ",
"                                                g+h+h+            t+u+v+w+|+                                                    ",
"                                                x+h+y+              g+h+h+h+                                                    ",
"                                                h+n+                  g+h+h+z+                                                  ",
"                                              q+h+g+                    g+h+g+                                                  ",
"                                              n+g+                        y+n+                                                  ",
"                                                                            h+A+                                                ",
"                                                                          B+h+                                                  ",
"                                                                                                                                ",
"                                                                                                                                ",
"                                                                                                                                ",
"                                                                                                                                ",
"                                                                                                                                ",
"                                                                                                                                ",
"                                                                                                                                ",
"                                                                                                                                ",
"                                                                                                                                ",
"                                                                                                                                ",
"                                                                                                                                ",
"                                                                                                                                "};
