/* XPM */
static char * l9_xpm[] = {
"64 64 249 2",
"  	c #AADA50",
". 	c #5F6DC7",
"+ 	c #5B68BF",
"@ 	c #5461B1",
"# 	c #606EC9",
"$ 	c #616FCB",
"% 	c #616FCA",
"& 	c #465092",
"* 	c #4F5AA4",
"= 	c #5865B9",
"- 	c #5966BA",
"; 	c #5D6AC2",
"> 	c #5F6DC8",
", 	c #4A559B",
"' 	c #5A67BC",
") 	c #5C69C0",
"! 	c #5763B6",
"~ 	c #606ECA",
"{ 	c #606EC8",
"] 	c #5561B2",
"^ 	c #4B559C",
"/ 	c #5764B7",
"( 	c #535FAD",
"_ 	c #495499",
": 	c #535FAE",
"< 	c #5662B4",
"[ 	c #4A5499",
"} 	c #475092",
"| 	c #454E8F",
"1 	c #5965B9",
"2 	c #34355D",
"3 	c #4F59A4",
"4 	c #5460B0",
"5 	c #444D8E",
"6 	c #4D57A0",
"7 	c #343A68",
"8 	c #505CA8",
"9 	c #4A549A",
"0 	c #57558B",
"a 	c #BC8C75",
"b 	c #545289",
"c 	c #4E59A2",
"d 	c #515DAA",
"e 	c #3E4680",
"f 	c #333763",
"g 	c #383865",
"h 	c #4B5296",
"i 	c #505BA7",
"j 	c #CD8E77",
"k 	c #83574D",
"l 	c #694051",
"m 	c #3E457F",
"n 	c #495397",
"o 	c #61414D",
"p 	c #C5A183",
"q 	c #A4746A",
"r 	c #4C5499",
"s 	c #4F5AA5",
"t 	c #4A3733",
"u 	c #564B58",
"v 	c #3E2C3F",
"w 	c #4E58A2",
"x 	c #B9917C",
"y 	c #EFA98D",
"z 	c #C1A282",
"A 	c #40457F",
"B 	c #ECB695",
"C 	c #D6B3AC",
"D 	c #BEBAC4",
"E 	c #9B6E6C",
"F 	c #55548B",
"G 	c #F2BD99",
"H 	c #EDA98D",
"I 	c #9E6961",
"J 	c #484F90",
"K 	c #4D58A2",
"L 	c #FEDDAF",
"M 	c #E1C0BC",
"N 	c #DEAFB6",
"O 	c #BDA387",
"P 	c #514E7F",
"Q 	c #E2B794",
"R 	c #D6977D",
"S 	c #5E4266",
"T 	c #464F92",
"U 	c #4E59A3",
"V 	c #F5C09A",
"W 	c #FDDCAE",
"X 	c #BDA589",
"Y 	c #764962",
"Z 	c #9E585A",
"` 	c #4A2E3C",
" .	c #3B4279",
"..	c #3D467F",
"+.	c #4E59A4",
"@.	c #E0A386",
"#.	c #F6BD97",
"$.	c #B68572",
"%.	c #4F477B",
"&.	c #AD6268",
"*.	c #C66E72",
"=.	c #76424C",
"-.	c #373C6D",
";.	c #3D457E",
">.	c #9D5864",
",.	c #C36D71",
"'.	c #97799A",
").	c #8585B1",
"!.	c #8082AE",
"~.	c #484265",
"{.	c #3C437A",
"].	c #475093",
"^.	c #D68D80",
"/.	c #9B7F9C",
"(.	c #C0C4DD",
"_.	c #C6AFAE",
":.	c #C7B6B2",
"<.	c #8487AD",
"[.	c #3D406D",
"}.	c #F0F2F8",
"|.	c #F8F9FB",
"1.	c #B5BAD5",
"2.	c #A87E8F",
"3.	c #C4AFA6",
"4.	c #C1C7DF",
"5.	c #A99EA0",
"6.	c #FDDEB0",
"7.	c #FFE0B1",
"8.	c #F5D2A8",
"9.	c #4E3B44",
"0.	c #414A87",
"a.	c #DDE1EE",
"b.	c #D7DAEA",
"c.	c #EDF2FC",
"d.	c #EDF1FB",
"e.	c #E6ECFA",
"f.	c #B7BFDA",
"g.	c #D4B098",
"h.	c #FBDCAE",
"i.	c #4F3D42",
"j.	c #3C447C",
"k.	c #4D58A1",
"l.	c #475195",
"m.	c #959FC9",
"n.	c #EAEBF6",
"o.	c #FEFEFE",
"p.	c #FFFFFF",
"q.	c #FEFFFF",
"r.	c #C6C5D1",
"s.	c #DBB093",
"t.	c #3D447D",
"u.	c #424B89",
"v.	c #F5F7FC",
"w.	c #E5E6EC",
"x.	c #D5AF92",
"y.	c #3A4177",
"z.	c #F5F7FD",
"A.	c #FEFEFF",
"B.	c #DBDFF1",
"C.	c #CFAE91",
"D.	c #FADBAD",
"E.	c #949FCA",
"F.	c #D6DDEE",
"G.	c #F4F6FC",
"H.	c #FCFCFE",
"I.	c #DCE2F5",
"J.	c #9285A3",
"K.	c #F6C8A0",
"L.	c #B4BFDB",
"M.	c #A8B0E1",
"N.	c #A6AFDB",
"O.	c #EEF2FC",
"P.	c #B5BCD3",
"Q.	c #AB7372",
"R.	c #FFDFB1",
"S.	c #818DB7",
"T.	c #8D96C8",
"U.	c #AFB8DF",
"V.	c #ECF1FC",
"W.	c #B0AAC4",
"X.	c #E4B090",
"Y.	c #FDDDAF",
"Z.	c #C58672",
"`.	c #818DBC",
" +	c #B0BAD8",
".+	c #C1B8CD",
"++	c #A97774",
"@+	c #E1C6A1",
"#+	c #BAADB9",
"$+	c #C4A0A5",
"%+	c #8583AC",
"&+	c #A1788F",
"*+	c #F2AA8D",
"=+	c #FBCDA3",
"-+	c #FFDFB0",
";+	c #E0C59E",
">+	c #DDDBDA",
",+	c #F8F8FA",
"'+	c #E7ECF7",
")+	c #DDB194",
"!+	c #F7C39D",
"~+	c #FBCBA2",
"{+	c #FEDCAE",
"]+	c #D8B291",
"^+	c #C4AB8E",
"/+	c #C6B19B",
"(+	c #C7B19C",
"_+	c #C9B6A8",
":+	c #AEA6B3",
"<+	c #FBDAAD",
"[+	c #F4CDA5",
"}+	c #F8D9AB",
"|+	c #D0AE8C",
"1+	c #F8D9AC",
"2+	c #F8B795",
"3+	c #F7C29D",
"4+	c #E8B596",
"5+	c #DFB293",
"6+	c #E69581",
"7+	c #BC7369",
"8+	c #CB8272",
"9+	c #CE8775",
"0+	c #FAD5A9",
"a+	c #C47E6D",
"b+	c #DE917C",
"c+	c #C88170",
"d+	c #C6806F",
"e+	c #E6B895",
"f+	c #F1A187",
"g+	c #F5A489",
"h+	c #C38D74",
"i+	c #FFDEB0",
"j+	c #F9D4A8",
"k+	c #F0A086",
"l+	c #C88471",
"m+	c #DA917A",
"n+	c #E79782",
"o+	c #FBD5A9",
"p+	c #EDB393",
"q+	c #FDD5A9",
"r+	c #FAC39C",
"s+	c #F5A58A",
"t+	c #EFA086",
"u+	c #F3A288",
"v+	c #F1A388",
"w+	c #F5A589",
"x+	c #EA9883",
"y+	c #E89782",
"z+	c #F4A389",
"                                                                                                                                ",
"                                                                                                                                ",
"                                                                                                                                ",
"                                                                                                                                ",
"                                                                                                                                ",
"                                                                                                                                ",
"                                                                                                                                ",
"                                                                                                                                ",
"                                                                                                                                ",
"                                                            . . . +                                                             ",
"                                                        @ # $ $ $ $ % +                                                         ",
"                                                    & * = - ; $ $ $ $ $ +                                                       ",
"                                                  . > , > ' ) ! $ $ $ $ %                                                       ",
"                                                  $ $ = ~ { ] ^ # $ $ $ $ +                                                     ",
"                                                / $ $ ( # # _ : < $ $ $ $ .                                                     ",
"                                                : ~ % [ + ~ } ] | ~ $ $ $ {                                                     ",
"                                                  1 + 2 3 4 5 6 7 8 ~ $ $ 1                                                     ",
"                                                  9 0 a b c d e f g h = = i                                                     ",
"                                                      j k l m n o p q r s s                                                     ",
"                                                      t u v w w x y z A s s                                                     ",
"                                                    B C D E w F G H I J s s K                                                   ",
"                                                    L M N O w P Q R S T s s U                                                   ",
"                                                    V W L X 6 Y Z `  ...+.s s                                                   ",
"                                                      @.#.$.%.&.*.=.-.;.U s s                                                   ",
"                                                          >.,.'.).!.~.{.].s s                                                   ",
"                                                          ^./.(._.:.<.[.& s s w                                                 ",
"                                                  }.|.1.2.3.4.5.6.7.8.9.0.* * *                                                 ",
"                                                  a.b.c.d.e.f.g.7.7.h.i.j.k.l.s                                                 ",
"                                                m.n.o.p.p.q.r.s.7.7.h.i. .t.u.s                                                 ",
"                                                  v.p.p.p.p.w.x.7.7.h.i.y.    w                                                 ",
"                                                  z.p.p.p.A.B.C.7.7.D.                                                          ",
"                                                E.F.G.H.A.I.J.K.7.7.K.                                                          ",
"                                                  L.M.N.O.P.Q.W 7.R.                                                            ",
"                                                  S.T.U.V.W.X.R.7.Y.Z.                                                          ",
"                                                    `. +.+++W 7.7.@+#+$+                                                        ",
"                                                      %+&+*+=+-+;+>+,+'+                                                        ",
"                                                      )+!+~+{+]+^+/+(+_+:+                                                      ",
"                                                    <+7.[+Y.}+|+7.7.7.7.1+                                                      ",
"                                                    2+3+4+5+|+h.7.7.7.7.K.                                                      ",
"                                                    6+7+8+9+0+7.7.7.7.R.                                                        ",
"                                                    a+b+c+d+e+7.7.7.7.Y.                                                        ",
"                                                    f+g+g+f+h+i+7.7.7.j+                                                        ",
"                                                    k+g+g+g+l+0+7.7.7.                                                          ",
"                                                      g+g+g+m+e+7.7.7.                                                          ",
"                                                      g+g+g+n+  o+7.-+p+                                                        ",
"                                                      g+g+g+      q+r+s+t+                                                      ",
"                                                      g+g+u+      v+w+g+u+                                                      ",
"                                                      g+g+k+        f+g+g+                                                      ",
"                                                      g+g+            f+g+x+                                                    ",
"                                                    y+g+g+              f+g+f+                                                  ",
"                                                    f+n+                  f+z+                                                  ",
"                                                                                                                                ",
"                                                                                                                                ",
"                                                                                                                                ",
"                                                                                                                                ",
"                                                                                                                                ",
"                                                                                                                                ",
"                                                                                                                                ",
"                                                                                                                                ",
"                                                                                                                                ",
"                                                                                                                                ",
"                                                                                                                                ",
"                                                                                                                                ",
"                                                                                                                                "};
