/* XPM */
static char * u0_xpm[] = {
"64 64 225 2",
"  	c #AADA50",
". 	c #5865B8",
"+ 	c #5F6DC7",
"@ 	c #5F6CC6",
"# 	c #606ECA",
"$ 	c #616FCB",
"% 	c #5865B9",
"& 	c #5F6DC8",
"* 	c #4D58A2",
"= 	c #606EC9",
"- 	c #5764B6",
"; 	c #5C6AC2",
"> 	c #616FCA",
", 	c #535FAE",
"' 	c #4A5499",
") 	c #5460B0",
"! 	c #5D6AC2",
"~ 	c #4F5AA5",
"{ 	c #4E58A2",
"] 	c #4F5AA6",
"^ 	c #5C69C1",
"/ 	c #4F5BA6",
"( 	c #5965B9",
"_ 	c #5966BA",
": 	c #505BA8",
"< 	c #505BA7",
"[ 	c #4E59A3",
"} 	c #4F5AA4",
"| 	c #4A549A",
"1 	c #4E59A2",
"2 	c #475195",
"3 	c #4E59A4",
"4 	c #454F91",
"5 	c #3F4885",
"6 	c #444D8E",
"7 	c #384076",
"8 	c #333969",
"9 	c #434C8C",
"0 	c #404986",
"a 	c #434C8D",
"b 	c #444E8F",
"c 	c #4F59A4",
"d 	c #303561",
"e 	c #5B68BF",
"f 	c #292949",
"g 	c #404885",
"h 	c #444C8C",
"i 	c #606DC8",
"j 	c #495399",
"k 	c #3E4680",
"l 	c #5E6CC5",
"m 	c #4E528B",
"n 	c #453F50",
"o 	c #5B68BE",
"p 	c #292947",
"q 	c #444C80",
"r 	c #424876",
"s 	c #454977",
"t 	c #555C9F",
"u 	c #8E7E78",
"v 	c #505AA5",
"w 	c #DDC09B",
"x 	c #C0A98A",
"y 	c #F0C9A1",
"z 	c #544B71",
"A 	c #4C57A0",
"B 	c #8C8D94",
"C 	c #969DBD",
"D 	c #505A9A",
"E 	c #5864B8",
"F 	c #B3B6BF",
"G 	c #DCDCDF",
"H 	c #6169AC",
"I 	c #4F4E75",
"J 	c #F6D8AB",
"K 	c #C0A889",
"L 	c #FFE0B1",
"M 	c #FFDEB0",
"N 	c #C89982",
"O 	c #9E7A86",
"P 	c #92746F",
"Q 	c #A3A7B6",
"R 	c #7D86AB",
"S 	c #ACB3CD",
"T 	c #464C7A",
"U 	c #4C4A6C",
"V 	c #D0D5E5",
"W 	c #DDE0EA",
"X 	c #9F9DAE",
"Y 	c #8E6661",
"Z 	c #FCDCAE",
"` 	c #F7BE98",
" .	c #FCD0A5",
"..	c #F5C09A",
"+.	c #E3AF90",
"@.	c #FDDDAF",
"#.	c #FBDDB1",
"$.	c #DCAF96",
"%.	c #B3828E",
"&.	c #C1A3A4",
"*.	c #D29A92",
"=.	c #E0BFA0",
"-.	c #E2C7A6",
";.	c #C59984",
">.	c #F5BF9A",
",.	c #F8BE98",
"'.	c #F9BF99",
").	c #F9BE99",
"!.	c #F7D8AD",
"~.	c #FEDDAF",
"{.	c #D8947F",
"].	c #B37367",
"^.	c #F9C8A0",
"/.	c #FBDCAF",
"(.	c #E1C7A6",
"_.	c #A9A0A8",
":.	c #F7BC97",
"<.	c #F3B593",
"[.	c #A4A8C0",
"}.	c #C7B4A7",
"|.	c #C6B09A",
"1.	c #F9DBAF",
"2.	c #D3AA8C",
"3.	c #E7B496",
"4.	c #C7B3A5",
"5.	c #A0A3B6",
"6.	c #CCCFDC",
"7.	c #F1F3F9",
"8.	c #CACBD9",
"9.	c #F3B592",
"0.	c #F7BD97",
"a.	c #CCD1EA",
"b.	c #FCFCFE",
"c.	c #FAFAFC",
"d.	c #DEE1EC",
"e.	c #C9C9D2",
"f.	c #9FA2BE",
"g.	c #BFC0D0",
"h.	c #FAFBFB",
"i.	c #C4BDC0",
"j.	c #DFC4A4",
"k.	c #AD8DA1",
"l.	c #CBCDDB",
"m.	c #F9FAFB",
"n.	c #E3E7F6",
"o.	c #AEB5E3",
"p.	c #F9FAFD",
"q.	c #FFFFFF",
"r.	c #FBFBFB",
"s.	c #CCC0B8",
"t.	c #FEDEB0",
"u.	c #F4B995",
"v.	c #EF9F86",
"w.	c #D89386",
"x.	c #A78C9F",
"y.	c #989FCA",
"z.	c #A5AEDF",
"A.	c #95A0CF",
"B.	c #B9C1E7",
"C.	c #D6D9EE",
"D.	c #C1B5B5",
"E.	c #FADAAE",
"F.	c #FAC9A1",
"G.	c #E59381",
"H.	c #F1AE8E",
"I.	c #C89179",
"J.	c #C5776E",
"K.	c #C5766E",
"L.	c #E59581",
"M.	c #D39084",
"N.	c #9B829C",
"O.	c #7E8ABA",
"P.	c #838FBD",
"Q.	c #A3859E",
"R.	c #EDA087",
"S.	c #F1A489",
"T.	c #F1A388",
"U.	c #D08075",
"V.	c #C89178",
"W.	c #C47F6E",
"X.	c #965455",
"Y.	c #F3A288",
"Z.	c #E99782",
"`.	c #C8816F",
" +	c #BF7E6B",
".+	c #BC7C6B",
"++	c #9C6971",
"@+	c #815468",
"#+	c #C58975",
"$+	c #C29176",
"%+	c #C39176",
"&+	c #DA9982",
"*+	c #C47F6D",
"=+	c #F1A086",
"-+	c #F5A489",
";+	c #E0927D",
">+	c #C6816F",
",+	c #F9BD98",
"'+	c #F5BB96",
")+	c #E49F88",
"!+	c #D37F77",
"~+	c #DB8C7B",
"{+	c #E39180",
"]+	c #CD7C73",
"^+	c #D1957D",
"/+	c #F5BA96",
"(+	c #F7BD98",
"_+	c #E2A185",
":+	c #E2A286",
"<+	c #C89279",
"[+	c #F6AE8F",
"}+	c #FCCEA4",
"|+	c #FCCFA5",
"1+	c #C29D7E",
"2+	c #BC8D73",
"3+	c #F5C49D",
"4+	c #F9C19B",
"5+	c #F9C19A",
"6+	c #F3BD98",
"7+	c #C29277",
"8+	c #F6BC97",
"9+	c #F2AF8F",
"0+	c #F2B492",
"a+	c #D89981",
"b+	c #BE8E74",
"                                                                                                                                ",
"                                                                                                                                ",
"                                                                                                                                ",
"                                                                                                                                ",
"                                                                                                                                ",
"                                                                                                                                ",
"                                                                                                                                ",
"                                                                                                                                ",
"                                                                                                                                ",
"                                                            . + + @                                                             ",
"                                                        . # $ $ $ $ $ +                                                         ",
"                                                      . $ $ $ $ $ $ $ $ #                                                       ",
"                                                      # $ $ $ $ $ $ $ $ $ %                                                     ",
"                                                    . $ $ $ $ $ $ $ $ $ $ #                                                     ",
"                                                    & $ $ $ $ $ $ $ $ $ $ $ *                                                   ",
"                                                    = $ $ $ $ $ $ $ $ $ $ $ -                                                   ",
"                                                    ; $ $ $ $ $ $ $ $ $ $ > ,                                                   ",
"                                                  ' ) > $ $ $ $ $ $ $ $ $ ! ~                                                   ",
"                                                  { ] ^ > $ $ $ $ $ $ $ = ) ~                                                   ",
"                                                  { ~ / ) ( ! # # = _ % : ~ ~                                                   ",
"                                                  { ~ ~ ~ ~ / < < < ~ ~ ~ ~ ~                                                   ",
"                                                  [ ~ ~ ~ ~ ~ ~ ~ ~ ~ ~ ~ ~ ~                                                   ",
"                                                  } ~ ~ ~ ~ ~ ~ ~ ~ ~ ~ ~ ~ ~ |                                                 ",
"                                                  ~ ~ ~ ~ ~ ~ ~ ~ ~ ~ ~ ~ ~ ~ 1                                                 ",
"                                                  ~ } ~ ~ } ~ ~ ~ ~ } ~ ~ } ~ 1                                                 ",
"                                                  ~ 2 3 ~ 2 3 ~ ~ ~ 2 3 ~ 2 3 1                                                 ",
"                                                  ~ 4 [ } 5 [ ~ ~ ~ 6 | ~ 4 [ 1                                                 ",
"                                                  } 7 3 3 8 [ ] < ~ 9 0 < a b c                                                 ",
"                                                  - d e e f | ^ = ) g h i j k l                                                 ",
"                                                m } n o + p q i $ % r s = t u v                                                 ",
"                                                w x y z A B C D E ~ F G H I J K                                                 ",
"                                                L M N O P Q R S T U V W X Y Z L                                                 ",
"                                              `  ...  +.@.#.$.%.&.*.=.-.;.  >. .,.                                              ",
"                                              '.).    !.L L ~.{.].^./.(._.    ).'.                                              ",
"                                            :.'.<.    [.}.|.1.2.3.4.5.6.7.8.  9.'.0.                                            ",
"                                            '.).    a.b.c.d.e.f.g.d.b.h.i.j.    ).'.                                            ",
"                                          :.'.<.    k.l.m.b.n.o.p.q.r.s./.t.    9.'.0.                                          ",
"                                        u.'.).      v.w.x.y.z.A.B.C.D.E.~.F.      ).'.u.                                        ",
"                                      v.G.H.I.      J.K.L.M.N.O.P.Q.R.S.T.U.      V.H.G.v.                                      ",
"                                      W.  X.        Y.Z.`. +.+++@+#+$+$+%+&+        X.  *+                                      ",
"                                                    =+-+-+-+-+;+>+,+'.'.'.'+                                                    ",
"                                                      -+-+-+-+Y.)+'.'.'.'.                                                      ",
"                                                      Y.-+-+-+Y.)+'.'.'.'.                                                      ",
"                                                      !+~+{+{+]+^+'.'.'.).                                                      ",
"                                                        /+(+(+_+^+'.'.'.'+                                                      ",
"                                                        ,+'.'.:+<+'.'.'.                                                        ",
"                                                        [+}+|+1+2+'.'.).                                                        ",
"                                                        3+4+5+6+7+'.'.8+                                                        ",
"                                                          ).'.9+$+'.'.'+                                                        ",
"                                                          0+'.a+b+'.'.                                                          ",
"                                                                  '.'.                                                          ",
"                                                                  (+(+                                                          ",
"                                                                                                                                ",
"                                                                                                                                ",
"                                                                                                                                ",
"                                                                                                                                ",
"                                                                                                                                ",
"                                                                                                                                ",
"                                                                                                                                ",
"                                                                                                                                ",
"                                                                                                                                ",
"                                                                                                                                ",
"                                                                                                                                ",
"                                                                                                                                "};
