/* XPM */
static char * u1_xpm[] = {
"64 64 241 2",
"  	c #AADA50",
". 	c #5865B9",
"+ 	c #606ECA",
"@ 	c #616FCB",
"# 	c #5F6DC7",
"$ 	c #5F6DC8",
"% 	c #606DC8",
"& 	c #5F6CC6",
"* 	c #4B559C",
"= 	c #4F5AA6",
"- 	c #606EC9",
"; 	c #4F5AA4",
"> 	c #3F447D",
", 	c #505BA7",
"' 	c #5965B9",
") 	c #4E59A2",
"! 	c #495296",
"~ 	c #4F5AA5",
"{ 	c #5460B0",
"] 	c #5D6AC2",
"^ 	c #616FCA",
"/ 	c #4E59A3",
"( 	c #4E58A2",
"_ 	c #4F5BA6",
": 	c #505BA8",
"< 	c #4D58A2",
"[ 	c #475195",
"} 	c #4E59A4",
"| 	c #475194",
"1 	c #535EAD",
"2 	c #444E8F",
"3 	c #535FAE",
"4 	c #5561B1",
"5 	c #5C69C0",
"6 	c #444D8F",
"7 	c #5864B8",
"8 	c #454E90",
"9 	c #525EAC",
"0 	c #555EAB",
"a 	c #383F74",
"b 	c #535FAF",
"c 	c #5865B8",
"d 	c #3F4885",
"e 	c #5764B7",
"f 	c #606EC8",
"g 	c #3C447D",
"h 	c #998786",
"i 	c #928175",
"j 	c #918286",
"k 	c #5A67BD",
"l 	c #3F4884",
"m 	c #454E8F",
"n 	c #5C69C1",
"o 	c #545FAF",
"p 	c #373F74",
"q 	c #5C5DA0",
"r 	c #B28975",
"s 	c #5B4D69",
"t 	c #FDDEAF",
"u 	c #C1A687",
"v 	c #596189",
"w 	c #505165",
"x 	c #9092A4",
"y 	c #5460AF",
"z 	c #4A5394",
"A 	c #666B8C",
"B 	c #4B5078",
"C 	c #B57D77",
"D 	c #F8BE98",
"E 	c #F5BC97",
"F 	c #F7CFA5",
"G 	c #FFE0B1",
"H 	c #FDDDAF",
"I 	c #A57571",
"J 	c #CBCCDE",
"K 	c #F7F7F8",
"L 	c #EEF1F6",
"M 	c #5D648D",
"N 	c #595E8B",
"O 	c #868AA1",
"P 	c #E4E8F3",
"Q 	c #BDC2D4",
"R 	c #9E7577",
"S 	c #F5BB96",
"T 	c #F9BF99",
"U 	c #F3B592",
"V 	c #FDDCAE",
"W 	c #FFDEB0",
"X 	c #F5C09A",
"Y 	c #C29479",
"Z 	c #E4C5AC",
"` 	c #D0C1B7",
" .	c #C9B3AE",
"..	c #9494AD",
"+.	c #C7CAD7",
"@.	c #999BB2",
"#.	c #CABAB2",
"$.	c #E1C6A5",
"%.	c #F2CEA5",
"&.	c #CA967C",
"*.	c #F7BD98",
"=.	c #F9C09A",
"-.	c #CD977C",
";.	c #F8D3A7",
">.	c #FFDFB0",
",.	c #DBB092",
"'.	c #E6C4A0",
").	c #F7D9AE",
"!.	c #E1C6A4",
"~.	c #C6B4A7",
"{.	c #9DA0B4",
"].	c #8784A7",
"^.	c #F3BB98",
"/.	c #AA7F83",
"(.	c #C6B3A5",
"_.	c #F9DBAF",
":.	c #FBDCAF",
"<.	c #FADBAE",
"[.	c #D8A089",
"}.	c #C3AFA3",
"|.	c #A0A3B6",
"1.	c #CCCFDC",
"2.	c #F3F5FA",
"3.	c #FCFDFE",
"4.	c #DFE2F1",
"5.	c #C2988C",
"6.	c #F9BE98",
"7.	c #F5AB8D",
"8.	c #908AAB",
"9.	c #DADEEB",
"0.	c #CAC9D2",
"a.	c #C7C5C9",
"b.	c #C4C2C9",
"c.	c #A6A9C8",
"d.	c #DDE1EC",
"e.	c #FCFCFE",
"f.	c #E3E6F4",
"g.	c #CACAD3",
"h.	c #C8BAB4",
"i.	c #BD806E",
"j.	c #F1A88B",
"k.	c #F5A489",
"l.	c #C8937B",
"m.	c #8A8DBA",
"n.	c #DCE1F6",
"o.	c #DCE2F6",
"p.	c #BAC2E9",
"q.	c #F4F7FD",
"r.	c #E4E7F5",
"s.	c #ACAFCA",
"t.	c #C7B4A8",
"u.	c #FBD4A9",
"v.	c #BD7E6B",
"w.	c #D48676",
"x.	c #F4A489",
"y.	c #F8BC97",
"z.	c #FAD5A9",
"A.	c #BA7F6F",
"B.	c #A56271",
"C.	c #999BC9",
"D.	c #A9B1E1",
"E.	c #ABB2E2",
"F.	c #A6AEE0",
"G.	c #94A0CE",
"H.	c #B7BFE6",
"I.	c #BCA9AF",
"J.	c #F6CAA3",
"K.	c #FCCFA5",
"L.	c #FBCEA4",
"M.	c #F4AC8E",
"N.	c #E29080",
"O.	c #F4BA96",
"P.	c #F9BD98",
"Q.	c #F3B492",
"R.	c #FBDCAE",
"S.	c #F4CDA5",
"T.	c #A56260",
"U.	c #CC7972",
"V.	c #9D5C6A",
"W.	c #897497",
"X.	c #8E98C8",
"Y.	c #A1A9DB",
"Z.	c #7380B0",
"`.	c #716C91",
" +	c #C07C6D",
".+	c #D08775",
"++	c #D18875",
"@+	c #C67B70",
"#+	c #D08075",
"$+	c #B56766",
"%+	c #CF8474",
"&+	c #F1A98B",
"*+	c #F2B291",
"=+	c #FEDDAF",
"-+	c #EAC69E",
";+	c #E5B391",
">+	c #F2A187",
",+	c #E89682",
"'+	c #AD6263",
")+	c #9E5E6B",
"!+	c #8F5A71",
"~+	c #744862",
"{+	c #9F6E61",
"]+	c #D99981",
"^+	c #F4B593",
"/+	c #F6BC97",
"(+	c #F7B794",
"_+	c #E89782",
":+	c #F4A288",
"<+	c #EB9884",
"[+	c #D68078",
"}+	c #914D52",
"|+	c #D79881",
"1+	c #F3A288",
"2+	c #A5605E",
"3+	c #D78179",
"4+	c #E18D7F",
"5+	c #A45E5E",
"6+	c #F9BE99",
"7+	c #C97072",
"8+	c #CD7474",
"9+	c #AE6363",
"0+	c #F7BC97",
"a+	c #C2756C",
"b+	c #C3756C",
"c+	c #BC856F",
"d+	c #EE9F85",
"e+	c #EFA086",
"f+	c #BF8771",
"g+	c #F3A388",
"h+	c #BD766A",
"i+	c #C0806D",
"j+	c #F2A288",
"k+	c #F7B291",
"l+	c #C0816D",
"m+	c #F4BB96",
"n+	c #C29277",
"o+	c #C09075",
"p+	c #F2B592",
"q+	c #F5BC96",
"r+	c #F1B994",
"                                                                                                                                ",
"                                                                                                                                ",
"                                                                                                                                ",
"                                                                                                                                ",
"                                                                                                                                ",
"                                                                                                                                ",
"                                                                                                                                ",
"                                                                                                                                ",
"                                                                                                                                ",
"                                                          . + @ @ @ #                                                           ",
"                                                        @ @ @ @ @ @ @ @ $                                                       ",
"                                                      % @ @ @ @ @ @ @ @ @                                                       ",
"                                                      @ @ @ @ @ @ @ @ @ @ #                                                     ",
"                                                    & @ @ @ @ @ @ @ @ @ @ @                                                     ",
"                                                    # @ @ @ @ @ @ @ @ @ @ @ *                                                   ",
"                                                    $ @ @ @ @ @ @ @ @ @ @ @ =                                                   ",
"                                                    . @ @ @ @ @ @ @ @ @ @ - ;                                                   ",
"                                                  > , - @ @ @ @ @ @ @ @ @ ' )                                                   ",
"                                                  ! ~ { ] + ^ @ @ @ + - ' , /                                                   ",
"                                                  ( ~ ~ _ , { ' ' . : , ~ ~ ~                                                   ",
"                                                  ( ~ ~ ~ ~ ~ ~ ~ ~ ~ ~ ~ ~ ~                                                   ",
"                                                  ( ~ ~ ~ ~ ~ ~ ~ ~ ~ ~ ~ ~ ~                                                   ",
"                                                  / ~ ~ ~ ~ ~ ~ ~ ~ ~ ~ ~ ~ ~                                                   ",
"                                                  ~ ~ ~ ~ ~ ~ ~ ~ ~ ~ ~ ~ ~ ~ <                                                 ",
"                                                  ~ ; ~ ~ ; ~ ~ ~ ~ ; ~ ~ ; ~ (                                                 ",
"                                                  ~ [ } ~ [ } ~ ~ ~ [ } ~ [ } (                                                 ",
"                                                  ~ | / ~ | / ~ = ~ | / ~ | / <                                                 ",
"                                                  1 2 3 { 2 / 4 5 , 6 ~ 7 8 9                                                   ",
"                                                  0 a b - 8 * - @ c d e f g /                                                   ",
"                                                  h i j k l m n + o p 3 q r s                                                   ",
"                                                  t t u v w x ; y z A B C D E                                                   ",
"                                                F G H I J K L M N O P Q R S T U                                                 ",
"                                                V W X Y Z `  ...+.@.#.$.%.&.T *.                                                ",
"                                                =.=.-.;.G G >.,.'.).!.~.{.].^.T                                                 ",
"                                                T *./.(._.:.<.[.}.|.1.2.3.4.5.6.7.                                              ",
"                                              S T U 8.9.0.a.b.c.d.e.3.f.g.h.i.j.k.                                              ",
"                                              =.=.l.m.n.e.e.o.p.q.r.s.t._.u.v.w.x.y.                                            ",
"                                            z.>.V A.B.C.D.E.F.G.H.I.J.K.L.M.    N.O.P.Q.                                        ",
"                                          R.G S.;.T.U.V.W.X.Y.Z.`. +.+++@+#+      $+%+&+*+                                      ",
"                                          =+-+;+    >+,+'+)+!+~+{+]+^+/+/+(+                                                    ",
"                                                    _+k.:+<+[+}+|+T T T T S                                                     ",
"                                                      1+k.k.>+2+U T T T T                                                       ",
"                                                      3+4+4+3+5+S T T T 6+                                                      ",
"                                                      7+8+8+7+9+0+T T T S                                                       ",
"                                                      a+>+>+b+c+6+T T T                                                         ",
"                                                      d+k.k.e+f+6+T T 6+                                                        ",
"                                                        k.k.g+h+0+T T /+                                                        ",
"                                                        k.k.k.i+S T T S                                                         ",
"                                                        j+k+k+l+m+T T                                                           ",
"                                                          T T n+m+T T                                                           ",
"                                                          T T o+m+T T                                                           ",
"                                                                p+T 6+                                                          ",
"                                                                  q+r+                                                          ",
"                                                                                                                                ",
"                                                                                                                                ",
"                                                                                                                                ",
"                                                                                                                                ",
"                                                                                                                                ",
"                                                                                                                                ",
"                                                                                                                                ",
"                                                                                                                                ",
"                                                                                                                                ",
"                                                                                                                                ",
"                                                                                                                                "};
