/* XPM */
static char * u2_xpm[] = {
"64 64 240 2",
"  	c #AADA50",
". 	c #5F6CC6",
"+ 	c #5F6DC7",
"@ 	c #5865B9",
"# 	c #606EC8",
"$ 	c #616FCB",
"% 	c #606ECA",
"& 	c #4C579F",
"* 	c #5F6DC8",
"= 	c #5460AF",
"- 	c #535FAE",
"; 	c #616FCA",
"> 	c #5D6AC2",
", 	c #4F5AA4",
"' 	c #5460B0",
") 	c #3F457D",
"! 	c #4E59A3",
"~ 	c #606EC9",
"{ 	c #5C69C1",
"] 	c #4F5BA6",
"^ 	c #3B437A",
"/ 	c #475093",
"( 	c #4F5AA5",
"_ 	c #505BA8",
": 	c #5966BA",
"< 	c #5965B9",
"[ 	c #414A87",
"} 	c #505BA7",
"| 	c #4E59A4",
"1 	c #4E58A2",
"2 	c #475195",
"3 	c #4B569D",
"4 	c #414A88",
"5 	c #475194",
"6 	c #4E59A2",
"7 	c #3B437C",
"8 	c #4F5AA6",
"9 	c #4D58A1",
"0 	c #525EAC",
"a 	c #444E90",
"b 	c #5864B8",
"c 	c #465093",
"d 	c #5C69C0",
"e 	c #5561B1",
"f 	c #444E8F",
"g 	c #3B427A",
"h 	c #606DC8",
"i 	c #5764B7",
"j 	c #3F4885",
"k 	c #525EAD",
"l 	c #383E72",
"m 	c #565373",
"n 	c #B7A28B",
"o 	c #5E62A1",
"p 	c #545FAF",
"q 	c #373F74",
"r 	c #535FAF",
"s 	c #454E90",
"t 	c #3D4580",
"u 	c #5A67BC",
"v 	c #917580",
"w 	c #8E6E62",
"x 	c #8B6574",
"y 	c #F7D8AB",
"z 	c #FFE0B1",
"A 	c #DCC19C",
"B 	c #494973",
"C 	c #8C8D98",
"D 	c #555B8E",
"E 	c #4A549A",
"F 	c #3F4271",
"G 	c #3F405A",
"H 	c #5E5D7C",
"I 	c #F1B996",
"J 	c #F7BD98",
"K 	c #F3AF8F",
"L 	c #FFDFB0",
"M 	c #E5B996",
"N 	c #807A9B",
"O 	c #C8CDE3",
"P 	c #BABED2",
"Q 	c #3E4373",
"R 	c #8F909E",
"S 	c #8388B2",
"T 	c #CACDDF",
"U 	c #DFE3F1",
"V 	c #BE8F88",
"W 	c #F7B291",
"X 	c #F5A58A",
"Y 	c #C59A7D",
"Z 	c #F1BA97",
"` 	c #E1B5A3",
" .	c #B88F9E",
"..	c #656690",
"+.	c #C2C8E0",
"@.	c #8589B4",
"#.	c #9CA2BC",
"$.	c #C5C9DA",
"%.	c #C2A991",
"&.	c #D8917B",
"*.	c #F5A489",
"=.	c #E79782",
"-.	c #F7CFA5",
";.	c #FBDCAE",
">.	c #CA977C",
",.	c #FDD7AA",
"'.	c #FAD3A8",
").	c #A05E5F",
"!.	c #CAA399",
"~.	c #C5B1A3",
"{.	c #F2D6AD",
"].	c #C2AD9B",
"^.	c #C7B4A8",
"/.	c #847C9A",
"(.	c #EFA088",
"_.	c #F3A388",
":.	c #C2967A",
"<.	c #FDDDAF",
"[.	c #CE8478",
"}.	c #DFC3A4",
"|.	c #B4AAB5",
"1.	c #C8C8D2",
"2.	c #E9EAF4",
"3.	c #FBFBFC",
"4.	c #F1F3F8",
"5.	c #C08A88",
"6.	c #FEDEAF",
"7.	c #CCAB8D",
"8.	c #ADA2AF",
"9.	c #C7B19D",
"0.	c #C7B19C",
"a.	c #C5AE9B",
"b.	c #9F89A9",
"c.	c #D1D3E4",
"d.	c #FAFAFC",
"e.	c #FCFCFD",
"f.	c #CACAD3",
"g.	c #C5C3C9",
"h.	c #807595",
"i.	c #F1A188",
"j.	c #FBC9A0",
"k.	c #FCCFA5",
"l.	c #BD8D7C",
"m.	c #DEE1F1",
"n.	c #FBFBFB",
"o.	c #FAFAFB",
"p.	c #D9DEEB",
"q.	c #CED4EE",
"r.	c #FEFEFF",
"s.	c #E4E4EB",
"t.	c #B4ABB6",
"u.	c #C8B19D",
"v.	c #F9DBAF",
"w.	c #FADAAD",
"x.	c #BD816E",
"y.	c #F1A187",
"z.	c #F7BE98",
"A.	c #F9C09A",
"B.	c #F5BB96",
"C.	c #7D6079",
"D.	c #B7BEE5",
"E.	c #F4F6FD",
"F.	c #FAFBFD",
"G.	c #A8B0D4",
"H.	c #B8C0E7",
"I.	c #D9D8E1",
"J.	c #DDAB96",
"K.	c #F8C39D",
"L.	c #FAC59F",
"M.	c #F9C19C",
"N.	c #BF7F6C",
"O.	c #EE9F85",
"P.	c #F4A389",
"Q.	c #E2A487",
"R.	c #9E585C",
"S.	c #91779A",
"T.	c #A7AEDE",
"U.	c #ABB2E2",
"V.	c #9099CC",
"W.	c #989FD0",
"X.	c #D29288",
"Y.	c #D28775",
"Z.	c #D08674",
"`.	c #DA8C7B",
" +	c #EC9C85",
".+	c #F5A68A",
"++	c #BC7B6A",
"@+	c #C2766C",
"#+	c #F3A288",
"$+	c #FDDCAE",
"%+	c #9A685B",
"&+	c #C46D6F",
"*+	c #A85C61",
"=+	c #665778",
"-+	c #8686B2",
";+	c #8284B0",
">+	c #5D567C",
",+	c #BC766B",
"'+	c #F4B492",
")+	c #F6BC97",
"!+	c #F7BC97",
"~+	c #F8BD98",
"{+	c #8A5250",
"]+	c #C57D6E",
"^+	c #F1A087",
"/+	c #FFDEB0",
"(+	c #C76E71",
"_+	c #CB7173",
":+	c #C86F71",
"<+	c #C76F72",
"[+	c #A5575E",
"}+	c #7F4549",
"|+	c #F3B492",
"1+	c #F9BF99",
"2+	c #F4BA95",
"3+	c #C97072",
"4+	c #A0595A",
"5+	c #F5BC96",
"6+	c #CA7072",
"7+	c #B76767",
"8+	c #B56165",
"9+	c #C06A6C",
"0+	c #9F595A",
"a+	c #A15C5C",
"b+	c #F5BC97",
"c+	c #C96F72",
"d+	c #C79078",
"e+	c #BF8F75",
"f+	c #F9C19A",
"g+	c #C09176",
"h+	c #F4BF9A",
"i+	c #C4A685",
"j+	c #C09B7D",
"k+	c #FFDFB1",
"l+	c #F9C8A0",
"m+	c #FACEA4",
"n+	c #F7C79F",
"o+	c #D1867A",
"p+	c #CA7473",
"q+	c #D2867A",
"                                                                                                                                ",
"                                                                                                                                ",
"                                                                                                                                ",
"                                                                                                                                ",
"                                                                                                                                ",
"                                                                                                                                ",
"                                                                                                                                ",
"                                                                                                                                ",
"                                                                                                                                ",
"                                                              . + + @                                                           ",
"                                                          # $ $ $ $ $ % .                                                       ",
"                                                        $ $ $ $ $ $ $ $ $ .                                                     ",
"                                                      @ $ $ $ $ $ $ $ $ $ %                                                     ",
"                                                      % $ $ $ $ $ $ $ $ $ $ @                                                   ",
"                                                    & $ $ $ $ $ $ $ $ $ $ $ *                                                   ",
"                                                    = $ $ $ $ $ $ $ $ $ $ $ #                                                   ",
"                                                    - ; $ $ $ $ $ $ $ $ $ $ >                                                   ",
"                                                    , > $ $ $ $ $ $ $ $ $ ; ' )                                                 ",
"                                                    ! ' ~ $ $ $ $ $ $ $ ; { ] )                                                 ",
"                                                  ^ / ( _ @ : ~ % % > < ' ] (                                                   ",
"                                                  [ / ( ( ( ( } } } ] ( ( ( (                                                   ",
"                                                  | , ( ( ( ( ( ( ( ( ( ( ( (                                                   ",
"                                                  ( ( ( ( ( ( ( ( ( ( ( ( ( (                                                   ",
"                                                1 ( , ( ( ( ( ( ( ( ( ( ( ( (                                                   ",
"                                                , ( 2 | ( , ( ( ( ( ( ( ( 3 ,                                                   ",
"                                                ( , 4 ! ( 5 | ( ( ( 3 , , 4 6                                                   ",
"                                                ( ! [ , ! 7 ! 8 ( , 4 ! ! [ 9                                                   ",
"                                                ! 0 a b ( c } d e ! [ ' - f 0                                                   ",
"                                                  ] g h i j b $ ~ 3 a ~ k l                                                     ",
"                                                  m n o p q r % { s t u v w x                                                   ",
"                                                  y z A B C D - E F G H I J K                                                   ",
"                                                  L z M N O P Q R S T U V W X                                                   ",
"                                                  z L Y Z `  ...+.@.#.$.%.&.*.=.                                                ",
"                                                -.z ;.>.,.L '.).!.~.{.].^./.(._.                                                ",
"                                                ;.z -.:.L z <.[.}.|.1.2.3.4.5.*.                                                ",
"                                                6.z 7.8.9.0.a.b.c.d.e.2.f.g.h.i.                                                ",
"                                                j.k.l.m.n.o.p.q.r.s.t.u.v.w.x.y.y.                                              ",
"                                              z.A.B.C.D.E.F.G.H.I.J.K.L.L.M.N.O.P.                                              ",
"                                              L ,.Q.R.S.T.U.V.W.X.Y.Z.`. +.+++@+#+                                              ",
"                                            $+z $+%+&+*+=+-+;+>+,+'+)+!+~+B.{+]+^+                                              ",
"                                            6./+    (+_+:+<+[+}+|+1+1+1+1+2+                                                    ",
"                                                      _+_+_+3+4+5+1+1+1+1+                                                      ",
"                                                      6+_+_+_+7+)+1+1+1+1+                                                      ",
"                                                        _+_+_+7+)+1+1+1+)+                                                      ",
"                                                        8+6+9+0+5+1+1+1+2+                                                      ",
"                                                          _+3+a+b+1+1+1+                                                        ",
"                                                          _+c+d+1+1+1+1+                                                        ",
"                                                          6+:+e+A.f+A.)+                                                        ",
"                                                          (+:+g+,.L /+h+                                                        ",
"                                                            :+i+z z z                                                           ",
"                                                              j+k+z /+                                                          ",
"                                                                l+m+n+                                                          ",
"                                                                o+p+q+                                                          ",
"                                                                                                                                ",
"                                                                                                                                ",
"                                                                                                                                ",
"                                                                                                                                ",
"                                                                                                                                ",
"                                                                                                                                ",
"                                                                                                                                ",
"                                                                                                                                ",
"                                                                                                                                ",
"                                                                                                                                ",
"                                                                                                                                "};
