/* XPM */
static char * u3_xpm[] = {
"64 64 240 2",
"  	c #AADA50",
". 	c #5F6DC7",
"+ 	c #616FCB",
"@ 	c #606ECA",
"# 	c #5865B9",
"$ 	c #5F6DC8",
"% 	c #606EC8",
"& 	c #5F6CC6",
"* 	c #4C57A0",
"= 	c #545FAF",
"- 	c #4F5AA6",
"; 	c #606EC9",
"> 	c #4E59A4",
", 	c #5965B9",
"' 	c #505BA8",
") 	c #3F447D",
"! 	c #3C447C",
"~ 	c #505BA7",
"{ 	c #616FCA",
"] 	c #5D6AC2",
"^ 	c #5460B0",
"/ 	c #4F5AA5",
"( 	c #3D467F",
"_ 	c #4F5BA6",
": 	c #4A549B",
"< 	c #4A559B",
"[ 	c #4F5AA4",
"} 	c #4E59A3",
"| 	c #414A88",
"1 	c #4A549A",
"2 	c #3F4784",
"3 	c #3A4279",
"4 	c #4F59A4",
"5 	c #495399",
"6 	c #475093",
"7 	c #4B569D",
"8 	c #4E58A2",
"9 	c #353D71",
"0 	c #3C447D",
"a 	c #465092",
"b 	c #454F91",
"c 	c #464F91",
"d 	c #33375F",
"e 	c #4B559C",
"f 	c #444D8E",
"g 	c #5C69C1",
"h 	c #454F90",
"i 	c #535FAE",
"j 	c #424776",
"k 	c #957680",
"l 	c #545488",
"m 	c #5864B7",
"n 	c #3A427A",
"o 	c #5764B7",
"p 	c #5B68BE",
"q 	c #3B3557",
"r 	c #474F90",
"s 	c #B17A7A",
"t 	c #8B92BC",
"u 	c #C1A789",
"v 	c #DDC29D",
"w 	c #5D619E",
"x 	c #384075",
"y 	c #444C87",
"z 	c #5C69C0",
"A 	c #313766",
"B 	c #424B8A",
"C 	c #666C9A",
"D 	c #B47D7C",
"E 	c #BB7E6E",
"F 	c #EC9E85",
"G 	c #7380AC",
"H 	c #CBAB8D",
"I 	c #FFE0B1",
"J 	c #DFC49D",
"K 	c #927E70",
"L 	c #ABAEC9",
"M 	c #575C86",
"N 	c #4E59A2",
"O 	c #545A8D",
"P 	c #B8B8BC",
"Q 	c #6F7392",
"R 	c #B4BEDB",
"S 	c #BB8280",
"T 	c #F5A489",
"U 	c #F3A388",
"V 	c #F7CFA5",
"W 	c #FDDDAF",
"X 	c #A67C82",
"Y 	c #D3D6EB",
"Z 	c #CED2E3",
"` 	c #534F6B",
" .	c #D0D2DA",
"..	c #F8F8FA",
"+.	c #8988AA",
"@.	c #C6A7A6",
"#.	c #C98D78",
"$.	c #F0A086",
"%.	c #FBDCAE",
"&.	c #FBDBAD",
"*.	c #9A706B",
"=.	c #CEBDB4",
"-.	c #D5A79D",
";.	c #9E6668",
">.	c #B1919D",
",.	c #CEBDB3",
"'.	c #DAC1A3",
").	c #C5AE9A",
"!.	c #BE9A8E",
"~.	c #9C6A69",
"{.	c #F3A288",
"].	c #FFDFB0",
"^.	c #E7BA96",
"/.	c #DFAD8C",
"(.	c #FFDFB1",
"_.	c #FCDCAE",
":.	c #C27B70",
"<.	c #DAB399",
"[.	c #ACA3AA",
"}.	c #C2C8DA",
"|.	c #F3F4F9",
"1.	c #F3F5FA",
"2.	c #B7B8D3",
"3.	c #D89385",
"4.	c #C7A987",
"5.	c #F3C9A1",
"6.	c #FBDCAF",
"7.	c #F8D9AE",
"8.	c #AE99A7",
"9.	c #CCCFDC",
"0.	c #F1F4FA",
"a.	c #E2E6F4",
"b.	c #CACAD3",
"c.	c #C7C5C9",
"d.	c #B9BAC5",
"e.	c #BC8380",
"f.	c #F1A187",
"g.	c #FCD6A9",
"h.	c #A98084",
"i.	c #B8B8C5",
"j.	c #AEB0C8",
"k.	c #CBCFDE",
"l.	c #FCFCFE",
"m.	c #BDBED6",
"n.	c #C9B7AA",
"o.	c #F9DBAF",
"p.	c #FADAAD",
"q.	c #C0826F",
"r.	c #ED9E85",
"s.	c #F6BD98",
"t.	c #FCD0A6",
"u.	c #F5BD98",
"v.	c #76738E",
"w.	c #BAC2E8",
"x.	c #ECF0FC",
"y.	c #B9C1E8",
"z.	c #C2C9DE",
"A.	c #D1D3E4",
"B.	c #DDBA9F",
"C.	c #F9C49E",
"D.	c #FAC59F",
"E.	c #F9BD99",
"F.	c #BF7F6C",
"G.	c #EFA086",
"H.	c #FDD7AB",
"I.	c #FFDEB0",
"J.	c #F5C49D",
"K.	c #6C6079",
"L.	c #9AA3D3",
"M.	c #A8B0E1",
"N.	c #9CA6D6",
"O.	c #7684B3",
"P.	c #A58CA7",
"Q.	c #D98D7C",
"R.	c #E49984",
"S.	c #E6A189",
"T.	c #F7B795",
"U.	c #F7BC97",
"V.	c #C47F6E",
"W.	c #CF8473",
"X.	c #FCD4A9",
"Y.	c #D2A98A",
"Z.	c #8D4B52",
"`.	c #9E6B85",
" +	c #7A7CA6",
".+	c #757BA5",
"++	c #636791",
"@+	c #A37670",
"#+	c #F4B593",
"$+	c #F9BE99",
"%+	c #F9BF99",
"&+	c #F5BB96",
"*+	c #966156",
"=+	c #C7816F",
"-+	c #D49A82",
";+	c #FCDCAF",
">+	c #DEB091",
",+	c #AD6B63",
"'+	c #C66E70",
")+	c #B66266",
"!+	c #A75B60",
"~+	c #9B555A",
"{+	c #924A52",
"]+	c #BD8E74",
"^+	c #F2BF9A",
"/+	c #C86F71",
"(+	c #CB7173",
"_+	c #B15F63",
":+	c #BD8D73",
"<+	c #C76E71",
"[+	c #A3675C",
"}+	c #F3B492",
"|+	c #F6BC97",
"1+	c #C76F71",
"2+	c #B28571",
"3+	c #D6AE8E",
"4+	c #D8AF8F",
"5+	c #FACAA1",
"6+	c #A55F5F",
"7+	c #F5C69E",
"8+	c #A46160",
"9+	c #FADBAD",
"0+	c #FDDCAE",
"a+	c #C97072",
"b+	c #BA7369",
"c+	c #F8BE99",
"d+	c #F9C19B",
"e+	c #FDD6AA",
"f+	c #F3BA97",
"g+	c #B25F63",
"h+	c #B05E62",
"i+	c #BE8D74",
"j+	c #F5B794",
"k+	c #944950",
"l+	c #934950",
"m+	c #A2675C",
"n+	c #F3B995",
"o+	c #F3BA95",
"p+	c #954A51",
"q+	c #924950",
"                                                                                                                                ",
"                                                                                                                                ",
"                                                                                                                                ",
"                                                                                                                                ",
"                                                                                                                                ",
"                                                                                                                                ",
"                                                                                                                                ",
"                                                                                                                                ",
"                                                                                                                                ",
"                                                                                                                                ",
"                                                            . + + + @ #                                                         ",
"                                                        $ + + + + + + + +                                                       ",
"                                                        + + + + + + + + + %                                                     ",
"                                                      . + + + + + + + + + +                                                     ",
"                                                      + + + + + + + + + + + &                                                   ",
"                                                    * + + + + + + + + + + + $                                                   ",
"                                                    = + + + + + + + + + + + .                                                   ",
"                                                    - ; + + + + + + + + + + #                                                   ",
"                                                    > , + + + + + + + + + ; ' )                                                 ",
"                                                  ! > ~ , ; @ + + + { @ ] ^ /                                                   ",
"                                                  ( > / / ~ ' # , , ^ ~ _ / /                                                   ",
"                                                ! : / / / / / / / / / / / / /                                                   ",
"                                                < / / / / / / / / / / / / / /                                                   ",
"                                                / / [ / / / / / / / / / / / /                                                   ",
"                                              } / [ | } / / / / / / / / / / [                                                   ",
"                                              / / 1 2 [ / [ / / / / [ / / / }                                                   ",
"                                              } > 3 : / 4 | > / / 5 6 / 7 [ 8                                                   ",
"                                              } / 9 } ~ > 0 / ^ / a b ~ c [ 1                                                   ",
"                                                / d e $ ~ f g @ ^ h i $ f i                                                     ",
"                                                j k l ; > 6 ; + m n o p q r s                                                   ",
"                                                t u v w x y ^ z / A B C D E F                                                   ",
"                                                G H I J K L M N O P Q R S T U                                                   ",
"                                                  V I W X Y Z `  ...+.@.#.$.T                                                   ",
"                                                  %.I &.*.=.-.;.>.,.'.).!.~.{.                                                  ",
"                                                  ].I ^./.(._.:.<.[.}.|.1.2.3.                                                  ",
"                                                  I I 4.5.6.7.8.9.0.a.b.c.d.e.f.                                                ",
"                                                  I g.h.i.c.j.k.l.m.n.o.6.p.q.r.                                                ",
"                                                s.t.u.v.w.x.y.z.A.B.C.C.D.E.F.G.                                                ",
"                                                H.I.J.K.L.M.N.O.P.Q.R.S.T.U.V.W.                                                ",
"                                              ].I X.Y.Z.`. +.+++@+#+$+%+%+&+*+=+G.                                              ",
"                                            -+;+].>+,+'+)+!+~+{+]+%+%+%+%+                                                      ",
"                                              ^+      /+(+(+(+_+:+%+%+%+%+                                                      ",
"                                                        (+(+(+<+[+}+|+$+$+                                                      ",
"                                                        (+(+(+1+2+3+4+5+s.                                                      ",
"                                                        /+(+(+6+V I I I 7+                                                      ",
"                                                        <+(+(+8+9+].I 0+                                                        ",
"                                                          (+a+b+c+d+e+f+                                                        ",
"                                                          g+h+i+%+%+j+                                                          ",
"                                                          k+l+:+%+%+                                                            ",
"                                                          l+k+m+n+o+                                                            ",
"                                                            p+q+                                                                ",
"                                                                                                                                ",
"                                                                                                                                ",
"                                                                                                                                ",
"                                                                                                                                ",
"                                                                                                                                ",
"                                                                                                                                ",
"                                                                                                                                ",
"                                                                                                                                ",
"                                                                                                                                ",
"                                                                                                                                ",
"                                                                                                                                ",
"                                                                                                                                ",
"                                                                                                                                "};
