/* XPM */
static char * u4_xpm[] = {
"64 64 235 2",
"  	c #AADA50",
". 	c #5865B9",
"+ 	c #606ECA",
"@ 	c #616FCB",
"# 	c #5F6DC7",
"$ 	c #5F6DC8",
"% 	c #606EC8",
"& 	c #3E4680",
"* 	c #5460B0",
"= 	c #606EC9",
"- 	c #5764B6",
"; 	c #4D58A1",
"> 	c #5965B9",
", 	c #4F5BA6",
"' 	c #4E59A3",
") 	c #505BA8",
"! 	c #4F5AA5",
"~ 	c #5D6AC2",
"{ 	c #616FCA",
"] 	c #505BA7",
"^ 	c #4E59A4",
"/ 	c #475093",
"( 	c #3C447C",
"_ 	c #4A559B",
": 	c #4A5499",
"< 	c #4F5AA4",
"[ 	c #475195",
"} 	c #3F4885",
"| 	c #454F91",
"1 	c #444D8F",
"2 	c #535FAE",
"3 	c #5764B7",
"4 	c #363D71",
"5 	c #545FAF",
"6 	c #3D4681",
"7 	c #606DC8",
"8 	c #3F4884",
"9 	c #5864B7",
"0 	c #5763B6",
"a 	c #5662B4",
"b 	c #595D97",
"c 	c #84756C",
"d 	c #5864B8",
"e 	c #333969",
"f 	c #363D72",
"g 	c #525EAC",
"h 	c #464F91",
"i 	c #B68A74",
"j 	c #BDA588",
"k 	c #DABF99",
"l 	c #5D566C",
"m 	c #525DAB",
"n 	c #525A98",
"o 	c #39394F",
"p 	c #485296",
"q 	c #2F335E",
"r 	c #5B68BE",
"s 	c #505BA5",
"t 	c #37374D",
"u 	c #3F4782",
"v 	c #95777E",
"w 	c #F4BB96",
"x 	c #FFE0B1",
"y 	c #BDA386",
"z 	c #5C5E80",
"A 	c #C6C8D5",
"B 	c #BDBDC0",
"C 	c #4F5AA3",
"D 	c #8F909E",
"E 	c #65698D",
"F 	c #414982",
"G 	c #57597C",
"H 	c #9A98AA",
"I 	c #564C66",
"J 	c #F1B391",
"K 	c #F9BE98",
"L 	c #F7CFA5",
"M 	c #FDDDAF",
"N 	c #AB8388",
"O 	c #947284",
"P 	c #A8AAC7",
"Q 	c #CACDD8",
"R 	c #62607C",
"S 	c #9398B2",
"T 	c #EDEFF6",
"U 	c #8F91B5",
"V 	c #C5B4AB",
"W 	c #DFBE9E",
"X 	c #F2BE9B",
"Y 	c #F5A58A",
"Z 	c #F2A187",
"` 	c #E2AE8F",
" .	c #FBDCAF",
"..	c #FBDDB1",
"+.	c #F6CFA7",
"@.	c #AB818C",
"#.	c #C8ADAB",
"$.	c #DFC5A4",
"%.	c #F9DBAF",
"&.	c #C6B09A",
"*.	c #C7B3A6",
"=.	c #CA8173",
"-.	c #F5A489",
";.	c #F4A389",
">.	c #DDBB9D",
",.	c #DFB293",
"'.	c #DEC2A2",
").	c #ABA2A9",
"!.	c #BFC1D0",
"~.	c #DDE1EC",
"{.	c #FAFAFC",
"].	c #E0E3F1",
"^.	c #BD8887",
"/.	c #F4BF99",
"(.	c #FFDFB0",
"_.	c #CBCFDC",
":.	c #A0A3B6",
"<.	c #C7B4A7",
"[.	c #C7B19D",
"}.	c #A89FA8",
"|.	c #CACDDB",
"1.	c #F3F5FB",
"2.	c #FAFBFD",
"3.	c #E3E6F3",
"4.	c #CACAD3",
"5.	c #C5C3C9",
"6.	c #948CA0",
"7.	c #F1A188",
"8.	c #F7BE98",
"9.	c #FDD8AB",
"0.	c #9F889D",
"a.	c #FBFBFC",
"b.	c #FDFDFE",
"c.	c #F8F8FA",
"d.	c #ADB7D7",
"e.	c #EBF0FA",
"f.	c #C9CEE4",
"g.	c #B3AAB6",
"h.	c #C7B19C",
"i.	c #F9DAAE",
"j.	c #F6C69F",
"k.	c #BC7D6C",
"l.	c #F1A187",
"m.	c #EABC98",
"n.	c #BF7A7B",
"o.	c #C7C8DA",
"p.	c #F5F7FD",
"q.	c #FCFCFE",
"r.	c #E3E7F6",
"s.	c #919BCC",
"t.	c #ABADCF",
"u.	c #DBA895",
"v.	c #F8C39D",
"w.	c #FAC59F",
"x.	c #F8BC98",
"y.	c #F3A489",
"z.	c #BF7E6B",
"A.	c #E7C39C",
"B.	c #CFAC8B",
"C.	c #FCDCAF",
"D.	c #BE6A6B",
"E.	c #B37277",
"F.	c #9092BD",
"G.	c #A1A9D6",
"H.	c #A8B0E1",
"I.	c #8D97C7",
"J.	c #92656A",
"K.	c #D08674",
"L.	c #DA8C7B",
"M.	c #E39180",
"N.	c #DA867B",
"O.	c #DC937F",
"P.	c #BD7C6A",
"Q.	c #CD8272",
"R.	c #DEC099",
"S.	c #DAA586",
"T.	c #DCA187",
"U.	c #DF937D",
"V.	c #824549",
"W.	c #C76E70",
"X.	c #BF696C",
"Y.	c #B06067",
"Z.	c #835E7C",
"`.	c #7A7CA5",
" +	c #716182",
".+	c #B8836E",
"++	c #F6BB97",
"@+	c #F7BC97",
"#+	c #F7BD98",
"$+	c #F9BD98",
"%+	c #BB7C6A",
"&+	c #BE726A",
"*+	c #EF9F86",
"=+	c #D78F79",
"-+	c #C57F6E",
";+	c #C76E71",
">+	c #CB7173",
",+	c #CA7072",
"'+	c #C97072",
")+	c #BC676B",
"!+	c #944B52",
"~+	c #BD8E74",
"{+	c #F9BF99",
"]+	c #F3B593",
"^+	c #854D4D",
"/+	c #BE726B",
"(+	c #B15F63",
"_+	c #BB846E",
":+	c #C86F71",
"<+	c #A45D5D",
"[+	c #EDA68B",
"}+	c #F6B292",
"|+	c #C0947A",
"1+	c #FEDCAF",
"2+	c #F0C8A2",
"3+	c #CC7273",
"4+	c #CD7474",
"5+	c #C4A786",
"6+	c #FFDFB1",
"7+	c #F9DAAD",
"8+	c #E89682",
"9+	c #F3A288",
"0+	c #F3A188",
"a+	c #CA7971",
"b+	c #C19A7D",
"c+	c #F9C19B",
"d+	c #F9C19A",
"e+	c #FBC9A0",
"f+	c #CB8171",
"g+	c #F3BA95",
"h+	c #F4A388",
"i+	c #F1A087",
"j+	c #F8BC97",
"k+	c #F1B894",
"l+	c #F5BC96",
"                                                                                                                                ",
"                                                                                                                                ",
"                                                                                                                                ",
"                                                                                                                                ",
"                                                                                                                                ",
"                                                                                                                                ",
"                                                                                                                                ",
"                                                                                                                                ",
"                                                                                                                                ",
"                                                                                                                                ",
"                                                          . + @ @ @ #                                                           ",
"                                                        @ @ @ @ @ @ @ @ $                                                       ",
"                                                      % @ @ @ @ @ @ @ @ @                                                       ",
"                                                      @ @ @ @ @ @ @ @ @ @ #                                                     ",
"                                                    # @ @ @ @ @ @ @ @ @ @ @                                                     ",
"                                                  & + @ @ @ @ @ @ @ @ @ @ @ *                                                   ",
"                                                    = @ @ @ @ @ @ @ @ @ @ @ -                                                   ",
"                                                  ; > @ @ @ @ @ @ @ @ @ @ = ,                                                   ",
"                                                  ' ) = @ @ @ @ @ @ @ @ @ > !                                                   ",
"                                                  ' ! * ~ + { @ @ @ + = > ] !                                                   ",
"                                                  ^ ! ! , ] * > > . ) ] ! ! !                                                   ",
"                                                  ' ! ! ! ! ! ! ! ! ! ! ! ! !                                                   ",
"                                                  / ! ! ! ! ! ! ! ! ! ! ! ! !                                                   ",
"                                                ( _ ! ! ! ! ! ! ! ! ! ! ! ! !                                                   ",
"                                                : ! ! ! ! ! ! ! ! ! ! ! ! ! !                                                   ",
"                                                < ! < ! ! < ! ! ! < ! ! < ! !                                                   ",
"                                                ! ! [ ^ ! [ ^ ! ! [ ^ ! [ ^ !                                                   ",
"                                                ] ! } ' ! | ' ] ! 1 ' ! | 2 2                                                   ",
"                                                = 3 4 2 5 6 2 7 * 8 2 5 6 9 0                                                   ",
"                                              a - b c 3 d e 9 @ 9 f d d e g h i                                                 ",
"                                                j k l m n o 3 + p q r s t u v w                                                 ",
"                                                x x y z A B C s D E F G H I J K                                                 ",
"                                              L x M N O P Q R S T U V W X     Y Z                                               ",
"                                              M x L   `  ...+.@.#.$.%.&.*.  =.-.;.                                              ",
"                                              x x     >. .x x ,.'.).!.~.{.].^.-.-.                                              ",
"                                            /.(.M     _.:.<.[.}.|.1.2.3.4.5.6.7.;.                                              ",
"                                            8.9.L   0.a.b.a.c.d.e.f.g.h.i.j.k.l.Z                                               ",
"                                            m.M     n.o.p.q.r.s.t.u.v.w.x.y.z.l.Z                                               ",
"                                          A.B.C.    D.E.F.G.H.I.J.K.L.M.N.O.P.Q.Z                                               ",
"                                          R.S.T.U.V.W.X.Y.Z.`. +.+++@+#+#+$+%+&+*+                                              ",
"                                            =+-+    ;+>+,+'+)+!+~+{+{+{+{+]+^+/+                                                ",
"                                                      >+>+>+>+(+_+K K K {+                                                      ",
"                                                      :+>+>+>+;+<+[+w.w.}+                                                      ",
"                                                        >+>+>+:+|+1+x x 2+                                                      ",
"                                                        3+4+4+:+5+(.(.6+7+                                                      ",
"                                                        8+9+0+a+b+c+d+e+                                                        ",
"                                                        9+-.-.f+~+{+{+g+                                                        ",
"                                                        h+-.-.f+~+{+{+                                                          ",
"                                                        i+-.-.    g+g+                                                          ",
"                                                          Y Y                                                                   ",
"                                                          j+K                                                                   ",
"                                                          k+l+                                                                  ",
"                                                                                                                                ",
"                                                                                                                                ",
"                                                                                                                                ",
"                                                                                                                                ",
"                                                                                                                                ",
"                                                                                                                                ",
"                                                                                                                                ",
"                                                                                                                                ",
"                                                                                                                                ",
"                                                                                                                                ",
"                                                                                                                                ",
"                                                                                                                                "};
