/* XPM */
static char * u5_xpm[] = {
"64 64 230 2",
"  	c #AADA50",
". 	c #5F6CC6",
"+ 	c #5F6DC7",
"@ 	c #5865B9",
"# 	c #616FCB",
"$ 	c #606ECA",
"% 	c #4D57A0",
"& 	c #606DC8",
"* 	c #5763B6",
"= 	c #535FAE",
"- 	c #616FCA",
"; 	c #5D6AC2",
"> 	c #4F5AA5",
", 	c #5460B0",
"' 	c #4A549A",
") 	c #606EC9",
"! 	c #5C69C1",
"~ 	c #4F5BA6",
"{ 	c #4E58A2",
"] 	c #505BA8",
"^ 	c #5966BA",
"/ 	c #5965B9",
"( 	c #505BA7",
"_ 	c #4E59A3",
": 	c #4F5AA4",
"< 	c #4E59A4",
"[ 	c #475195",
"} 	c #454F91",
"| 	c #4A549B",
"1 	c #444D8E",
"2 	c #3F4884",
"3 	c #454F90",
"4 	c #454E90",
"5 	c #434C8C",
"6 	c #414986",
"7 	c #424C8C",
"8 	c #333969",
"9 	c #4F59A4",
"0 	c #384076",
"a 	c #5E6CC5",
"b 	c #3F4681",
"c 	c #495399",
"d 	c #444D8C",
"e 	c #404884",
"f 	c #282949",
"g 	c #5B68BE",
"h 	c #5B69BF",
"i 	c #303561",
"j 	c #505AA5",
"k 	c #8E7E79",
"l 	c #555C9F",
"m 	c #454A77",
"n 	c #424876",
"o 	c #606EC8",
"p 	c #454C80",
"q 	c #292946",
"r 	c #453F50",
"s 	c #4F5AA3",
"t 	c #4E528C",
"u 	c #C0A789",
"v 	c #F6D8AB",
"w 	c #504E74",
"x 	c #6069AC",
"y 	c #DBDCDE",
"z 	c #B3B6C0",
"A 	c #5864B8",
"B 	c #505A9B",
"C 	c #959DBD",
"D 	c #8D8D95",
"E 	c #4C57A0",
"F 	c #534B71",
"G 	c #F0C8A0",
"H 	c #C0A98A",
"I 	c #DCC09B",
"J 	c #FFE0B1",
"K 	c #FCDCAE",
"L 	c #8F6761",
"M 	c #9E9DAD",
"N 	c #DDE0EA",
"O 	c #D1D5E5",
"P 	c #4D4B6C",
"Q 	c #454C7A",
"R 	c #ACB3CD",
"S 	c #7D85AB",
"T 	c #A3A7B7",
"U 	c #91746F",
"V 	c #9E7A86",
"W 	c #C79981",
"X 	c #FFDEB0",
"Y 	c #F7BE98",
"Z 	c #FCD0A5",
"` 	c #F5BF9A",
" .	c #C49884",
"..	c #E2C7A6",
"+.	c #E0BFA0",
"@.	c #D29A92",
"#.	c #C1A3A3",
"$.	c #B3838F",
"%.	c #DCAF95",
"&.	c #FBDDB1",
"*.	c #FDDDAF",
"=.	c #E3AF90",
"-.	c #F8BE98",
";.	c #F9BF99",
">.	c #F9BE99",
",.	c #A8A0A8",
"'.	c #E1C7A5",
").	c #FBDCAF",
"!.	c #F9C8A1",
"~.	c #B47367",
"{.	c #D8947F",
"].	c #FEDDAF",
"^.	c #F7D8AD",
"/.	c #F7BC97",
"(.	c #F3B593",
"_.	c #CACAD8",
":.	c #F1F3F9",
"<.	c #CCCFDC",
"[.	c #A0A3B6",
"}.	c #C6B2A5",
"|.	c #E7B496",
"1.	c #D2A98B",
"2.	c #F9DBAF",
"3.	c #C6B09A",
"4.	c #C7B4A7",
"5.	c #A4A8C0",
"6.	c #F3B592",
"7.	c #F7BD97",
"8.	c #DFC4A3",
"9.	c #C4BCC0",
"0.	c #FAFAFB",
"a.	c #FCFDFE",
"b.	c #DEE2ED",
"c.	c #BFC0D1",
"d.	c #9FA1BE",
"e.	c #C9C9D2",
"f.	c #DDE1EC",
"g.	c #FAFAFC",
"h.	c #FCFCFE",
"i.	c #CCD1EB",
"j.	c #FEDEAF",
"k.	c #FBDDAF",
"l.	c #CCC0B8",
"m.	c #FFFFFF",
"n.	c #FAFAFD",
"o.	c #AEB5E3",
"p.	c #E3E6F6",
"q.	c #F9FAFB",
"r.	c #CCCEDB",
"s.	c #AD8DA1",
"t.	c #F4B995",
"u.	c #FAC9A1",
"v.	c #FBDAAE",
"w.	c #C1B5B5",
"x.	c #D6D9EE",
"y.	c #B9C1E7",
"z.	c #95A0CF",
"A.	c #A5AEDF",
"B.	c #989FCA",
"C.	c #A68CA0",
"D.	c #D79386",
"E.	c #EF9F87",
"F.	c #EF9F86",
"G.	c #E59381",
"H.	c #F1AE8E",
"I.	c #C89179",
"J.	c #D08075",
"K.	c #F0A388",
"L.	c #F1A489",
"M.	c #EDA087",
"N.	c #A3859D",
"O.	c #838FBD",
"P.	c #7E8ABA",
"Q.	c #9A829C",
"R.	c #D39084",
"S.	c #E69581",
"T.	c #C5776E",
"U.	c #C5766E",
"V.	c #C89178",
"W.	c #C47F6E",
"X.	c #965455",
"Y.	c #DA9982",
"Z.	c #C39176",
"`.	c #C29176",
" +	c #C58975",
".+	c #825468",
"++	c #9C6971",
"@+	c #BC7C6B",
"#+	c #BF7E6B",
"$+	c #C8806F",
"%+	c #E89782",
"&+	c #F3A288",
"*+	c #C47F6D",
"=+	c #F5BB96",
"-+	c #F9BE98",
";+	c #C68170",
">+	c #E0927D",
",+	c #F5A489",
"'+	c #F1A187",
")+	c #E49F88",
"!+	c #E4A088",
"~+	c #F3A188",
"{+	c #D2957D",
"]+	c #CD7C73",
"^+	c #E29180",
"/+	c #E39180",
"(+	c #DB8C7B",
"_+	c #D37F77",
":+	c #D1957D",
"<+	c #E1A185",
"[+	c #F7BD98",
"}+	c #F5BA96",
"|+	c #C99279",
"1+	c #E1A285",
"2+	c #BD8E74",
"3+	c #C29C7E",
"4+	c #FCCFA5",
"5+	c #FCCEA4",
"6+	c #F6AE8F",
"7+	c #F5BC97",
"8+	c #C29377",
"9+	c #F3BD98",
"0+	c #F9C19A",
"a+	c #F9C19B",
"b+	c #F6C49D",
"c+	c #F4BB96",
"d+	c #F2AF8F",
"e+	c #BF8F75",
"f+	c #D79880",
"g+	c #F3B492",
"                                                                                                                                ",
"                                                                                                                                ",
"                                                                                                                                ",
"                                                                                                                                ",
"                                                                                                                                ",
"                                                                                                                                ",
"                                                                                                                                ",
"                                                                                                                                ",
"                                                                                                                                ",
"                                                            . + + @                                                             ",
"                                                        + # # # # # $ @                                                         ",
"                                                      $ # # # # # # # # @                                                       ",
"                                                    @ # # # # # # # # # $                                                       ",
"                                                    $ # # # # # # # # # # @                                                     ",
"                                                  % # # # # # # # # # # # &                                                     ",
"                                                  * # # # # # # # # # # # $                                                     ",
"                                                  = - # # # # # # # # # # ;                                                     ",
"                                                  > ; # # # # # # # # # - , '                                                   ",
"                                                  > , ) # # # # # # # - ! ~ {                                                   ",
"                                                  > > ] @ ^ ) $ $ ; / , ~ > {                                                   ",
"                                                  > > > > > ( ( ( ~ > > > > {                                                   ",
"                                                  > > > > > > > > > > > > > _                                                   ",
"                                                ' > > > > > > > > > > > > > :                                                   ",
"                                                { > > > > > > > > > > > > > >                                                   ",
"                                                { > : > > : > > > > : > > : >                                                   ",
"                                                { < [ > < [ > > > < [ > < [ >                                                   ",
"                                                { _ } > | 1 > > > _ 2 : _ 3 >                                                   ",
"                                                < 4 5 ( 6 7 > ( ~ _ 8 < 9 0 :                                                   ",
"                                                a b c & d e , ) ! | f g h i *                                                   ",
"                                                j k l ) m n @ # o p q + g r s t                                                 ",
"                                                u v w x y z : A B C D E F G H I                                                 ",
"                                                J K L M N O P Q R S T U V W X J                                                 ",
"                                              Y Z `    ...+.@.#.$.%.&.*.=.  ` Z -.                                              ",
"                                              ;.>.    ,.'.).!.~.{.].J J ^.    >.;.                                              ",
"                                            /.;.(.  _.:.<.[.}.|.1.2.3.4.5.    6.;.7.                                            ",
"                                            ;.>.    8.9.0.a.b.c.d.e.f.g.h.i.    >.;.                                            ",
"                                          /.;.(.    j.k.l.0.m.n.o.p.h.q.r.s.    6.;.7.                                          ",
"                                        t.;.>.      u.].v.w.x.y.z.A.B.C.D.E.      >.;.t.                                        ",
"                                      F.G.H.I.      J.K.L.M.N.O.P.Q.R.S.T.U.      V.H.G.F.                                      ",
"                                      W.  X.        Y.Z.`.`. +.+++@+#+$+%+&+        X.  *+                                      ",
"                                                    =+;.;.;.-+;+>+,+,+,+,+'+                                                    ",
"                                                      ;.;.;.;.)+&+,+,+,+,+                                                      ",
"                                                      ;.;.;.;.!+~+,+,+,+&+                                                      ",
"                                                      >.;.;.;.{+]+^+/+(+_+                                                      ",
"                                                      =+;.;.;.:+<+[+[+}+                                                        ",
"                                                        ;.;.;.|+1+;.;.-+                                                        ",
"                                                        >.;.;.2+3+4+5+6+                                                        ",
"                                                        7+;.;.8+9+0+a+b+                                                        ",
"                                                        c+;.;.`.d+;.>.                                                          ",
"                                                          ;.;.e+f+;.g+                                                          ",
"                                                          ;.;.                                                                  ",
"                                                          [+[+                                                                  ",
"                                                                                                                                ",
"                                                                                                                                ",
"                                                                                                                                ",
"                                                                                                                                ",
"                                                                                                                                ",
"                                                                                                                                ",
"                                                                                                                                ",
"                                                                                                                                ",
"                                                                                                                                ",
"                                                                                                                                ",
"                                                                                                                                ",
"                                                                                                                                "};
