/* XPM */
static char * u6_xpm[] = {
"64 64 239 2",
"  	c #AADA50",
". 	c #5F6DC7",
"+ 	c #616FCB",
"@ 	c #606ECA",
"# 	c #5865B9",
"$ 	c #5F6DC8",
"% 	c #606EC8",
"& 	c #5F6CC6",
"* 	c #4A549A",
"= 	c #4F5AA6",
"- 	c #4F59A4",
"; 	c #606EC9",
"> 	c #5965B9",
", 	c #4E58A2",
"' 	c #505BA8",
") 	c #3F457E",
"! 	c #4E59A3",
"~ 	c #505BA7",
"{ 	c #616FCA",
"] 	c #5D6AC2",
"^ 	c #5460B0",
"/ 	c #4F5AA5",
"( 	c #495297",
"_ 	c #4F5BA6",
": 	c #4E59A4",
"< 	c #4D58A1",
"[ 	c #4F5AA4",
"} 	c #475195",
"| 	c #475194",
"1 	c #525EAC",
"2 	c #444E90",
"3 	c #5864B8",
"4 	c #444D8F",
"5 	c #5C69C0",
"6 	c #5561B1",
"7 	c #535FAE",
"8 	c #444E8F",
"9 	c #535FAD",
"0 	c #3C447C",
"a 	c #606DC8",
"b 	c #5764B7",
"c 	c #3F4884",
"d 	c #4B559D",
"e 	c #545FAF",
"f 	c #383F73",
"g 	c #555EAC",
"h 	c #5B4D69",
"i 	c #B28974",
"j 	c #5D5DA0",
"k 	c #535FAF",
"l 	c #373F74",
"m 	c #5C69C1",
"n 	c #454E90",
"o 	c #3F4784",
"p 	c #5A67BD",
"q 	c #908286",
"r 	c #928175",
"s 	c #988785",
"t 	c #F5BC97",
"u 	c #F8BE98",
"v 	c #B57E77",
"w 	c #4B5078",
"x 	c #666A8C",
"y 	c #4B5394",
"z 	c #5460AF",
"A 	c #9091A4",
"B 	c #515265",
"C 	c #596189",
"D 	c #C0A586",
"E 	c #FDDEAF",
"F 	c #F2B592",
"G 	c #F9BF99",
"H 	c #F5BB96",
"I 	c #9E7577",
"J 	c #BCC1D4",
"K 	c #E4E8F3",
"L 	c #868AA1",
"M 	c #595E8B",
"N 	c #5D648D",
"O 	c #EEF0F6",
"P 	c #F7F7F8",
"Q 	c #CBCDDE",
"R 	c #A47471",
"S 	c #FDDDAF",
"T 	c #FFE0B1",
"U 	c #F7CFA5",
"V 	c #F7BD98",
"W 	c #CA967C",
"X 	c #F1CEA5",
"Y 	c #E1C7A5",
"Z 	c #CABAB2",
"` 	c #999BB1",
" .	c #C7CAD7",
"..	c #9494AE",
"+.	c #C9B3AE",
"@.	c #D0C1B7",
"#.	c #E4C5AC",
"$.	c #C39479",
"%.	c #F4C09A",
"&.	c #FFDEB0",
"*.	c #FDDCAE",
"=.	c #F3BB98",
"-.	c #8784A7",
";.	c #9DA0B5",
">.	c #C6B3A7",
",.	c #E1C6A4",
"'.	c #F7D9AE",
").	c #E7C5A0",
"!.	c #DBAF92",
"~.	c #FFDFB0",
"{.	c #F8D3A7",
"].	c #CC977C",
"^.	c #F9C09A",
"/.	c #F4AB8D",
"(.	c #F9BE98",
"_.	c #C2988C",
":.	c #DFE2F1",
"<.	c #FCFDFE",
"[.	c #F3F5FA",
"}.	c #CCCFDC",
"|.	c #A0A3B6",
"1.	c #C3AFA3",
"2.	c #D7A089",
"3.	c #FADBAE",
"4.	c #FBDCAF",
"5.	c #F9DBAF",
"6.	c #C6B3A5",
"7.	c #AA7F83",
"8.	c #F5A489",
"9.	c #F1A88B",
"0.	c #BD806E",
"a.	c #C8BAB4",
"b.	c #CACAD3",
"c.	c #E3E6F4",
"d.	c #FCFCFE",
"e.	c #DDE1EC",
"f.	c #A6A9C8",
"g.	c #C4C2C9",
"h.	c #C7C5C9",
"i.	c #CAC9D2",
"j.	c #DADEEB",
"k.	c #908BAC",
"l.	c #F8BC97",
"m.	c #F4A489",
"n.	c #D48677",
"o.	c #BC7E6B",
"p.	c #FBD4A9",
"q.	c #C8B4A8",
"r.	c #ACAFCA",
"s.	c #E4E7F5",
"t.	c #F4F7FD",
"u.	c #BAC2E9",
"v.	c #DCE1F6",
"w.	c #DCE2F6",
"x.	c #8B8EBB",
"y.	c #C7937B",
"z.	c #F2B492",
"A.	c #F9BD98",
"B.	c #F5BA96",
"C.	c #E29080",
"D.	c #F4AC8E",
"E.	c #FBCEA4",
"F.	c #FCCFA5",
"G.	c #F6CAA3",
"H.	c #BCA8AF",
"I.	c #B7BFE6",
"J.	c #95A0CE",
"K.	c #A6AEE0",
"L.	c #ABB2E2",
"M.	c #A9B1E1",
"N.	c #999BC9",
"O.	c #A56271",
"P.	c #BA7F6F",
"Q.	c #FAD5A9",
"R.	c #F1B290",
"S.	c #F1A98B",
"T.	c #CF8474",
"U.	c #B56766",
"V.	c #D18075",
"W.	c #C67B70",
"X.	c #D18875",
"Y.	c #D08775",
"Z.	c #C07C6D",
"`.	c #716C91",
" +	c #7380B0",
".+	c #A1A9DB",
"++	c #8E98C8",
"@+	c #897498",
"#+	c #9D5C6B",
"$+	c #CC7972",
"%+	c #A56160",
"&+	c #F4CDA5",
"*+	c #FBDCAE",
"=+	c #F7B794",
"-+	c #F6BC97",
";+	c #F4B593",
">+	c #D99981",
",+	c #9F6F61",
"'+	c #744862",
")+	c #8F5A71",
"!+	c #9E5E6B",
"~+	c #AD6163",
"{+	c #E89682",
"]+	c #F2A187",
"^+	c #E5B492",
"/+	c #E9C69E",
"(+	c #FEDDAF",
"_+	c #D89981",
":+	c #904D52",
"<+	c #D68078",
"[+	c #EB9883",
"}+	c #F3A288",
"|+	c #E89782",
"1+	c #F3B592",
"2+	c #A55F5E",
"3+	c #F4A288",
"4+	c #F9BE99",
"5+	c #F5BC96",
"6+	c #A45E5E",
"7+	c #D78179",
"8+	c #E18D7F",
"9+	c #F7BC97",
"0+	c #AE6463",
"a+	c #C86F72",
"b+	c #CD7474",
"c+	c #C97072",
"d+	c #BD856F",
"e+	c #C2756C",
"f+	c #C08871",
"g+	c #EFA086",
"h+	c #EE9F85",
"i+	c #BD766B",
"j+	c #C0806C",
"k+	c #C0816D",
"l+	c #F7B291",
"m+	c #F2A388",
"n+	c #C29277",
"o+	c #BF9075",
"p+	c #F1B894",
"                                                                                                                                ",
"                                                                                                                                ",
"                                                                                                                                ",
"                                                                                                                                ",
"                                                                                                                                ",
"                                                                                                                                ",
"                                                                                                                                ",
"                                                                                                                                ",
"                                                                                                                                ",
"                                                          . + + + @ #                                                           ",
"                                                      $ + + + + + + + +                                                         ",
"                                                      + + + + + + + + + %                                                       ",
"                                                    . + + + + + + + + + +                                                       ",
"                                                    + + + + + + + + + + + &                                                     ",
"                                                  * + + + + + + + + + + + .                                                     ",
"                                                  = + + + + + + + + + + + $                                                     ",
"                                                  - ; + + + + + + + + + + >                                                     ",
"                                                  , > + + + + + + + + + ; ' )                                                   ",
"                                                  ! ~ > ; @ + + + { @ ] ^ / (                                                   ",
"                                                  / / / ~ ' # > > ^ ~ _ / / ,                                                   ",
"                                                  / / / / / / / / / / / / / ,                                                   ",
"                                                  / / / / / / / / / / / / / ,                                                   ",
"                                                  / / / / / / / / / / / / / :                                                   ",
"                                                < / / / / / / / / / / / / / /                                                   ",
"                                                , / [ / / [ / / / / [ / / [ /                                                   ",
"                                                , : } / : } / / / : } / : } /                                                   ",
"                                                < : | / : | / = / : | / : | /                                                   ",
"                                                  1 2 3 / 4 ~ 5 6 ! 4 ^ 7 8 9                                                   ",
"                                                  ! 0 a b c 3 + ; d 2 ; e f g                                                   ",
"                                                  h i j k l e @ m n o p q r s                                                   ",
"                                                  t u v w x y z [ A B C D E E                                                   ",
"                                                F G H I J K L M N O P Q R S T U                                                 ",
"                                                V G W X Y Z `  ...+.@.#.$.%.&.*.                                                ",
"                                                G =.-.;.>.,.'.).!.~.T T {.].^.^.                                                ",
"                                              /.(._.:.<.[.}.|.1.2.3.4.5.6.7.V G                                                 ",
"                                              8.9.0.a.b.c.<.d.e.f.g.h.i.j.k.F G H                                               ",
"                                            l.m.n.o.p.5.q.r.s.t.u.v.d.d.w.x.y.^.^.                                              ",
"                                        z.A.B.C.    D.E.F.G.H.I.J.K.L.M.N.O.P.*.~.Q.                                            ",
"                                      R.S.T.U.      V.W.X.Y.Z.`. +.+++@+#+$+%+{.&+T *+                                          ",
"                                                    =+-+-+;+>+,+'+)+!+~+{+]+    ^+/+(+                                          ",
"                                                    H G G G G _+:+<+[+}+8.|+                                                    ",
"                                                      G G G G 1+2+]+8.8.3+                                                      ",
"                                                      4+G G G 5+6+7+8+8+7+                                                      ",
"                                                      H G G G 9+0+a+b+b+c+                                                      ",
"                                                        G G G 4+d+e+]+]+e+                                                      ",
"                                                        4+G G 4+f+g+8.8.h+                                                      ",
"                                                        t G G 9+i+}+8.8.                                                        ",
"                                                        H G G 5+j+8.8.8.                                                        ",
"                                                          G G 5+k+l+l+m+                                                        ",
"                                                          G G 5+n+G G                                                           ",
"                                                          G G 5+o+G G                                                           ",
"                                                          4+G 1+                                                                ",
"                                                          p+5+                                                                  ",
"                                                                                                                                ",
"                                                                                                                                ",
"                                                                                                                                ",
"                                                                                                                                ",
"                                                                                                                                ",
"                                                                                                                                ",
"                                                                                                                                ",
"                                                                                                                                ",
"                                                                                                                                ",
"                                                                                                                                ",
"                                                                                                                                "};
