/* XPM */
static char * u7_xpm[] = {
"64 64 238 2",
"  	c #AADA50",
". 	c #5865B9",
"+ 	c #5F6DC7",
"@ 	c #5F6CC6",
"# 	c #606ECA",
"$ 	c #616FCB",
"% 	c #606EC8",
"& 	c #4D58A1",
"* 	c #606DC8",
"= 	c #5460B0",
"- 	c #5D6AC2",
"; 	c #616FCA",
"> 	c #535FAE",
", 	c #3E447D",
"' 	c #4F5AA4",
") 	c #4F5AA6",
"! 	c #5C69C1",
"~ 	c #606EC9",
"{ 	c #4E59A3",
"] 	c #4F5AA5",
"^ 	c #4F5BA6",
"/ 	c #5965B9",
"( 	c #5966BA",
"_ 	c #505BA8",
": 	c #475093",
"< 	c #3B437A",
"[ 	c #505BA7",
"} 	c #414A87",
"| 	c #4E59A4",
"1 	c #4E58A2",
"2 	c #4B569D",
"3 	c #475195",
"4 	c #4E59A2",
"5 	c #414A88",
"6 	c #475194",
"7 	c #3B437C",
"8 	c #525EAC",
"9 	c #444E8F",
"0 	c #5561B1",
"a 	c #5C69C0",
"b 	c #465093",
"c 	c #5864B8",
"d 	c #444E90",
"e 	c #383F73",
"f 	c #525EAD",
"g 	c #454E90",
"h 	c #4B559D",
"i 	c #3F4885",
"j 	c #5764B7",
"k 	c #3B427A",
"l 	c #8B6574",
"m 	c #8E6D62",
"n 	c #92757F",
"o 	c #5A67BC",
"p 	c #3D4681",
"q 	c #545FAF",
"r 	c #373F74",
"s 	c #535FAF",
"t 	c #5E62A1",
"u 	c #B7A28B",
"v 	c #575373",
"w 	c #F3AF8F",
"x 	c #F7BD98",
"y 	c #F1B996",
"z 	c #5F5D7C",
"A 	c #3F405A",
"B 	c #3F4271",
"C 	c #4A5499",
"D 	c #545A8D",
"E 	c #8C8D98",
"F 	c #484973",
"G 	c #DCC09C",
"H 	c #FFE0B1",
"I 	c #F7D8AB",
"J 	c #F5A58A",
"K 	c #F7B291",
"L 	c #BE8F88",
"M 	c #DFE2F1",
"N 	c #CACDDF",
"O 	c #8387B2",
"P 	c #90919E",
"Q 	c #3D4373",
"R 	c #BABED2",
"S 	c #C8CDE3",
"T 	c #807A9C",
"U 	c #E4B895",
"V 	c #FFDFB0",
"W 	c #E79781",
"X 	c #F5A489",
"Y 	c #D8927B",
"Z 	c #C2A990",
"` 	c #C5C9D9",
" .	c #9CA2BC",
"..	c #8489B4",
"+.	c #C2C8E0",
"@.	c #656690",
"#.	c #B78F9E",
"$.	c #E1B5A3",
"%.	c #F1BA97",
"&.	c #C4997D",
"*.	c #F3A388",
"=.	c #EFA188",
"-.	c #847C9A",
";.	c #C7B4A8",
">.	c #C2AD9B",
",.	c #F2D6AD",
"'.	c #C5B1A3",
").	c #CAA39A",
"!.	c #A05E5F",
"~.	c #FAD3A8",
"{.	c #FDD7AA",
"].	c #CB977C",
"^.	c #FBDCAE",
"/.	c #F7CFA5",
"(.	c #C08A88",
"_.	c #F1F3F8",
":.	c #FBFBFC",
"<.	c #E9EAF4",
"[.	c #C8C8D3",
"}.	c #B4AAB5",
"|.	c #DFC3A4",
"1.	c #CE8478",
"2.	c #FDDDAF",
"3.	c #C3967A",
"4.	c #F1A188",
"5.	c #817595",
"6.	c #C5C3C8",
"7.	c #CACAD3",
"8.	c #FCFCFD",
"9.	c #FAFAFC",
"0.	c #D1D3E4",
"a.	c #9F8AA9",
"b.	c #C5AE9B",
"c.	c #C7B19C",
"d.	c #C7B19D",
"e.	c #ADA2AF",
"f.	c #CCAA8D",
"g.	c #FEDEAF",
"h.	c #F1A087",
"i.	c #F1A187",
"j.	c #BD806E",
"k.	c #FAD9AD",
"l.	c #F9DBAF",
"m.	c #C8B29D",
"n.	c #B4ABB6",
"o.	c #E4E4EB",
"p.	c #FEFEFF",
"q.	c #CFD4EE",
"r.	c #D9DEEA",
"s.	c #FAFAFB",
"t.	c #FBFBFB",
"u.	c #DEE2F1",
"v.	c #BD8D7C",
"w.	c #FCCFA5",
"x.	c #FBC9A0",
"y.	c #F4A389",
"z.	c #EF9F85",
"A.	c #BF7F6C",
"B.	c #F9C19B",
"C.	c #FAC59F",
"D.	c #F8C39D",
"E.	c #DDAB96",
"F.	c #D9D8E1",
"G.	c #B8C0E7",
"H.	c #A7B0D4",
"I.	c #FAFBFD",
"J.	c #F4F6FD",
"K.	c #B7BFE5",
"L.	c #7D607A",
"M.	c #F5BB96",
"N.	c #F9C09A",
"O.	c #F8BE98",
"P.	c #F3A288",
"Q.	c #C3766C",
"R.	c #BC7B6A",
"S.	c #F5A68A",
"T.	c #EC9C85",
"U.	c #DA8C7B",
"V.	c #D08674",
"W.	c #D28675",
"X.	c #D39287",
"Y.	c #989FD0",
"Z.	c #9099CC",
"`.	c #ABB2E2",
" +	c #A7AEDE",
".+	c #91779A",
"++	c #9D585C",
"@+	c #E2A387",
"#+	c #C57E6E",
"$+	c #8A5250",
"%+	c #F8BD98",
"&+	c #F7BC97",
"*+	c #F6BC97",
"=+	c #F4B592",
"-+	c #BC766B",
";+	c #5D567C",
">+	c #8284B0",
",+	c #8686B2",
"'+	c #665778",
")+	c #A85C61",
"!+	c #C46D6F",
"~+	c #9A675A",
"{+	c #FCDCAE",
"]+	c #FDDCAE",
"^+	c #F3BA95",
"/+	c #F9BF99",
"(+	c #F3B492",
"_+	c #7F4549",
":+	c #A5575E",
"<+	c #C76F72",
"[+	c #C86F71",
"}+	c #CB7173",
"|+	c #C76E71",
"1+	c #FFDEB0",
"2+	c #F5BC97",
"3+	c #A05A5A",
"4+	c #C97072",
"5+	c #B76767",
"6+	c #CA7072",
"7+	c #9F595A",
"8+	c #C06A6C",
"9+	c #B56165",
"0+	c #A15C5C",
"a+	c #C89078",
"b+	c #F9C19A",
"c+	c #C08F75",
"d+	c #F4BF99",
"e+	c #FDD7AB",
"f+	c #C09177",
"g+	c #C4A686",
"h+	c #FFDFB1",
"i+	c #C09B7E",
"j+	c #F7C79F",
"k+	c #FACEA4",
"l+	c #F9C8A0",
"m+	c #D1867A",
"n+	c #CA7473",
"o+	c #D2867A",
"                                                                                                                                ",
"                                                                                                                                ",
"                                                                                                                                ",
"                                                                                                                                ",
"                                                                                                                                ",
"                                                                                                                                ",
"                                                                                                                                ",
"                                                                                                                                ",
"                                                                                                                                ",
"                                                          . + + @                                                               ",
"                                                      @ # $ $ $ $ $ %                                                           ",
"                                                    @ $ $ $ $ $ $ $ $ $                                                         ",
"                                                    # $ $ $ $ $ $ $ $ $ .                                                       ",
"                                                  . $ $ $ $ $ $ $ $ $ $ #                                                       ",
"                                                  + $ $ $ $ $ $ $ $ $ $ $ &                                                     ",
"                                                  * $ $ $ $ $ $ $ $ $ $ $ =                                                     ",
"                                                  - $ $ $ $ $ $ $ $ $ $ ; >                                                     ",
"                                                , = ; $ $ $ $ $ $ $ $ $ - '                                                     ",
"                                                , ) ! ; $ $ $ $ $ $ $ ~ = {                                                     ",
"                                                  ] ^ = / - # # ~ ( . _ ] : <                                                   ",
"                                                  ] ] ] ] ^ [ [ [ ] ] ] ] : }                                                   ",
"                                                  ] ] ] ] ] ] ] ] ] ] ] ] ' |                                                   ",
"                                                  ] ] ] ] ] ] ] ] ] ] ] ] ] ]                                                   ",
"                                                  ] ] ] ] ] ] ] ] ] ] ] ] ' ] 1                                                 ",
"                                                  ' 2 ] ] ] ] ] ] ] ' ] | 3 ] '                                                 ",
"                                                  4 5 ' ' 2 ] ] ] | 6 ] { 5 ' ]                                                 ",
"                                                  & } { { 5 ' ] ) { 7 { ' } { ]                                                 ",
"                                                  8 9 > = } { 0 a [ b ] c d 8 {                                                 ",
"                                                    e f ~ g h ~ $ c i j * k )                                                   ",
"                                                  l m n o p g ! # q r s t u v                                                   ",
"                                                  w x y z A B C > D E F G H I                                                   ",
"                                                  J K L M N O P Q R S T U H V                                                   ",
"                                                W X Y Z `  ...+.@.#.$.%.&.V H                                                   ",
"                                                *.=.-.;.>.,.'.).!.~.V {.].^.H /.                                                ",
"                                                X (._.:.<.[.}.|.1.2.H V 3./.H ^.                                                ",
"                                                4.5.6.7.<.8.9.0.a.b.c.d.e.f.H g.                                                ",
"                                              h.i.j.k.l.m.n.o.p.q.r.s.t.u.v.w.x.                                                ",
"                                              y.z.A.B.C.C.D.E.F.G.H.I.J.K.L.M.N.O.                                              ",
"                                              P.Q.R.S.T.U.V.W.X.Y.Z.`. +.+++@+{.V                                               ",
"                                              h.#+$+M.%+&+*+=+-+;+>+,+'+)+!+~+{+H ]+                                            ",
"                                                    ^+/+/+/+/+(+_+:+<+[+}+|+    1+g.                                            ",
"                                                      /+/+/+/+2+3+4+}+}+}+                                                      ",
"                                                      /+/+/+/+*+5+}+}+}+6+                                                      ",
"                                                      2+/+/+/+*+5+}+}+}+                                                        ",
"                                                      ^+/+/+/+2+7+8+6+9+                                                        ",
"                                                        /+/+/+2+0+4+}+                                                          ",
"                                                        /+/+/+/+a+[+}+                                                          ",
"                                                        2+N.b+N.c+[+6+                                                          ",
"                                                        d+1+V e+f+[+|+                                                          ",
"                                                          H H H g+[+                                                            ",
"                                                          1+H h+i+                                                              ",
"                                                          j+k+l+                                                                ",
"                                                          m+n+o+                                                                ",
"                                                                                                                                ",
"                                                                                                                                ",
"                                                                                                                                ",
"                                                                                                                                ",
"                                                                                                                                ",
"                                                                                                                                ",
"                                                                                                                                ",
"                                                                                                                                ",
"                                                                                                                                ",
"                                                                                                                                ",
"                                                                                                                                "};
