/* XPM */
static char * u8_xpm[] = {
"64 64 237 2",
"  	c #AADA50",
". 	c #5865B9",
"+ 	c #606ECA",
"@ 	c #616FCB",
"# 	c #5F6DC7",
"$ 	c #5F6DC8",
"% 	c #606EC8",
"& 	c #5F6CC6",
"* 	c #4D57A1",
"= 	c #5460AF",
"- 	c #606EC9",
"; 	c #4F5AA6",
"> 	c #3E447D",
", 	c #505BA8",
"' 	c #5965B9",
") 	c #4E59A4",
"! 	c #4F5AA5",
"~ 	c #5460B0",
"{ 	c #5D6AC2",
"] 	c #616FCA",
"^ 	c #505BA7",
"/ 	c #3C447D",
"( 	c #4F5BA6",
"_ 	c #3D467F",
": 	c #4A549B",
"< 	c #4A559B",
"[ 	c #4F5AA4",
"} 	c #4E59A3",
"| 	c #414A88",
"1 	c #3F4884",
"2 	c #4A549A",
"3 	c #4E58A2",
"4 	c #4B569D",
"5 	c #475094",
"6 	c #495399",
"7 	c #4F59A4",
"8 	c #3A4279",
"9 	c #454F91",
"0 	c #465092",
"a 	c #353D71",
"b 	c #535FAE",
"c 	c #444D8E",
"d 	c #454F90",
"e 	c #5C69C1",
"f 	c #4B559C",
"g 	c #33375F",
"h 	c #B17A7A",
"i 	c #474F90",
"j 	c #3A3557",
"k 	c #5B68BE",
"l 	c #5764B7",
"m 	c #3A427A",
"n 	c #5864B7",
"o 	c #475093",
"p 	c #545488",
"q 	c #967680",
"r 	c #434776",
"s 	c #EC9E85",
"t 	c #BB7E6E",
"u 	c #B47D7C",
"v 	c #666D9A",
"w 	c #424B8A",
"x 	c #313766",
"y 	c #5C69C0",
"z 	c #444C88",
"A 	c #383F75",
"B 	c #5C609E",
"C 	c #DCC29D",
"D 	c #C2A789",
"E 	c #8B92BC",
"F 	c #F3A388",
"G 	c #F5A489",
"H 	c #BB8280",
"I 	c #B4BDDB",
"J 	c #6F7392",
"K 	c #B8B8BC",
"L 	c #555B8D",
"M 	c #4E59A2",
"N 	c #575C86",
"O 	c #ABAEC9",
"P 	c #927E71",
"Q 	c #DFC49D",
"R 	c #FFE0B1",
"S 	c #CCAB8D",
"T 	c #7380AC",
"U 	c #F0A086",
"V 	c #C98D78",
"W 	c #C7A7A6",
"X 	c #8888AA",
"Y 	c #F8F8FA",
"Z 	c #D0D3DA",
"` 	c #534E6B",
" .	c #CED2E3",
"..	c #D3D6EC",
"+.	c #A57B82",
"@.	c #FDDDAF",
"#.	c #F7CFA5",
"$.	c #9C6A69",
"%.	c #BE9A8E",
"&.	c #C5AE9A",
"*.	c #DAC1A3",
"=.	c #CEBDB3",
"-.	c #B1919D",
";.	c #9E6668",
">.	c #D5A79D",
",.	c #CEBDB4",
"'.	c #9A706B",
").	c #FADBAD",
"!.	c #FBDCAE",
"~.	c #D89385",
"{.	c #B7B8D2",
"].	c #F3F5FA",
"^.	c #F3F5F9",
"/.	c #C3C8DA",
"(.	c #ACA3AA",
"_.	c #DAB399",
":.	c #C27B70",
"<.	c #FCDBAE",
"[.	c #FFDFB1",
"}.	c #DFAD8C",
"|.	c #E7B996",
"1.	c #FFDFB0",
"2.	c #F1A187",
"3.	c #BC8380",
"4.	c #B9B9C5",
"5.	c #C7C5C9",
"6.	c #CACAD3",
"7.	c #E2E6F4",
"8.	c #F1F4FA",
"9.	c #CCCFDC",
"0.	c #AE99A7",
"a.	c #F8D9AE",
"b.	c #FBDCAF",
"c.	c #F3C9A1",
"d.	c #C6A887",
"e.	c #ED9E85",
"f.	c #BF826E",
"g.	c #FAD9AD",
"h.	c #F9DBAF",
"i.	c #C9B7AA",
"j.	c #BDBED5",
"k.	c #FCFCFE",
"l.	c #CBD0DE",
"m.	c #AEB0C8",
"n.	c #B8B9C6",
"o.	c #A88084",
"p.	c #FCD5A9",
"q.	c #EFA086",
"r.	c #BF7F6C",
"s.	c #F9BD99",
"t.	c #FAC59F",
"u.	c #F9C49E",
"v.	c #DDBA9F",
"w.	c #D1D3E4",
"x.	c #C2C9DE",
"y.	c #B9C1E7",
"z.	c #ECF0FC",
"A.	c #BAC2E8",
"B.	c #76738E",
"C.	c #F5BD97",
"D.	c #FCD0A6",
"E.	c #F6BE98",
"F.	c #CF8473",
"G.	c #C47F6E",
"H.	c #F7BC97",
"I.	c #F7B895",
"J.	c #E6A189",
"K.	c #E49985",
"L.	c #D98D7C",
"M.	c #A58CA7",
"N.	c #7684B3",
"O.	c #9CA5D6",
"P.	c #A8B0E1",
"Q.	c #9AA3D4",
"R.	c #6B6079",
"S.	c #F5C49C",
"T.	c #FFDEB0",
"U.	c #FDD7AB",
"V.	c #C8816F",
"W.	c #966156",
"X.	c #F5BB96",
"Y.	c #F9BF99",
"Z.	c #F9BE99",
"`.	c #F4B693",
" +	c #A47671",
".+	c #626791",
"++	c #757BA4",
"@+	c #7A7CA6",
"#+	c #9E6B85",
"$+	c #8D4C52",
"%+	c #D2A98A",
"&+	c #FCD4A9",
"*+	c #BE8E74",
"=+	c #924A52",
"-+	c #9B555A",
";+	c #A75B60",
">+	c #B66266",
",+	c #C66E70",
"'+	c #AD6B63",
")+	c #DDAF90",
"!+	c #FCDDAF",
"~+	c #D49A83",
"{+	c #BE8D74",
"]+	c #B15F63",
"^+	c #CB7173",
"/+	c #C86F72",
"(+	c #F2BF9A",
"_+	c #F6BC97",
":+	c #F3B592",
"<+	c #A3675C",
"[+	c #C76E71",
"}+	c #F6BD98",
"|+	c #FACAA1",
"1+	c #D8B08F",
"2+	c #D6AE8E",
"3+	c #B28571",
"4+	c #C76F71",
"5+	c #F5C59E",
"6+	c #A55F5F",
"7+	c #FDDCAE",
"8+	c #A46260",
"9+	c #F3BA96",
"0+	c #FDD6AA",
"a+	c #F9C19B",
"b+	c #F8BE99",
"c+	c #BA7369",
"d+	c #C97072",
"e+	c #F5B794",
"f+	c #BF8E74",
"g+	c #B05E62",
"h+	c #B25F63",
"i+	c #934950",
"j+	c #944950",
"k+	c #F3B995",
"l+	c #A2675C",
"m+	c #924950",
"n+	c #954A51",
"                                                                                                                                ",
"                                                                                                                                ",
"                                                                                                                                ",
"                                                                                                                                ",
"                                                                                                                                ",
"                                                                                                                                ",
"                                                                                                                                ",
"                                                                                                                                ",
"                                                                                                                                ",
"                                                                                                                                ",
"                                                        . + @ @ @ #                                                             ",
"                                                      @ @ @ @ @ @ @ @ $                                                         ",
"                                                    % @ @ @ @ @ @ @ @ @                                                         ",
"                                                    @ @ @ @ @ @ @ @ @ @ #                                                       ",
"                                                  & @ @ @ @ @ @ @ @ @ @ @                                                       ",
"                                                  # @ @ @ @ @ @ @ @ @ @ @ *                                                     ",
"                                                  # @ @ @ @ @ @ @ @ @ @ @ =                                                     ",
"                                                  . @ @ @ @ @ @ @ @ @ @ - ;                                                     ",
"                                                > , - @ @ @ @ @ @ @ @ @ ' )                                                     ",
"                                                  ! ~ { + ] @ @ @ + - ' ^ ) /                                                   ",
"                                                  ! ! ( ^ ~ ' ' . , ^ ! ! ) _                                                   ",
"                                                  ! ! ! ! ! ! ! ! ! ! ! ! ! : /                                                 ",
"                                                  ! ! ! ! ! ! ! ! ! ! ! ! ! ! <                                                 ",
"                                                  ! ! ! ! ! ! ! ! ! ! ! ! [ ! !                                                 ",
"                                                  [ ! ! ! ! ! ! ! ! ! ! } | [ ! }                                               ",
"                                                  } ! ! ! [ ! ! ! ! [ ! [ 1 2 ! !                                               ",
"                                                  3 [ 4 ! 5 6 ! ! ) | 7 ! : 8 ) }                                               ",
"                                                  2 [ 9 ^ 9 0 ! = ! / ) ^ } a ! }                                               ",
"                                                    b c $ b d ~ + e c ^ $ f g !                                                 ",
"                                                  h i j k l m n @ - o ) - p q r                                                 ",
"                                                  s t u v w x ! y ~ z A B C D E                                                 ",
"                                                  F G H I J K L M N O P Q R S T                                                 ",
"                                                  G U V W X Y Z `  ...+.@.R #.                                                  ",
"                                                  F $.%.&.*.=.-.;.>.,.'.).R !.                                                  ",
"                                                  ~.{.].^./.(._.:.<.[.}.|.R 1.                                                  ",
"                                                2.3.4.5.6.7.8.9.0.a.b.c.d.R R                                                   ",
"                                                e.f.g.b.h.i.j.k.l.m.5.n.o.p.R                                                   ",
"                                                q.r.s.t.u.u.v.w.x.y.z.A.B.C.D.E.                                                ",
"                                                F.G.H.I.J.K.L.M.N.O.P.Q.R.S.T.U.                                                ",
"                                              q.V.W.X.Y.Y.Z.`. +.+++@+#+$+%+&+R 1.                                              ",
"                                                      Y.Y.Y.Y.*+=+-+;+>+,+'+)+1.!+~+                                            ",
"                                                      Y.Y.Y.Y.{+]+^+^+^+/+      (+                                              ",
"                                                      Z.Z._+:+<+[+^+^+^+                                                        ",
"                                                      }+|+1+2+3+4+^+^+^+                                                        ",
"                                                      5+R R R #.6+^+^+/+                                                        ",
"                                                        7+R 1.).8+^+^+[+                                                        ",
"                                                        9+0+a+b+c+d+^+                                                          ",
"                                                          e+Y.Y.f+g+h+                                                          ",
"                                                            Y.Y.{+i+j+                                                          ",
"                                                            k+k+l+j+i+                                                          ",
"                                                                m+n+                                                            ",
"                                                                                                                                ",
"                                                                                                                                ",
"                                                                                                                                ",
"                                                                                                                                ",
"                                                                                                                                ",
"                                                                                                                                ",
"                                                                                                                                ",
"                                                                                                                                ",
"                                                                                                                                ",
"                                                                                                                                ",
"                                                                                                                                ",
"                                                                                                                                ",
"                                                                                                                                "};
