/* XPM */
static char * u9_xpm[] = {
"64 64 235 2",
"  	c #AADA50",
". 	c #5F6DC7",
"+ 	c #616FCB",
"@ 	c #606ECA",
"# 	c #5865B9",
"$ 	c #5F6DC8",
"% 	c #606EC8",
"& 	c #5460AF",
"* 	c #3F4781",
"= 	c #5763B6",
"- 	c #606EC9",
"; 	c #4F5BA6",
"> 	c #5965B9",
", 	c #4D58A2",
"' 	c #4F5AA5",
") 	c #505BA8",
"! 	c #4E59A3",
"~ 	c #505BA7",
"{ 	c #616FCA",
"] 	c #5D6AC2",
"^ 	c #5460B0",
"/ 	c #4E59A4",
"( 	c #475093",
"_ 	c #4A559B",
": 	c #3C447C",
"< 	c #4A549A",
"[ 	c #4F5AA4",
"} 	c #475195",
"| 	c #535FAE",
"1 	c #454F91",
"2 	c #444D8F",
"3 	c #3F4884",
"4 	c #5864B8",
"5 	c #3D4681",
"6 	c #535FAF",
"7 	c #606DC8",
"8 	c #363D71",
"9 	c #5764B7",
"0 	c #B68B74",
"a 	c #464F90",
"b 	c #525EAC",
"c 	c #333968",
"d 	c #363D72",
"e 	c #5864B7",
"f 	c #333969",
"g 	c #84756C",
"h 	c #595D97",
"i 	c #5764B6",
"j 	c #5662B4",
"k 	c #F4BB96",
"l 	c #95777E",
"m 	c #3F4782",
"n 	c #37374D",
"o 	c #505BA5",
"p 	c #5B68BE",
"q 	c #2F345E",
"r 	c #485296",
"s 	c #39394F",
"t 	c #525A98",
"u 	c #525DAB",
"v 	c #5C566C",
"w 	c #DABF99",
"x 	c #BDA588",
"y 	c #F9BE98",
"z 	c #F1B391",
"A 	c #574C66",
"B 	c #9A98AA",
"C 	c #57597C",
"D 	c #414982",
"E 	c #65698D",
"F 	c #90909E",
"G 	c #BDBDC0",
"H 	c #C7C8D5",
"I 	c #5C5E80",
"J 	c #BCA386",
"K 	c #FFE0B1",
"L 	c #F1A187",
"M 	c #F5A58A",
"N 	c #F2BE9B",
"O 	c #DFBE9E",
"P 	c #C5B4AB",
"Q 	c #8F90B5",
"R 	c #EDEFF6",
"S 	c #9399B2",
"T 	c #625F7C",
"U 	c #CACDD8",
"V 	c #A8ABC7",
"W 	c #947384",
"X 	c #AB8388",
"Y 	c #FDDDAF",
"Z 	c #F7CFA5",
"` 	c #F4A389",
" .	c #F5A489",
"..	c #CB8173",
"+.	c #C7B3A6",
"@.	c #C6B09A",
"#.	c #F9DBAF",
"$.	c #DFC5A4",
"%.	c #C8ADAB",
"&.	c #AB818C",
"*.	c #F6CFA7",
"=.	c #FBDDB1",
"-.	c #FBDCAF",
";.	c #E3AE8F",
">.	c #BD8887",
",.	c #E0E3F1",
"'.	c #FAFAFC",
").	c #DDE1EC",
"!.	c #BFC1D0",
"~.	c #ABA2A9",
"{.	c #DEC2A2",
"].	c #DEB293",
"^.	c #DDBB9D",
"/.	c #F1A188",
"(.	c #948C9F",
"_.	c #C5C3C9",
":.	c #CACAD3",
"<.	c #E3E6F3",
"[.	c #FAFBFD",
"}.	c #F3F5FB",
"|.	c #CACDDB",
"1.	c #A89FA8",
"2.	c #C7B19D",
"3.	c #C7B4A7",
"4.	c #A0A3B6",
"5.	c #CBCEDC",
"6.	c #FFDFB0",
"7.	c #F4BF99",
"8.	c #BC7D6C",
"9.	c #F6C59F",
"0.	c #F9DAAE",
"a.	c #C7B19C",
"b.	c #B4AAB6",
"c.	c #C9CEE3",
"d.	c #EBF0FA",
"e.	c #ACB7D7",
"f.	c #F8F8FA",
"g.	c #FBFBFC",
"h.	c #FDFDFE",
"i.	c #A0899D",
"j.	c #FED8AB",
"k.	c #F8BE98",
"l.	c #BF7E6B",
"m.	c #F3A489",
"n.	c #F8BB98",
"o.	c #FAC59F",
"p.	c #F8C39D",
"q.	c #DBA895",
"r.	c #ABADCF",
"s.	c #919BCC",
"t.	c #E3E6F6",
"u.	c #FCFCFE",
"v.	c #F5F7FD",
"w.	c #C7C8DA",
"x.	c #BF7A7C",
"y.	c #EABC98",
"z.	c #F2A187",
"A.	c #CD8272",
"B.	c #BC7C6A",
"C.	c #DC937F",
"D.	c #DA867B",
"E.	c #E39180",
"F.	c #DA8C7B",
"G.	c #D08674",
"H.	c #936569",
"I.	c #8D97C7",
"J.	c #A8B0E1",
"K.	c #A1A9D7",
"L.	c #9092BD",
"M.	c #B37277",
"N.	c #BF6A6B",
"O.	c #FCDCAF",
"P.	c #CFAD8B",
"Q.	c #E7C39C",
"R.	c #EF9F86",
"S.	c #BE726A",
"T.	c #BB7C6A",
"U.	c #F9BD98",
"V.	c #F7BD98",
"W.	c #F7BC97",
"X.	c #F6BB97",
"Y.	c #B9836E",
"Z.	c #716082",
"`.	c #7A7CA5",
" +	c #835E7C",
".+	c #AF6067",
"++	c #BF696C",
"@+	c #C76E70",
"#+	c #824549",
"$+	c #DF937D",
"%+	c #DCA187",
"&+	c #DBA587",
"*+	c #DEC098",
"=+	c #BF736B",
"-+	c #854D4D",
";+	c #F3B592",
">+	c #F9BF99",
",+	c #BE8E74",
"'+	c #944B52",
")+	c #BC676B",
"!+	c #C97072",
"~+	c #CA7072",
"{+	c #CB7173",
"]+	c #C76E71",
"^+	c #C57F6E",
"/+	c #D88F79",
"(+	c #BC846F",
"_+	c #B15F63",
":+	c #F6B292",
"<+	c #EDA68B",
"[+	c #A45D5D",
"}+	c #C86F72",
"|+	c #F0C8A2",
"1+	c #FEDCAF",
"2+	c #C0947A",
"3+	c #C86F71",
"4+	c #F9DAAC",
"5+	c #FFDFB1",
"6+	c #C4A786",
"7+	c #CD7474",
"8+	c #CC7273",
"9+	c #FBC9A0",
"0+	c #F9C19A",
"a+	c #F9C19B",
"b+	c #C19A7D",
"c+	c #CA7971",
"d+	c #F3A188",
"e+	c #F3A288",
"f+	c #E89682",
"g+	c #F3BA95",
"h+	c #CB8071",
"i+	c #F1A087",
"j+	c #F8BC97",
"k+	c #F5BC96",
"l+	c #F1B894",
"                                                                                                                                ",
"                                                                                                                                ",
"                                                                                                                                ",
"                                                                                                                                ",
"                                                                                                                                ",
"                                                                                                                                ",
"                                                                                                                                ",
"                                                                                                                                ",
"                                                                                                                                ",
"                                                                                                                                ",
"                                                          . + + + @ #                                                           ",
"                                                      $ + + + + + + + +                                                         ",
"                                                      + + + + + + + + + %                                                       ",
"                                                    . + + + + + + + + + +                                                       ",
"                                                    + + + + + + + + + + + .                                                     ",
"                                                  & + + + + + + + + + + + @ *                                                   ",
"                                                  = + + + + + + + + + + + -                                                     ",
"                                                  ; - + + + + + + + + + + > ,                                                   ",
"                                                  ' > + + + + + + + + + - ) !                                                   ",
"                                                  ' ~ > - @ + + + { @ ] ^ ' /                                                   ",
"                                                  ' ' ' ~ ) # > > ^ ~ ; ' ' /                                                   ",
"                                                  ' ' ' ' ' ' ' ' ' ' ' ' ' !                                                   ",
"                                                  ' ' ' ' ' ' ' ' ' ' ' ' ' (                                                   ",
"                                                  ' ' ' ' ' ' ' ' ' ' ' ' ' _ :                                                 ",
"                                                  ' ' ' ' ' ' ' ' ' ' ' ' ' ' <                                                 ",
"                                                  ' ' [ ' ' [ ' ' ' [ ' ' [ ' [                                                 ",
"                                                  ' / } ' / } ' ' / } ' / } ' '                                                 ",
"                                                  | | 1 ' ! 2 ' ~ ! 1 ' ! 3 ' ~                                                 ",
"                                                  = 4 5 6 | 3 & 7 6 5 6 | 8 9 -                                                 ",
"                                                0 a b c 4 4 d 9 + e f 4 9 g h i j                                               ",
"                                                k l m n o p q r @ 9 s t u v w x                                                 ",
"                                                y z A B C D E F o [ G H I J K K                                                 ",
"                                              L M     N O P Q R S T U V W X Y K Z                                               ",
"                                              `  ...  +.@.#.$.%.&.*.=.-.;.  Z K Y                                               ",
"                                               . .>.,.'.).!.~.{.].K K -.^.    K K                                               ",
"                                              ` /.(._.:.<.[.}.|.1.2.3.4.5.    Y 6.7.                                            ",
"                                              L L 8.9.0.a.b.c.d.e.f.g.h.g.i.  Z j.k.                                            ",
"                                              L L l.m.n.o.p.q.r.s.t.u.v.w.x.    Y y.                                            ",
"                                              z.A.B.C.D.E.F.G.H.I.J.K.L.M.N.    O.P.Q.                                          ",
"                                              R.S.T.U.V.V.W.X.Y.Z.`. +.+++@+#+$+%+&+*+                                          ",
"                                                =+-+;+>+>+>+>+,+'+)+!+~+{+]+    ^+/+                                            ",
"                                                      >+y y y (+_+{+{+{+{+                                                      ",
"                                                      :+o.o.<+[+]+{+{+{+}+                                                      ",
"                                                      |+K K 1+2+3+{+{+{+                                                        ",
"                                                      4+5+6.6.6+3+7+7+8+                                                        ",
"                                                        9+0+a+b+c+d+e+f+                                                        ",
"                                                        g+>+>+,+h+ . .e+                                                        ",
"                                                          >+>+,+h+ . .`                                                         ",
"                                                          g+g+     . .i+                                                        ",
"                                                                  M M                                                           ",
"                                                                  U.j+                                                          ",
"                                                                  k+l+                                                          ",
"                                                                                                                                ",
"                                                                                                                                ",
"                                                                                                                                ",
"                                                                                                                                ",
"                                                                                                                                ",
"                                                                                                                                ",
"                                                                                                                                ",
"                                                                                                                                ",
"                                                                                                                                ",
"                                                                                                                                ",
"                                                                                                                                ",
"                                                                                                                                "};
