/* XPM */
static char * d0_xpm[] = {
"64 64 388 2",
"  	c #AADA50",
". 	c #5C69C0",
"+ 	c #5F6DC8",
"@ 	c #5B67BD",
"# 	c #505BA7",
"$ 	c #5F6CC6",
"% 	c #606DC8",
"& 	c #5F6DC7",
"* 	c #505CA9",
"= 	c #434C8C",
"- 	c #5865B9",
"; 	c #3E4782",
"> 	c #4E5AA5",
", 	c #5864B8",
"' 	c #5763B6",
") 	c #4C579F",
"! 	c #5B68BF",
"~ 	c #515CA9",
"{ 	c #616FCB",
"] 	c #5561B1",
"^ 	c #535FAE",
"/ 	c #5460B0",
"( 	c #4B569F",
"_ 	c #545FAF",
": 	c #5A67BC",
"< 	c #5966BA",
"[ 	c #606ECA",
"} 	c #525EAD",
"| 	c #5662B5",
"1 	c #4F5AA6",
"2 	c #5A66BB",
"3 	c #606EC9",
"4 	c #5966BB",
"5 	c #4C57A0",
"6 	c #424B8B",
"7 	c #404885",
"8 	c #5B69BF",
"9 	c #5965B9",
"0 	c #5662B3",
"a 	c #3E4681",
"b 	c #616FCA",
"c 	c #4A549B",
"d 	c #404985",
"e 	c #475195",
"f 	c #404988",
"g 	c #4A559C",
"h 	c #49539A",
"i 	c #4B569E",
"j 	c #3B427A",
"k 	c #3D457F",
"l 	c #454E90",
"m 	c #5763B5",
"n 	c #49549A",
"o 	c #303560",
"p 	c #404169",
"q 	c #8D7B74",
"r 	c #4F59A4",
"s 	c #495397",
"t 	c #3C3A5E",
"u 	c #3E4783",
"v 	c #4E59A4",
"w 	c #4D58A2",
"x 	c #454477",
"y 	c #3C457F",
"z 	c #3B3B69",
"A 	c #825854",
"B 	c #835A5F",
"C 	c #916F69",
"D 	c #F2BB96",
"E 	c #93736D",
"F 	c #4B4469",
"G 	c #8B6064",
"H 	c #CC907A",
"I 	c #443B61",
"J 	c #323661",
"K 	c #805656",
"L 	c #323662",
"M 	c #6B3E49",
"N 	c #382223",
"O 	c #321C19",
"P 	c #BC756A",
"Q 	c #F8BE99",
"R 	c #F7BF99",
"S 	c #E5A388",
"T 	c #74413F",
"U 	c #3A2623",
"V 	c #69393D",
"W 	c #424378",
"X 	c #454578",
"Y 	c #424B8A",
"Z 	c #A4787F",
"` 	c #AE999F",
" .	c #4B4C69",
"..	c #908B93",
"+.	c #F9D4A9",
"@.	c #FFDEB0",
"#.	c #C1A28E",
"$.	c #83838C",
"%.	c #9A95A3",
"&.	c #B67F74",
"*.	c #5A5C9F",
"=.	c #414987",
"-.	c #B99591",
";.	c #F6CDBA",
">.	c #A1ADDF",
",.	c #A5A7D0",
"'.	c #FDDFB3",
").	c #FFE0B1",
"!.	c #E2CFC5",
"~.	c #7488CB",
"{.	c #DFD1E1",
"].	c #F2BF9D",
"^.	c #6064AA",
"/.	c #485297",
"(.	c #4C569F",
"_.	c #475093",
":.	c #554B7C",
"<.	c #D79982",
"[.	c #F9CAA6",
"}.	c #FCD8AE",
"|.	c #FFDFB1",
"1.	c #F8D0AB",
"2.	c #F4BA99",
"3.	c #976C78",
"4.	c #495297",
"5.	c #4E59A3",
"6.	c #5B548E",
"7.	c #C7977F",
"8.	c #F8CFA5",
"9.	c #F5CDA5",
"0.	c #F2C19D",
"a.	c #FCDBAD",
"b.	c #E5B795",
"c.	c #956C76",
"d.	c #4E569E",
"e.	c #404883",
"f.	c #4E59A2",
"g.	c #4F5AA5",
"h.	c #4F59A2",
"i.	c #6E5884",
"j.	c #656388",
"k.	c #A46A6E",
"l.	c #B36966",
"m.	c #BF9279",
"n.	c #C2A283",
"o.	c #BB786C",
"p.	c #BF746D",
"q.	c #6A6587",
"r.	c #8E656B",
"s.	c #745C85",
"t.	c #4D58A1",
"u.	c #9A8686",
"v.	c #F5D6AA",
"w.	c #A7A6BB",
"x.	c #A5757A",
"y.	c #D98C7B",
"z.	c #D5847A",
"A.	c #CB7875",
"B.	c #DF8F7F",
"C.	c #CD8676",
"D.	c #A4A2B9",
"E.	c #C4AC99",
"F.	c #F9DAAD",
"G.	c #4E58A1",
"H.	c #595492",
"I.	c #E4B896",
"J.	c #EDC29F",
"K.	c #BABBCD",
"L.	c #C7B4A8",
"M.	c #FCDBAE",
"N.	c #FDDBAE",
"O.	c #FDDCAE",
"P.	c #F7D7AC",
"Q.	c #BCBFCF",
"R.	c #B79297",
"S.	c #FEDEB0",
"T.	c #56528F",
"U.	c #A0727D",
"V.	c #F9D9AC",
"W.	c #B1A4AD",
"X.	c #D2DBF4",
"Y.	c #CCD1E2",
"Z.	c #C8A59F",
"`.	c #EBAB8F",
" +	c #E6AC8B",
".+	c #DDAD95",
"++	c #C0B2BB",
"@+	c #DEE6F9",
"#+	c #AFB3D4",
"$+	c #E1C7A7",
"%+	c #FBDBAD",
"&+	c #735A7F",
"*+	c #CAA88A",
"=+	c #CAB7A9",
"-+	c #E4EAF8",
";+	c #F7F9FE",
">+	c #FEFEFF",
",+	c #F9F9FA",
"'+	c #C2B5C3",
")+	c #B79098",
"!+	c #DEDFE9",
"~+	c #FCFDFE",
"{+	c #FDFEFF",
"]+	c #F0F4FD",
"^+	c #BABED1",
"/+	c #F9DAAE",
"(+	c #F1C9A3",
"_+	c #C2C3D1",
":+	c #FFFFFF",
"<+	c #F6F8FD",
"[+	c #EEF2FB",
"}+	c #F2F4FA",
"|+	c #C9B6A8",
"1+	c #C2AA97",
"2+	c #CFD3E5",
"3+	c #F2F6FE",
"4+	c #F8FAFF",
"5+	c #F4F6FC",
"6+	c #8D8FAD",
"7+	c #F3CBA3",
"8+	c #C5AF9B",
"9+	c #C5CDEC",
"0+	c #E2E6F6",
"a+	c #F9FAFE",
"b+	c #F1F5FE",
"c+	c #E4E8F6",
"d+	c #BFC5E2",
"e+	c #F8F9FE",
"f+	c #FDFDFF",
"g+	c #EBECF7",
"h+	c #D1D7F0",
"i+	c #AEB2C6",
"j+	c #F7D8AC",
"k+	c #F7CFA5",
"l+	c #C4AE9A",
"m+	c #A6B1D4",
"n+	c #A2ADD2",
"o+	c #AFB8DD",
"p+	c #B4BDE2",
"q+	c #DCE2F6",
"r+	c #E1E5F6",
"s+	c #D0D4E8",
"t+	c #ECF0FC",
"u+	c #C8D0EF",
"v+	c #B2BBE0",
"w+	c #8F9BC5",
"x+	c #A7B2D6",
"y+	c #9DA0BB",
"z+	c #FADBAE",
"A+	c #C1AB96",
"B+	c #828FBC",
"C+	c #8F9ACA",
"D+	c #919CCC",
"E+	c #A6AEE0",
"F+	c #BBC3EA",
"G+	c #D2D8F1",
"H+	c #D3D9F1",
"I+	c #C9D1F0",
"J+	c #ABB3E3",
"K+	c #9EA8D8",
"L+	c #8D97C9",
"M+	c #909CCA",
"N+	c #767899",
"O+	c #FBDCAF",
"P+	c #F4B594",
"Q+	c #A3969A",
"R+	c #828BB4",
"S+	c #7E89B0",
"T+	c #C8CEEA",
"U+	c #D3DBF4",
"V+	c #F5F7FE",
"W+	c #E5E9F7",
"X+	c #E8EEFC",
"Y+	c #D7DDF3",
"Z+	c #ADB3D9",
"`+	c #706F92",
" @	c #DEC2A2",
".@	c #FADBAD",
"+@	c #F3A388",
"@@	c #BE8481",
"#@	c #BAC2DE",
"$@	c #F6F7FA",
"%@	c #F1F3F9",
"&@	c #BEC1CF",
"*@	c #A7AECD",
"=@	c #C0C1CA",
"-@	c #B6B7C6",
";@	c #A6A7BD",
">@	c #BEBEC9",
",@	c #BEBEC8",
"'@	c #C5B3A8",
")@	c #DAB49A",
"!@	c #B77B6B",
"~@	c #E4B895",
"{@	c #FDDDAF",
"]@	c #F5A489",
"^@	c #BD8175",
"/@	c #C1AB98",
"(@	c #C8B5A8",
"_@	c #A8A9C1",
":@	c #D1D3E4",
"<@	c #E9EDF9",
"[@	c #C6CBE2",
"}@	c #9A87A8",
"|@	c #B1918D",
"1@	c #C1AC99",
"2@	c #C1AC9A",
"3@	c #B3AAB5",
"4@	c #BCBCC8",
"5@	c #9FA1BD",
"6@	c #A29599",
"7@	c #FDDEB0",
"8@	c #BF816D",
"9@	c #FBDCAE",
"0@	c #B5ACB8",
"a@	c #FBFBFD",
"b@	c #F3F5FA",
"c@	c #FBFAFB",
"d@	c #F0F2F9",
"e@	c #D2D4E4",
"f@	c #BABBC8",
"g@	c #7C7797",
"h@	c #BE726A",
"i@	c #E79681",
"j@	c #DC8C7B",
"k@	c #F1A087",
"l@	c #8C5853",
"m@	c #C1B7B6",
"n@	c #D4D7EC",
"o@	c #BDC3E1",
"p@	c #D6D8ED",
"q@	c #ACAFCA",
"r@	c #E1C7A6",
"s@	c #FADAAD",
"t@	c #BB7F6D",
"u@	c #FFDFB0",
"v@	c #DD917B",
"w@	c #D18674",
"x@	c #EB9D84",
"y@	c #686B93",
"z@	c #A98F89",
"A@	c #F9DBAF",
"B@	c #BA7E6B",
"C@	c #FEDEAF",
"D@	c #FBD0A6",
"E@	c #DC907D",
"F@	c #D1AA8B",
"G@	c #B08874",
"H@	c #FCDDAF",
"I@	c #F0A288",
"J@	c #EE9F85",
"K@	c #CE8473",
"L@	c #D3AC8C",
"M@	c #C3A786",
"N@	c #F9D0A6",
"O@	c #DFB293",
"P@	c #E9B798",
"Q@	c #FEDDAF",
"R@	c #DA937F",
"S@	c #FCD6AA",
"T@	c #FDD6AA",
"U@	c #C18570",
"V@	c #F9D4A8",
"W@	c #F4B493",
"X@	c #F9BD99",
"Y@	c #BE7E6B",
"Z@	c #F5C09A",
"`@	c #F2B392",
" #	c #F0A086",
".#	c #F5A68A",
"+#	c #F5A78B",
"@#	c #BD746A",
"##	c #F1A187",
"$#	c #C07E6C",
"%#	c #F5A589",
"&#	c #F1A287",
"*#	c #BF7E6B",
"=#	c #F6AC8E",
"-#	c #F7B291",
";#	c #F2A388",
">#	c #F6BF9A",
",#	c #C18972",
"'#	c #F9BF99",
")#	c #F9C09A",
"!#	c #BF8C73",
"~#	c #FDD5A9",
"{#	c #F5C69E",
"]#	c #F1BD98",
"                                                                                                                                ",
"                                                                                                                                ",
"                                                                                                                                ",
"                                                                                                                                ",
"                                                                                                                                ",
"                                                                                                                                ",
"                                                                                                                                ",
"                                                                                                                                ",
"                                                                                                                                ",
"                                                          . + @ # $ %                                                           ",
"                                                        & * = # - ; > , $                                                       ",
"                                                      ' ) ! ~ + { ] ^ / ( _                                                     ",
"                                                    ^ ( $ : < [ { + } { / |                                                     ",
"                                                    } 1 2 3 4 [ { % 5 [ + 6                                                     ",
"                                                    7 8 9 [ 0 . { 3 a ^ b c d                                                   ",
"                                                    e + f & g h [ { i j & . k                                                   ",
"                                                  l m n o e p q r & s t u v w                                                   ",
"                                                  x y z A B C D E F G H I J J                                                   ",
"                                                  K L M N O P Q R S T U V W X                                                   ",
"                                                  Y 0 Z `  ...+.@.#.$.%.&.*.c                                                   ",
"                                                  =.: -.;.>.,.'.).!.~.{.].^./.                                                  ",
"                                                  (._.:.<.[.}.).).|.1.2.3.4.Y                                                   ",
"                                                  5._._.6.7.8.9.0.a.b.c.d.e.f.                                                  ",
"                                                  g.h.i.j.k.l.m.n.o.p.q.r.s.h.t.                                                ",
"                                                  r u.v.w.x.y.z.A.B.C.D.E.F.u.G.                                                ",
"                                                  H.I.J.K.L.M.N.M.O.P.Q.R.S.I.T.                                                ",
"                                                  U.V.W.X.Y.Z.`. +.+++@+#+$+%+&+                                                ",
"                                                  *+=+-+;+>+,+'+)+!+~+{+]+^+/+                                                  ",
"                                                  (+_+>+:+:+:+<+[+>+:+:+:+}+|+                                                  ",
"                                                  1+2+3+3+>+:+>+;+:+:+4+3+5+6+7+                                                ",
"                                                  8+9+0+a+b+>+c+d+e+f+]+g+h+i+j+                                                ",
"                                                k+l+m+n+o+p+q+r+s+t+u+v+w+x+y+z+                                                ",
"                                                O.A+B+C+D+E+F+G+H+I+J+K+L+M+N+O+                                                ",
"                                                P+Q+R+S+T+U+V+]+W+b+X+Y+Z+`+ @)..@                                              ",
"                                              +@@@#@$@%@&@*@=@-@;@>@,@'@)@!@~@).{@                                              ",
"                                              ]@^@/@(@_@:@<@[@}@|@1@2@3@4@5@6@7@).                                              ",
"                                            ]@]@8@9@).O+$+0@}+a@b@c@,+d@e@f@g@z+).8.                                            ",
"                                        h@i@j@k@l@.@).).).O+m@n@o@p@q@L.r@s@t@~@).u@                                            ",
"                                        v@w@x@      ).).).).O+6@y@z@A@).).@.B@  C@D@E@                                          ",
"                                                    {@).).).).F@G@H@).).).{@    I@  J@K@                                        ",
"                                                    k+).).).).L@M@).).).)..@                                                    ",
"                                                      ).).).).N@O@).).).).                                                      ",
"                                                      O.).).).{@P@).).).).                                                      ",
"                                                        ).).).Q@R@{@).).{@                                                      ",
"                                                        S@).).T@U@.@).).V@                                                      ",
"                                                        W@T@Q@X@Y@Z@Q@T@`@                                                      ",
"                                                         #.#+#+@@#+@+#.#                                                        ",
"                                                          ]@]@##$#]@]@]@                                                        ",
"                                                          %#+#&#*#=#-#;#                                                        ",
"                                                          >#Q@Z@,#'#)#                                                          ",
"                                                            |..@!#~#~#                                                          ",
"                                                            {#]#                                                                ",
"                                                                                                                                ",
"                                                                                                                                ",
"                                                                                                                                ",
"                                                                                                                                ",
"                                                                                                                                ",
"                                                                                                                                ",
"                                                                                                                                ",
"                                                                                                                                ",
"                                                                                                                                ",
"                                                                                                                                ",
"                                                                                                                                ",
"                                                                                                                                "};
