/* XPM */
static char * d2_xpm[] = {
"64 64 396 2",
"  	c #AADA50",
". 	c #5763B6",
"+ 	c #3F4782",
"@ 	c #4F5AA5",
"# 	c #5764B6",
"$ 	c #5F6DC8",
"% 	c #5F6CC6",
"& 	c #4E59A3",
"* 	c #5460B0",
"= 	c #535FAF",
"- 	c #5662B3",
"; 	c #5864B8",
"> 	c #4B569F",
", 	c #4E5AA5",
"' 	c #4A549B",
") 	c #606EC9",
"! 	c #5B68BF",
"~ 	c #414987",
"{ 	c #4B569E",
"] 	c #505BA8",
"^ 	c #5E6BC4",
"/ 	c #5A66BB",
"( 	c #4C579F",
"_ 	c #5C69C0",
": 	c #606DC8",
"< 	c #5662B4",
"[ 	c #616FCB",
"} 	c #616FCA",
"| 	c #5B68BE",
"1 	c #4F5BA7",
"2 	c #4B559D",
"3 	c #5966BB",
"4 	c #525EAC",
"5 	c #4A549A",
"6 	c #424B8A",
"7 	c #606ECA",
"8 	c #5965BA",
"9 	c #505BA6",
"0 	c #5460AF",
"a 	c #49549A",
"b 	c #383F72",
"c 	c #535FAE",
"d 	c #5460B1",
"e 	c #444D8E",
"f 	c #323766",
"g 	c #5B69BF",
"h 	c #3E4680",
"i 	c #5F6DC7",
"j 	c #495399",
"k 	c #465093",
"l 	c #525EAD",
"m 	c #3F4169",
"n 	c #4F5AA4",
"o 	c #2F345F",
"p 	c #434D8E",
"q 	c #3F4784",
"r 	c #413F6B",
"s 	c #3C365A",
"t 	c #494267",
"u 	c #D3AA8A",
"v 	c #514861",
"w 	c #595996",
"x 	c #B28874",
"y 	c #4B446C",
"z 	c #3F4884",
"A 	c #515CA9",
"B 	c #3B375C",
"C 	c #37355C",
"D 	c #9E635D",
"E 	c #7F544A",
"F 	c #A2675E",
"G 	c #F6B694",
"H 	c #D9A788",
"I 	c #B88D76",
"J 	c #C68072",
"K 	c #B67A65",
"L 	c #83564D",
"M 	c #6A445D",
"N 	c #313662",
"O 	c #805A66",
"P 	c #433A5F",
"Q 	c #3D437A",
"R 	c #434377",
"S 	c #764548",
"T 	c #554B57",
"U 	c #3C2E30",
"V 	c #CF987E",
"W 	c #FCD0A5",
"X 	c #F8C69E",
"Y 	c #7F5350",
"Z 	c #1E1A23",
"` 	c #5D4D59",
" .	c #3D3C6D",
"..	c #4D57A0",
"+.	c #3E4681",
"@.	c #5A67BC",
"#.	c #69537C",
"$.	c #E2AE92",
"%.	c #C0C2DC",
"&.	c #8B8EAB",
"*.	c #C8B9BB",
"=.	c #FFE0B1",
"-.	c #FBDCB1",
";.	c #9AA0C3",
">.	c #6877AE",
",.	c #DDC4C2",
"'.	c #5B5FA8",
").	c #475093",
"!.	c #525DAB",
"~.	c #514B80",
"{.	c #D8A288",
"].	c #F5C6B7",
"^.	c #C7B2CF",
"/.	c #FBDDB4",
"(.	c #E1C8C3",
"_.	c #DEC2CE",
":.	c #F2B99B",
"<.	c #5F62A7",
"[.	c #434C8B",
"}.	c #4E59A4",
"|.	c #3F4781",
"1.	c #424A88",
"2.	c #5C5591",
"3.	c #D8A388",
"4.	c #FDDBAD",
"5.	c #FEDDAF",
"6.	c #FEDEB0",
"7.	c #FFDEB0",
"8.	c #F7CCA3",
"9.	c #976C77",
"0.	c #3A3F73",
"a.	c #475094",
"b.	c #4E58A2",
"c.	c #5158A0",
"d.	c #534B80",
"e.	c #524367",
"f.	c #A06C61",
"g.	c #E4B693",
"h.	c #EDBB99",
"i.	c #EDBB98",
"j.	c #C8977E",
"k.	c #6E4951",
"l.	c #6D5280",
"m.	c #50579E",
"n.	c #544F89",
"o.	c #C2917D",
"p.	c #BDABAB",
"q.	c #ACAFCB",
"r.	c #C8837E",
"s.	c #C4776F",
"t.	c #A36160",
"u.	c #A5605F",
"v.	c #AD7E8D",
"w.	c #8987AE",
"x.	c #EFB795",
"y.	c #C79E86",
"z.	c #575592",
"A.	c #4F59A4",
"B.	c #98677A",
"C.	c #C09196",
"D.	c #C7CBE2",
"E.	c #C4B8B4",
"F.	c #D6AD8E",
"G.	c #EFBC9A",
"H.	c #E8B496",
"I.	c #DBAD90",
"J.	c #C4C1C8",
"K.	c #C8C7D2",
"L.	c #F4C6A1",
"M.	c #FDDCAE",
"N.	c #A0727C",
"O.	c #565E9D",
"P.	c #B0B3C7",
"Q.	c #EBEFF9",
"R.	c #EDF2FC",
"S.	c #C1B2BB",
"T.	c #F5C59F",
"U.	c #FAD9A7",
"V.	c #DCB294",
"W.	c #C9B5A9",
"X.	c #CDD5EA",
"Y.	c #DDE6F9",
"Z.	c #A189A2",
"`.	c #FADBAE",
" +	c #CAA888",
".+	c #4D5497",
"++	c #9FA6C8",
"@+	c #F6F8FE",
"#+	c #FFFFFF",
"$+	c #FBFBFC",
"%+	c #C3C3D1",
"&+	c #A68587",
"*+	c #B5B8CE",
"=+	c #ECF0FA",
"-+	c #F0F5FE",
";+	c #F1F5FE",
">+	c #E1E4F4",
",+	c #B2A6AC",
"'+	c #F5CDA4",
")+	c #C4CCEB",
"!+	c #FDFDFF",
"~+	c #FEFEFF",
"{+	c #DDE2F4",
"]+	c #FCFCFE",
"^+	c #D1D3E4",
"/+	c #DFC4A4",
"(+	c #B6BEE5",
"_+	c #EFF4FD",
":+	c #F8FAFF",
"<+	c #FEFFFF",
"[+	c #FDFDFE",
"}+	c #F2F6FE",
"|+	c #FEFEFE",
"1+	c #F3F5FB",
"2+	c #A9A0A8",
"3+	c #8691BF",
"4+	c #D9DFF4",
"5+	c #E5E9F7",
"6+	c #F3F6FE",
"7+	c #EBEDF8",
"8+	c #DFE4F7",
"9+	c #FCFDFE",
"0+	c #F7F9FE",
"a+	c #F0F4FE",
"b+	c #E2EAFC",
"c+	c #D9DDF1",
"d+	c #787D9D",
"e+	c #7281AE",
"f+	c #8A98C3",
"g+	c #B0BADE",
"h+	c #D9DCF1",
"i+	c #ECF0FC",
"j+	c #CCD4F1",
"k+	c #E1E5F6",
"l+	c #B6BFE2",
"m+	c #BBC3EA",
"n+	c #D2DBF4",
"o+	c #BDC6E5",
"p+	c #959FCD",
"q+	c #A3ACDD",
"r+	c #757A9B",
"s+	c #F2CBA3",
"t+	c #967388",
"u+	c #6E7CAC",
"v+	c #818CBC",
"w+	c #9AA2D4",
"x+	c #C6CEEF",
"y+	c #BCC4EA",
"z+	c #E3E7F7",
"A+	c #DCE1F5",
"B+	c #B7BFE8",
"C+	c #94A0C8",
"D+	c #7B8AB5",
"E+	c #8D98C8",
"F+	c #808BBE",
"G+	c #6F7094",
"H+	c #F7D8AC",
"I+	c #EC9E86",
"J+	c #9E6B73",
"K+	c #B47D7D",
"L+	c #B88383",
"M+	c #BDA9B6",
"N+	c #D1D7E9",
"O+	c #C8CFED",
"P+	c #F7F8FA",
"Q+	c #DAE0F3",
"R+	c #E8ECF8",
"S+	c #CDD3E6",
"T+	c #7579A4",
"U+	c #797AA1",
"V+	c #DEC4A3",
"W+	c #FEDFB0",
"X+	c #E89782",
"Y+	c #BB8078",
"Z+	c #8585A8",
"`+	c #B1B2C6",
" @	c #B2A6B3",
".@	c #DFC4A5",
"+@	c #E0C6A5",
"@@	c #A68B85",
"#@	c #9E8B83",
"$@	c #C6B09B",
"%@	c #C3AD9A",
"&@	c #EBBA9A",
"*@	c #BD937A",
"=@	c #F0A188",
"-@	c #8884A6",
";@	c #F4F4F7",
">@	c #F9FAFB",
",@	c #F0F2F9",
"'@	c #C6CBE3",
")@	c #B2A9B6",
"!@	c #D0A391",
"~@	c #E3B694",
"{@	c #E1C7A6",
"]@	c #C7B4A8",
"^@	c #A8A9C0",
"/@	c #BBBBC7",
"(@	c #7D7999",
"_@	c #FBDCAF",
":@	c #F7CFA5",
"<@	c #E99883",
"[@	c #F1A187",
"}@	c #9D867F",
"|@	c #C7B19B",
"1@	c #C7B19C",
"2@	c #C8B5A8",
"3@	c #A9ACC9",
"4@	c #D7DDF2",
"5@	c #D2D4E4",
"6@	c #C6C4CA",
"7@	c #D3D4E4",
"8@	c #F2F4FB",
"9@	c #D0D2E4",
"0@	c #837C9B",
"a@	c #F7CFA6",
"b@	c #FDDDAF",
"c@	c #EF9F86",
"d@	c #E1937D",
"e@	c #D68777",
"f@	c #C5A887",
"g@	c #F6CEA6",
"h@	c #B19CAB",
"i@	c #F1F3F9",
"j@	c #E6E9F7",
"k@	c #F4F6FB",
"l@	c #C9CDE3",
"m@	c #B3A9B6",
"n@	c #E1C7A7",
"o@	c #F2C09B",
"p@	c #D0AC8B",
"q@	c #D78878",
"r@	c #D68677",
"s@	c #D18275",
"t@	c #C5A686",
"u@	c #EEC7A2",
"v@	c #8788A9",
"w@	c #8893BE",
"x@	c #A790A2",
"y@	c #E1C6A6",
"z@	c #FDDEB0",
"A@	c #FFDFB1",
"B@	c #F4BA96",
"C@	c #C6A987",
"D@	c #F4CDA5",
"E@	c #F1C9A2",
"F@	c #EA9C83",
"G@	c #CE8373",
"H@	c #CD8272",
"I@	c #CF8174",
"J@	c #C38370",
"K@	c #BFA68D",
"L@	c #A07175",
"M@	c #FADAAE",
"N@	c #F3A58A",
"O@	c #B68B75",
"P@	c #E8C39D",
"Q@	c #EAC69F",
"R@	c #D9B08F",
"S@	c #EFAD8E",
"T@	c #C5A886",
"U@	c #CC8E78",
"V@	c #FDD6AA",
"W@	c #F2A388",
"X@	c #F6CFA5",
"Y@	c #C7A987",
"Z@	c #F9BD99",
"`@	c #FCDCAF",
" #	c #DB9982",
".#	c #F5A78B",
"+#	c #E49382",
"@#	c #F6AD8F",
"##	c #FAC49E",
"$#	c #E39382",
"%#	c #F5A489",
"&#	c #FBDCAE",
"*#	c #DA8E7C",
"=#	c #FADBAD",
"-#	c #D08A77",
";#	c #F3A388",
">#	c #F0A086",
",#	c #C6A786",
"'#	c #E79681",
")#	c #EB9883",
"!#	c #FFDFB0",
"~#	c #C4A786",
"{#	c #D58178",
"]#	c #D68179",
"^#	c #FBDBAD",
"/#	c #F0A187",
"(#	c #F0A288",
"_#	c #F6AA8D",
":#	c #C98572",
"<#	c #F2AA8C",
"[#	c #FDD5A9",
"}#	c #F5C69F",
"                                                                                                                                ",
"                                                                                                                                ",
"                                                                                                                                ",
"                                                                                                                                ",
"                                                                                                                                ",
"                                                                                                                                ",
"                                                                                                                                ",
"                                                                                                                                ",
"                                                                                                                                ",
"                                                              . + @ #                                                           ",
"                                                          $ % & * = - $ %                                                       ",
"                                                        ; > , ' ) ! ~ { ] ^                                                     ",
"                                                      / ( _ : < [ } & $ | 1                                                     ",
"                                                      2 ! 3 ) 3 [ [ 4 $ } { <                                                   ",
"                                                    5 6 $ 3 7 8 [ [ 1 9 } 0 a                                                   ",
"                                                    b c _ d $ e : [ ! f g : h                                                   ",
"                                                    @ i j k l m n 7 i o p _ c                                                   ",
"                                                    < q r s t u v 5 w x y z l A                                                 ",
"                                                    B C D E F G H I J K L M N O                                                 ",
"                                                  P Q R S T U V W X Y Z `  ...                                                  ",
"                                                  +.@.#.$.%.&.*.=.-.;.>.,.'.l                                                   ",
"                                                  ).!.~.{.].^./.=.=.(._.:.<.[.                                                  ",
"                                                  }.|.1.2.3.4.=.5.6.7.8.9.0.a.                                                  ",
"                                                b.@ & c.d.e.f.g.h.i.j.k.l.m.@                                                   ",
"                                                n @ n.o.p.q.r.s.t.u.v.w.x.y.z.                                                  ",
"                                                @ A.B.C.D.E.F.G.H.I.J.K.L.M.N.                                                  ",
"                                                @ O.P.Q.R.S.T.U.V.W.X.Y.Z.`. +                                                  ",
"                                                .+++@+#+#+$+%+&+*+=+-+;+>+,+'+                                                  ",
"                                                  )+!+#+#+#+~+{+]+#+#+#+#+^+/+                                                  ",
"                                                  (+_+:+#+<+[+}+<+#+~+~+|+1+2+                                                  ",
"                                                  3+4+5+<+6+7+8+9+0+a+b+c+4+d+                                                  ",
"                                                  e+f+g+h+i+j+k+l+m+n+o+p+q+r+s+                                                ",
"                                                  t+u+v+w+x+y+z+A+B+C+D+E+F+G+H+                                                ",
"                                                  I+J+K+L+M+N+O+P+Q+R+S+T+U+V+W+                                                ",
"                                                X+Y+Z+`+ @.@+@@@#@$@$@%@&@*@W+=.                                                ",
"                                                =@-@;@>@,@'@)@!@~@{@]@^@/@(@_@=.:@                                              ",
"                                              <@[@}@|@1@2@3@4@5@6@7@1+8@9@0@a@=.b@                                              ",
"                                            c@d@e@f@=.=.=.g@h@i@j@k@l@m@n@o@p@=.=.                                              ",
"                                            q@r@s@t@=.=.=.=.u@v@w@x@y@z@A@B@C@D@b@E@                                            ",
"                                          F@G@H@I@J@b@=.=.=.=.K@L@M@=.=.7.N@O@P@Q@R@S@                                          ",
"                                                    :@=.=.=.=.T@U@7.=.=.V@W@                                                    ",
"                                                      =.=.=.=.X@Y@=.=.A@Z@                                                      ",
"                                                      M.=.=.=.`@ #V@=.V@.#                                                      ",
"                                                        =.=.=.b@+#@###@#[@                                                      ",
"                                                        b@=.=.b@$#%#%#%#                                                        ",
"                                                        &#=.=.`@*#%#%#%#                                                        ",
"                                                        =#=.=.b@-#;#%#>#                                                        ",
"                                                          =.=.=.,#'#)#                                                          ",
"                                                          !#=.=.~#{#]#                                                          ",
"                                                          ^#A@7.,#/#(#                                                          ",
"                                                            Z@_#:#                                                              ",
"                                                            <#[#}#                                                              ",
"                                                                                                                                ",
"                                                                                                                                ",
"                                                                                                                                ",
"                                                                                                                                ",
"                                                                                                                                ",
"                                                                                                                                ",
"                                                                                                                                ",
"                                                                                                                                ",
"                                                                                                                                ",
"                                                                                                                                ",
"                                                                                                                                ",
"                                                                                                                                "};
