/* XPM */
static char * d3_xpm[] = {
"64 64 382 2",
"  	c #AADA50",
". 	c #606DC8",
"+ 	c #5F6CC6",
"@ 	c #505BA7",
"# 	c #5B67BD",
"$ 	c #5F6DC8",
"% 	c #5C69C0",
"& 	c #5864B8",
"* 	c #4F5AA6",
"= 	c #3E4782",
"- 	c #5865B9",
"; 	c #424B8B",
"> 	c #505CA9",
", 	c #5F6DC7",
"' 	c #545FAF",
") 	c #4B569F",
"! 	c #5460AF",
"~ 	c #5E6CC5",
"{ 	c #515DAA",
"] 	c #616FCB",
"^ 	c #606EC8",
"/ 	c #495398",
"( 	c #5A67BE",
"_ 	c #4C579F",
": 	c #5763B6",
"< 	c #5662B5",
"[ 	c #5460B0",
"} 	c #5A66BB",
"| 	c #5966BA",
"1 	c #525EAC",
"2 	c #535FAE",
"3 	c #5966BB",
"4 	c #606ECA",
"5 	c #515CA9",
"6 	c #5B68BF",
"7 	c #525EAD",
"8 	c #404985",
"9 	c #4A549B",
"0 	c #606EC9",
"a 	c #616FCA",
"b 	c #535FAF",
"c 	c #3E4681",
"d 	c #5B69C0",
"e 	c #404885",
"f 	c #353B6D",
"g 	c #4E5AA5",
"h 	c #3A4179",
"i 	c #303561",
"j 	c #4D57A0",
"k 	c #525DAB",
"l 	c #373D70",
"m 	c #887870",
"n 	c #504F7D",
"o 	c #5B68BE",
"p 	c #3C3A5F",
"q 	c #383E72",
"r 	c #495399",
"s 	c #4E59A4",
"t 	c #4A549A",
"u 	c #434B8B",
"v 	c #373D71",
"w 	c #403553",
"x 	c #A87164",
"y 	c #4B3D59",
"z 	c #D9A788",
"A 	c #D7A587",
"B 	c #534866",
"C 	c #4E4164",
"D 	c #CC907A",
"E 	c #886066",
"F 	c #393761",
"G 	c #313662",
"H 	c #3D395F",
"I 	c #845A61",
"J 	c #3A3455",
"K 	c #363155",
"L 	c #69393B",
"M 	c #392522",
"N 	c #6F3D3D",
"O 	c #EAA78B",
"P 	c #F9C09A",
"Q 	c #F4BB96",
"R 	c #B97268",
"S 	c #3E251F",
"T 	c #382223",
"U 	c #6C4257",
"V 	c #444D8D",
"W 	c #373D6F",
"X 	c #485398",
"Y 	c #575899",
"Z 	c #B67E74",
"` 	c #9A95A3",
" .	c #83838C",
"..	c #C1A28E",
"+.	c #FFDEB0",
"@.	c #F9D4A9",
"#.	c #908B93",
"$.	c #4B4C69",
"%.	c #AB979D",
"&.	c #704D71",
"*.	c #3C447D",
"=.	c #3C447C",
"-.	c #5662B3",
";.	c #524970",
">.	c #F2BE9C",
",.	c #DFD1E1",
"'.	c #7488CB",
").	c #E2CFC5",
"!.	c #FFE0B1",
"~.	c #FDDFB3",
"{.	c #A5A7D0",
"].	c #A1ADDF",
"^.	c #F2CAB9",
"/.	c #5C5E9E",
"(.	c #485296",
"_.	c #4A559B",
":.	c #4D58A1",
"<.	c #475093",
"[.	c #464E8E",
"}.	c #986D7B",
"|.	c #F4BA99",
"1.	c #F8D0AB",
"2.	c #FFDFB1",
"3.	c #FCD8AE",
"4.	c #F9CAA6",
"5.	c #D69981",
"6.	c #525596",
"7.	c #424B8A",
"8.	c #4F5AA5",
"9.	c #465092",
"0.	c #474F92",
"a.	c #4F4F8F",
"b.	c #946760",
"c.	c #E5B795",
"d.	c #FCDBAD",
"e.	c #F2C19D",
"f.	c #F5CDA5",
"g.	c #F8CFA5",
"h.	c #C5967E",
"i.	c #5D548D",
"j.	c #404783",
"k.	c #4E59A2",
"l.	c #4E59A3",
"m.	c #4F5AA4",
"n.	c #424986",
"o.	c #906576",
"p.	c #837497",
"q.	c #8481A9",
"r.	c #C0746D",
"s.	c #BB786C",
"t.	c #C2A283",
"u.	c #BF9279",
"v.	c #905B61",
"w.	c #6A6485",
"x.	c #BC7D72",
"y.	c #5D5992",
"z.	c #513C5C",
"A.	c #D18F84",
"B.	c #C1C5DE",
"C.	c #B6979A",
"D.	c #D18A77",
"E.	c #DF8F7F",
"F.	c #CB7875",
"G.	c #BA6C6F",
"H.	c #AFAEC7",
"I.	c #ACAABF",
"J.	c #F8CEA5",
"K.	c #C8A78C",
"L.	c #50579F",
"M.	c #3A4279",
"N.	c #56507D",
"O.	c #BBABBF",
"P.	c #D1D9F2",
"Q.	c #C4A39E",
"R.	c #FACDA3",
"S.	c #FDDCAE",
"T.	c #F8D8AC",
"U.	c #C7BBB6",
"V.	c #FAFAFC",
"W.	c #C8C7D2",
"X.	c #EDC29F",
"Y.	c #725780",
"Z.	c #4B4F79",
"`.	c #CFD3E1",
" +	c #FCFCFD",
".+	c #FEFEFF",
"++	c #E3E1E3",
"@+	c #C5A29D",
"#+	c #C1A993",
"$+	c #B2A4B6",
"%+	c #E0E8F9",
"&+	c #E4ECFD",
"*+	c #D2DAF3",
"=+	c #C4A39F",
"-+	c #FEDEAF",
";+	c #BC937A",
">+	c #5962A8",
",+	c #CFD3E0",
"'+	c #FFFFFF",
")+	c #F4F6FB",
"!+	c #D3DBF3",
"~+	c #E8EEFC",
"{+	c #FDFEFF",
"]+	c #E9EFFD",
"^+	c #A5A6C0",
"/+	c #FBDBAE",
"(+	c #EAECF6",
"_+	c #ECEDF8",
":+	c #E7EAF8",
"<+	c #FEFFFF",
"[+	c #CACDE3",
"}+	c #DFBA9D",
"|+	c #FBDBAD",
"1+	c #EEF2FD",
"2+	c #EDEEF8",
"3+	c #C5CDE9",
"4+	c #FCFDFE",
"5+	c #FDFDFE",
"6+	c #F3F5FA",
"7+	c #C6B09B",
"8+	c #FFDFB0",
"9+	c #BAC3E2",
"0+	c #D5DDF5",
"a+	c #FBFCFE",
"b+	c #F7F9FE",
"c+	c #E7EDFC",
"d+	c #D4DDF6",
"e+	c #F6F8FE",
"f+	c #F0F4FE",
"g+	c #CAD2F0",
"h+	c #E9EBF7",
"i+	c #DADFF2",
"j+	c #C7AF9B",
"k+	c #7786B2",
"l+	c #808FB9",
"m+	c #BAC1E8",
"n+	c #D7DBF1",
"o+	c #B5BEE2",
"p+	c #D2DBF5",
"q+	c #C9D2F1",
"r+	c #B9C1E9",
"s+	c #BBC3EA",
"t+	c #C4CCEC",
"u+	c #8B97C3",
"v+	c #9EA7D6",
"w+	c #888DB5",
"x+	c #F7D0A7",
"y+	c #F7CFA5",
"z+	c #8892BD",
"A+	c #B1B9E3",
"B+	c #B5BDE6",
"C+	c #BCC6E4",
"D+	c #B7C1DC",
"E+	c #F3F6FD",
"F+	c #A7AFE1",
"G+	c #A8B3D6",
"H+	c #7381B1",
"I+	c #A0ABCF",
"J+	c #6E6A89",
"K+	c #FBDCAF",
"L+	c #FBDCAE",
"M+	c #D18E82",
"N+	c #987177",
"O+	c #C5B1A6",
"P+	c #A1A2BD",
"Q+	c #8486AA",
"R+	c #DCDFEA",
"S+	c #F0F3F9",
"T+	c #B9C0E6",
"U+	c #E7EBF8",
"V+	c #9FA9CD",
"W+	c #A18090",
"X+	c #BD7F6E",
"Y+	c #FDDDAF",
"Z+	c #EC9E86",
"`+	c #9D7C7B",
" @	c #C1AB99",
".@	c #F4D7AD",
"+@	c #E0C6A5",
"@@	c #A98E87",
"#@	c #9C8883",
"$@	c #C7B19B",
"%@	c #C6AF99",
"&@	c #F3BD99",
"*@	c #EB9E85",
"=@	c #D0AC8B",
"-@	c #BF8784",
";@	c #D4DAEE",
">@	c #F5F5F7",
",@	c #DEE2F1",
"'@	c #BFC2D2",
")@	c #B3AAB5",
"!@	c #B5918C",
"~@	c #E9B899",
"{@	c #F9DBAF",
"]@	c #C7B19C",
"^@	c #B0A6B3",
"/@	c #686386",
"(@	c #C1A686",
"_@	c #E69681",
":@	c #BB817F",
"<@	c #AFA6B2",
"[@	c #C7B29E",
"}@	c #B4AAB6",
"|@	c #C8CDE3",
"1@	c #F0F2FA",
"2@	c #E1E4F3",
"3@	c #C0C1D2",
"4@	c #CACAD3",
"5@	c #E2E6F3",
"6@	c #E8ECF8",
"7@	c #7B7393",
"8@	c #E4B795",
"9@	c #FBCCA3",
"0@	c #D78878",
"a@	c #B17267",
"b@	c #F8D9AC",
"c@	c #FDDEB0",
"d@	c #E1C7A7",
"e@	c #B2AAB6",
"f@	c #C5CBE3",
"g@	c #BDC3E1",
"h@	c #D1D4E5",
"i@	c #C9C8D2",
"j@	c #BCA2AA",
"k@	c #C38271",
"l@	c #F7D6AA",
"m@	c #E1AD8F",
"n@	c #FDD8AB",
"o@	c #F6C29C",
"p@	c #D08473",
"q@	c #CC8273",
"r@	c #E6B996",
"s@	c #A19598",
"t@	c #666A93",
"u@	c #A67D7E",
"v@	c #F3BB99",
"w@	c #EFA087",
"x@	c #BF8871",
"y@	c #CFAA8A",
"z@	c #F6CBA2",
"A@	c #F1BF9C",
"B@	c #F4B694",
"C@	c #C97F70",
"D@	c #D78779",
"E@	c #C1957A",
"F@	c #D2AC8C",
"G@	c #A0645C",
"H@	c #F2A288",
"I@	c #F5A589",
"J@	c #F3A388",
"K@	c #BF7F6C",
"L@	c #CB8373",
"M@	c #D5AB8C",
"N@	c #EE9E85",
"O@	c #BF806C",
"P@	c #F5A489",
"Q@	c #CA8070",
"R@	c #C98673",
"S@	c #F4A389",
"T@	c #E39381",
"U@	c #F1A187",
"V@	c #E6A58D",
"W@	c #F4A288",
"X@	c #EFA086",
"Y@	c #DFB192",
"Z@	c #E99783",
"`@	c #F3A288",
" #	c #D5AC8D",
".#	c #CB7273",
"+#	c #E08C7E",
"@#	c #D47F77",
"##	c #FADAAC",
"$#	c #D19A81",
"%#	c #C97072",
"&#	c #BE796D",
"*#	c #F2A187",
"=#	c #B17366",
"-#	c #E69581",
";#	c #FDDDAE",
">#	c #F6C8A0",
",#	c #F9D4A8",
"                                                                                                                                ",
"                                                                                                                                ",
"                                                                                                                                ",
"                                                                                                                                ",
"                                                                                                                                ",
"                                                                                                                                ",
"                                                                                                                                ",
"                                                                                                                                ",
"                                                                                                                                ",
"                                                                                                                                ",
"                                                            . + @ # $ %                                                         ",
"                                                        + & * = - @ ; > ,                                                       ",
"                                                      ' ) ! ~ { ] ^ / ( _ :                                                     ",
"                                                      < [ } . | ] ] 1 ^ . ) 2                                                   ",
"                                                      ; + 3 4 3 ] ] 5 6 ] * 7                                                   ",
"                                                    8 9 . | 0 { a ] b c . d e                                                   ",
"                                                    f 6 2 g d h 6 ] , i 7 0 j                                                   ",
"                                                    k 2 c l ; m n 6 o p q r s t                                                 ",
"                                                    u v w x y z A B C D E F G H                                                 ",
"                                                  I J K L M N O P Q R S T U V                                                   ",
"                                                  W X Y Z `  ...+.@.#.$.%.&.k                                                   ",
"                                                *.=.-.;.>.,.'.).!.~.{.].^./.(.                                                  ",
"                                                _.:.<.[.}.|.1.2.!.!.3.4.5.6.7.                                                  ",
"                                                8.8.9.0.a.b.c.d.e.f.g.h.i.j.k.                                                  ",
"                                              l.8.m.n.o.p.q.r.s.t.u.v.w.x.y.m.                                                  ",
"                                              8.8.t z.A.B.C.D.E.F.G.H.I.J.K.L.                                                  ",
"                                              l.s M.N.O.P.Q.R.S.T.U.V.W.X.g.Y.                                                  ",
"                                              l.8.Z.`. +.+++@+#+$+%+&+*+=+-+;+                                                  ",
"                                                >+,+.+'+'+'+)+!+~+{+{+]+^+/+                                                    ",
"                                                  (+'+'+'+'+_+:+<+'+'+.+[+}+|+                                                  ",
"                                                  1+.+'+'+2+3+4+'+.+5+'+6+7+8+                                                  ",
"                                                9+0+a+'+b+c+d+e+b+f+g+h+i+j+!.                                                  ",
"                                                k+l+m+n+o+p+q+r+s+t+u+v+w+x+!.y+                                                ",
"                                                  z+A+B+C+D+E+s+F+G+H+I+J+K+!.L+                                                ",
"                                                  M+N+O+P+Q+R+S+T+U+V+W+X+y+!.Y+                                                ",
"                                                  Z+`+7+ @.@+@@@#@$@%@&@*@=@!.!.                                                ",
"                                                  -@;@>@,@'@)@!@~@{@]@^@/@(@!.!.                                                ",
"                                                _@:@<@[@}@|@1@2@3@4@5@6@7@8@9@8+                                                ",
"                                                0@a@b@!.c@d@e@f@g@h@i@j@k@l@m@n@o@                                              ",
"                                                p@q@r@!.!.!.K+s@t@u@v@w@x@y@z@A@B@                                              ",
"                                              C@  D@E@8+!.!.!.F@G@H@I@J@K@L@  M@N@                                              ",
"                                                      |+!.!.!.y+O@P@P@P@P@      Q@                                              ",
"                                                        !.!.!.L+R@P@P@P@S@                                                      ",
"                                                        Y+!.!.Y+T@P@P@P@U@                                                      ",
"                                                        y+!.!.8+V@W@P@P@X@                                                      ",
"                                                          !.!.!.Y@Z@P@`@                                                        ",
"                                                          !.!.!. #.#+#@#                                                        ",
"                                                        ##!.!.8+$#.#%#                                                          ",
"                                                          !.!.L+&#*#                                                            ",
"                                                          2.!.L+=#-#                                                            ",
"                                                          ;#!.L+                                                                ",
"                                                          >#!.L+                                                                ",
"                                                            8+,#                                                                ",
"                                                                                                                                ",
"                                                                                                                                ",
"                                                                                                                                ",
"                                                                                                                                ",
"                                                                                                                                ",
"                                                                                                                                ",
"                                                                                                                                ",
"                                                                                                                                ",
"                                                                                                                                ",
"                                                                                                                                ",
"                                                                                                                                "};
