/* XPM */
static char * d4_xpm[] = {
"64 64 381 2",
"  	c #AADA50",
". 	c #5C69C0",
"+ 	c #5F6DC8",
"@ 	c #5B67BD",
"# 	c #505BA7",
"$ 	c #5F6CC6",
"% 	c #606DC8",
"& 	c #5F6DC7",
"* 	c #505CA9",
"= 	c #434C8C",
"- 	c #5865B9",
"; 	c #3E4782",
"> 	c #4E5AA5",
", 	c #5864B8",
"' 	c #5763B6",
") 	c #4C579F",
"! 	c #5B68BF",
"~ 	c #515CA9",
"{ 	c #616FCB",
"] 	c #5561B1",
"^ 	c #535FAE",
"/ 	c #5460B0",
"( 	c #4B569F",
"_ 	c #545FAF",
": 	c #5A67BC",
"< 	c #5966BA",
"[ 	c #606ECA",
"} 	c #525EAD",
"| 	c #5662B5",
"1 	c #4F5AA6",
"2 	c #5A66BB",
"3 	c #606EC9",
"4 	c #5966BB",
"5 	c #4C57A0",
"6 	c #424B8B",
"7 	c #404885",
"8 	c #5B69BF",
"9 	c #5965B9",
"0 	c #5662B3",
"a 	c #3E4681",
"b 	c #616FCA",
"c 	c #4A549B",
"d 	c #404985",
"e 	c #4D57A0",
"f 	c #404988",
"g 	c #4B559B",
"h 	c #474B7F",
"i 	c #4B569E",
"j 	c #3B427A",
"k 	c #3D457F",
"l 	c #5B68BE",
"m 	c #49549A",
"n 	c #303560",
"o 	c #475296",
"p 	c #555070",
"q 	c #B7A08A",
"r 	c #4F59A4",
"s 	c #4C5398",
"t 	c #5E4552",
"u 	c #4E59A4",
"v 	c #4D58A2",
"w 	c #856767",
"x 	c #323867",
"y 	c #46406A",
"z 	c #A97166",
"A 	c #463B5B",
"B 	c #D59D82",
"C 	c #F5BC97",
"D 	c #B9907F",
"E 	c #54496B",
"F 	c #4C3F5C",
"G 	c #E8A789",
"H 	c #8B6166",
"I 	c #323661",
"J 	c #3F3C62",
"K 	c #855B5A",
"L 	c #363C6E",
"M 	c #6B3E49",
"N 	c #422927",
"O 	c #221112",
"P 	c #BE776C",
"Q 	c #F8BE99",
"R 	c #F9C09A",
"S 	c #E5A388",
"T 	c #6E3D3C",
"U 	c #3A2623",
"V 	c #6F3E3F",
"W 	c #424378",
"X 	c #464679",
"Y 	c #A4787F",
"Z 	c #AE999F",
"` 	c #4B4C69",
" .	c #908B93",
"..	c #F9D4A9",
"+.	c #FFDEB0",
"@.	c #C1A28E",
"#.	c #83838C",
"$.	c #9A95A3",
"%.	c #B67F74",
"&.	c #5A5C9F",
"*.	c #414A88",
"=.	c #B99591",
"-.	c #F6CDBA",
";.	c #A1ADDF",
">.	c #A5A7D0",
",.	c #FDDFB3",
"'.	c #FFE0B1",
").	c #E2CFC5",
"!.	c #7488CB",
"~.	c #DFD1E1",
"{.	c #F2BF9D",
"].	c #6064AA",
"^.	c #485297",
"/.	c #454E8F",
"(.	c #475093",
"_.	c #554B7C",
":.	c #D79980",
"<.	c #F9CAA6",
"[.	c #FCD8AE",
"}.	c #FFDFB1",
"|.	c #F8D0AB",
"1.	c #F4BA99",
"2.	c #976C78",
"3.	c #495297",
"4.	c #424B8A",
"5.	c #3C447C",
"6.	c #4A559B",
"7.	c #4C477B",
"8.	c #5E5272",
"9.	c #C7987F",
"0.	c #F8CFA5",
"a.	c #F5CDA5",
"b.	c #F2C19D",
"c.	c #FCDBAD",
"d.	c #E4B794",
"e.	c #94665F",
"f.	c #6D507E",
"g.	c #43467E",
"h.	c #4E59A2",
"i.	c #4A549A",
"j.	c #4F5AA5",
"k.	c #5D5992",
"l.	c #D6AF91",
"m.	c #A6A4B9",
"n.	c #A87174",
"o.	c #B36966",
"p.	c #BF9279",
"q.	c #C2A283",
"r.	c #BB786C",
"s.	c #835463",
"t.	c #7B789F",
"u.	c #EFB192",
"v.	c #C8A88C",
"w.	c #5D5C93",
"x.	c #4F5AA4",
"y.	c #5159A1",
"z.	c #C69782",
"A.	c #E1C6A6",
"B.	c #CBCDDF",
"C.	c #AB8E88",
"D.	c #D98E7C",
"E.	c #D5847A",
"F.	c #CB7875",
"G.	c #DF8F7F",
"H.	c #AA818D",
"I.	c #C3C2CE",
"J.	c #F7D3A9",
"K.	c #DEC29C",
"L.	c #735984",
"M.	c #F3CBA3",
"N.	c #C0B9BF",
"O.	c #D4DCF4",
"P.	c #C0B8BD",
"Q.	c #F8CCA3",
"R.	c #FEDCAE",
"S.	c #FDDBAE",
"T.	c #F8D8AD",
"U.	c #C0C2D1",
"V.	c #DADFF3",
"W.	c #C39B9A",
"X.	c #FDDDAF",
"Y.	c #5259A2",
"Z.	c #C0927F",
"`.	c #C2B7B6",
" +	c #F4F6FB",
".+	c #FEFEFF",
"++	c #E4E4EB",
"@+	c #DEAF98",
"#+	c #F6CA9E",
"$+	c #EAAC92",
"%+	c #BEADB1",
"&+	c #DFE8FA",
"*+	c #E1EAFC",
"=+	c #AAADCA",
"-+	c #F9DBAF",
";+	c #735D9A",
">+	c #A68CA0",
",+	c #F3F5FA",
"'+	c #FFFFFF",
")+	c #E5E5EB",
"!+	c #BABAD4",
"~+	c #B4B9DD",
"{+	c #E9EBF5",
"]+	c #FDFEFF",
"^+	c #E6ECF9",
"/+	c #CAB7AA",
"(+	c #FDDCAE",
"_+	c #5661B1",
":+	c #8C6370",
"<+	c #C9CCE3",
"[+	c #FEFFFF",
"}+	c #CED1E0",
"|+	c #F3F5FB",
"1+	c #BFBFC9",
"2+	c #FBDCAF",
"3+	c #797295",
"4+	c #EBF0FA",
"5+	c #F7F9FE",
"6+	c #DFE5F7",
"7+	c #F8FAFE",
"8+	c #CBCEDC",
"9+	c #E1C6A4",
"0+	c #F7CFA5",
"a+	c #8E98C7",
"b+	c #CAD2F1",
"c+	c #F1F5FE",
"d+	c #E5E9F7",
"e+	c #D4D8EA",
"f+	c #FCFDFE",
"g+	c #B1B9DC",
"h+	c #C5AD98",
"i+	c #FBDCAE",
"j+	c #8692BF",
"k+	c #D1DAF4",
"l+	c #DDE3F7",
"m+	c #FAFBFD",
"n+	c #F5F7FD",
"o+	c #D0D6EF",
"p+	c #CDD7EE",
"q+	c #EAECF7",
"r+	c #F6F8FD",
"s+	c #F2F5FE",
"t+	c #E5E8F7",
"u+	c #D9DFF4",
"v+	c #F3C29E",
"w+	c #7B86B8",
"x+	c #95A0CE",
"y+	c #A7AFE1",
"z+	c #AAB2E1",
"A+	c #A7AFE0",
"B+	c #8A96C4",
"C+	c #E3E7F6",
"D+	c #ADB4E3",
"E+	c #B6BFE2",
"F+	c #D1D8EB",
"G+	c #8D99C4",
"H+	c #ED9E86",
"I+	c #BE8A90",
"J+	c #7E7BA3",
"K+	c #8387B4",
"L+	c #858FBC",
"M+	c #7381B1",
"N+	c #B0B9DE",
"O+	c #EBEFFB",
"P+	c #9EA8CA",
"Q+	c #B4BCE5",
"R+	c #DFE3F5",
"S+	c #B7BFE6",
"T+	c #818ABA",
"U+	c #A09096",
"V+	c #F4A389",
"W+	c #F5A489",
"X+	c #D49184",
"Y+	c #8D8DB3",
"Z+	c #998F9A",
"`+	c #948A97",
" @	c #9B9FBD",
".@	c #A5A7BF",
"+@	c #A38C90",
"@@	c #AC9CA3",
"#@	c #C8C1CA",
"$@	c #7C7FA6",
"%@	c #B9A597",
"&@	c #C4B1A7",
"*@	c #8B8BB2",
"=@	c #BC8481",
"-@	c #C4C8E0",
";@	c #E7EBF6",
">@	c #CFD2E3",
",@	c #A0A4BF",
"'@	c #C2B0A6",
")@	c #B6948C",
"!@	c #C09C90",
"~@	c #C5B2A7",
"{@	c #EEF1F7",
"]@	c #C1C3D8",
"^@	c #A2716F",
"/@	c #F1A087",
"(@	c #D18075",
"_@	c #EF9F86",
":@	c #C3977C",
"<@	c #E1C6A5",
"[@	c #C7B4A8",
"}@	c #ACAFCA",
"|@	c #DFE3F3",
"1@	c #F1F3FA",
"2@	c #F9FAFB",
"3@	c #F2F4FB",
"4@	c #C7B3A7",
"5@	c #BB8279",
"6@	c #E6B895",
"7@	c #E0937D",
"8@	c #D68677",
"9@	c #EF9F85",
"0@	c #C4977B",
"a@	c #FFDFB0",
"b@	c #C8B4A8",
"c@	c #9A9CC2",
"d@	c #CBD0EB",
"e@	c #BCC2E1",
"f@	c #B1B8DB",
"g@	c #A6989D",
"h@	c #C68072",
"i@	c #F1BA98",
"j@	c #FDD6AA",
"k@	c #FADBAD",
"l@	c #D88F79",
"m@	c #C5776E",
"n@	c #C3756C",
"o@	c #AF7064",
"p@	c #FBDBAD",
"q@	c #F7D0A7",
"r@	c #A49599",
"s@	c #6D6F95",
"t@	c #DFC5A5",
"u@	c #FDDEB0",
"v@	c #BE816D",
"w@	c #CA8974",
"x@	c #F6CFA5",
"y@	c #DF9E85",
"z@	c #F6CCA3",
"A@	c #EE9F85",
"B@	c #E1937D",
"C@	c #C1746C",
"D@	c #E4B895",
"E@	c #B3786A",
"F@	c #FEDDAF",
"G@	c #D2977E",
"H@	c #D8887A",
"I@	c #EEB291",
"J@	c #FCDCAE",
"K@	c #D5A688",
"L@	c #D7AF8F",
"M@	c #FEDEAF",
"N@	c #D2947D",
"O@	c #F8C8A0",
"P@	c #BA6D6A",
"Q@	c #EBA289",
"R@	c #F6B292",
"S@	c #F5B191",
"T@	c #D58379",
"U@	c #FADAAD",
"V@	c #B66968",
"W@	c #CC7273",
"X@	c #CD7474",
"Y@	c #CC7373",
"Z@	c #D3AD8D",
"`@	c #7E3F46",
" #	c #BD686B",
".#	c #C97072",
"+#	c #A6575C",
"@#	c #D1AB8B",
"##	c #7A3D44",
"$#	c #B46164",
"%#	c #BF696C",
"&#	c #BB6669",
"*#	c #FBCBA2",
"=#	c #FAD4A8",
"-#	c #FAC69F",
";#	c #F1BE98",
">#	c #F9D3A7",
"                                                                                                                                ",
"                                                                                                                                ",
"                                                                                                                                ",
"                                                                                                                                ",
"                                                                                                                                ",
"                                                                                                                                ",
"                                                                                                                                ",
"                                                                                                                                ",
"                                                                                                                                ",
"                                                                                                                                ",
"                                                          . + @ # $ %                                                           ",
"                                                        & * = # - ; > , $                                                       ",
"                                                      ' ) ! ~ + { ] ^ / ( _                                                     ",
"                                                    ^ ( $ : < [ { + } { / |                                                     ",
"                                                    } 1 2 3 4 [ { % 5 [ + 6                                                     ",
"                                                    7 8 9 [ 0 . { 3 a ^ b c d                                                   ",
"                                                    e + f & g h % { i j & . k                                                   ",
"                                                  5 l m n o p q r & s t a u v                                                   ",
"                                                  w x y z A B C D E F G H I J                                                   ",
"                                                  K L M N O P Q R S T U V W X                                                   ",
"                                                  = 0 Y Z `  ...+.@.#.$.%.&.c                                                   ",
"                                                  *.: =.-.;.>.,.'.).!.~.{.].^.                                                  ",
"                                                  /.(._.:.<.[.'.'.}.|.1.2.3.4.                                                  ",
"                                                5.6.(.7.8.9.0.a.b.c.d.e.f.g.h.                                                  ",
"                                                i.j.k.l.m.n.o.p.q.r.s.t.u.v.w.                                                  ",
"                                                x.y.z.A.B.C.D.E.F.G.H.I.J.'.K.                                                  ",
"                                                j.L.M.N.O.P.Q.R.S.T.U.V.W.+.X.                                                  ",
"                                                Y.Z.`. +.+++@+#+$+%+&+*+=+-+'.                                                  ",
"                                                ;+>+,+'+'+'+)+!+~+{+.+]+^+/+'.(+                                                ",
"                                              _+:+<+[+'+'+'+'+}+|+'+'+'+.+1+2+'.                                                ",
"                                                3+4+[+'+'+'+5+6+7+'+'+'+'+8+9+'.0+                                              ",
"                                                a+b+c+[+'+.+d+e+5+'+'+'+f+g+h+'.i+                                              ",
"                                                j+k+l+m+n+o+p+q+r+f+s+t+u+  v+'.X.                                              ",
"                                                w+x+y+z+A+B+o+C+D+E+F+G+j+    '.'.                                              ",
"                                              H+I+J+K+L+M+N+O+P+Q+R+S+T+U+    X.'.                                              ",
"                                              V+W+X+Y+Z+`+ @.@+@@@#@$@%@&@*@  i+'.0+                                            ",
"                                              V+W+=@-@;@>@,@'@)@!@~@,@>@{@]@^@X.'.i+                                            ",
"                                            /@(@_@:@<@[@}@|@1@2@,+3@|@}@4@5@6@+.'.i+                                            ",
"                                            7@8@9@0@a@'.-+b@c@d@e@f@g@-+X.h@0.i@j@k@                                            ",
"                                            l@m@n@o@p@'.'.'.q@r@s@t@u@'.X.v@w@x@y@z@                                            ",
"                                            A@B@C@  D@'.'.'.'.x@E@F@'.'.a@G@H@  I@                                              ",
"                                                      a@'.'.'.J@K@}.'.'.a@                                                      ",
"                                                      i+'.'.'.J@L@'.'.'.M@                                                      ",
"                                                      0+'.'.'.J@N@F@a@a@O@                                                      ",
"                                                        a@'.'.J@P@Q@R@S@T@                                                      ",
"                                                        i+'.'.U@V@W@X@Y@                                                        ",
"                                                        X.'.'.Z@`@ #.#+#                                                        ",
"                                                        a@'.'.@###$#%#                                                          ",
"                                                        p@'.'.    &#&#                                                          ",
"                                                          '.'.                                                                  ",
"                                                          M@*#                                                                  ",
"                                                          =#-#                                                                  ",
"                                                          ;#>#                                                                  ",
"                                                                                                                                ",
"                                                                                                                                ",
"                                                                                                                                ",
"                                                                                                                                ",
"                                                                                                                                ",
"                                                                                                                                ",
"                                                                                                                                ",
"                                                                                                                                ",
"                                                                                                                                ",
"                                                                                                                                ",
"                                                                                                                                "};
