/* XPM */
static char * d5_xpm[] = {
"64 64 344 2",
"  	c #AADA50",
". 	c #5763B6",
"+ 	c #3F4782",
"@ 	c #4F5AA5",
"# 	c #5764B6",
"$ 	c #5F6DC8",
"% 	c #5F6CC6",
"& 	c #4E59A3",
"* 	c #5460B0",
"= 	c #535FAF",
"- 	c #5662B3",
"; 	c #5864B8",
"> 	c #4B569F",
", 	c #4E5AA5",
"' 	c #4A549B",
") 	c #606EC9",
"! 	c #5B68BF",
"~ 	c #414987",
"{ 	c #4B569E",
"] 	c #505BA8",
"^ 	c #5E6BC4",
"/ 	c #5A66BB",
"( 	c #4C579F",
"_ 	c #5C69C0",
": 	c #606DC8",
"< 	c #5662B4",
"[ 	c #616FCB",
"} 	c #616FCA",
"| 	c #5B68BE",
"1 	c #4F5BA7",
"2 	c #4B559D",
"3 	c #5966BB",
"4 	c #525EAC",
"5 	c #4A549A",
"6 	c #424B8A",
"7 	c #606ECA",
"8 	c #5965BA",
"9 	c #505BA6",
"0 	c #5460AF",
"a 	c #49549A",
"b 	c #383F72",
"c 	c #535FAE",
"d 	c #5460B1",
"e 	c #434C8C",
"f 	c #323766",
"g 	c #5B69BF",
"h 	c #3E4782",
"i 	c #525EAD",
"j 	c #5F6DC7",
"k 	c #495399",
"l 	c #465093",
"m 	c #897B7A",
"n 	c #535A9A",
"o 	c #34355F",
"p 	c #5A67BD",
"q 	c #495297",
"r 	c #3E4783",
"s 	c #413F6B",
"t 	c #3C375B",
"u 	c #4C466E",
"v 	c #D8AF8E",
"w 	c #947570",
"x 	c #53599B",
"y 	c #977271",
"z 	c #8F6E6A",
"A 	c #394076",
"B 	c #394178",
"C 	c #41416D",
"D 	c #453A54",
"E 	c #37355C",
"F 	c #9E635D",
"G 	c #7F544A",
"H 	c #A2675E",
"I 	c #F6B794",
"J 	c #F7BD98",
"K 	c #D9A688",
"L 	c #A16762",
"M 	c #885A4F",
"N 	c #B07562",
"O 	c #6E434F",
"P 	c #323763",
"Q 	c #AA7B6B",
"R 	c #3D447B",
"S 	c #43447A",
"T 	c #764548",
"U 	c #554B57",
"V 	c #3C2E30",
"W 	c #CF987E",
"X 	c #FCD0A5",
"Y 	c #F8C69E",
"Z 	c #7F5350",
"` 	c #1E1A23",
" .	c #624F5B",
"..	c #754D69",
"+.	c #4D58A2",
"@.	c #494476",
"#.	c #485296",
"$.	c #585FA8",
"%.	c #C18D7E",
"&.	c #C0C2DC",
"*.	c #8B8EAB",
"=.	c #C8B9BB",
"-.	c #FFE0B1",
";.	c #FBDCB1",
">.	c #9AA0C3",
",.	c #6877AE",
"'.	c #E2C7C4",
").	c #BA9993",
"!.	c #5D6BC4",
"~.	c #434C8D",
"{.	c #444D8E",
"].	c #B9938E",
"^.	c #F5C6B7",
"/.	c #C7B2CF",
"(.	c #FBDDB4",
"_.	c #E1C8C3",
":.	c #DEC2CE",
"<.	c #F4BA9B",
"[.	c #926D7C",
"}.	c #5561B2",
"|.	c #3E457E",
"1.	c #524671",
"2.	c #D8A387",
"3.	c #FDDBAD",
"4.	c #FEDDAF",
"5.	c #FEDEB0",
"6.	c #FFDEB0",
"7.	c #F7CCA3",
"8.	c #976C77",
"9.	c #474E8E",
"0.	c #323764",
"a.	c #464F91",
"b.	c #4E58A2",
"c.	c #575290",
"d.	c #644C73",
"e.	c #685D76",
"f.	c #BA786C",
"g.	c #E4B693",
"h.	c #EDBB99",
"i.	c #EDBB98",
"j.	c #CB987F",
"k.	c #925A5C",
"l.	c #635F7D",
"m.	c #9B6B7A",
"n.	c #56528F",
"o.	c #5D5992",
"p.	c #DBB393",
"q.	c #BD998F",
"r.	c #8786AF",
"s.	c #D18477",
"t.	c #C4776F",
"u.	c #A36160",
"v.	c #A76260",
"w.	c #DA887A",
"x.	c #A16E77",
"y.	c #8B8BB1",
"z.	c #F6CDA4",
"A.	c #DBB493",
"B.	c #50579E",
"C.	c #C69782",
"D.	c #FCDDAF",
"E.	c #C9BFBE",
"F.	c #C1BFC7",
"G.	c #E4B594",
"H.	c #EFBC9A",
"I.	c #E8B496",
"J.	c #EFBB9A",
"K.	c #E2B393",
"L.	c #C09D90",
"M.	c #DDDEE6",
"N.	c #E3C8A7",
"O.	c #FFDFB0",
"P.	c #5C507E",
"Q.	c #F7CFA5",
"R.	c #FBDCAF",
"S.	c #A3A6C1",
"T.	c #CBD3E9",
"U.	c #E1BFA1",
"V.	c #FBCFA5",
"W.	c #F2CEA1",
"X.	c #F3C69F",
"Y.	c #FACFA5",
"Z.	c #BFB7BD",
"`.	c #D1D9F2",
" +	c #C4AF9B",
".+	c #9F7179",
"++	c #FDDDAF",
"@+	c #E1C7A7",
"#+	c #B1B8DC",
"$+	c #E0E8FB",
"%+	c #C0B1BA",
"&+	c #F3BB98",
"*+	c #D2927B",
"=+	c #F2B492",
"-+	c #DDAE98",
";+	c #CDD4E9",
">+	c #D4DCF5",
",+	c #B0A7B5",
"'+	c #FDDEB0",
")+	c #CBA88A",
"!+	c #B1A8B5",
"~+	c #E7EDFB",
"{+	c #FDFEFF",
"]+	c #FAFAFC",
"^+	c #9E9DB4",
"/+	c #B499A9",
"(+	c #9F8997",
"_+	c #DBDDE8",
":+	c #FEFEFF",
"<+	c #C9CDE3",
"[+	c #F9DBAF",
"}+	c #B7BCD1",
"|+	c #FFFFFF",
"1+	c #E4E8F6",
"2+	c #DEE2F4",
"3+	c #CBD2EF",
"4+	c #FCFDFE",
"5+	c #F4F6FC",
"6+	c #B0A6AF",
"7+	c #C7B09B",
"8+	c #E1E5F3",
"9+	c #CED3E9",
"0+	c #B3B6C7",
"a+	c #C5AF9B",
"b+	c #ECEFF9",
"c+	c #FEFFFF",
"d+	c #DDE3F6",
"e+	c #F6F8FD",
"f+	c #F6F9FE",
"g+	c #A3A6C0",
"h+	c #FDDCAE",
"i+	c #DDB89B",
"j+	c #BEC4DE",
"k+	c #D5D8EC",
"l+	c #D1D6F0",
"m+	c #EEF2FC",
"n+	c #F1F5FE",
"o+	c #DBE1F6",
"p+	c #8C8DB4",
"q+	c #F7CFA6",
"r+	c #757599",
"s+	c #DCE2F5",
"t+	c #F2F6FE",
"u+	c #EEF3FD",
"v+	c #BBC3E9",
"w+	c #8F9BC4",
"x+	c #95A0CD",
"y+	c #AAB2E3",
"z+	c #DAE0F5",
"A+	c #D4DBED",
"B+	c #9DA7D5",
"C+	c #5E5D80",
"D+	c #C6977E",
"E+	c #F8CFA5",
"F+	c #A5AED1",
"G+	c #EAEFF9",
"H+	c #B4BDE2",
"I+	c #9AA3D4",
"J+	c #726283",
"K+	c #7E7294",
"L+	c #939BC9",
"M+	c #9CA5D4",
"N+	c #8692BE",
"O+	c #7B81AB",
"P+	c #8185B0",
"Q+	c #C4C9E0",
"R+	c #9EA0B4",
"S+	c #7A82A3",
"T+	c #878CB6",
"U+	c #9D919A",
"V+	c #CEA68B",
"W+	c #E5B396",
"X+	c #9A8B8D",
"Y+	c #7E83AB",
"Z+	c #B7BACB",
"`+	c #DBDEEE",
" @	c #A0A5C6",
".@	c #C6C4C8",
"+@	c #D0D2E2",
"@@	c #EFF1F7",
"#@	c #F1F3F9",
"$@	c #D2D4E4",
"%@	c #C5C3C9",
"&@	c #CAC9D3",
"*@	c #DEE1F2",
"=@	c #ABAECA",
"-@	c #C6B3A7",
";@	c #E0C4A2",
">@	c #F3B292",
",@	c #E1C7A6",
"'@	c #C7B4A8",
")@	c #ACAFCA",
"!@	c #E3E6F5",
"~@	c #E4E8F7",
"{@	c #ECF0FC",
"]@	c #C6C7DB",
"^@	c #BB9E9D",
"/@	c #E3937F",
"(@	c #DC8D7B",
"_@	c #F1A389",
":@	c #DD907D",
"<@	c #AFA3AB",
"[@	c #8894BF",
"}@	c #9297BF",
"|@	c #C7998D",
"1@	c #CF8473",
"2@	c #EE9E85",
"3@	c #9A867E",
"4@	c #C7A890",
"5@	c #FBDBAD",
"6@	c #CDAA8A",
"7@	c #E6B995",
"8@	c #E8B898",
"9@	c #E9B899",
"0@	c #E8B798",
"a@	c #FBD5A9",
"b@	c #FFDFB1",
"c@	c #F8CEA5",
"d@	c #E19E83",
"e@	c #FDD6AA",
"f@	c #FAC39C",
"g@	c #C2A685",
"h@	c #CA8070",
"i@	c #F5A68A",
"j@	c #F5A78B",
"k@	c #F5A589",
"l@	c #C0A584",
"m@	c #BA7A68",
"n@	c #F5A489",
"o@	c #F6C09B",
"p@	c #BB8871",
"q@	c #AC6B61",
"r@	c #F4A288",
"s@	c #F0A086",
"t@	c #F1A287",
"u@	c #F8BB98",
"v@	c #F6AE8F",
"w@	c #B97A68",
"x@	c #9B5559",
"y@	c #DA857B",
"z@	c #F4A389",
"A@	c #F9BC98",
"B@	c #B97B69",
"C@	c #F3A288",
"                                                                                                                                ",
"                                                                                                                                ",
"                                                                                                                                ",
"                                                                                                                                ",
"                                                                                                                                ",
"                                                                                                                                ",
"                                                                                                                                ",
"                                                                                                                                ",
"                                                                                                                                ",
"                                                            . + @ #                                                             ",
"                                                        $ % & * = - $ %                                                         ",
"                                                      ; > , ' ) ! ~ { ] ^                                                       ",
"                                                    / ( _ : < [ } & $ | 1                                                       ",
"                                                    2 ! 3 ) 3 [ [ 4 $ } { <                                                     ",
"                                                  5 6 $ 3 7 8 [ [ 1 9 } 0 a                                                     ",
"                                                  b c _ d $ e _ [ ! f g : h                                                     ",
"                                                  i j k l i m n 7 j o e g p '                                                   ",
"                                                  q r s t u v w x 5 y z A B C                                                   ",
"                                                  D E F G H I J K L M N O P Q                                                   ",
"                                                  R S T U V W X Y Z `  ...+.@.                                                  ",
"                                                  #.$.%.&.*.=.-.;.>.,.'.).!.~.                                                  ",
"                                                  {.3 ].^./.(.-.-._.:.<.[.}.|.                                                  ",
"                                                5 & 6 1.2.3.-.4.5.6.7.8.9.0.a.                                                  ",
"                                                b.@ c.d.e.f.g.h.i.j.k.l.m.n.@                                                   ",
"                                                b.o.p.q.r.s.t.u.v.w.x.y.z.A.o.                                                  ",
"                                                B.C.D.E.F.G.H.I.J.K.L.M.N.O.C.                                                  ",
"                                                P.Q.R.S.T.U.V.W.X.Y.Z.`. +-.Q.                                                  ",
"                                                .+++@+#+$+%+&+*+=+-+;+>+,+'+++                                                  ",
"                                                )+'+!+~+{+]+^+/+(+_+:+{+<+@+-.                                                  ",
"                                                Q.[+}+{+|+|+1+2+3+4+|+|+5+6+'+Q.                                                ",
"                                                ++7+8+|+|+|+:+9+5+|+|+|+:+0+R.++                                                ",
"                                                -.a+b+|+|+|+c+d+e+|+c+c+f+g+R.-.                                                ",
"                                              h+-.i+j+{+:+|+e+k+l+m+n+n+o+p+q+-.h+                                              ",
"                                              -.O.  r+s+t+u+v+w+x+y+z+A+B+C+D+O.-.                                              ",
"                                            h+-.E+    F+G+H+I+J+K+L+M+N+O+P+  E+-.h+                                            ",
"                                            -.O.    Q+R+S+T+U+V+W+X+Y+Z+`+ @    O.-.                                            ",
"                                          h+-.E+    .@+@@@#@$@%@&@8+*@=@-@;@    E+-.h+                                          ",
"                                        >@4.4.      R.,@'@)@!@~@{@]@^@[+-.-.      4.4.>@                                        ",
"                                      /@(@_@:@      -.-.-.[+<@[@}@|@++-.-.-.      :@_@(@/@                                      ",
"                                          1@2@      O.-.-.-.R.3@4@5.-.-.-.O.      2@1@                                          ",
"                                                    5@-.-.-.-.6@7@-.-.-.-.5@                                                    ",
"                                                      -.-.-.-.8@h+-.-.-.-.                                                      ",
"                                                      -.-.-.-.9@++-.-.-.O.                                                      ",
"                                                      O.-.-.-.0@a@-.-.b@c@                                                      ",
"                                                      5@-.-.-.6@d@e@4.f@                                                        ",
"                                                        -.-.-.g@h@i@j@k@                                                        ",
"                                                        6.-.-.l@m@n@n@n@                                                        ",
"                                                        o@O.4.p@q@r@n@s@                                                        ",
"                                                        t@u@v@w@x@y@z@                                                          ",
"                                                          A@A@B@q@C@s@                                                          ",
"                                                          O.O.                                                                  ",
"                                                          4.4.                                                                  ",
"                                                                                                                                ",
"                                                                                                                                ",
"                                                                                                                                ",
"                                                                                                                                ",
"                                                                                                                                ",
"                                                                                                                                ",
"                                                                                                                                ",
"                                                                                                                                ",
"                                                                                                                                ",
"                                                                                                                                ",
"                                                                                                                                ",
"                                                                                                                                "};
