/* XPM */
static char * d6_xpm[] = {
"64 64 389 2",
"  	c #AADA50",
". 	c #606DC8",
"+ 	c #5F6CC6",
"@ 	c #505BA7",
"# 	c #5B67BD",
"$ 	c #5F6DC8",
"% 	c #5C69C0",
"& 	c #5864B8",
"* 	c #4F5AA6",
"= 	c #3E4782",
"- 	c #5865B9",
"; 	c #424B8B",
"> 	c #505CA9",
", 	c #5F6DC7",
"' 	c #545FAF",
") 	c #4B569F",
"! 	c #5460AF",
"~ 	c #5E6CC5",
"{ 	c #515DAA",
"] 	c #616FCB",
"^ 	c #606EC8",
"/ 	c #495398",
"( 	c #5A67BE",
"_ 	c #4C579F",
": 	c #5763B6",
"< 	c #5662B5",
"[ 	c #5460B0",
"} 	c #5A66BB",
"| 	c #5966BA",
"1 	c #525EAC",
"2 	c #535FAE",
"3 	c #5966BB",
"4 	c #606ECA",
"5 	c #515CA9",
"6 	c #5B68BF",
"7 	c #525EAD",
"8 	c #404985",
"9 	c #4A549B",
"0 	c #606EC9",
"a 	c #616FCA",
"b 	c #535FAF",
"c 	c #3E4681",
"d 	c #5B69C0",
"e 	c #404885",
"f 	c #353B6D",
"g 	c #4E5AA5",
"h 	c #3A4179",
"i 	c #303561",
"j 	c #4D57A0",
"k 	c #525DAB",
"l 	c #373D70",
"m 	c #887870",
"n 	c #504F7D",
"o 	c #5B68BE",
"p 	c #3C3A5F",
"q 	c #383E72",
"r 	c #495399",
"s 	c #4E59A4",
"t 	c #4A549A",
"u 	c #434B8B",
"v 	c #373D71",
"w 	c #403553",
"x 	c #A87164",
"y 	c #4B3D59",
"z 	c #D9A788",
"A 	c #D7A587",
"B 	c #534866",
"C 	c #4E4164",
"D 	c #CC907A",
"E 	c #886066",
"F 	c #393761",
"G 	c #313662",
"H 	c #3D395F",
"I 	c #3B3455",
"J 	c #363155",
"K 	c #69393B",
"L 	c #392522",
"M 	c #6F3D3D",
"N 	c #EAA78B",
"O 	c #F9C09A",
"P 	c #F4BB96",
"Q 	c #B97268",
"R 	c #3E251F",
"S 	c #382223",
"T 	c #6C4257",
"U 	c #444D8D",
"V 	c #825962",
"W 	c #49539A",
"X 	c #585A9B",
"Y 	c #B67E74",
"Z 	c #9A95A3",
"` 	c #83838C",
" .	c #C1A28E",
"..	c #FFDEB0",
"+.	c #F9D4A9",
"@.	c #908B93",
"#.	c #4B4C69",
"$.	c #AE999F",
"%.	c #A57983",
"&.	c #5663B5",
"*.	c #485297",
"=.	c #6064AA",
"-.	c #F2BF9D",
";.	c #DFD1E1",
">.	c #7488CB",
",.	c #E2CFC5",
"'.	c #FFE0B1",
").	c #FDDFB3",
"!.	c #A5A7D0",
"~.	c #A1ADDF",
"{.	c #F6CDBA",
"].	c #B99591",
"^.	c #5A67BC",
"/.	c #414987",
"(.	c #424B8A",
"_.	c #495297",
":.	c #976C78",
"<.	c #F4BA99",
"[.	c #F8D0AB",
"}.	c #FFDFB1",
"|.	c #FCD8AE",
"1.	c #F9CAA6",
"2.	c #D79982",
"3.	c #554B7C",
"4.	c #475093",
"5.	c #4C569F",
"6.	c #4E59A2",
"7.	c #404883",
"8.	c #4E569E",
"9.	c #956C76",
"0.	c #E5B795",
"a.	c #FCDBAD",
"b.	c #F2C19D",
"c.	c #F5CDA5",
"d.	c #F8CFA5",
"e.	c #C7977F",
"f.	c #5B548E",
"g.	c #4E59A3",
"h.	c #4D58A1",
"i.	c #4F59A2",
"j.	c #745C85",
"k.	c #8E656B",
"l.	c #6A6587",
"m.	c #BF746D",
"n.	c #BB786C",
"o.	c #C2A283",
"p.	c #BF9279",
"q.	c #B36966",
"r.	c #A46A6E",
"s.	c #656388",
"t.	c #6E5884",
"u.	c #4F5AA5",
"v.	c #4E58A1",
"w.	c #9A8686",
"x.	c #F9DAAD",
"y.	c #C4AC99",
"z.	c #A4A2B9",
"A.	c #CD8676",
"B.	c #DF8F7F",
"C.	c #CB7875",
"D.	c #D5847A",
"E.	c #D98C7B",
"F.	c #A5757A",
"G.	c #A7A6BB",
"H.	c #F5D6AA",
"I.	c #4F59A4",
"J.	c #56528F",
"K.	c #E4B896",
"L.	c #FEDEB0",
"M.	c #B79297",
"N.	c #BCBFCF",
"O.	c #F7D7AC",
"P.	c #FDDCAE",
"Q.	c #FCDBAE",
"R.	c #FDDBAE",
"S.	c #C7B4A8",
"T.	c #BABBCD",
"U.	c #EDC29F",
"V.	c #595492",
"W.	c #735A7F",
"X.	c #FBDBAD",
"Y.	c #E1C7A7",
"Z.	c #AFB3D4",
"`.	c #DEE6F9",
" +	c #C0B2BB",
".+	c #DDAD95",
"++	c #E6AC8B",
"@+	c #EBAB8F",
"#+	c #C8A59F",
"$+	c #CCD1E2",
"%+	c #D2DBF4",
"&+	c #B1A4AD",
"*+	c #F9D9AC",
"=+	c #A0727D",
"-+	c #F9DAAE",
";+	c #BABED1",
">+	c #F0F4FD",
",+	c #FDFEFF",
"'+	c #FCFDFE",
")+	c #DEDFE9",
"!+	c #B79098",
"~+	c #C2B5C3",
"{+	c #F9F9FA",
"]+	c #FEFEFF",
"^+	c #F7F9FE",
"/+	c #E4EAF8",
"(+	c #CAB7A9",
"_+	c #CAA88A",
":+	c #C9B6A8",
"<+	c #F2F4FA",
"[+	c #FFFFFF",
"}+	c #EEF2FB",
"|+	c #F6F8FD",
"1+	c #C2C3D1",
"2+	c #F1C9A3",
"3+	c #F3CBA3",
"4+	c #8D8FAD",
"5+	c #F4F6FC",
"6+	c #F2F6FE",
"7+	c #F8FAFF",
"8+	c #CFD3E5",
"9+	c #C2AA97",
"0+	c #F7D8AC",
"a+	c #AEB2C6",
"b+	c #D1D7F0",
"c+	c #EBECF7",
"d+	c #FDFDFF",
"e+	c #F8F9FE",
"f+	c #BFC5E2",
"g+	c #E4E8F6",
"h+	c #F1F5FE",
"i+	c #F9FAFE",
"j+	c #E2E6F6",
"k+	c #C5CDEC",
"l+	c #C5AF9B",
"m+	c #FADBAE",
"n+	c #9DA0BB",
"o+	c #A7B2D6",
"p+	c #8F9BC5",
"q+	c #B2BBE0",
"r+	c #C8D0EF",
"s+	c #ECF0FC",
"t+	c #D0D4E8",
"u+	c #E1E5F6",
"v+	c #DCE2F6",
"w+	c #B4BDE2",
"x+	c #AFB8DD",
"y+	c #A2ADD2",
"z+	c #A6B1D4",
"A+	c #C4AE9A",
"B+	c #F7CFA5",
"C+	c #FBDCAF",
"D+	c #767899",
"E+	c #909CCA",
"F+	c #8D97C9",
"G+	c #9EA8D8",
"H+	c #ABB3E3",
"I+	c #C9D1F0",
"J+	c #D3D9F1",
"K+	c #D2D8F1",
"L+	c #BBC3EA",
"M+	c #A6AEE0",
"N+	c #919CCC",
"O+	c #8F9ACA",
"P+	c #828FBC",
"Q+	c #C1AB96",
"R+	c #FADBAD",
"S+	c #DEC2A2",
"T+	c #706F92",
"U+	c #ADB3D9",
"V+	c #D7DDF3",
"W+	c #E8EEFC",
"X+	c #E5E9F7",
"Y+	c #F5F7FE",
"Z+	c #D3DBF4",
"`+	c #C8CEEA",
" @	c #7E89B0",
".@	c #828BB4",
"+@	c #A3969A",
"@@	c #F4B594",
"#@	c #FDDDAF",
"$@	c #E4B895",
"%@	c #B77B6B",
"&@	c #DAB49A",
"*@	c #C5B3A8",
"=@	c #BEBEC8",
"-@	c #BEBEC9",
";@	c #A6A7BD",
">@	c #B6B7C6",
",@	c #C0C1CA",
"'@	c #A7AECD",
")@	c #BEC1CF",
"!@	c #F1F3F9",
"~@	c #F6F7FA",
"{@	c #BAC2DE",
"]@	c #BE8481",
"^@	c #F3A388",
"/@	c #FDDEB0",
"(@	c #A29599",
"_@	c #9FA1BD",
":@	c #BCBCC8",
"<@	c #B3AAB5",
"[@	c #C1AC9A",
"}@	c #C1AC99",
"|@	c #B1918D",
"1@	c #9A87A8",
"2@	c #C6CBE2",
"3@	c #E9EDF9",
"4@	c #D1D3E4",
"5@	c #A8A9C1",
"6@	c #C8B5A8",
"7@	c #C1AB98",
"8@	c #BD8175",
"9@	c #F5A489",
"0@	c #7C7797",
"a@	c #BABBC8",
"b@	c #D2D4E4",
"c@	c #F0F2F9",
"d@	c #FBFAFB",
"e@	c #F3F5FA",
"f@	c #FBFBFD",
"g@	c #B5ACB8",
"h@	c #FBDCAE",
"i@	c #BF816D",
"j@	c #FFDFB0",
"k@	c #BB7F6D",
"l@	c #FADAAD",
"m@	c #E1C7A6",
"n@	c #ACAFCA",
"o@	c #D6D8ED",
"p@	c #BDC3E1",
"q@	c #D4D7EC",
"r@	c #C1B7B6",
"s@	c #8C5853",
"t@	c #F1A087",
"u@	c #DC8C7B",
"v@	c #E79681",
"w@	c #BE726A",
"x@	c #DC907D",
"y@	c #FBD0A6",
"z@	c #FEDEAF",
"A@	c #BA7E6B",
"B@	c #F9DBAF",
"C@	c #A98F89",
"D@	c #686B93",
"E@	c #EB9D84",
"F@	c #D18674",
"G@	c #DD917B",
"H@	c #CE8473",
"I@	c #EE9F85",
"J@	c #F0A288",
"K@	c #FCDDAF",
"L@	c #B08874",
"M@	c #D1AA8B",
"N@	c #C3A786",
"O@	c #D3AC8C",
"P@	c #DFB293",
"Q@	c #F9D0A6",
"R@	c #E9B798",
"S@	c #DA937F",
"T@	c #FEDDAF",
"U@	c #F9D4A8",
"V@	c #C18570",
"W@	c #FDD6AA",
"X@	c #FCD6AA",
"Y@	c #F2B392",
"Z@	c #F5C09A",
"`@	c #BE7E6B",
" #	c #F9BD99",
".#	c #F4B493",
"+#	c #F5A68A",
"@#	c #F5A78B",
"##	c #BD746A",
"$#	c #F0A086",
"%#	c #C07E6C",
"&#	c #F1A187",
"*#	c #F2A388",
"=#	c #F7B291",
"-#	c #F6AC8E",
";#	c #BF7E6B",
">#	c #F1A287",
",#	c #F5A589",
"'#	c #F9BF99",
")#	c #C18972",
"!#	c #F6BF9A",
"~#	c #FDD5A9",
"{#	c #BF8C73",
"]#	c #F1BD98",
"^#	c #F5C69E",
"                                                                                                                                ",
"                                                                                                                                ",
"                                                                                                                                ",
"                                                                                                                                ",
"                                                                                                                                ",
"                                                                                                                                ",
"                                                                                                                                ",
"                                                                                                                                ",
"                                                                                                                                ",
"                                                          . + @ # $ %                                                           ",
"                                                      + & * = - @ ; > ,                                                         ",
"                                                    ' ) ! ~ { ] ^ / ( _ :                                                       ",
"                                                    < [ } . | ] ] 1 ^ . ) 2                                                     ",
"                                                    ; + 3 4 3 ] ] 5 6 ] * 7                                                     ",
"                                                  8 9 . | 0 { a ] b c . d e                                                     ",
"                                                  f 6 2 g d h 6 ] , i 7 0 j                                                     ",
"                                                  k 2 c l ; m n 6 o p q r s t                                                   ",
"                                                  u v w x y z A B C D E F G H                                                   ",
"                                                  I J K L M N O P Q R S T U V                                                   ",
"                                                  W X Y Z `  ...+.@.#.$.%.&.u                                                   ",
"                                                  *.=.-.;.>.,.'.).!.~.{.].^./.                                                  ",
"                                                  (._.:.<.[.}.'.'.|.1.2.3.4.5.                                                  ",
"                                                  6.7.8.9.0.a.b.c.d.e.f.4.4.g.                                                  ",
"                                                h.i.j.k.l.m.n.o.p.q.r.s.t.i.u.                                                  ",
"                                                v.w.x.y.z.A.B.C.D.E.F.G.H.w.I.                                                  ",
"                                                J.K.L.M.N.O.P.Q.R.Q.S.T.U.K.V.                                                  ",
"                                                W.X.Y.Z.`. +.+++@+#+$+%+&+*+=+                                                  ",
"                                                  -+;+>+,+'+)+!+~+{+]+^+/+(+_+                                                  ",
"                                                  :+<+[+[+[+]+}+|+[+[+[+]+1+2+                                                  ",
"                                                3+4+5+6+7+[+[+^+]+[+]+6+6+8+9+                                                  ",
"                                                0+a+b+c+>+d+e+f+g+]+h+i+j+k+l+                                                  ",
"                                                m+n+o+p+q+r+s+t+u+v+w+x+y+z+A+B+                                                ",
"                                                C+D+E+F+G+H+I+J+K+L+M+N+O+P+Q+P.                                                ",
"                                              R+'.S+T+U+V+W+h+X+>+Y+Z+`+ @.@+@@@                                                ",
"                                              #@'.$@%@&@*@=@-@;@>@,@'@)@!@~@{@]@^@                                              ",
"                                              './@(@_@:@<@[@}@|@1@2@3@4@5@6@7@8@9@                                              ",
"                                            d.'.m+0@a@b@c@{+d@e@f@<+g@Y.C+'.h@i@9@9@                                            ",
"                                            j@'.$@k@l@m@S.n@o@p@q@r@C+'.'.'.R+s@t@u@v@w@                                        ",
"                                          x@y@z@  A@..'.'.B@C@D@(@C+'.'.'.'.      E@F@G@                                        ",
"                                        H@I@  J@    #@'.'.'.K@L@M@'.'.'.'.#@                                                    ",
"                                                    R+'.'.'.'.N@O@'.'.'.'.B+                                                    ",
"                                                      '.'.'.'.P@Q@'.'.'.'.                                                      ",
"                                                      '.'.'.'.R@#@'.'.'.P.                                                      ",
"                                                      #@'.'.#@S@T@'.'.'.                                                        ",
"                                                      U@'.'.R+V@W@'.'.X@                                                        ",
"                                                      Y@W@T@Z@`@ #T@W@.#                                                        ",
"                                                        +#@#^@##^@@#+#$#                                                        ",
"                                                        9@9@9@%#&#9@9@                                                          ",
"                                                        *#=#-#;#>#@#,#                                                          ",
"                                                          O '#)#Z@T@!#                                                          ",
"                                                          ~#~#{#R+}.                                                            ",
"                                                                ]#^#                                                            ",
"                                                                                                                                ",
"                                                                                                                                ",
"                                                                                                                                ",
"                                                                                                                                ",
"                                                                                                                                ",
"                                                                                                                                ",
"                                                                                                                                ",
"                                                                                                                                ",
"                                                                                                                                ",
"                                                                                                                                ",
"                                                                                                                                ",
"                                                                                                                                "};
