/* XPM */
static char * d7_xpm[] = {
"64 64 396 2",
"  	c #AADA50",
". 	c #5764B6",
"+ 	c #4F5AA5",
"@ 	c #3F4782",
"# 	c #5763B6",
"$ 	c #5F6CC6",
"% 	c #5F6DC8",
"& 	c #5662B3",
"* 	c #535FAF",
"= 	c #5460B0",
"- 	c #4E59A3",
"; 	c #5E6BC4",
"> 	c #505BA8",
", 	c #4B569F",
"' 	c #454F91",
") 	c #5B68BF",
"! 	c #606EC9",
"~ 	c #4B559D",
"{ 	c #49549A",
"] 	c #5864B8",
"^ 	c #4F5BA7",
"/ 	c #5A67BD",
"( 	c #5D6AC2",
"_ 	c #5662B4",
": 	c #616FCB",
"< 	c #5C69C0",
"[ 	c #525EAC",
"} 	c #606DC8",
"| 	c #4C579F",
"1 	c #5A66BB",
"2 	c #4B569E",
"3 	c #5966BB",
"4 	c #606ECA",
"5 	c #606EC8",
"6 	c #5B69C0",
"7 	c #5460AF",
"8 	c #5966BA",
"9 	c #424B8A",
"0 	c #434C8C",
"a 	c #4A549A",
"b 	c #3E4781",
"c 	c #515DAA",
"d 	c #616FCA",
"e 	c #454D8E",
"f 	c #495399",
"g 	c #5F6DC7",
"h 	c #3E4680",
"i 	c #5B68BE",
"j 	c #353C6E",
"k 	c #3E4681",
"l 	c #3E3E62",
"m 	c #4E59A4",
"n 	c #2F335E",
"o 	c #535EAE",
"p 	c #3A427A",
"q 	c #485297",
"r 	c #384075",
"s 	c #3E3A62",
"t 	c #373E71",
"u 	c #524963",
"v 	c #D6AC8C",
"w 	c #937786",
"x 	c #585EA6",
"y 	c #495398",
"z 	c #866A70",
"A 	c #50445F",
"B 	c #3C437A",
"C 	c #394178",
"D 	c #7E5553",
"E 	c #2F335C",
"F 	c #6A445C",
"G 	c #7E534B",
"H 	c #362531",
"I 	c #C78977",
"J 	c #F9BE99",
"K 	c #F7BD98",
"L 	c #D69D83",
"M 	c #6D4048",
"N 	c #84594D",
"O 	c #C28471",
"P 	c #423958",
"Q 	c #3A3556",
"R 	c #3F3E6E",
"S 	c #5D4D5B",
"T 	c #1E1A23",
"U 	c #7F5350",
"V 	c #F8C69E",
"W 	c #FCD0A5",
"X 	c #CF987E",
"Y 	c #3C2E30",
"Z 	c #554B57",
"` 	c #774548",
" .	c #4C477A",
"..	c #413F6B",
"+.	c #5B5FA8",
"@.	c #DDC4C3",
"#.	c #6877AE",
"$.	c #9AA0C3",
"%.	c #FBDCB1",
"&.	c #FFE0B1",
"*.	c #C8B9BB",
"=.	c #8B8EAB",
"-.	c #C0C2DC",
";.	c #E4AF93",
">.	c #9A6C7C",
",.	c #5D6BC4",
"'.	c #3F4783",
").	c #434C8B",
"!.	c #5F62A7",
"~.	c #F2B99B",
"{.	c #DEC2CE",
"].	c #E1C8C3",
"^.	c #FBDDB4",
"/.	c #C7B2CF",
"(.	c #F5C6B7",
"_.	c #D8A288",
":.	c #514B80",
"<.	c #525DAB",
"[.	c #475093",
"}.	c #475094",
"|.	c #3A3F73",
"1.	c #976C77",
"2.	c #F7CCA3",
"3.	c #FFDEB0",
"4.	c #FEDEB0",
"5.	c #FEDDAF",
"6.	c #FDDBAD",
"7.	c #D8A388",
"8.	c #5C5591",
"9.	c #424A88",
"0.	c #3F4781",
"a.	c #50579E",
"b.	c #6D5280",
"c.	c #6E4951",
"d.	c #C8977E",
"e.	c #EDBB98",
"f.	c #EDBB99",
"g.	c #E4B693",
"h.	c #A06C61",
"i.	c #524367",
"j.	c #534B80",
"k.	c #5158A0",
"l.	c #4E58A2",
"m.	c #575592",
"n.	c #C79E86",
"o.	c #EFB795",
"p.	c #8987AE",
"q.	c #AD7E8D",
"r.	c #A5605F",
"s.	c #A36160",
"t.	c #C4776F",
"u.	c #C8837E",
"v.	c #ACAFCB",
"w.	c #BDABAB",
"x.	c #C2917D",
"y.	c #544F89",
"z.	c #4F5AA4",
"A.	c #A0727C",
"B.	c #FDDCAE",
"C.	c #F4C6A1",
"D.	c #C8C7D2",
"E.	c #C4C1C8",
"F.	c #DBAD90",
"G.	c #E8B496",
"H.	c #EFBC9A",
"I.	c #D6AD8E",
"J.	c #C4B8B4",
"K.	c #C7CBE2",
"L.	c #C09196",
"M.	c #98677A",
"N.	c #4F59A4",
"O.	c #CAA888",
"P.	c #FADBAE",
"Q.	c #A189A2",
"R.	c #DDE6F9",
"S.	c #CDD5EA",
"T.	c #C9B5A9",
"U.	c #DCB294",
"V.	c #FAD9A7",
"W.	c #F5C59F",
"X.	c #C1B2BB",
"Y.	c #EDF2FC",
"Z.	c #EBEFF9",
"`.	c #B0B3C7",
" +	c #565E9D",
".+	c #F5CDA4",
"++	c #B2A6AC",
"@+	c #E1E4F4",
"#+	c #F1F5FE",
"$+	c #F0F5FE",
"%+	c #ECF0FA",
"&+	c #B5B8CE",
"*+	c #A68587",
"=+	c #C3C3D1",
"-+	c #FBFBFC",
";+	c #FFFFFF",
">+	c #F6F8FE",
",+	c #9FA6C8",
"'+	c #4D5497",
")+	c #DFC4A4",
"!+	c #D1D3E4",
"~+	c #FCFCFE",
"{+	c #DDE2F4",
"]+	c #FEFEFF",
"^+	c #FDFDFF",
"/+	c #C4CCEB",
"(+	c #A9A0A8",
"_+	c #F3F5FB",
":+	c #FEFEFE",
"<+	c #FEFFFF",
"[+	c #F2F6FE",
"}+	c #FDFDFE",
"|+	c #F8FAFF",
"1+	c #EFF4FD",
"2+	c #B6BEE5",
"3+	c #787D9D",
"4+	c #D9DFF4",
"5+	c #D9DDF1",
"6+	c #E2EAFC",
"7+	c #F0F4FE",
"8+	c #F7F9FE",
"9+	c #FCFDFE",
"0+	c #DFE4F7",
"a+	c #EBEDF8",
"b+	c #F3F6FE",
"c+	c #E5E9F7",
"d+	c #8691BF",
"e+	c #F2CBA3",
"f+	c #757A9B",
"g+	c #A3ACDD",
"h+	c #959FCD",
"i+	c #BDC6E5",
"j+	c #D2DBF4",
"k+	c #BBC3EA",
"l+	c #B6BFE2",
"m+	c #E1E5F6",
"n+	c #CCD4F1",
"o+	c #ECF0FC",
"p+	c #D9DCF1",
"q+	c #B0BADE",
"r+	c #8A98C3",
"s+	c #7281AE",
"t+	c #F7D8AC",
"u+	c #6F7094",
"v+	c #808BBE",
"w+	c #8D98C8",
"x+	c #7B8AB5",
"y+	c #94A0C8",
"z+	c #B7BFE8",
"A+	c #DCE1F5",
"B+	c #E3E7F7",
"C+	c #BCC4EA",
"D+	c #C6CEEF",
"E+	c #9AA2D4",
"F+	c #818CBC",
"G+	c #6E7CAC",
"H+	c #967388",
"I+	c #FEDFB0",
"J+	c #DEC4A3",
"K+	c #797AA1",
"L+	c #7579A4",
"M+	c #CDD3E6",
"N+	c #E8ECF8",
"O+	c #DAE0F3",
"P+	c #F7F8FA",
"Q+	c #C8CFED",
"R+	c #D1D7E9",
"S+	c #BDA9B6",
"T+	c #B88383",
"U+	c #B47D7D",
"V+	c #9E6B73",
"W+	c #EC9E86",
"X+	c #BD937A",
"Y+	c #EBBA9A",
"Z+	c #C3AD9A",
"`+	c #C6B09B",
" @	c #9E8B83",
".@	c #A68B85",
"+@	c #E0C6A5",
"@@	c #DFC4A5",
"#@	c #B2A6B3",
"$@	c #B1B2C6",
"%@	c #8585A8",
"&@	c #BB8078",
"*@	c #E89782",
"=@	c #F7CFA5",
"-@	c #FBDCAF",
";@	c #7D7999",
">@	c #BBBBC7",
",@	c #A8A9C0",
"'@	c #C7B4A8",
")@	c #E1C7A6",
"!@	c #E3B694",
"~@	c #D0A391",
"{@	c #B2A9B6",
"]@	c #C6CBE3",
"^@	c #F0F2F9",
"/@	c #F9FAFB",
"(@	c #F4F4F7",
"_@	c #8884A6",
":@	c #F0A188",
"<@	c #FDDDAF",
"[@	c #F7CFA6",
"}@	c #837C9B",
"|@	c #D0D2E4",
"1@	c #F2F4FB",
"2@	c #D3D4E4",
"3@	c #C6C4CA",
"4@	c #D2D4E4",
"5@	c #D7DDF2",
"6@	c #A9ACC9",
"7@	c #C8B5A8",
"8@	c #C7B19C",
"9@	c #C7B19B",
"0@	c #9D867F",
"a@	c #F1A187",
"b@	c #E99883",
"c@	c #D0AC8B",
"d@	c #F2C09B",
"e@	c #E1C7A7",
"f@	c #B3A9B6",
"g@	c #C9CDE3",
"h@	c #F4F6FB",
"i@	c #E6E9F7",
"j@	c #F1F3F9",
"k@	c #B19CAB",
"l@	c #F6CEA6",
"m@	c #C5A887",
"n@	c #D68777",
"o@	c #E1937D",
"p@	c #EF9F86",
"q@	c #F1C9A2",
"r@	c #F4CDA5",
"s@	c #C6A987",
"t@	c #F4BA96",
"u@	c #FFDFB1",
"v@	c #FDDEB0",
"w@	c #E1C6A6",
"x@	c #A790A2",
"y@	c #8893BE",
"z@	c #8788A9",
"A@	c #EEC7A2",
"B@	c #C5A686",
"C@	c #D18275",
"D@	c #D68677",
"E@	c #D78878",
"F@	c #EFAD8E",
"G@	c #D9B08F",
"H@	c #EAC69F",
"I@	c #E8C39D",
"J@	c #B68B75",
"K@	c #F3A58A",
"L@	c #FADAAE",
"M@	c #A07175",
"N@	c #BFA68D",
"O@	c #C38370",
"P@	c #CF8174",
"Q@	c #CD8272",
"R@	c #CE8373",
"S@	c #EA9C83",
"T@	c #F2A388",
"U@	c #FDD6AA",
"V@	c #CC8E78",
"W@	c #C5A886",
"X@	c #F9BD99",
"Y@	c #C7A987",
"Z@	c #F6CFA5",
"`@	c #F5A78B",
" #	c #DB9982",
".#	c #FCDCAF",
"+#	c #F6AD8F",
"@#	c #FAC49E",
"##	c #E49382",
"$#	c #F5A489",
"%#	c #E39382",
"&#	c #DA8E7C",
"*#	c #FBDCAE",
"=#	c #F0A086",
"-#	c #F3A388",
";#	c #D08A77",
">#	c #FADBAD",
",#	c #EB9883",
"'#	c #E79681",
")#	c #C6A786",
"!#	c #D68179",
"~#	c #D58178",
"{#	c #C4A786",
"]#	c #FFDFB0",
"^#	c #F0A288",
"/#	c #F0A187",
"(#	c #FBDBAD",
"_#	c #C98572",
":#	c #F6AA8D",
"<#	c #F5C69F",
"[#	c #FDD5A9",
"}#	c #F2AA8C",
"                                                                                                                                ",
"                                                                                                                                ",
"                                                                                                                                ",
"                                                                                                                                ",
"                                                                                                                                ",
"                                                                                                                                ",
"                                                                                                                                ",
"                                                                                                                                ",
"                                                                                                                                ",
"                                                          . + @ #                                                               ",
"                                                      $ % & * = - $ %                                                           ",
"                                                    ; > , ' ) ! ~ { , ]                                                         ",
"                                                    ^ / ( _ ! : < [ } | 1                                                       ",
"                                                  _ 2 ( ( 3 4 : 5 [ : 6 ~                                                       ",
"                                                  { 7 3 4 8 ! : } 9 < ! 0 a                                                     ",
"                                                  b % > ! c + d d e f d g h                                                     ",
"                                                  / i j 3 k l ) : m n o % /                                                     ",
"                                                p q r s t u v w x y z A B C                                                     ",
"                                                D E F G H I J K L M N O P Q                                                     ",
"                                                  @ R S T U V W X Y Z `  .y ..                                                  ",
"                                                  m +.@.#.$.%.&.*.=.-.;.>.,.'.                                                  ",
"                                                  ).!.~.{.].&.&.^./.(._.:.<.[.                                                  ",
"                                                  }.|.1.2.3.4.5.&.6.7.8.9.0.m                                                   ",
"                                                  + a.b.c.d.e.f.g.h.i.j.k.- + l.                                                ",
"                                                  m.n.o.p.q.r.s.t.u.v.w.x.y.+ z.                                                ",
"                                                  A.B.C.D.E.F.G.H.I.J.K.L.M.N.+                                                 ",
"                                                  O.P.Q.R.S.T.U.V.W.X.Y.Z.`. ++                                                 ",
"                                                  .+++@+#+$+%+&+*+=+-+;+;+>+,+'+                                                ",
"                                                  )+!+;+;+;+;+~+{+]+;+;+;+^+/+                                                  ",
"                                                  (+_+:+]+]+;+<+[+}+<+;+|+1+2+                                                  ",
"                                                  3+4+5+6+7+8+9+0+a+b+<+c+4+d+                                                  ",
"                                                e+f+g+h+i+j+k+l+m+n+o+p+q+r+s+                                                  ",
"                                                t+u+v+w+x+y+z+A+B+C+D+E+F+G+H+                                                  ",
"                                                I+J+K+L+M+N+O+P+Q+R+S+T+U+V+W+                                                  ",
"                                                &.I+X+Y+Z+`+`+ @.@+@@@#@$@%@&@*@                                                ",
"                                              =@&.-@;@>@,@'@)@!@~@{@]@^@/@(@_@:@                                                ",
"                                              <@&.[@}@|@1@_+2@3@4@5@6@7@8@9@0@a@b@                                              ",
"                                              &.&.c@d@e@f@g@h@i@j@k@l@&.&.&.m@n@o@p@                                            ",
"                                            q@<@r@s@t@u@v@w@x@y@z@A@&.&.&.&.B@C@D@E@                                            ",
"                                          F@G@H@I@J@K@3.&.&.L@M@N@&.&.&.&.<@O@P@Q@R@S@                                          ",
"                                                    T@U@&.&.3.V@W@&.&.&.&.=@                                                    ",
"                                                      X@u@&.&.Y@Z@&.&.&.&.                                                      ",
"                                                      `@U@&.U@ #.#&.&.&.B.                                                      ",
"                                                      a@+#@#+###<@&.&.&.                                                        ",
"                                                        $#$#$#%#<@&.&.<@                                                        ",
"                                                        $#$#$#&#.#&.&.*#                                                        ",
"                                                        =#$#-#;#<@&.&.>#                                                        ",
"                                                          ,#'#)#&.&.&.                                                          ",
"                                                          !#~#{#&.&.]#                                                          ",
"                                                          ^#/#)#3.u@(#                                                          ",
"                                                              _#:#X@                                                            ",
"                                                              <#[#}#                                                            ",
"                                                                                                                                ",
"                                                                                                                                ",
"                                                                                                                                ",
"                                                                                                                                ",
"                                                                                                                                ",
"                                                                                                                                ",
"                                                                                                                                ",
"                                                                                                                                ",
"                                                                                                                                ",
"                                                                                                                                ",
"                                                                                                                                ",
"                                                                                                                                "};
