/* XPM */
static char * d8_xpm[] = {
"64 64 383 2",
"  	c #AADA50",
". 	c #5C69C0",
"+ 	c #5F6DC8",
"@ 	c #5B67BD",
"# 	c #505BA7",
"$ 	c #5F6CC6",
"% 	c #606DC8",
"& 	c #5F6DC7",
"* 	c #505CA9",
"= 	c #434C8C",
"- 	c #5865B9",
"; 	c #3E4782",
"> 	c #4E5AA5",
", 	c #5864B8",
"' 	c #5763B6",
") 	c #4C579F",
"! 	c #5B68BF",
"~ 	c #515CA9",
"{ 	c #616FCB",
"] 	c #5561B1",
"^ 	c #535FAE",
"/ 	c #5460B0",
"( 	c #4B569F",
"_ 	c #545FAF",
": 	c #5A67BC",
"< 	c #5966BA",
"[ 	c #606ECA",
"} 	c #525EAD",
"| 	c #5662B5",
"1 	c #4F5AA6",
"2 	c #5A66BB",
"3 	c #606EC9",
"4 	c #5966BB",
"5 	c #4C57A0",
"6 	c #424B8B",
"7 	c #404885",
"8 	c #5B69BF",
"9 	c #5965B9",
"0 	c #5662B3",
"a 	c #3E4681",
"b 	c #616FCA",
"c 	c #4A549B",
"d 	c #404985",
"e 	c #475195",
"f 	c #404988",
"g 	c #4A559C",
"h 	c #49539A",
"i 	c #4B569E",
"j 	c #3B427A",
"k 	c #3D457F",
"l 	c #454E90",
"m 	c #5763B5",
"n 	c #49549A",
"o 	c #303560",
"p 	c #404169",
"q 	c #8D7B74",
"r 	c #4F59A4",
"s 	c #495397",
"t 	c #3C3A5E",
"u 	c #3E4783",
"v 	c #4E59A4",
"w 	c #4D58A2",
"x 	c #454477",
"y 	c #3C457F",
"z 	c #3B3B69",
"A 	c #825854",
"B 	c #835A5F",
"C 	c #916F69",
"D 	c #F2BB96",
"E 	c #93736D",
"F 	c #4B4469",
"G 	c #8B6064",
"H 	c #CC907A",
"I 	c #443B61",
"J 	c #323661",
"K 	c #323662",
"L 	c #6B3E49",
"M 	c #382223",
"N 	c #321C19",
"O 	c #BC756A",
"P 	c #F8BE99",
"Q 	c #F7BF99",
"R 	c #E5A388",
"S 	c #74413F",
"T 	c #3A2623",
"U 	c #69393D",
"V 	c #424378",
"W 	c #454578",
"X 	c #845A62",
"Y 	c #6F4B6C",
"Z 	c #AB979D",
"` 	c #4B4C69",
" .	c #908B93",
"..	c #F9D4A9",
"+.	c #FFDEB0",
"@.	c #C1A28E",
"#.	c #83838C",
"$.	c #9A95A3",
"%.	c #B67F74",
"&.	c #555592",
"*.	c #495399",
"=.	c #373D6F",
"-.	c #5C5E9E",
";.	c #F2CAB9",
">.	c #A1ADDF",
",.	c #A5A7D0",
"'.	c #FDDFB3",
").	c #FFE0B1",
"!.	c #E2CFC5",
"~.	c #7488CB",
"{.	c #DFD1E1",
"].	c #F2BE9C",
"^.	c #51486F",
"/.	c #3C447C",
"(.	c #3C447D",
"_.	c #424B8A",
":.	c #525596",
"<.	c #D69981",
"[.	c #F9CAA6",
"}.	c #FCD8AE",
"|.	c #FFDFB1",
"1.	c #F8D0AB",
"2.	c #F4BA99",
"3.	c #986D7B",
"4.	c #464E8E",
"5.	c #475093",
"6.	c #4D58A1",
"7.	c #4A559B",
"8.	c #4E59A2",
"9.	c #404783",
"0.	c #5D548D",
"a.	c #C5967E",
"b.	c #F8CFA5",
"c.	c #F5CDA5",
"d.	c #F2C19D",
"e.	c #FCDBAD",
"f.	c #E5B795",
"g.	c #946760",
"h.	c #4F4F8F",
"i.	c #474F92",
"j.	c #465092",
"k.	c #4F5AA5",
"l.	c #4F5AA4",
"m.	c #5D5992",
"n.	c #BC7D72",
"o.	c #6A6485",
"p.	c #905B61",
"q.	c #BF9279",
"r.	c #C2A283",
"s.	c #BB786C",
"t.	c #C0746D",
"u.	c #8481A9",
"v.	c #837497",
"w.	c #906576",
"x.	c #424986",
"y.	c #4E59A3",
"z.	c #50579F",
"A.	c #C8A78C",
"B.	c #F8CEA5",
"C.	c #ACAABF",
"D.	c #AFAEC7",
"E.	c #BA6C6F",
"F.	c #CB7875",
"G.	c #DF8F7F",
"H.	c #D18A77",
"I.	c #B6979A",
"J.	c #C1C5DE",
"K.	c #D18F84",
"L.	c #513C5C",
"M.	c #4A549A",
"N.	c #725780",
"O.	c #EDC29F",
"P.	c #C8C7D2",
"Q.	c #FAFAFC",
"R.	c #C7BBB6",
"S.	c #F8D8AC",
"T.	c #FDDCAE",
"U.	c #FACDA3",
"V.	c #C4A39E",
"W.	c #D1D9F2",
"X.	c #BBABBF",
"Y.	c #56507D",
"Z.	c #3A4279",
"`.	c #BC937A",
" +	c #FEDEAF",
".+	c #C4A39F",
"++	c #D2DAF3",
"@+	c #E4ECFD",
"#+	c #E0E8F9",
"$+	c #B2A4B6",
"%+	c #C1A993",
"&+	c #C5A29D",
"*+	c #E3E1E3",
"=+	c #FEFEFF",
"-+	c #FCFCFD",
";+	c #CFD3E1",
">+	c #4B4F79",
",+	c #FBDBAE",
"'+	c #A5A6C0",
")+	c #E9EFFD",
"!+	c #FDFEFF",
"~+	c #E8EEFC",
"{+	c #D3DBF3",
"]+	c #F4F6FB",
"^+	c #FFFFFF",
"/+	c #CFD3E0",
"(+	c #5962A8",
"_+	c #FBDBAD",
":+	c #DFBA9D",
"<+	c #CACDE3",
"[+	c #FEFFFF",
"}+	c #E7EAF8",
"|+	c #ECEDF8",
"1+	c #EAECF6",
"2+	c #FFDFB0",
"3+	c #C6B09B",
"4+	c #F3F5FA",
"5+	c #FDFDFE",
"6+	c #FCFDFE",
"7+	c #C5CDE9",
"8+	c #EDEEF8",
"9+	c #EEF2FD",
"0+	c #C7AF9B",
"a+	c #DADFF2",
"b+	c #E9EBF7",
"c+	c #CAD2F0",
"d+	c #F0F4FE",
"e+	c #F7F9FE",
"f+	c #F6F8FE",
"g+	c #D4DDF6",
"h+	c #E7EDFC",
"i+	c #FBFCFE",
"j+	c #D5DDF5",
"k+	c #BAC3E2",
"l+	c #F7CFA5",
"m+	c #F7D0A7",
"n+	c #888DB5",
"o+	c #9EA7D6",
"p+	c #8B97C3",
"q+	c #C4CCEC",
"r+	c #BBC3EA",
"s+	c #B9C1E9",
"t+	c #C9D2F1",
"u+	c #D2DBF5",
"v+	c #B5BEE2",
"w+	c #D7DBF1",
"x+	c #BAC1E8",
"y+	c #808FB9",
"z+	c #7786B2",
"A+	c #FBDCAE",
"B+	c #FBDCAF",
"C+	c #6E6A89",
"D+	c #A0ABCF",
"E+	c #7381B1",
"F+	c #A8B3D6",
"G+	c #A7AFE1",
"H+	c #F3F6FD",
"I+	c #B7C1DC",
"J+	c #BCC6E4",
"K+	c #B5BDE6",
"L+	c #B1B9E3",
"M+	c #8892BD",
"N+	c #FDDDAF",
"O+	c #BD7F6E",
"P+	c #A18090",
"Q+	c #9FA9CD",
"R+	c #E7EBF8",
"S+	c #B9C0E6",
"T+	c #F0F3F9",
"U+	c #DCDFEA",
"V+	c #8486AA",
"W+	c #A1A2BD",
"X+	c #C5B1A6",
"Y+	c #987177",
"Z+	c #D18E82",
"`+	c #D0AC8B",
" @	c #EB9E85",
".@	c #F3BD99",
"+@	c #C6AF99",
"@@	c #C7B19B",
"#@	c #9C8883",
"$@	c #A98E87",
"%@	c #E0C6A5",
"&@	c #F4D7AD",
"*@	c #C1AB99",
"=@	c #9D7C7B",
"-@	c #EC9E86",
";@	c #C1A686",
">@	c #686386",
",@	c #B0A6B3",
"'@	c #C7B19C",
")@	c #F9DBAF",
"!@	c #E9B899",
"~@	c #B5918C",
"{@	c #B3AAB5",
"]@	c #BFC2D2",
"^@	c #DEE2F1",
"/@	c #F5F5F7",
"(@	c #D4DAEE",
"_@	c #BF8784",
":@	c #FBCCA3",
"<@	c #E4B795",
"[@	c #7B7393",
"}@	c #E8ECF8",
"|@	c #E2E6F3",
"1@	c #CACAD3",
"2@	c #C0C1D2",
"3@	c #E1E4F3",
"4@	c #F0F2FA",
"5@	c #C8CDE3",
"6@	c #B4AAB6",
"7@	c #C7B29E",
"8@	c #AFA6B2",
"9@	c #BB817F",
"0@	c #E69681",
"a@	c #F6C29C",
"b@	c #FDD8AB",
"c@	c #E1AD8F",
"d@	c #F7D6AA",
"e@	c #C38271",
"f@	c #BCA2AA",
"g@	c #C9C8D2",
"h@	c #D1D4E5",
"i@	c #BDC3E1",
"j@	c #C5CBE3",
"k@	c #B2AAB6",
"l@	c #E1C7A7",
"m@	c #FDDEB0",
"n@	c #F8D9AC",
"o@	c #B17267",
"p@	c #D78878",
"q@	c #F4B694",
"r@	c #F1BF9C",
"s@	c #F6CBA2",
"t@	c #CFAA8A",
"u@	c #BF8871",
"v@	c #EFA087",
"w@	c #F3BB99",
"x@	c #A67D7E",
"y@	c #666A93",
"z@	c #A19598",
"A@	c #E6B996",
"B@	c #CC8273",
"C@	c #D08473",
"D@	c #EE9E85",
"E@	c #D5AB8C",
"F@	c #CB8373",
"G@	c #BF7F6C",
"H@	c #F3A388",
"I@	c #F5A589",
"J@	c #F2A288",
"K@	c #A0645C",
"L@	c #D2AC8C",
"M@	c #C1957A",
"N@	c #D78779",
"O@	c #C97F70",
"P@	c #CA8070",
"Q@	c #F5A489",
"R@	c #BF806C",
"S@	c #F4A389",
"T@	c #C98673",
"U@	c #F1A187",
"V@	c #E39381",
"W@	c #EFA086",
"X@	c #F4A288",
"Y@	c #E6A58D",
"Z@	c #F3A288",
"`@	c #E99783",
" #	c #DFB192",
".#	c #D47F77",
"+#	c #E08C7E",
"@#	c #CB7273",
"##	c #D5AC8D",
"$#	c #C97072",
"%#	c #D19A81",
"&#	c #FADAAC",
"*#	c #F2A187",
"=#	c #BE796D",
"-#	c #E69581",
";#	c #B17366",
">#	c #FDDDAE",
",#	c #F6C8A0",
"'#	c #F9D4A8",
"                                                                                                                                ",
"                                                                                                                                ",
"                                                                                                                                ",
"                                                                                                                                ",
"                                                                                                                                ",
"                                                                                                                                ",
"                                                                                                                                ",
"                                                                                                                                ",
"                                                                                                                                ",
"                                                                                                                                ",
"                                                        . + @ # $ %                                                             ",
"                                                      & * = # - ; > , $                                                         ",
"                                                    ' ) ! ~ + { ] ^ / ( _                                                       ",
"                                                  ^ ( $ : < [ { + } { / |                                                       ",
"                                                  } 1 2 3 4 [ { % 5 [ + 6                                                       ",
"                                                  7 8 9 [ 0 . { 3 a ^ b c d                                                     ",
"                                                  e + f & g h [ { i j & . k                                                     ",
"                                                l m n o e p q r & s t u v w                                                     ",
"                                                x y z A B C D E F G H I J J                                                     ",
"                                                  K L M N O P Q R S T U V W X                                                   ",
"                                                  ~ Y Z `  ...+.@.#.$.%.&.*.=.                                                  ",
"                                                  e -.;.>.,.'.).!.~.{.].^.0 /.(.                                                ",
"                                                  _.:.<.[.}.).).|.1.2.3.4.5.6.7.                                                ",
"                                                  8.9.0.a.b.c.d.e.f.g.h.i.j.k.k.                                                ",
"                                                  l.m.n.o.p.q.r.s.t.u.v.w.x.l.k.y.                                              ",
"                                                  z.A.B.C.D.E.F.G.H.I.J.K.L.M.k.k.                                              ",
"                                                  N.b.O.P.Q.R.S.T.U.V.W.X.Y.Z.v y.                                              ",
"                                                  `. +.+++@+#+$+%+&+*+=+-+;+>+k.y.                                              ",
"                                                    ,+'+)+!+!+~+{+]+^+^+^+=+/+(+                                                ",
"                                                  _+:+<+=+^+^+[+}+|+^+^+^+^+1+                                                  ",
"                                                  2+3+4+^+5+=+^+6+7+8+^+^+=+9+                                                  ",
"                                                  ).0+a+b+c+d+e+f+g+h+e+^+i+j+k+                                                ",
"                                                l+).m+n+o+p+q+r+s+t+u+v+w+x+y+z+                                                ",
"                                                A+).B+C+D+E+F+G+r+H+I+J+K+L+M+                                                  ",
"                                                N+).l+O+P+Q+R+S+T+U+V+W+X+Y+Z+                                                  ",
"                                                ).).`+ @.@+@@@#@$@%@&@*@3+=@-@                                                  ",
"                                                ).).;@>@,@'@)@!@~@{@]@^@/@(@_@                                                  ",
"                                                2+:@<@[@}@|@1@2@3@4@5@6@7@8@9@0@                                                ",
"                                              a@b@c@d@e@f@g@h@i@j@k@l@m@).n@o@p@                                                ",
"                                              q@r@s@t@u@v@w@x@y@z@B+).).).A@B@C@                                                ",
"                                              D@E@  F@G@H@I@J@K@L@).).).2+M@N@  O@                                              ",
"                                              P@      Q@Q@Q@Q@R@l+).).)._+                                                      ",
"                                                      S@Q@Q@Q@T@A+).).).                                                        ",
"                                                      U@Q@Q@Q@V@N+).).N+                                                        ",
"                                                      W@Q@Q@X@Y@2+).).l+                                                        ",
"                                                        Z@Q@`@ #).).).                                                          ",
"                                                        .#+#@###).).).                                                          ",
"                                                          $#@#%#2+).).&#                                                        ",
"                                                            *#=#A+).).                                                          ",
"                                                            -#;#A+).|.                                                          ",
"                                                                A+).>#                                                          ",
"                                                                A+).,#                                                          ",
"                                                                '#2+                                                            ",
"                                                                                                                                ",
"                                                                                                                                ",
"                                                                                                                                ",
"                                                                                                                                ",
"                                                                                                                                ",
"                                                                                                                                ",
"                                                                                                                                ",
"                                                                                                                                ",
"                                                                                                                                ",
"                                                                                                                                ",
"                                                                                                                                "};
