/* XPM */
static char * d9_xpm[] = {
"64 64 383 2",
"  	c #AADA50",
". 	c #606DC8",
"+ 	c #5F6CC6",
"@ 	c #505BA7",
"# 	c #5B67BD",
"$ 	c #5F6DC8",
"% 	c #5C69C0",
"& 	c #5864B8",
"* 	c #4F5AA6",
"= 	c #3E4782",
"- 	c #5865B9",
"; 	c #424B8B",
"> 	c #505CA9",
", 	c #5F6DC7",
"' 	c #545FAF",
") 	c #4B569F",
"! 	c #5460AF",
"~ 	c #5E6CC5",
"{ 	c #515DAA",
"] 	c #616FCB",
"^ 	c #606EC8",
"/ 	c #495398",
"( 	c #5A67BE",
"_ 	c #4C579F",
": 	c #5763B6",
"< 	c #5662B5",
"[ 	c #5460B0",
"} 	c #5A66BB",
"| 	c #5966BA",
"1 	c #525EAC",
"2 	c #535FAE",
"3 	c #5966BB",
"4 	c #606ECA",
"5 	c #515CA9",
"6 	c #5B68BF",
"7 	c #525EAD",
"8 	c #404985",
"9 	c #4A549B",
"0 	c #606EC9",
"a 	c #535FAF",
"b 	c #3E4681",
"c 	c #5B69C0",
"d 	c #404885",
"e 	c #3D457F",
"f 	c #4E5AA5",
"g 	c #424571",
"h 	c #545FAE",
"i 	c #303561",
"j 	c #4D57A0",
"k 	c #5A66BC",
"l 	c #373E71",
"m 	c #444D8E",
"n 	c #B7A089",
"o 	c #59557E",
"p 	c #5B68BE",
"q 	c #5A4560",
"r 	c #423F67",
"s 	c #495399",
"t 	c #4E59A4",
"u 	c #3D3A5F",
"v 	c #363C6F",
"w 	c #865D66",
"x 	c #835A5E",
"y 	c #8B6267",
"z 	c #F4BB96",
"A 	c #DAA788",
"B 	c #917379",
"C 	c #453D63",
"D 	c #B28175",
"E 	c #CF927B",
"F 	c #443B61",
"G 	c #313662",
"H 	c #866869",
"I 	c #3F3B62",
"J 	c #373256",
"K 	c #6F3D3E",
"L 	c #2D1D1D",
"M 	c #74413F",
"N 	c #EAA78B",
"O 	c #F9C09A",
"P 	c #F6BC97",
"Q 	c #B87268",
"R 	c #321C19",
"S 	c #432A27",
"T 	c #6D4357",
"U 	c #444D8D",
"V 	c #865E65",
"W 	c #49539A",
"X 	c #585A9B",
"Y 	c #B67E74",
"Z 	c #9A95A3",
"` 	c #83838C",
" .	c #C1A28E",
"..	c #FFDEB0",
"+.	c #F9D4A9",
"@.	c #908B93",
"#.	c #4B4C69",
"$.	c #AE999F",
"%.	c #A57983",
"&.	c #5663B5",
"*.	c #434C8C",
"=.	c #485297",
"-.	c #6064AA",
";.	c #F2BF9D",
">.	c #DFD1E1",
",.	c #7488CB",
"'.	c #E2CFC5",
").	c #FFE0B1",
"!.	c #FDDFB3",
"~.	c #A5A7D0",
"{.	c #A1ADDF",
"].	c #F6CDBA",
"^.	c #B99591",
"/.	c #5A67BC",
"(.	c #414A88",
"_.	c #424B8A",
":.	c #495297",
"<.	c #976C78",
"[.	c #F4BA99",
"}.	c #F8D0AB",
"|.	c #FFDFB1",
"1.	c #FCD8AE",
"2.	c #F9CAA6",
"3.	c #D79980",
"4.	c #554B7C",
"5.	c #475093",
"6.	c #454E8F",
"7.	c #4E59A2",
"8.	c #43467E",
"9.	c #6D507E",
"0.	c #94665F",
"a.	c #E4B794",
"b.	c #FCDBAD",
"c.	c #F2C19D",
"d.	c #F5CDA5",
"e.	c #F8CFA5",
"f.	c #C7987F",
"g.	c #5E5272",
"h.	c #4C477B",
"i.	c #4A559B",
"j.	c #3C447C",
"k.	c #5D5C93",
"l.	c #C8A88C",
"m.	c #EFB192",
"n.	c #7B789F",
"o.	c #835463",
"p.	c #BB786C",
"q.	c #C2A283",
"r.	c #BF9279",
"s.	c #B36966",
"t.	c #A87174",
"u.	c #A6A4B9",
"v.	c #D6AF91",
"w.	c #5D5992",
"x.	c #4F5AA5",
"y.	c #4A549A",
"z.	c #DEC29C",
"A.	c #F7D3A9",
"B.	c #C3C2CE",
"C.	c #AA818D",
"D.	c #DF8F7F",
"E.	c #CB7875",
"F.	c #D5847A",
"G.	c #D98E7C",
"H.	c #AB8E88",
"I.	c #CBCDDF",
"J.	c #E1C6A6",
"K.	c #C69782",
"L.	c #5159A1",
"M.	c #4F5AA4",
"N.	c #FDDDAF",
"O.	c #C39B9A",
"P.	c #DADFF3",
"Q.	c #C0C2D1",
"R.	c #F8D8AD",
"S.	c #FDDBAE",
"T.	c #FEDCAE",
"U.	c #F8CCA3",
"V.	c #C0B8BD",
"W.	c #D4DCF4",
"X.	c #C0B9BF",
"Y.	c #F3CBA3",
"Z.	c #735984",
"`.	c #F9DBAF",
" +	c #AAADCA",
".+	c #E1EAFC",
"++	c #DFE8FA",
"@+	c #BEADB1",
"#+	c #EAAC92",
"$+	c #F6CA9E",
"%+	c #DEAF98",
"&+	c #E4E4EB",
"*+	c #FEFEFF",
"=+	c #F4F6FB",
"-+	c #C2B7B6",
";+	c #C0927F",
">+	c #5259A2",
",+	c #FDDCAE",
"'+	c #CAB7AA",
")+	c #E6ECF9",
"!+	c #FDFEFF",
"~+	c #E9EBF5",
"{+	c #B4B9DD",
"]+	c #BABAD4",
"^+	c #E5E5EB",
"/+	c #FFFFFF",
"(+	c #F3F5FA",
"_+	c #A68CA0",
":+	c #735D9A",
"<+	c #FBDCAF",
"[+	c #BFBFC9",
"}+	c #F3F5FB",
"|+	c #CED1E0",
"1+	c #FEFFFF",
"2+	c #C9CCE3",
"3+	c #8C6370",
"4+	c #5661B1",
"5+	c #F7CFA5",
"6+	c #E1C6A4",
"7+	c #CBCEDC",
"8+	c #F8FAFE",
"9+	c #DFE5F7",
"0+	c #F7F9FE",
"a+	c #EBF0FA",
"b+	c #797295",
"c+	c #FBDCAE",
"d+	c #C5AD98",
"e+	c #B1B9DC",
"f+	c #FCFDFE",
"g+	c #D4D8EA",
"h+	c #E5E9F7",
"i+	c #F1F5FE",
"j+	c #CAD2F1",
"k+	c #8E98C7",
"l+	c #F3C29E",
"m+	c #D9DFF4",
"n+	c #E5E8F7",
"o+	c #F2F5FE",
"p+	c #F6F8FD",
"q+	c #EAECF7",
"r+	c #CDD7EE",
"s+	c #D0D6EF",
"t+	c #F5F7FD",
"u+	c #FAFBFD",
"v+	c #DDE3F7",
"w+	c #D1DAF4",
"x+	c #8692BF",
"y+	c #8D99C4",
"z+	c #D1D8EB",
"A+	c #B6BFE2",
"B+	c #ADB4E3",
"C+	c #E3E7F6",
"D+	c #8A96C4",
"E+	c #A7AFE0",
"F+	c #AAB2E1",
"G+	c #A7AFE1",
"H+	c #95A0CE",
"I+	c #7B86B8",
"J+	c #A09096",
"K+	c #818ABA",
"L+	c #B7BFE6",
"M+	c #DFE3F5",
"N+	c #B4BCE5",
"O+	c #9EA8CA",
"P+	c #EBEFFB",
"Q+	c #B0B9DE",
"R+	c #7381B1",
"S+	c #858FBC",
"T+	c #8387B4",
"U+	c #7E7BA3",
"V+	c #BE8A90",
"W+	c #ED9E86",
"X+	c #8B8BB2",
"Y+	c #C4B1A7",
"Z+	c #B9A597",
"`+	c #7C7FA6",
" @	c #C8C1CA",
".@	c #AC9CA3",
"+@	c #A38C90",
"@@	c #A5A7BF",
"#@	c #9B9FBD",
"$@	c #948A97",
"%@	c #998F9A",
"&@	c #8D8DB3",
"*@	c #D49184",
"=@	c #F5A489",
"-@	c #F4A389",
";@	c #A2716F",
">@	c #C1C3D8",
",@	c #EEF1F7",
"'@	c #CFD2E3",
")@	c #A0A4BF",
"!@	c #C5B2A7",
"~@	c #C09C90",
"{@	c #B6948C",
"]@	c #C2B0A6",
"^@	c #E7EBF6",
"/@	c #C4C8E0",
"(@	c #BC8481",
"_@	c #E6B895",
":@	c #BB8279",
"<@	c #C7B3A7",
"[@	c #ACAFCA",
"}@	c #DFE3F3",
"|@	c #F2F4FB",
"1@	c #F9FAFB",
"2@	c #F1F3FA",
"3@	c #C7B4A8",
"4@	c #E1C6A5",
"5@	c #C3977C",
"6@	c #EF9F86",
"7@	c #D18075",
"8@	c #F1A087",
"9@	c #FADBAD",
"0@	c #FDD6AA",
"a@	c #F1BA98",
"b@	c #C68072",
"c@	c #A6989D",
"d@	c #B1B8DB",
"e@	c #BCC2E1",
"f@	c #CBD0EB",
"g@	c #9A9CC2",
"h@	c #C8B4A8",
"i@	c #FFDFB0",
"j@	c #C4977B",
"k@	c #EF9F85",
"l@	c #D68677",
"m@	c #E0937D",
"n@	c #F6CCA3",
"o@	c #DF9E85",
"p@	c #F6CFA5",
"q@	c #CA8974",
"r@	c #BE816D",
"s@	c #FDDEB0",
"t@	c #DFC5A5",
"u@	c #6D6F95",
"v@	c #A49599",
"w@	c #F7D0A7",
"x@	c #FBDBAD",
"y@	c #AF7064",
"z@	c #C3756C",
"A@	c #C5776E",
"B@	c #D88F79",
"C@	c #EEB291",
"D@	c #D8887A",
"E@	c #D2977E",
"F@	c #FEDDAF",
"G@	c #B3786A",
"H@	c #E4B895",
"I@	c #C1746C",
"J@	c #E1937D",
"K@	c #EE9F85",
"L@	c #D5A688",
"M@	c #FCDCAE",
"N@	c #FEDEAF",
"O@	c #D7AF8F",
"P@	c #F8C8A0",
"Q@	c #D2947D",
"R@	c #D58379",
"S@	c #F5B191",
"T@	c #F6B292",
"U@	c #EBA289",
"V@	c #BA6D6A",
"W@	c #CC7373",
"X@	c #CD7474",
"Y@	c #CC7273",
"Z@	c #B66968",
"`@	c #FADAAD",
" #	c #A6575C",
".#	c #C97072",
"+#	c #BD686B",
"@#	c #7E3F46",
"##	c #D3AD8D",
"$#	c #BF696C",
"%#	c #B46164",
"&#	c #7A3D44",
"*#	c #D1AB8B",
"=#	c #BB6669",
"-#	c #FBCBA2",
";#	c #FAC69F",
">#	c #FAD4A8",
",#	c #F9D3A7",
"'#	c #F1BE98",
"                                                                                                                                ",
"                                                                                                                                ",
"                                                                                                                                ",
"                                                                                                                                ",
"                                                                                                                                ",
"                                                                                                                                ",
"                                                                                                                                ",
"                                                          . + @ # $ %                                                           ",
"                                                      + & * = - @ ; > ,                                                         ",
"                                                    ' ) ! ~ { ] ^ / ( _ :                                                       ",
"                                                    < [ } . | ] ] 1 ^ . ) 2                                                     ",
"                                                    ; + 3 4 3 ] ] 5 6 ] * 7                                                     ",
"                                                  8 9 . | 0 { 4 ] a b . c d                                                     ",
"                                                  e % 2 f c g h ] , i 7 0 j                                                     ",
"                                                  k 2 b l m n o 6 p q r s t )                                                   ",
"                                                  u v w x y z A B C D E F G H                                                   ",
"                                                  I J K L M N O P Q R S T U V                                                   ",
"                                                  W X Y Z `  ...+.@.#.$.%.&.*.                                                  ",
"                                                  =.-.;.>.,.'.).!.~.{.].^./.(.                                                  ",
"                                                  _.:.<.[.}.|.).).1.2.3.4.5.6.                                                  ",
"                                                  7.8.9.0.a.b.c.d.e.f.g.h.5.i.j.                                                ",
"                                                  k.l.m.n.o.p.q.r.s.t.u.v.w.x.y.                                                ",
"                                                  z.).A.B.C.D.E.F.G.H.I.J.K.L.M.                                                ",
"                                                  N...O.P.Q.R.S.T.U.V.W.X.Y.Z.x.                                                ",
"                                                  ).`. +.+++@+#+$+%+&+*+=+-+;+>+                                                ",
"                                                ,+).'+)+!+*+~+{+]+^+/+/+/+(+_+:+                                                ",
"                                                ).<+[+*+/+/+/+}+|+/+/+/+/+1+2+3+4+                                              ",
"                                              5+).6+7+/+/+/+/+8+9+0+/+/+/+1+a+b+                                                ",
"                                              c+).d+e+f+/+/+/+0+g+h+*+/+1+i+j+k+                                                ",
"                                              N.).l+  m+n+o+f+p+q+r+s+t+u+v+w+x+                                                ",
"                                              ).).    x+y+z+A+B+C+s+D+E+F+G+H+I+                                                ",
"                                              ).N.    J+K+L+M+N+O+P+Q+R+S+T+U+V+W+                                              ",
"                                            5+).c+  X+Y+Z+`+ @.@+@@@#@$@%@&@*@=@-@                                              ",
"                                            c+).N.;@>@,@'@)@!@~@{@]@)@'@^@/@(@=@-@                                              ",
"                                            c+)..._@:@<@[@}@|@(+1@2@}@[@3@4@5@6@7@8@                                            ",
"                                            9@0@a@e.b@N.`.c@d@e@f@g@h@`.).i@j@k@l@m@                                            ",
"                                            n@o@p@q@r@N.).s@t@u@v@w@).).).x@y@z@A@B@                                            ",
"                                              C@  D@E@i@).).F@G@p@).).).).H@  I@J@K@                                            ",
"                                                      i@).).|.L@M@).).).i@                                                      ",
"                                                      N@).).).O@M@).).).c+                                                      ",
"                                                      P@i@i@F@Q@M@).).).5+                                                      ",
"                                                      R@S@T@U@V@M@).).i@                                                        ",
"                                                        W@X@Y@Z@`@).).c+                                                        ",
"                                                         #.#+#@###).).N.                                                        ",
"                                                          $#%#&#*#).).i@                                                        ",
"                                                          =#=#    ).).x@                                                        ",
"                                                                  ).).                                                          ",
"                                                                  -#N@                                                          ",
"                                                                  ;#>#                                                          ",
"                                                                  ,#'#                                                          ",
"                                                                                                                                ",
"                                                                                                                                ",
"                                                                                                                                ",
"                                                                                                                                ",
"                                                                                                                                ",
"                                                                                                                                ",
"                                                                                                                                ",
"                                                                                                                                ",
"                                                                                                                                ",
"                                                                                                                                ",
"                                                                                                                                ",
"                                                                                                                                ",
"                                                                                                                                ",
"                                                                                                                                "};
