/* XPM */
static char * r0_xpm[] = {
"64 64 263 2",
"  	c #AADA50",
". 	c #5B69BF",
"+ 	c #616FCA",
"@ 	c #616FCB",
"# 	c #606EC8",
"$ 	c #606ECA",
"% 	c #5A66BB",
"& 	c #515DAA",
"* 	c #3E4680",
"= 	c #606EC9",
"- 	c #5A67BC",
"; 	c #5C69C0",
"> 	c #5C6AC2",
", 	c #515CA8",
"' 	c #5764B6",
") 	c #535FAE",
"! 	c #505BA6",
"~ 	c #5B68BE",
"{ 	c #5D6AC2",
"] 	c #525DAB",
"^ 	c #5F6DC7",
"/ 	c #4B559C",
"( 	c #4E59A3",
"_ 	c #5662B4",
": 	c #5764B7",
"< 	c #606DC8",
"[ 	c #4C569D",
"} 	c #5662B3",
"| 	c #4A549B",
"1 	c #3B4278",
"2 	c #515CA9",
"3 	c #464F92",
"4 	c #545FAF",
"5 	c #3C4279",
"6 	c #4E59A4",
"7 	c #5460B0",
"8 	c #5B68BF",
"9 	c #434C8A",
"0 	c #333866",
"a 	c #464F91",
"b 	c #4F5AA5",
"c 	c #4F5BA6",
"d 	c #4E58A0",
"e 	c #5D444D",
"f 	c #525BA5",
"g 	c #505BA7",
"h 	c #4F5AA4",
"i 	c #5E4261",
"j 	c #65444B",
"k 	c #373254",
"l 	c #3E457F",
"m 	c #4A549A",
"n 	c #414986",
"o 	c #88616A",
"p 	c #EDAF8E",
"q 	c #92747B",
"r 	c #464B89",
"s 	c #C39A7F",
"t 	c #EDB897",
"u 	c #996762",
"v 	c #4C579F",
"w 	c #222139",
"x 	c #2D1E1F",
"y 	c #7B4B44",
"z 	c #454B88",
"A 	c #C2927A",
"B 	c #F6B392",
"C 	c #DCB694",
"D 	c #53589A",
"E 	c #4E59A2",
"F 	c #654553",
"G 	c #9D97A2",
"H 	c #B19791",
"I 	c #4E58A2",
"J 	c #465092",
"K 	c #6C475A",
"L 	c #E9A68A",
"M 	c #F4C49D",
"N 	c #545282",
"O 	c #B7927F",
"P 	c #C2B1C9",
"Q 	c #C4A7B5",
"R 	c #FCD4A9",
"S 	c #3C3E6F",
"T 	c #906057",
"U 	c #A67565",
"V 	c #735179",
"W 	c #4D58A1",
"X 	c #BDA588",
"Y 	c #F9CBA6",
"Z 	c #FBD7AD",
"` 	c #FDD6AA",
" .	c #3D467F",
"..	c #3B4279",
"+.	c #4B2C3C",
"@.	c #C36C6E",
"#.	c #7E4855",
"$.	c #BA9A81",
"%.	c #FCD0A6",
"&.	c #EBC09A",
"*.	c #3C447C",
"=.	c #363154",
"-.	c #7A516A",
";.	c #B46975",
">.	c #C66E71",
",.	c #985760",
"'.	c #A86961",
").	c #C6917A",
"!.	c #475093",
"~.	c #3E4270",
"{.	c #656D94",
"].	c #9096C3",
"^.	c #8286B0",
"/.	c #977A99",
"(.	c #C76F72",
"_.	c #B56972",
":.	c #605E7D",
"<.	c #C3A89E",
"[.	c #F9DBB0",
"}.	c #E1C7A7",
"|.	c #C8C8D6",
"1.	c #8F7D9B",
"2.	c #E9B596",
"3.	c #D0A98E",
"4.	c #4B569D",
"5.	c #3F457F",
"6.	c #BB9B84",
"7.	c #FFDFB0",
"8.	c #FFE0B1",
"9.	c #C9B5A7",
"0.	c #C1C7E0",
"a.	c #AA99A6",
"b.	c #B69095",
"c.	c #C7C8D4",
"d.	c #FAFBFC",
"e.	c #475194",
"f.	c #42457D",
"g.	c #CAA988",
"h.	c #E1A38D",
"i.	c #B4B8CF",
"j.	c #F4F6FC",
"k.	c #FAFAFC",
"l.	c #E7EAF7",
"m.	c #F4F6FD",
"n.	c #514059",
"o.	c #F7CFA5",
"p.	c #FCDCAE",
"q.	c #D59280",
"r.	c #C8C7D1",
"s.	c #FFFFFF",
"t.	c #FEFFFF",
"u.	c #E6E9F7",
"v.	c #D4D8E9",
"w.	c #D1D5E6",
"x.	c #4F3E46",
"y.	c #FADCAE",
"z.	c #F0BD9B",
"A.	c #A57A88",
"B.	c #DCE0EC",
"C.	c #D1D5E2",
"D.	c #B4BCE4",
"E.	c #CF9C86",
"F.	c #868BB4",
"G.	c #D1D7F0",
"H.	c #F9F9FB",
"I.	c #FDDDAF",
"J.	c #FBDCAE",
"K.	c #998AA9",
"L.	c #929CCD",
"M.	c #D7DAF0",
"N.	c #E6E9F8",
"O.	c #FCFDFE",
"P.	c #F7F9FE",
"Q.	c #D3D7E9",
"R.	c #FFDEAF",
"S.	c #8B88A9",
"T.	c #A3ACDA",
"U.	c #F1F4FC",
"V.	c #ADB4E3",
"W.	c #BBC2E9",
"X.	c #D7DEEF",
"Y.	c #C3CBEC",
"Z.	c #F9D0A6",
"`.	c #9888AA",
" +	c #CFD4EF",
".+	c #EEF2FC",
"++	c #9199C5",
"@+	c #A4ACDE",
"#+	c #A3ABDE",
"$+	c #B2BDDA",
"%+	c #FACBA2",
"&+	c #B0736F",
"*+	c #C6CAE0",
"=+	c #ECF1FB",
"-+	c #9199C4",
";+	c #7A87B5",
">+	c #6F729D",
",+	c #97A0CF",
"'+	c #F7C39D",
")+	c #E6B090",
"!+	c #A88296",
"~+	c #B0B8CF",
"{+	c #A9B4D6",
"]+	c #848CBB",
"^+	c #F6C29C",
"/+	c #FFDEB0",
"(+	c #E6BA99",
"_+	c #C6BBC0",
":+	c #A0A2BB",
"<+	c #D0A084",
"[+	c #FEDEB0",
"}+	c #CC9D81",
"|+	c #F5D6AA",
"1+	c #F6C69F",
"2+	c #E6A18A",
"3+	c #FEDDAF",
"4+	c #F6C79F",
"5+	c #C9AB89",
"6+	c #F9D5A8",
"7+	c #D98C7B",
"8+	c #F2AB8D",
"9+	c #FAC49E",
"0+	c #F1AA8C",
"a+	c #C8AB89",
"b+	c #C3766C",
"c+	c #C98471",
"d+	c #E89682",
"e+	c #C17D6F",
"f+	c #F9DAAD",
"g+	c #BB7A69",
"h+	c #F7C09B",
"i+	c #D7AF8F",
"j+	c #E9C69E",
"k+	c #BC7B69",
"l+	c #F6C19C",
"m+	c #FFDFB1",
"n+	c #EB9C83",
"o+	c #9F695B",
"p+	c #D88F7C",
"q+	c #F9C49E",
"r+	c #C07F6C",
"s+	c #F5C59E",
"t+	c #FCDCAF",
"u+	c #E4B592",
"v+	c #C7816F",
"w+	c #FAC59E",
"x+	c #FCD6AA",
"y+	c #F3B996",
"z+	c #F1A087",
"A+	c #F6AD8E",
"B+	c #ECB292",
"C+	c #F3A288",
"D+	c #F4A389",
"E+	c #E89782",
"F+	c #BF766B",
"G+	c #EFA086",
"H+	c #C87B71",
"I+	c #C8806F",
"J+	c #F1A187",
"K+	c #F2A287",
"L+	c #CE8372",
"M+	c #F5A489",
"N+	c #E79681",
"                                                                                                                                ",
"                                                                                                                                ",
"                                                                                                                                ",
"                                                                                                                                ",
"                                                                                                                                ",
"                                                                                                                                ",
"                                                                                                                                ",
"                                                                                                                                ",
"                                                                                                                                ",
"                                                          . + @ @ @ #                                                           ",
"                                                        + @ @ @ @ $ % & *                                                       ",
"                                                      # @ @ @ @ = - ; > , ' )                                                   ",
"                                                      @ @ @ @ @ ! ~ { = ] + +                                                   ",
"                                                    ^ @ @ @ @ ^ / ( # = _ @ @ :                                                 ",
"                                                    < @ @ @ @ [ } | + < ] @ @ '                                                 ",
"                                                    > @ @ @ ; 1 2 3 # 4 5 # { 6                                                 ",
"                                                    7 = $ 8 9 0 a b c d e f 4                                                   ",
"                                                    b g h i j k l m n o p q                                                     ",
"                                                    b b r s t u v l w x y                                                       ",
"                                                    b b z A B C D E F G H                                                       ",
"                                                  I b b J K L M N E O P Q R                                                     ",
"                                                  h b b J S T U V W X Y Z `                                                     ",
"                                                  b b 6  ...+.@.#.[ $.%.&.                                                      ",
"                                                  b b ( *.=.-.;.>.,.'.).                                                        ",
"                                                W b b !.~.{.].^./.(._.                                                          ",
"                                                I b b a :.<.[.}.|.1.2.3.                                                        ",
"                                                I 4.h 5.6.7.8.8.9.0.a.b.c.d.                                                    ",
"                                                W e.( f.g.8.8.7.h.i.j.k.l.m.l.                                                  ",
"                                                  e.W n.o.8.8.p.q.r.s.s.t.u.v.w.                                                ",
"                                                      x.y.8.8.z.A.B.s.s.s.s.C.D.                                                ",
"                                                        y.8.7.E.F.G.t.s.s.s.H.                                                  ",
"                                                        I.8.J.K.L.M.N.O.s.P.Q.                                                  ",
"                                                        R.8.J.S.T.U.V.W.M.X.Y.                                                  ",
"                                                        R.8.Z.`. +.+++@+#+$+                                                    ",
"                                                        ` 8.%+&+*+=+-+;+>+,+                                                    ",
"                                                        '+8.7.)+!+~+{+]+                                                        ",
"                                                        ^+8.8./+(+_+:+                                                          ",
"                                                        <+7.[+8.7.}+|+                                                          ",
"                                                          1+2+3+8.4+5+6+                                                        ",
"                                                            7+8+9+0+a+J.                                                        ",
"                                                            b+c+d+e+f+J.                                                        ",
"                                                            g+h+i+j+8.J.                                                        ",
"                                                            k+l+m+8.8.J.                                                        ",
"                                                          n+o+p+q+m+8.J.                                                        ",
"                                                          r+s+t+/+8.7.u+                                                        ",
"                                                          v+w+8.m+x+y+                                                          ",
"                                                          z+A+q+B+                                                              ",
"                                                        C+D+E+F+                                                                ",
"                                                      G+D+H+I+G+                                                                ",
"                                                      J+K+L+M+M+D+                                                              ",
"                                                              N+J+                                                              ",
"                                                                                                                                ",
"                                                                                                                                ",
"                                                                                                                                ",
"                                                                                                                                ",
"                                                                                                                                ",
"                                                                                                                                ",
"                                                                                                                                ",
"                                                                                                                                ",
"                                                                                                                                ",
"                                                                                                                                ",
"                                                                                                                                ",
"                                                                                                                                ",
"                                                                                                                                "};
