/* XPM */
static char * r1_xpm[] = {
"64 64 279 2",
"  	c #AADA50",
". 	c #5B68BF",
"+ 	c #5F6DC7",
"@ 	c #616FCA",
"# 	c #616FCB",
"$ 	c #606EC9",
"% 	c #5561B1",
"& 	c #5D6AC3",
"* 	c #5966BA",
"= 	c #5865B9",
"- 	c #4F5AA5",
"; 	c #465092",
"> 	c #5763B6",
", 	c #5C69C0",
"' 	c #5A67BC",
") 	c #606DC8",
"! 	c #4A559B",
"~ 	c #5F6DC8",
"{ 	c #5F6CC6",
"] 	c #5561B2",
"^ 	c #606EC8",
"/ 	c #606ECA",
"( 	c #4C559D",
"_ 	c #495499",
": 	c #535FAD",
"< 	c #4D58A1",
"[ 	c #525EAB",
"} 	c #464F92",
"| 	c #5B69BF",
"1 	c #4A5399",
"2 	c #535FAE",
"3 	c #5965B9",
"4 	c #505CA8",
"5 	c #343A68",
"6 	c #4D57A0",
"7 	c #444D8D",
"8 	c #5460B0",
"9 	c #4F59A4",
"0 	c #30335D",
"a 	c #4A549A",
"b 	c #505BA7",
"c 	c #4B5296",
"d 	c #383865",
"e 	c #333763",
"f 	c #3E457F",
"g 	c #4A549B",
"h 	c #545188",
"i 	c #896960",
"j 	c #464F90",
"k 	c #4C5499",
"l 	c #A4746A",
"m 	c #C5A183",
"n 	c #62414D",
"o 	c #454E90",
"p 	c #693F50",
"q 	c #83564D",
"r 	c #C78974",
"s 	c #40467F",
"t 	c #C0A182",
"u 	c #EFA98D",
"v 	c #B78F7A",
"w 	c #4E58A2",
"x 	c #3E2C3F",
"y 	c #574C58",
"z 	c #4A3733",
"A 	c #484F90",
"B 	c #9D6860",
"C 	c #EDA98D",
"D 	c #B9927C",
"E 	c #9A6E6B",
"F 	c #BEBAC5",
"G 	c #D6B3AC",
"H 	c #ECB695",
"I 	c #5D4266",
"J 	c #D6977D",
"K 	c #C2987F",
"L 	c #BCA287",
"M 	c #DEAFB6",
"N 	c #E1C0BD",
"O 	c #FEDDAF",
"P 	c #4E59A4",
"Q 	c #3D467F",
"R 	c #3B4279",
"S 	c #4A2E3C",
"T 	c #9B5759",
"U 	c #4D4272",
"V 	c #BDA588",
"W 	c #FDDCAE",
"X 	c #F5C09A",
"Y 	c #4E59A3",
"Z 	c #3D457E",
"` 	c #373C6D",
" .	c #76424C",
"..	c #C76F72",
"+.	c #B06369",
"@.	c #50477C",
"#.	c #B68572",
"$.	c #F6BD97",
"%.	c #E0A386",
"&.	c #475093",
"*.	c #383E6F",
"=.	c #454061",
"-.	c #8082AD",
";.	c #917596",
">.	c #B46975",
",.	c #C66E71",
"'.	c #9D5864",
").	c #4F5AA4",
"!.	c #424A87",
"~.	c #4D4567",
"{.	c #7A80A1",
"].	c #C6B5B1",
"^.	c #A694A3",
"/.	c #B1B0CC",
"(.	c #A96573",
"_.	c #D4837B",
":.	c #987688",
"<.	c #493E66",
"[.	c #E0AD8E",
"}.	c #FBDCAF",
"|.	c #FFE0B1",
"1.	c #FAD5AA",
"2.	c #C7BCBD",
"3.	c #B3B5D0",
"4.	c #DBB89D",
"5.	c #C28882",
"6.	c #B3B8D4",
"7.	c #475195",
"8.	c #464F91",
"9.	c #514356",
"0.	c #FADBAD",
"a.	c #FDDDAF",
"b.	c #B9767B",
"c.	c #B7BFD9",
"d.	c #CFCFDD",
"e.	c #C5C2CA",
"f.	c #AFB8DB",
"g.	c #B6BACE",
"h.	c #475194",
"i.	c #454E8F",
"j.	c #6A474B",
"k.	c #FBDCAE",
"l.	c #FAD0A7",
"m.	c #D78D80",
"n.	c #C5C2C9",
"o.	c #FFFFFF",
"p.	c #E2E6F5",
"q.	c #D4D8E9",
"r.	c #495398",
"s.	c #414884",
"t.	c #BA9278",
"u.	c #FFDFB0",
"v.	c #E1B293",
"w.	c #D8A28F",
"x.	c #CDD0DC",
"y.	c #FEFEFF",
"z.	c #E4E7F6",
"A.	c #D0D4E7",
"B.	c #C0A584",
"C.	c #D3AB8C",
"D.	c #A2889E",
"E.	c #F9FAFB",
"F.	c #F3F6FC",
"G.	c #CDD1DF",
"H.	c #A37169",
"I.	c #929BC8",
"J.	c #F5F7FD",
"K.	c #C6CDE0",
"L.	c #B3BBE3",
"M.	c #ECBA98",
"N.	c #8985A6",
"O.	c #A7B1D5",
"P.	c #E8EEFC",
"Q.	c #BCC0D3",
"R.	c #97A0D0",
"S.	c #F6C39D",
"T.	c #F7CFA5",
"U.	c #8A86A9",
"V.	c #B9C4DE",
"W.	c #C9D1F0",
"X.	c #D0D6F0",
"Y.	c #FBFCFD",
"Z.	c #D8DEEE",
"`.	c #7B82A9",
" +	c #FCD6AA",
".+	c #CCAB8C",
"++	c #8283AC",
"@+	c #BEC3D5",
"#+	c #CACFDF",
"$+	c #9AA4D4",
"%+	c #AAB2E2",
"&+	c #9DA7D1",
"*+	c #B1B9E2",
"=+	c #FFDEB0",
"-+	c #C6A987",
";+	c #E79D89",
">+	c #C9C7D0",
",+	c #CCD2EC",
"'+	c #7D86B3",
")+	c #868EBD",
"!+	c #7B85B2",
"~+	c #FFDFB1",
"{+	c #FDD7AA",
"]+	c #C0967F",
"^+	c #B2A2B7",
"/+	c #B1AAB8",
"(+	c #969ECC",
"_+	c #8086AD",
":+	c #8C92B0",
"<+	c #A3A9BF",
"[+	c #F9C29C",
"}+	c #FAC49D",
"|+	c #F6AA8D",
"1+	c #D88D7E",
"2+	c #C1C0D2",
"3+	c #D2D5EB",
"4+	c #C6C6D2",
"5+	c #C1C0C7",
"6+	c #A3A4BD",
"7+	c #C1AC9B",
"8+	c #F7AF90",
"9+	c #FDD6AA",
"0+	c #FAC9A1",
"a+	c #D5907C",
"b+	c #9F8982",
"c+	c #F9DBAF",
"d+	c #FEDFB0",
"e+	c #FCDBAD",
"f+	c #E4A48B",
"g+	c #CA987E",
"h+	c #FDDEAF",
"i+	c #FAD8AB",
"j+	c #FBCDA4",
"k+	c #F1BE9B",
"l+	c #D49F84",
"m+	c #BC806D",
"n+	c #FBDBAE",
"o+	c #EB9F85",
"p+	c #DDA087",
"q+	c #F9BC98",
"r+	c #D28876",
"s+	c #BF7B6B",
"t+	c #BE997C",
"u+	c #FEDEB0",
"v+	c #C07E6C",
"w+	c #A6685D",
"x+	c #BD7C6A",
"y+	c #D89179",
"z+	c #DFB390",
"A+	c #F1A187",
"B+	c #F3A288",
"C+	c #C0826E",
"D+	c #E7B391",
"E+	c #FED9AC",
"F+	c #F9D4A8",
"G+	c #F0A086",
"H+	c #F5A489",
"I+	c #C98270",
"J+	c #F3B795",
"K+	c #FFDEAF",
"L+	c #F5C79F",
"M+	c #F2A187",
"N+	c #BD756A",
"O+	c #F4A489",
"P+	c #F8B795",
"Q+	c #F5BB97",
"R+	c #EFA086",
"S+	c #BF7E6B",
"T+	c #F5A68A",
"U+	c #F1A388",
"V+	c #F3A388",
"W+	c #BD7B6A",
"X+	c #D58777",
"Y+	c #C7816F",
"Z+	c #B47166",
"`+	c #F4A389",
" @	c #EA9883",
".@	c #C6806F",
"+@	c #BA7A69",
"                                                                                                                                ",
"                                                                                                                                ",
"                                                                                                                                ",
"                                                                                                                                ",
"                                                                                                                                ",
"                                                                                                                                ",
"                                                                                                                                ",
"                                                                                                                                ",
"                                                            . + + +                                                             ",
"                                                        . @ # # # # $ %                                                         ",
"                                                      . # # # # # & * = - ;                                                     ",
"                                                      @ # # # # > , ' ) ! ~ {                                                   ",
"                                                    . # # # # # ] ] ^ / = # @                                                   ",
"                                                    + # # # # + ( _ $ $ : # #                                                   ",
"                                                    ) # # # / < [ } / | 1 @ / 2                                                 ",
"                                                    3 # # / 4 5 6 7 8 9 0 . 3 a                                                 ",
"                                                    b = = c d e f 4 g h i j a                                                   ",
"                                                    - - k l m n o f p q r                                                       ",
"                                                    - - s t u v w w x y z                                                       ",
"                                                    - - A B C D w w E F G H                                                     ",
"                                                    - - ; I J K k w L M N O                                                     ",
"                                                  < - P Q R S T U < V O W X                                                     ",
"                                                  w - Y Z `  ...+.@.#.$.%.                                                      ",
"                                                  Y - &.*.=.-.;.>.,.'.                                                          ",
"                                                  - ).!.~.{.].^./.(._.:.                                                        ",
"                                                  ).Y <.[.}.|.1.2.3.4.5.6.                                                      ",
"                                                  7.8.9.0.|.|.a.b.c.d.e.f.g.                                                    ",
"                                                w h.i.j.k.|.|.l.m.n.o.o.p.q.                                                    ",
"                                                r.h.s.t.u.|.|.v.w.x.o.o.y.z.A.                                                  ",
"                                                      B.|.|.|.C.D.E.o.o.o.F.G.                                                  ",
"                                                        |.|.a.H.I.J.o.o.o.y.K.L.                                                ",
"                                                      M.|.|.k.N.O.P.y.o.o.y.Q.R.                                                ",
"                                                      S.|.|.T.U.V.W.X.J.Y.Z.`.                                                  ",
"                                                       +|.|..+++@+#+$+%+&+*+                                                    ",
"                                                      =+|.|.-+;+>+,+'+)+!+                                                      ",
"                                                      O ~+{+]+^+/+(+_+:+<+                                                      ",
"                                                      [+}+|+1+2+3+4+5+6+7+                                                      ",
"                                                      8+9+=+0+a+b+c+}.}.d+                                                      ",
"                                                      e+~+|.9+f+g+h+|.|.|.                                                      ",
"                                                      i+j+~+k+l+m+k.|.|.|.n+                                                    ",
"                                                      o+p+q+r+s+t+u+|.|.|.u.                                                    ",
"                                                          v+w+x+y+z+a.~+|.|.                                                    ",
"                                                          A+A+B+A+C+D+E+|.|.F+                                                  ",
"                                                        G+H+H+H+I+J+K+|.|.~+L+                                                  ",
"                                                        H+H+H+M+N+O+P+9+{+Q+                                                    ",
"                                                        H+H+H+R+S+H+H+T+U+                                                      ",
"                                                        A+H+V+W+X+H+H+A+                                                        ",
"                                                        R+V+S+Y+B+H+A+                                                          ",
"                                                          A+Z+`+H+ @                                                            ",
"                                                          H+.@A+`+                                                              ",
"                                                            +@A+M+                                                              ",
"                                                                                                                                ",
"                                                                                                                                ",
"                                                                                                                                ",
"                                                                                                                                ",
"                                                                                                                                ",
"                                                                                                                                ",
"                                                                                                                                ",
"                                                                                                                                ",
"                                                                                                                                ",
"                                                                                                                                ",
"                                                                                                                                ",
"                                                                                                                                ",
"                                                                                                                                "};
