/* XPM */
static char * r2_xpm[] = {
"64 64 297 2",
"  	c #AADA50",
". 	c #5B69BF",
"+ 	c #616FCA",
"@ 	c #616FCB",
"# 	c #606EC8",
"$ 	c #606ECA",
"% 	c #5A66BB",
"& 	c #515DAA",
"* 	c #3E4680",
"= 	c #606EC9",
"- 	c #5A67BC",
"; 	c #5C69C0",
"> 	c #5C6AC2",
", 	c #505CA8",
"' 	c #5764B7",
") 	c #505BA6",
"! 	c #5864B7",
"~ 	c #5D6AC2",
"{ 	c #525DAB",
"] 	c #4F5AA6",
"^ 	c #5F6DC7",
"/ 	c #495398",
"( 	c #4E59A3",
"_ 	c #5662B4",
": 	c #5865B9",
"< 	c #606DC8",
"[ 	c #4F5AA4",
"} 	c #434B8A",
"| 	c #5763B6",
"1 	c #5864B8",
"2 	c #5B68BE",
"3 	c #404884",
"4 	c #434C8B",
"5 	c #4F5AA5",
"6 	c #545FAF",
"7 	c #3C4279",
"8 	c #4E59A4",
"9 	c #5460B0",
"0 	c #5B68BF",
"a 	c #424B89",
"b 	c #3C437B",
"c 	c #454E8E",
"d 	c #525EAC",
"e 	c #525491",
"f 	c #714C4A",
"g 	c #575B9E",
"h 	c #535EAD",
"i 	c #505BA7",
"j 	c #5E4261",
"k 	c #654449",
"l 	c #42467D",
"m 	c #475093",
"n 	c #3E457F",
"o 	c #876762",
"p 	c #D2947D",
"q 	c #F2B391",
"r 	c #B78B74",
"s 	c #4D58A1",
"t 	c #464B89",
"u 	c #C39A7F",
"v 	c #EAB796",
"w 	c #585481",
"x 	c #4E58A2",
"y 	c #6F444E",
"z 	c #432B27",
"A 	c #7B4B44",
"B 	c #454B88",
"C 	c #C2927A",
"D 	c #F6B392",
"E 	c #BBA18F",
"F 	c #654553",
"G 	c #9D97A2",
"H 	c #B19791",
"I 	c #424A88",
"J 	c #6C475A",
"K 	c #E9A68A",
"L 	c #D9B191",
"M 	c #535A9B",
"N 	c #B7927F",
"O 	c #C2B1C9",
"P 	c #C4A7B5",
"Q 	c #FCD4A9",
"R 	c #495399",
"S 	c #4A559B",
"T 	c #3C457D",
"U 	c #3C3E6F",
"V 	c #906057",
"W 	c #A67565",
"X 	c #73517A",
"Y 	c #BDA588",
"Z 	c #F9CBA6",
"` 	c #FBD7AD",
" .	c #FDD6AA",
"..	c #3C447C",
"+.	c #373C6D",
"@.	c #4D2C3B",
"#.	c #C36C6E",
"$.	c #804852",
"%.	c #414379",
"&.	c #BC9A80",
"*.	c #FCD0A6",
"=.	c #EBC09A",
"-.	c #373D6F",
";.	c #473E5F",
">.	c #88576F",
",.	c #B46975",
"'.	c #C66E71",
").	c #A85B5F",
"!.	c #BF736C",
"~.	c #393E6F",
"{.	c #5B577A",
"].	c #868EB9",
"^.	c #929AC7",
"/.	c #BCBFD6",
"(.	c #9B7E9B",
"_.	c #C87073",
":.	c #B46770",
"<.	c #6B465A",
"[.	c #F2BE9B",
"}.	c #FBDCB0",
"|.	c #DEB69A",
"1.	c #A992A3",
"2.	c #CFD2E9",
"3.	c #9D829E",
"4.	c #DFA48D",
"5.	c #D9BB99",
"6.	c #C5967D",
"7.	c #FFDEB0",
"8.	c #FFE0B1",
"9.	c #FFDFB0",
"0.	c #ECBD9C",
"a.	c #B8BDD2",
"b.	c #DAE0F4",
"c.	c #9D9FB5",
"d.	c #966F7B",
"e.	c #B2B5CC",
"f.	c #F1F4FB",
"g.	c #3D457D",
"h.	c #503E54",
"i.	c #F7CFA5",
"j.	c #FAD0A6",
"k.	c #CD887C",
"l.	c #C1C3D3",
"m.	c #FDFEFF",
"n.	c #FCFDFE",
"o.	c #FAFAFB",
"p.	c #EEF2FC",
"q.	c #E9EBF6",
"r.	c #E7EAF7",
"s.	c #F2F4FA",
"t.	c #454E8F",
"u.	c #3C447B",
"v.	c #6A474B",
"w.	c #FBDCAE",
"x.	c #E0B293",
"y.	c #BC8B91",
"z.	c #E9EBF4",
"A.	c #FFFFFF",
"B.	c #FEFEFE",
"C.	c #CBD0E6",
"D.	c #C9CBD6",
"E.	c #F4F6FC",
"F.	c #BB9278",
"G.	c #CE9B86",
"H.	c #8E92B6",
"I.	c #FCFCFD",
"J.	c #FEFFFF",
"K.	c #F4F6FB",
"L.	c #ABACC3",
"M.	c #BAC2E9",
"N.	c #998AA9",
"O.	c #B5BFDB",
"P.	c #F8FAFE",
"Q.	c #F7F9FE",
"R.	c #EAF0FD",
"S.	c #898EB8",
"T.	c #9CA6D6",
"U.	c #ECBA98",
"V.	c #8884A6",
"W.	c #9097C4",
"X.	c #DCE2F6",
"Y.	c #F5F7FD",
"Z.	c #D6DAEB",
"`.	c #EDF1FC",
" +	c #B6BFE2",
".+	c #ADB6DB",
"++	c #777EA9",
"@+	c #717EA9",
"#+	c #F6C29C",
"$+	c #CBAA8A",
"%+	c #8081AA",
"&+	c #8894C2",
"*+	c #BDC6E5",
"=+	c #A9B1E1",
"-+	c #D1D6EF",
";+	c #97A0CD",
">+	c #848AB7",
",+	c #7B84B1",
"'+	c #C1A786",
")+	c #7475A0",
"!+	c #777EA8",
"~+	c #BAC3E2",
"{+	c #9EA8D7",
"]+	c #E4E7F7",
"^+	c #FEFEFF",
"/+	c #B6BED6",
"(+	c #A7B0D6",
"_+	c #616287",
":+	c #F6C39D",
"<+	c #C1A787",
"[+	c #9A829A",
"}+	c #B68B8A",
"|+	c #ADB3CD",
"1+	c #8E96C3",
"2+	c #EBEFFA",
"3+	c #FAFAFC",
"4+	c #B7C1DB",
"5+	c #A2869D",
"6+	c #D38F80",
"7+	c #F9C49E",
"8+	c #BF8D7A",
"9+	c #D6DCF0",
"0+	c #D3D4E5",
"a+	c #D1D4E6",
"b+	c #CDCFDE",
"c+	c #C9CCDC",
"d+	c #BDC3DA",
"e+	c #888FBC",
"f+	c #BA817F",
"g+	c #F5A489",
"h+	c #F8B896",
"i+	c #F7B191",
"j+	c #C8887A",
"k+	c #EAEDF6",
"l+	c #D5D7E7",
"m+	c #C9C9D3",
"n+	c #A8A9C0",
"o+	c #CBBCB4",
"p+	c #C1AA99",
"q+	c #B97673",
"r+	c #E18E7F",
"s+	c #F1A087",
"t+	c #EFBB99",
"u+	c #A17A83",
"v+	c #AFA7B3",
"w+	c #E2C7A7",
"x+	c #FBDCAF",
"y+	c #C1957A",
"z+	c #C2756C",
"A+	c #E89782",
"B+	c #F9D3A7",
"C+	c #FED9AC",
"D+	c #FFDFB1",
"E+	c #FCD6AA",
"F+	c #E79883",
"G+	c #CCA889",
"H+	c #E7BA96",
"I+	c #C47E6D",
"J+	c #CF8373",
"K+	c #F9D7AB",
"L+	c #F1BF9B",
"M+	c #FBCDA4",
"N+	c #FCDBAD",
"O+	c #D78B7A",
"P+	c #B27467",
"Q+	c #F9D4A8",
"R+	c #FBDBAE",
"S+	c #A36B5E",
"T+	c #EA9F85",
"U+	c #D08775",
"V+	c #F6AE8F",
"W+	c #DEA188",
"X+	c #F4BF9A",
"Y+	c #A66B5E",
"Z+	c #AF6D62",
"`+	c #D89A7F",
" @	c #DE927C",
".@	c #CB8171",
"+@	c #BD7C6A",
"@@	c #DA917A",
"#@	c #BF7E6B",
"$@	c #EFA086",
"%@	c #F3A288",
"&@	c #FBD4A9",
"*@	c #F6C7A0",
"=@	c #F4A389",
"-@	c #E79782",
";@	c #DA8E7C",
">@	c #F9C29C",
",@	c #FEDDAF",
"'@	c #F4BF99",
")@	c #E79681",
"!@	c #F5A589",
"~@	c #F5A78B",
"{@	c #F1A187",
"]@	c #F4A388",
"^@	c #F0A086",
"                                                                                                                                ",
"                                                                                                                                ",
"                                                                                                                                ",
"                                                                                                                                ",
"                                                                                                                                ",
"                                                                                                                                ",
"                                                                                                                                ",
"                                                                                                                                ",
"                                                                                                                                ",
"                                                          . + @ @ @ #                                                           ",
"                                                        + @ @ @ @ $ % & *                                                       ",
"                                                      # @ @ @ @ = - ; > , ' '                                                   ",
"                                                      @ @ @ @ @ ) ! ~ = { + + ]                                                 ",
"                                                    ^ @ @ @ @ ^ / ( + = _ @ @ :                                                 ",
"                                                    < @ @ @ @ [ } | @ < { @ @ 1                                                 ",
"                                                    > @ @ @ 2 3 4 5 ; 6 7 # ~ 8                                                 ",
"                                                    9 = $ 0 a b c d ( e f g h                                                   ",
"                                                    5 i [ j k l m n o p q r                                                     ",
"                                                  s 5 5 t u v w 5 x y z A                                                       ",
"                                                  ( 5 5 B C D E ( x F G H                                                       ",
"                                                  5 5 [ I J K L M x N O P Q                                                     ",
"                                                R 5 5 S T U V W X s Y Z `  .                                                    ",
"                                                ( 5 [ a ..+.@.#.$.%.&.*.=.                                                      ",
"                                                5 5 S T -.;.>.,.'.).!.                                                          ",
"                                                5 [ a ~.{.].^./.(._.:.                                                          ",
"                                                5 S ..<.[.}.|.1.2.3.4.5.                                                        ",
"                                                [ a U 6.7.8.9.0.a.b.c.d.e.f.                                                    ",
"                                                s g.h.i.8.8.j.k.l.m.n.o.p.q.r.s.                                                ",
"                                                t.u.v.w.8.8.x.y.z.A.A.A.B.C.D.E.                                                ",
"                                                    F.9.8.9.G.H.I.A.A.J.J.K.L.M.                                                ",
"                                                      8.8.w.N.O.m.A.P.Q.R.s.S.T.                                                ",
"                                                    U.8.8.i.V.W.X.Y.Z.`. +.+++@+                                                ",
"                                                    #+8.8.$+%+&+*+=+-+Y.;+>+,+                                                  ",
"                                                    #+8.8.'+)+!+~+{+]+^+/+(+_+                                                  ",
"                                                    :+8.8.<+[+}+|+1+2+3+4+5+6+                                                  ",
"                                                    7+8. .8+9+0+a+b+c+d+e+f+g+                                                  ",
"                                                    h+*.i+j+k+E.l+m+n+o+p+q+r+s+                                                ",
"                                                     .9.7.t+u+v+w+}.x+8.9.y+z+A+                                                ",
"                                                  B+C+8.D+E+F+G+8.8.8.8.8.H+I+J+                                                ",
"                                                  K+L+7.M+N+O+P+Q+8.8.8.8.R+S+                                                  ",
"                                                  T+U+V+W+X+Y+Z+`+ .8.8.8.9.                                                    ",
"                                                       @.@+@@@       .8.8.8.                                                    ",
"                                                        #@$@%@        &@9.8.*@                                                  ",
"                                                      =@g+g+-@        ;@>@,@'@                                                  ",
"                                                    )@g+g+g+        $@g+!@~@                                                    ",
"                                                    {@g+g+%@        ]@g+g+%@                                                    ",
"                                                    )@g+g+-@        %@g+g+-@                                                    ",
"                                                      g+g+          {@g+g+                                                      ",
"                                                      g+g+          )@g+g+                                                      ",
"                                                      g+g+=@          g+g+                                                      ",
"                                                        )@{@          %@g+=@                                                    ",
"                                                                          ^@                                                    ",
"                                                                                                                                ",
"                                                                                                                                ",
"                                                                                                                                ",
"                                                                                                                                ",
"                                                                                                                                ",
"                                                                                                                                ",
"                                                                                                                                ",
"                                                                                                                                ",
"                                                                                                                                ",
"                                                                                                                                ",
"                                                                                                                                ",
"                                                                                                                                "};
