/* XPM */
static char * r3_xpm[] = {
"64 64 297 2",
"  	c #AADA50",
". 	c #5B68BF",
"+ 	c #5F6DC7",
"@ 	c #616FCA",
"# 	c #616FCB",
"$ 	c #606EC9",
"% 	c #5561B1",
"& 	c #5D6AC3",
"* 	c #5966BA",
"= 	c #5865B9",
"- 	c #4F5AA4",
"; 	c #465093",
"> 	c #464F91",
", 	c #5763B6",
"' 	c #5B69BF",
") 	c #5A67BC",
"! 	c #606DC8",
"~ 	c #4A559B",
"{ 	c #5F6DC8",
"] 	c #4A549A",
"^ 	c #4E59A3",
"/ 	c #606EC8",
"( 	c #606ECA",
"_ 	c #5864B7",
": 	c #5663B5",
"< 	c #4B559C",
"[ 	c #535FAD",
"} 	c #5965B9",
"| 	c #495398",
"1 	c #434C8B",
"2 	c #535FAE",
"3 	c #4A5399",
"4 	c #5460B0",
"5 	c #505BA6",
"6 	c #3D447C",
"7 	c #404883",
"8 	c #5460AF",
"9 	c #2F335B",
"0 	c #505BA7",
"a 	c #4B5296",
"b 	c #373762",
"c 	c #3D447D",
"d 	c #424B88",
"e 	c #353B6A",
"f 	c #48497D",
"g 	c #8F6F70",
"h 	c #B88D75",
"i 	c #8F7486",
"j 	c #3E457E",
"k 	c #4D58A2",
"l 	c #4F5AA5",
"m 	c #4C5499",
"n 	c #A4746A",
"o 	c #C4A183",
"p 	c #4C4D7F",
"q 	c #4C57A0",
"r 	c #A07068",
"s 	c #B37864",
"t 	c #CD8E77",
"u 	c #3F457E",
"v 	c #C0A182",
"w 	c #EAA58A",
"x 	c #504B7F",
"y 	c #494C89",
"z 	c #77454C",
"A 	c #564C58",
"B 	c #4A3733",
"C 	c #40457C",
"D 	c #9D6860",
"E 	c #E8A58A",
"F 	c #585180",
"G 	c #525081",
"H 	c #E0A98F",
"I 	c #BEBAC5",
"J 	c #D6B3AC",
"K 	c #ECB695",
"L 	c #465092",
"M 	c #3C447C",
"N 	c #5D4266",
"O 	c #D5977D",
"P 	c #B69688",
"Q 	c #4E58A2",
"R 	c #535482",
"S 	c #FAD9AC",
"T 	c #DEAFB6",
"U 	c #E1C0BD",
"V 	c #FEDDAF",
"W 	c #3D467F",
"X 	c #3A4278",
"Y 	c #4A2E3C",
"Z 	c #9A575A",
"` 	c #4F4D88",
" .	c #535380",
"..	c #FADBAD",
"+.	c #FDDCAE",
"@.	c #F5C09A",
"#.	c #3B4379",
"$.	c #393053",
"%.	c #854851",
"&.	c #C76F72",
"*.	c #B06368",
"=.	c #6C3F49",
"-.	c #E8A78B",
";.	c #F6BD97",
">.	c #E0A386",
",.	c #4D58A1",
"'.	c #373D6F",
").	c #4E5577",
"!.	c #7279A2",
"~.	c #8586B1",
"{.	c #A996AE",
"].	c #B56B77",
"^.	c #C87071",
"/.	c #A0565A",
"(.	c #475093",
"_.	c #3C4379",
":.	c #8E6667",
"<.	c #C6B4AC",
"[.	c #C8B7B0",
"}.	c #C4ADAC",
"|.	c #A9ACC0",
"1.	c #B8B8D2",
"2.	c #C27F81",
"3.	c #DFA48B",
"4.	c #424B89",
"5.	c #483D63",
"6.	c #E4B794",
"7.	c #FFE0B1",
"8.	c #FCD6AA",
"9.	c #C3A29D",
"0.	c #ECF0FA",
"a.	c #D3D8E8",
"b.	c #98849E",
"c.	c #AB9B95",
"d.	c #B4BBD2",
"e.	c #E1E4F3",
"f.	c #3D457D",
"g.	c #6C4D5C",
"h.	c #FBDBAD",
"i.	c #FFDFB1",
"j.	c #E8AD91",
"k.	c #BF9496",
"l.	c #F3F6FB",
"m.	c #FEFEFF",
"n.	c #FBFBFC",
"o.	c #EEF2FB",
"p.	c #E5E9F7",
"q.	c #F3F5FC",
"r.	c #E7EBF8",
"s.	c #F2F4F9",
"t.	c #BB927A",
"u.	c #FFDFB0",
"v.	c #FCDCAE",
"w.	c #B97B78",
"x.	c #AEAFC1",
"y.	c #FDFDFE",
"z.	c #FFFFFF",
"A.	c #EFF3FD",
"B.	c #B9C2E3",
"C.	c #F4F6FC",
"D.	c #F3F5FB",
"E.	c #41447A",
"F.	c #CAA98A",
"G.	c #E5B996",
"H.	c #8B7FA2",
"I.	c #E0E4F4",
"J.	c #FEFFFF",
"K.	c #EDEEF8",
"L.	c #F0F4FD",
"M.	c #C3CCE8",
"N.	c #A7B1D5",
"O.	c #D5D8EE",
"P.	c #ADB7D9",
"Q.	c #F5C8A0",
"R.	c #C2A687",
"S.	c #707BA5",
"T.	c #A9B1E0",
"U.	c #E4E8F7",
"V.	c #B4BDE1",
"W.	c #EBEFFA",
"X.	c #9AA4D0",
"Y.	c #919CCC",
"Z.	c #A3ABDE",
"`.	c #9BA5D5",
" +	c #FDDDAF",
".+	c #ABB6D7",
"++	c #A4ADD9",
"@+	c #8D99C5",
"#+	c #EAEFFA",
"$+	c #A0A9D7",
"%+	c #98A1D3",
"&+	c #8C99C5",
"*+	c #8D97C6",
"=+	c #FCDCAF",
"-+	c #987D90",
";+	c #E3EAF9",
">+	c #FAFBFC",
",+	c #8C98C2",
"'+	c #8E9AC3",
")+	c #DFE3F3",
"!+	c #7B8AB4",
"~+	c #8187B5",
"{+	c #8A98C3",
"]+	c #8180A7",
"^+	c #FFDEAF",
"/+	c #E5BA98",
"(+	c #8E8CB4",
"_+	c #967992",
":+	c #BCC5E2",
"<+	c #D9DFF3",
"[+	c #7881A9",
"}+	c #B4BED8",
"|+	c #C3C7D9",
"1+	c #5C6493",
"2+	c #D99994",
"3+	c #EC9A84",
"4+	c #E28E7F",
"5+	c #E4937F",
"6+	c #FFDEB0",
"7+	c #C4A98B",
"8+	c #A1AAD0",
"9+	c #CCD2EC",
"0+	c #CBCFDF",
"a+	c #ADB7D7",
"b+	c #A291AD",
"c+	c #8F91B7",
"d+	c #72799E",
"e+	c #56557A",
"f+	c #ED9E85",
"g+	c #F1A187",
"h+	c #E0917D",
"i+	c #E89A83",
"j+	c #AE8793",
"k+	c #BCC2D9",
"l+	c #FCFCFE",
"m+	c #FBFCFD",
"n+	c #CACCD9",
"o+	c #C3C1C9",
"p+	c #BBBECF",
"q+	c #BAC2DE",
"r+	c #F3A388",
"s+	c #FAC49D",
"t+	c #DFAF8D",
"u+	c #847FA3",
"v+	c #9EA6C8",
"w+	c #AEB5D4",
"x+	c #B5ACB8",
"y+	c #CAB6A8",
"z+	c #F9DBB0",
"A+	c #FBDCAF",
"B+	c #FBDCB0",
"C+	c #E1C7A6",
"D+	c #FAC29C",
"E+	c #FBDAAD",
"F+	c #A1716F",
"G+	c #676082",
"H+	c #F5D1A9",
"I+	c #FDDEB0",
"J+	c #F6C8A0",
"K+	c #F3AA8D",
"L+	c #FBCDA4",
"M+	c #C7A886",
"N+	c #D38C77",
"O+	c #DDA687",
"P+	c #FDD7AA",
"Q+	c #F5A589",
"R+	c #F0B796",
"S+	c #DBA288",
"T+	c #E4AD8D",
"U+	c #DA917A",
"V+	c #CB8F78",
"W+	c #F9D0A5",
"X+	c #E1937D",
"Y+	c #EFB897",
"Z+	c #986256",
"`+	c #BF7F6C",
" @	c #F5A489",
".@	c #EF9F86",
"+@	c #F8CFA5",
"@@	c #F9D4A8",
"#@	c #F9C9A1",
"$@	c #FBD5A9",
"%@	c #F4A389",
"&@	c #F3A288",
"*@	c #E79882",
"=@	c #F9BC98",
"-@	c #FAC49E",
";@	c #F6AE8F",
">@	c #E79782",
",@	c #F0A086",
"'@	c #E89782",
")@	c #F2A187",
"!@	c #D48677",
"~@	c #E69681",
"{@	c #ED9E84",
"]@	c #EFA086",
"^@	c #E3947F",
"                                                                                                                                ",
"                                                                                                                                ",
"                                                                                                                                ",
"                                                                                                                                ",
"                                                                                                                                ",
"                                                                                                                                ",
"                                                                                                                                ",
"                                                                                                                                ",
"                                                                                                                                ",
"                                                            . + + +                                                             ",
"                                                        . @ # # # # $ %                                                         ",
"                                                      . # # # # # & * = - ; >                                                   ",
"                                                      @ # # # # , ' ) ! ~ { !                                                   ",
"                                                    . # # # # $ ] ^ / ( = # # _                                                 ",
"                                                    + # # # # : < % # $ [ # # }                                                 ",
"                                                    ! # # # $ | 1 2 ( ' 3 @ ( 4                                                 ",
"                                                    } # # ( 5 6 7 ^ 8 ] 9 . } ]                                                 ",
"                                                    0 = = a b c d e f g h i j                                                   ",
"                                                  k l l m n o p l q r s t                                                       ",
"                                                  - l l u v w x l y z A B                                                       ",
"                                                  l l ^ C D E F l G H I J K                                                     ",
"                                                k l l L M N O P Q R S T U V                                                     ",
"                                                - l ^ W M X Y Z `  ...V +.@.                                                    ",
"                                                l l L M #.$.%.&.*.=.-.;.>.                                                      ",
"                                              ,.l ^ W '.).!.~.{.].^./.                                                          ",
"                                              ,.l (._.:.<.[.}.|.1.2.3.                                                          ",
"                                                - 4.5.6.7.7.8.9.0.a.b.c.d.e.                                                    ",
"                                                ^ f.g.h.7.i.j.k.l.m.n.o.p.q.r.s.                                                ",
"                                                  6 t.u.7.v.w.x.y.z.z.m.A.B.C.D.                                                ",
"                                                  E.F.7.7.G.H.I.J.z.K.L.M.N.O.P.                                                ",
"                                                    Q.7.7.R.S.T.A.U.V.W.X.Y.Z.`.                                                ",
"                                                    ..7. +    .+q.++@+#+$+%+&+*+                                                ",
"                                                    =+7.h.  -+;+>+,+'+)+!+~+{+]+                                                ",
"                                                    ^+7./+(+_+:+<+[+}+|+1+    2+3+4+5+                                          ",
"                                                    6+7.7+8+9+0+a+b+c+d+e+    f+g+g+h+                                          ",
"                                                  i+V 8.j+k+l+m+e.n+o+p+q+                                                      ",
"                                                  r+s+t+u+v+w+x+y+z+A+B+C+                                                      ",
"                                                  D+^+E+F+G+H+I+7.7.7.7.7.J+                                                    ",
"                                                K+V 6+L+M+N+O+P+7.7.7.7.7. +                                                    ",
"                                                Q+R+E+S+T+U+U+V+W+7.7.7.7.i.                                                    ",
"                                                X+Y+  Z+`+U+ @.@  +@7.7.7.7.                                                    ",
"                                                        g+ @ @g+    +@7.7.7.@@                                                  ",
"                                                      g+ @ @ @        #@u.7.$@                                                  ",
"                                                      %@ @ @&@        *@=@-@;@                                                  ",
"                                                     @ @ @ @             @ @ @                                                  ",
"                                                     @ @ @              %@ @ @>@                                                ",
"                                                  ,@ @ @                '@ @ @g+                                                ",
"                                                  &@%@                    %@ @)@                                                ",
"                                                !@ @                         @%@                                                ",
"                                                ~@ @                        &@ @'@                                              ",
"                                                  g+{@                      ]@ @%@                                              ",
"                                                                                >@^@                                            ",
"                                                                                                                                ",
"                                                                                                                                ",
"                                                                                                                                ",
"                                                                                                                                ",
"                                                                                                                                ",
"                                                                                                                                ",
"                                                                                                                                ",
"                                                                                                                                ",
"                                                                                                                                ",
"                                                                                                                                ",
"                                                                                                                                ",
"                                                                                                                                "};
