/* XPM */
static char * r4_xpm[] = {
"64 64 275 2",
"  	c #AADA50",
". 	c #5B68BF",
"+ 	c #5F6DC7",
"@ 	c #616FCA",
"# 	c #616FCB",
"$ 	c #606EC9",
"% 	c #5561B1",
"& 	c #5D6AC3",
"* 	c #5966BA",
"= 	c #5865B9",
"- 	c #4F5AA4",
"; 	c #465092",
"> 	c #5763B6",
", 	c #5C69C0",
"' 	c #5A67BC",
") 	c #5F6DC8",
"! 	c #4A559B",
"~ 	c #4B559C",
"{ 	c #5561B2",
"] 	c #606EC8",
"^ 	c #606ECA",
"/ 	c #5662B4",
"( 	c #535FAE",
"_ 	c #495499",
": 	c #535FAD",
"< 	c #5764B7",
"[ 	c #454E8F",
"} 	c #474F92",
"| 	c #5B69BF",
"1 	c #4A5499",
"2 	c #5965B9",
"3 	c #505CA8",
"4 	c #343A68",
"5 	c #4D57A0",
"6 	c #444D8E",
"7 	c #5460B0",
"8 	c #4F59A4",
"9 	c #34355D",
"0 	c #505BA7",
"a 	c #4B5296",
"b 	c #383865",
"c 	c #333763",
"d 	c #3E4680",
"e 	c #515DAA",
"f 	c #4E59A2",
"g 	c #545289",
"h 	c #BC8C75",
"i 	c #57558A",
"j 	c #4A549A",
"k 	c #4F5AA5",
"l 	c #4C5499",
"m 	c #A4746A",
"n 	c #C5A183",
"o 	c #62414D",
"p 	c #495397",
"q 	c #3E457F",
"r 	c #694051",
"s 	c #83564D",
"t 	c #CD8E77",
"u 	c #40467F",
"v 	c #C0A182",
"w 	c #EFA98D",
"x 	c #BA917C",
"y 	c #4E58A2",
"z 	c #3E2C3F",
"A 	c #564C58",
"B 	c #4A3733",
"C 	c #4D58A1",
"D 	c #484F90",
"E 	c #9D6860",
"F 	c #EDA98D",
"G 	c #F2BD99",
"H 	c #56558B",
"I 	c #9A6E6B",
"J 	c #BEBAC5",
"K 	c #D6B3AC",
"L 	c #ECB695",
"M 	c #4E59A3",
"N 	c #3D467F",
"O 	c #5D4266",
"P 	c #D6977D",
"Q 	c #E2B794",
"R 	c #524E7F",
"S 	c #BCA387",
"T 	c #DEAFB6",
"U 	c #E1C0BD",
"V 	c #FEDDAF",
"W 	c #475093",
"X 	c #3C447C",
"Y 	c #3A4278",
"Z 	c #4A2E3C",
"` 	c #9E585A",
" .	c #764962",
"..	c #BDA588",
"+.	c #FDDCAE",
"@.	c #F5C09A",
"#.	c #424B89",
"$.	c #3B437A",
"%.	c #393052",
"&.	c #854851",
"*.	c #C76F72",
"=.	c #B06368",
"-.	c #50477B",
";.	c #B68572",
">.	c #F6BD97",
",.	c #E0A386",
"'.	c #3D457D",
").	c #3D406E",
"!.	c #67678D",
"~.	c #8384B0",
"{.	c #9880A4",
"].	c #A3697A",
"^.	c #C36D71",
"/.	c #9D5864",
"(.	c #3B3E6B",
"_.	c #656584",
":.	c #A49BA4",
"<.	c #C6B5B0",
"[.	c #9DA2BD",
"}.	c #C8CCDF",
"|.	c #9E839E",
"1.	c #D28B7F",
"2.	c #4E3D45",
"3.	c #F6D8AC",
"4.	c #FDDEB0",
"5.	c #FFDFB0",
"6.	c #F4C5A0",
"7.	c #AA97A4",
"8.	c #E8ECF7",
"9.	c #BEB2B4",
"0.	c #C29985",
"a.	c #A997A8",
"b.	c #6A484B",
"c.	c #FBDCAE",
"d.	c #FFE0B1",
"e.	c #DC8C7F",
"f.	c #C19D9B",
"g.	c #FAFAFC",
"h.	c #FAFBFC",
"i.	c #CACAD4",
"j.	c #C8C9D3",
"k.	c #E9EBF6",
"l.	c #D9DFF2",
"m.	c #373C6D",
"n.	c #BA9278",
"o.	c #FCDCAE",
"p.	c #B87978",
"q.	c #AFB0C2",
"r.	c #FDFDFE",
"s.	c #FFFFFF",
"t.	c #FCFDFE",
"u.	c #DDE2F5",
"v.	c #D3D7E9",
"w.	c #CED3ED",
"x.	c #CAA989",
"y.	c #E5B995",
"z.	c #8E809D",
"A.	c #F3F5FB",
"B.	c #FEFEFF",
"C.	c #DFE4F6",
"D.	c #B5BBD7",
"E.	c #B7BED8",
"F.	c #CBD1EC",
"G.	c #F7CFA5",
"H.	c #C2A788",
"I.	c #7E85AE",
"J.	c #DAE0F4",
"K.	c #FEFFFF",
"L.	c #FDFEFF",
"M.	c #F7F9FD",
"N.	c #AAB1CD",
"O.	c #8F9ACA",
"P.	c #FADCAE",
"Q.	c #FDDDAF",
"R.	c #B08B96",
"S.	c #909ACA",
"T.	c #B0B9DE",
"U.	c #FBFCFE",
"V.	c #DDE3F7",
"W.	c #E0E5F8",
"X.	c #FCFCFE",
"Y.	c #B6BFE6",
"Z.	c #7A82AD",
"`.	c #817F9C",
" +	c #A7AFDF",
".+	c #D6DDEE",
"++	c #E6EDFB",
"@+	c #A0AAD3",
"#+	c #F4F6FC",
"$+	c #D7DDED",
"%+	c #8591C0",
"&+	c #97A1D0",
"*+	c #5E5165",
"=+	c #B9BED0",
"-+	c #F9FAFD",
";+	c #C3CBE7",
">+	c #BEC7E4",
",+	c #F4F7FD",
"'+	c #68729A",
")+	c #848EBA",
"!+	c #FADBAD",
"~+	c #8885A6",
"{+	c #7F88B5",
"]+	c #868FB8",
"^+	c #959FBF",
"/+	c #AAB0C8",
"(+	c #969AB4",
"_+	c #8F6F82",
":+	c #906877",
"<+	c #CD8780",
"[+	c #E6BB99",
"}+	c #BCBFD6",
"|+	c #DDE2F3",
"1+	c #C4C8D8",
"2+	c #CBCFE1",
"3+	c #D1D3E8",
"4+	c #C3C7D7",
"5+	c #ADB4D9",
"6+	c #A47889",
"7+	c #F2A287",
"8+	c #E49180",
"9+	c #FFDEB0",
"0+	c #C5AB8D",
"a+	c #BAC1DE",
"b+	c #B6AEB9",
"c+	c #CAB7A8",
"d+	c #C7B19C",
"e+	c #B1A9B5",
"f+	c #686485",
"g+	c #C1756D",
"h+	c #F0A086",
"i+	c #C2756C",
"j+	c #EBB192",
"k+	c #FFDFB1",
"l+	c #C4A887",
"m+	c #DCBB9D",
"n+	c #BFA484",
"o+	c #C0736B",
"p+	c #F8C39D",
"q+	c #C29D7E",
"r+	c #DBA687",
"s+	c #DB8B7A",
"t+	c #EEA48A",
"u+	c #FCD6AA",
"v+	c #BB776B",
"w+	c #AE6D62",
"x+	c #F8CFA5",
"y+	c #EF9F86",
"z+	c #DB8B7B",
"A+	c #F3AB8D",
"B+	c #EDB293",
"C+	c #A35C5B",
"D+	c #DB8E7A",
"E+	c #CE9B80",
"F+	c #F6C8A0",
"G+	c #CD8272",
"H+	c #E0927D",
"I+	c #D99079",
"J+	c #F5A489",
"K+	c #CA8572",
"L+	c #FBDBAD",
"M+	c #E99883",
"N+	c #CB997F",
"O+	c #EFA086",
"P+	c #F7C8A0",
"Q+	c #F3A288",
"R+	c #F1A187",
"S+	c #F1A388",
"T+	c #F9BC98",
"U+	c #FAC59F",
"V+	c #E89983",
"W+	c #EA9883",
"X+	c #F4A389",
"Y+	c #E79781",
"Z+	c #F2A187",
"                                                                                                                                ",
"                                                                                                                                ",
"                                                                                                                                ",
"                                                                                                                                ",
"                                                                                                                                ",
"                                                                                                                                ",
"                                                                                                                                ",
"                                                                                                                                ",
"                                                                                                                                ",
"                                                            . + + +                                                             ",
"                                                        . @ # # # # $ %                                                         ",
"                                                      . # # # # # & * = - ;                                                     ",
"                                                      @ # # # # > , ' ) ! ) +                                                   ",
"                                                    . # # # # $ ~ { ] ^ = # #                                                   ",
"                                                    + # # # # / ( _ $ $ : # # <                                                 ",
"                                                    ] # # # ^ [ { } ^ | 1 @ ^ (                                                 ",
"                                                    2 # # ^ 3 4 5 6 7 8 9 . 2                                                   ",
"                                                    0 = = a b c d e f g h i j                                                   ",
"                                                    k k l m n o p q r s t                                                       ",
"                                                    k k u v w x y y z A B                                                       ",
"                                                  C k k D E F G H y I J K L                                                     ",
"                                                  M k M N O P Q R y S T U V                                                     ",
"                                                  k k W X Y Z `  .5 ..V +.@.                                                    ",
"                                                  k - #.$.%.&.*.=.-.;.>.,.                                                      ",
"                                                  k M '.).!.~.{.].^./.                                                          ",
"                                                y k ; (._.:.<.[.}.|.1.                                                          ",
"                                                - M '.2.3.4.5.6.7.8.9.0.a.                                                      ",
"                                                k W $.b.c.d.V e.f.g.h.i.j.k.l.                                                  ",
"                                                k   m.n.5.d.o.p.q.r.s.s.t.u.v.w.                                                ",
"                                                y     x.d.d.y.z.A.s.s.B.C.D.E.F.                                                ",
"                                                      G.d.d.H.I.J.B.K.L.M.N.O.                                                  ",
"                                                      P.d.Q.R.S.T.U.V.W.X.Y.Z.                                                  ",
"                                                      P.d.c.`. +.+++@+#+$+%+&+                                                  ",
"                                                      P.d.c.*+=+-+;+>+,+E.'+)+                                                  ",
"                                                      c.d.!+~+{+]+^+/+(+_+:+<+                                                  ",
"                                                      V d.[+}+|+1+2+3+4+5+6+7+8+                                                ",
"                                                      9+d.0+a+b+c+d+d+c+e+f+g+h+i+                                              ",
"                                                    j+k+d.l+m+4.d.d.d.d.4.n+  o+                                                ",
"                                                    p+d.k+q+r+5.d.d.d.d.d.                                                      ",
"                                                  s+t+u+Q.v+w+x+d.d.d.d.d.                                                      ",
"                                                  y+z+A+B+C+D+E+5.d.d.d.d.F+                                                    ",
"                                                      G+H+I+J+K+x+d.d.d.d.L+                                                    ",
"                                                        M+J+J+y+N+9+d.d.d.L+                                                    ",
"                                                      O+J+J+J+    P+k+d.k+P+                                                    ",
"                                                      Q+J+J+R+    S+T+U+T+V+                                                    ",
"                                                      J+J+R+      h+J+J+J+                                                      ",
"                                                    W+J+R+          J+J+J+                                                      ",
"                                                  R+J+R+            X+J+J+                                                      ",
"                                                  X+R+              R+J+J+                                                      ",
"                                                                    Y+J+J+                                                      ",
"                                                                      J+J+                                                      ",
"                                                                      R+X+Z+                                                    ",
"                                                                                                                                ",
"                                                                                                                                ",
"                                                                                                                                ",
"                                                                                                                                ",
"                                                                                                                                ",
"                                                                                                                                ",
"                                                                                                                                ",
"                                                                                                                                ",
"                                                                                                                                ",
"                                                                                                                                ",
"                                                                                                                                ",
"                                                                                                                                "};
