/* XPM */
static char * r5_xpm[] = {
"64 64 263 2",
"  	c #AADA50",
". 	c #5C69BF",
"+ 	c #616FCA",
"@ 	c #616FCB",
"# 	c #606EC8",
"$ 	c #606ECA",
"% 	c #5A66BB",
"& 	c #515DAA",
"* 	c #3E4680",
"= 	c #606EC9",
"- 	c #5A67BC",
"; 	c #5C69C0",
"> 	c #5C6AC2",
", 	c #505CA8",
"' 	c #5764B6",
") 	c #535FAE",
"! 	c #505BA6",
"~ 	c #5B68BE",
"{ 	c #5D6AC2",
"] 	c #525DAB",
"^ 	c #5F6DC7",
"/ 	c #4B559C",
"( 	c #4E59A3",
"_ 	c #5662B4",
": 	c #606DC8",
"< 	c #4C569D",
"[ 	c #5662B3",
"} 	c #4A549B",
"| 	c #5F6DC8",
"1 	c #5763B6",
"2 	c #3B4278",
"3 	c #515CA9",
"4 	c #474F92",
"5 	c #545FAF",
"6 	c #3C4279",
"7 	c #5460B0",
"8 	c #5B68BF",
"9 	c #434C8A",
"0 	c #333866",
"a 	c #464F91",
"b 	c #4F5AA5",
"c 	c #4F5BA6",
"d 	c #4E58A0",
"e 	c #5D444D",
"f 	c #525BA6",
"g 	c #505BA7",
"h 	c #4F5AA4",
"i 	c #5E4261",
"j 	c #65444B",
"k 	c #373254",
"l 	c #3E457F",
"m 	c #4A549A",
"n 	c #414986",
"o 	c #88616A",
"p 	c #EDAF8E",
"q 	c #91747B",
"r 	c #464B89",
"s 	c #C49A7F",
"t 	c #EDB897",
"u 	c #996762",
"v 	c #4C579F",
"w 	c #222139",
"x 	c #2D1E1F",
"y 	c #7B4B45",
"z 	c #454A88",
"A 	c #C2937A",
"B 	c #F6B392",
"C 	c #DCB694",
"D 	c #53589A",
"E 	c #4E58A2",
"F 	c #654553",
"G 	c #9D97A2",
"H 	c #B19791",
"I 	c #6C475A",
"J 	c #E9A68A",
"K 	c #F4C49D",
"L 	c #535282",
"M 	c #B7927F",
"N 	c #C2B1C9",
"O 	c #C4A7B5",
"P 	c #FCD4A9",
"Q 	c #4E59A4",
"R 	c #3D467F",
"S 	c #3C3E6F",
"T 	c #906157",
"U 	c #A67565",
"V 	c #735179",
"W 	c #4D58A1",
"X 	c #BDA589",
"Y 	c #F9CBA6",
"Z 	c #FBD7AD",
"` 	c #FDD6AA",
" .	c #4A559B",
"..	c #3C457D",
"+.	c #3B4279",
"@.	c #4B2C3C",
"#.	c #C36C6E",
"$.	c #7E4855",
"%.	c #BB9A81",
"&.	c #FCD0A6",
"*.	c #EBC09A",
"=.	c #465092",
"-.	c #3B437A",
";.	c #373154",
">.	c #7A516A",
",.	c #B46975",
"'.	c #C66E71",
").	c #985660",
"!.	c #A86962",
"~.	c #C6917A",
"{.	c #4D58A2",
"].	c #3E4270",
"^.	c #656E94",
"/.	c #9096C3",
"(.	c #8286B0",
"_.	c #977999",
":.	c #C76F72",
"<.	c #B56A73",
"[.	c #3C447C",
"}.	c #605E7D",
"|.	c #C3A89E",
"1.	c #F9DBB0",
"2.	c #E1C7A7",
"3.	c #C8C8D6",
"4.	c #8F7D9A",
"5.	c #EABA99",
"6.	c #C6A58A",
"7.	c #4B569D",
"8.	c #343764",
"9.	c #BB9B84",
"0.	c #FFDFB0",
"a.	c #FFE0B1",
"b.	c #C6AAA1",
"c.	c #C1C7E0",
"d.	c #AA99A6",
"e.	c #B58F95",
"f.	c #C7C8D4",
"g.	c #FAFBFC",
"h.	c #475194",
"i.	c #454F91",
"j.	c #323560",
"k.	c #C0A684",
"l.	c #FEDDAF",
"m.	c #D5867E",
"n.	c #B4B8CF",
"o.	c #F4F6FC",
"p.	c #FAFAFC",
"q.	c #E7EAF7",
"r.	c #F4F6FD",
"s.	c #FCDDAF",
"t.	c #D3897B",
"u.	c #C8C6D1",
"v.	c #FFFFFF",
"w.	c #FEFFFF",
"x.	c #E6E9F7",
"y.	c #D5D8E9",
"z.	c #D1D4E6",
"A.	c #FCDCAE",
"B.	c #8C6B80",
"C.	c #DCE0EC",
"D.	c #D1D5E2",
"E.	c #B4BCE4",
"F.	c #C0A685",
"G.	c #FCDBAE",
"H.	c #9A85A2",
"I.	c #D0D5EF",
"J.	c #FEFEFF",
"K.	c #F9F9FB",
"L.	c #71789E",
"M.	c #E5B895",
"N.	c #8985AA",
"O.	c #ABB3E3",
"P.	c #F5F7FD",
"Q.	c #F7F9FE",
"R.	c #D3D7E9",
"S.	c #C3A98B",
"T.	c #99A2D2",
"U.	c #9FA9D9",
"V.	c #E5E9F7",
"W.	c #F6F8FD",
"X.	c #D9DCF0",
"Y.	c #D7DEEF",
"Z.	c #C3CBEC",
"`.	c #C3A88B",
" +	c #A3ABDD",
".+	c #B5BEE1",
"++	c #F9FAFC",
"@+	c #B4BDE0",
"#+	c #A3ABDE",
"$+	c #B2BDDA",
"%+	c #FDDDAF",
"&+	c #C6907C",
"*+	c #A1A6D3",
"=+	c #EBF0FB",
"-+	c #EEF2FC",
";+	c #7F8DB8",
">+	c #6F729D",
",+	c #97A0CF",
"'+	c #F4C29C",
")+	c #FBDCAE",
"!+	c #A4918A",
"~+	c #B3AFC2",
"{+	c #AFB9D9",
"]+	c #BCC6DF",
"^+	c #8890BE",
"/+	c #F8C9A1",
"(+	c #918C97",
"_+	c #C1C0C7",
":+	c #C2C0C7",
"<+	c #B7B8C6",
"[+	c #8183AD",
"}+	c #C3A987",
"|+	c #FBDCAF",
"1+	c #F6D8AC",
"2+	c #A1656C",
"3+	c #E2AD8D",
"4+	c #FFDFB1",
"5+	c #B99179",
"6+	c #FDDEAF",
"7+	c #F7CFA5",
"8+	c #A66160",
"9+	c #D48677",
"0+	c #F5B896",
"a+	c #F4CDA5",
"b+	c #FEDEB0",
"c+	c #F2C29E",
"d+	c #BE826E",
"e+	c #FADCAE",
"f+	c #CFAB8B",
"g+	c #E59581",
"h+	c #E49480",
"i+	c #E2947E",
"j+	c #EDAC8F",
"k+	c #E6A68D",
"l+	c #D68778",
"m+	c #C3977C",
"n+	c #C3977B",
"o+	c #F1A187",
"p+	c #CA8070",
"q+	c #DC907B",
"r+	c #C69A7D",
"s+	c #BD796C",
"t+	c #F4A389",
"u+	c #F8D9AC",
"v+	c #F7CEA5",
"w+	c #C1816D",
"x+	c #F5A489",
"y+	c #F7C8A0",
"z+	c #CB8F78",
"A+	c #E79681",
"B+	c #F0A086",
"C+	c #F4A58A",
"D+	c #F8BC98",
"E+	c #F6AE8F",
"F+	c #BD7C6A",
"G+	c #F2A187",
"H+	c #F3A288",
"I+	c #B37065",
"J+	c #C6806F",
"K+	c #EFA086",
"L+	c #BE7D6B",
"M+	c #E99883",
"N+	c #ED9E85",
"                                                                                                                                ",
"                                                                                                                                ",
"                                                                                                                                ",
"                                                                                                                                ",
"                                                                                                                                ",
"                                                                                                                                ",
"                                                                                                                                ",
"                                                                                                                                ",
"                                                                                                                                ",
"                                                          . + @ @ @ #                                                           ",
"                                                        + @ @ @ @ $ % & *                                                       ",
"                                                      # @ @ @ @ = - ; > , ' )                                                   ",
"                                                      @ @ @ @ @ ! ~ { = ] + +                                                   ",
"                                                    ^ @ @ @ @ ^ / ( = = _ @ @ '                                                 ",
"                                                    : @ @ @ @ < [ } + | ] @ @ 1                                                 ",
"                                                    { @ @ @ ; 2 3 4 # 5 6 # { (                                                 ",
"                                                    7 = $ 8 9 0 a b c d e f 5                                                   ",
"                                                    b g h i j k l m n o p q                                                     ",
"                                                    b b r s t u v l w x y                                                       ",
"                                                    b b z A B C D E F G H                                                       ",
"                                                  E b b a I J K L E M N O P                                                     ",
"                                                  h b Q R S T U V W X Y Z `                                                     ",
"                                                  b b  ...+.@.#.$.< %.&.*.                                                      ",
"                                                  b b =.-.;.>.,.'.).!.~.                                                        ",
"                                                {.b Q R ].^./.(._.:.<.                                                          ",
"                                                E b Q [.}.|.1.2.3.4.5.6.                                                        ",
"                                                E 7.} 8.9.0.a.0.b.c.d.e.f.g.                                                    ",
"                                                {.h.i.j.k.a.a.l.m.n.o.p.q.r.q.                                                  ",
"                                                  h.i.j.k.a.a.s.t.u.v.v.w.x.y.z.                                                ",
"                                                      j.k.a.a.A.B.C.v.v.v.v.D.E.                                                ",
"                                                        F.a.a.G.H.I.J.v.v.v.K.L.                                                ",
"                                                          a.a.M.N.O.P.v.v.Q.R.                                                  ",
"                                                          a.a.S.T.U.V.W.X.Y.Z.                                                  ",
"                                                          a.a.`. +.+++@+#+$+                                                    ",
"                                                          a.%+&+*+=+-+;+>+,+                                                    ",
"                                                        '+a.)+!+~+{+]+^+                                                        ",
"                                                        /+a.)+(+_+:+<+[+                                                        ",
"                                                        l.a.)+}+|+|+1+2+                                                        ",
"                                                      3+4+a.A.5+6+a.7+8+                                                        ",
"                                                    9+0+a+b+c+d+e+a.f+g+                                                        ",
"                                                    h+i+j+k+l+m+6+0.n+o+                                                        ",
"                                                        p+q+r+)+a.)+s+t+                                                        ",
"                                                            u+a.a.v+w+x+                                                        ",
"                                                            y+0.l.z+A+B+                                                        ",
"                                                            C+D+E+F+                                                            ",
"                                                          G+x+x+H+                                                              ",
"                                                        I+t+x+x+B+                                                              ",
"                                                      B+J+o+x+x+                                                                ",
"                                                      K+L+A+x+x+                                                                ",
"                                                            x+x+                                                                ",
"                                                            x+x+M+                                                              ",
"                                                            o+t+x+N+                                                            ",
"                                                                                                                                ",
"                                                                                                                                ",
"                                                                                                                                ",
"                                                                                                                                ",
"                                                                                                                                ",
"                                                                                                                                ",
"                                                                                                                                ",
"                                                                                                                                ",
"                                                                                                                                ",
"                                                                                                                                ",
"                                                                                                                                ",
"                                                                                                                                "};
