/* XPM */
static char * r6_xpm[] = {
"64 64 261 2",
"  	c #AADA50",
". 	c #5B68BF",
"+ 	c #5F6DC7",
"@ 	c #616FCA",
"# 	c #616FCB",
"$ 	c #606EC9",
"% 	c #5561B1",
"& 	c #5D6AC3",
"* 	c #5966BA",
"= 	c #5865B9",
"- 	c #4F5AA4",
"; 	c #465092",
"> 	c #5763B6",
", 	c #5C69C0",
"' 	c #5A67BC",
") 	c #5F6DC8",
"! 	c #4A559B",
"~ 	c #5F6CC6",
"{ 	c #5561B2",
"] 	c #606EC8",
"^ 	c #606ECA",
"/ 	c #4C559D",
"( 	c #495499",
"_ 	c #535FAD",
": 	c #4D58A1",
"< 	c #525EAB",
"[ 	c #475092",
"} 	c #5B69BF",
"| 	c #4A5499",
"1 	c #535FAE",
"2 	c #5965B9",
"3 	c #505CA8",
"4 	c #343A68",
"5 	c #4D57A0",
"6 	c #444D8D",
"7 	c #5460B0",
"8 	c #4F59A4",
"9 	c #30335D",
"0 	c #4A549A",
"a 	c #505BA7",
"b 	c #4B5296",
"c 	c #383865",
"d 	c #333763",
"e 	c #3E457F",
"f 	c #515CA8",
"g 	c #4A549B",
"h 	c #545288",
"i 	c #896960",
"j 	c #464F90",
"k 	c #4F5AA5",
"l 	c #4C5499",
"m 	c #A4746A",
"n 	c #C5A183",
"o 	c #62414D",
"p 	c #454E90",
"q 	c #693F50",
"r 	c #83564D",
"s 	c #C78974",
"t 	c #40457F",
"u 	c #C1A182",
"v 	c #EFA98D",
"w 	c #B68F7A",
"x 	c #4E58A2",
"y 	c #3E2C3F",
"z 	c #564C58",
"A 	c #4A3733",
"B 	c #484F90",
"C 	c #9D6860",
"D 	c #EDA98D",
"E 	c #B9927C",
"F 	c #9A6E6C",
"G 	c #BEBAC5",
"H 	c #D6B3AC",
"I 	c #ECB695",
"J 	c #464F92",
"K 	c #5D4266",
"L 	c #D6977D",
"M 	c #C1987F",
"N 	c #BCA387",
"O 	c #DEAFB6",
"P 	c #E1C0BD",
"Q 	c #FEDDAF",
"R 	c #4D58A2",
"S 	c #4E59A4",
"T 	c #3D467F",
"U 	c #3B4279",
"V 	c #4A2E3C",
"W 	c #9B5759",
"X 	c #4C4272",
"Y 	c #BDA589",
"Z 	c #FDDCAE",
"` 	c #F5C09A",
" .	c #3C457D",
"..	c #373D6E",
"+.	c #76424C",
"@.	c #C66E72",
"#.	c #AE6269",
"$.	c #50477C",
"%.	c #B68572",
"&.	c #F6BD97",
"*.	c #E0A386",
"=.	c #4E59A3",
"-.	c #3C437A",
";.	c #555B80",
">.	c #8183AF",
",.	c #8585B1",
"'.	c #947698",
").	c #C36D71",
"!.	c #3E4270",
"~.	c #7982A3",
"{.	c #C6B5B0",
"].	c #ABAEC6",
"^.	c #9B7F9D",
"/.	c #B2686A",
"(.	c #464F91",
"_.	c #453A50",
":.	c #DEC3A1",
"<.	c #FFE0B1",
"[.	c #E3C9A8",
"}.	c #CACCDE",
"|.	c #C2B9BC",
"1.	c #B79683",
"2.	c #ADB0C3",
"3.	c #475195",
"4.	c #414986",
"5.	c #503E54",
"6.	c #F7CFA5",
"7.	c #FDDDB0",
"8.	c #A998A5",
"9.	c #DDE6F9",
"0.	c #CAD0E2",
"a.	c #CCD2E7",
"b.	c #E9EEF9",
"c.	c #475194",
"d.	c #454F91",
"e.	c #414A87",
"f.	c #383762",
"g.	c #CBA989",
"h.	c #FFDEB0",
"i.	c #BF8D88",
"j.	c #F3F5FA",
"k.	c #FEFEFF",
"l.	c #F6F8FD",
"m.	c #C2C7E3",
"n.	c #495398",
"o.	c #444E8E",
"p.	c #343763",
"q.	c #C0A685",
"r.	c #FDDDAF",
"s.	c #9A6F7A",
"t.	c #FBFAFB",
"u.	c #FFFFFF",
"v.	c #FEFFFF",
"w.	c #F9F9FC",
"x.	c #969DC6",
"y.	c #FCDCAE",
"z.	c #978095",
"A.	c #FBFBFC",
"B.	c #DBDEEB",
"C.	c #B6A5B9",
"D.	c #FCFDFE",
"E.	c #FAFBFC",
"F.	c #F8CFA5",
"G.	c #9083A1",
"H.	c #DDE2F6",
"I.	c #EBF0FA",
"J.	c #CDAC8F",
"K.	c #7A7EA6",
"L.	c #D3DBF3",
"M.	c #F7F9FE",
"N.	c #FCFCFE",
"O.	c #F3F5FB",
"P.	c #9CA6CF",
"Q.	c #BD8A74",
"R.	c #C3A98D",
"S.	c #8B92BE",
"T.	c #EDF1FB",
"U.	c #F5F7FD",
"V.	c #A7AFDB",
"W.	c #A9B1E1",
"X.	c #A59AA9",
"Y.	c #FBDCAE",
"Z.	c #E5BA98",
"`.	c #888BAF",
" +	c #EAEFF9",
".+	c #F9F9FB",
"++	c #858EB7",
"@+	c #767DA8",
"#+	c #B4BCE4",
"$+	c #A39EA8",
"%+	c #FADCAE",
"&+	c #FADBAD",
"*+	c #999298",
"=+	c #C7CCDB",
"-+	c #B4BCD3",
";+	c #697398",
">+	c #C5B2A6",
",+	c #C9A88A",
"'+	c #A18B7C",
")+	c #ABA2AA",
"!+	c #8D96C4",
"~+	c #997488",
"{+	c #F6D6A9",
"]+	c #C39278",
"^+	c #C7AC89",
"/+	c #F9DAAD",
"(+	c #9C7173",
"_+	c #F1A188",
":+	c #E89682",
"<+	c #A46B5E",
"[+	c #E5B794",
"}+	c #FCD6AA",
"|+	c #CB9C80",
"1+	c #F5CDA3",
"2+	c #C2826E",
"3+	c #F5A489",
"4+	c #F4A389",
"5+	c #D58777",
"6+	c #F6BE99",
"7+	c #F4CCA4",
"8+	c #FDD8AB",
"9+	c #F2BE9B",
"0+	c #BF8771",
"a+	c #C8947B",
"b+	c #F0A086",
"c+	c #E49480",
"d+	c #E2947E",
"e+	c #ECA289",
"f+	c #EDA58B",
"g+	c #DAA288",
"h+	c #B87968",
"i+	c #C7816F",
"j+	c #CA8070",
"k+	c #DC907B",
"l+	c #C6997D",
"m+	c #C99B7F",
"n+	c #EFA086",
"o+	c #F4D6A9",
"p+	c #C5A987",
"q+	c #C8AB89",
"r+	c #F9D9AB",
"s+	c #C88672",
"t+	c #F3A288",
"u+	c #F1A187",
"v+	c #FFDFB1",
"w+	c #F6C79F",
"x+	c #C2816D",
"y+	c #FAC29C",
"z+	c #FAC39C",
"A+	c #CA8672",
"B+	c #F2A187",
"C+	c #F5A589",
"D+	c #F5A78B",
"E+	c #C07E6B",
"F+	c #E99883",
"G+	c #E1937D",
"H+	c #D9907A",
"I+	c #C07E6C",
"J+	c #ED9E85",
"K+	c #C98270",
"L+	c #EA9883",
"                                                                                                                                ",
"                                                                                                                                ",
"                                                                                                                                ",
"                                                                                                                                ",
"                                                                                                                                ",
"                                                                                                                                ",
"                                                                                                                                ",
"                                                                                                                                ",
"                                                            . + + +                                                             ",
"                                                        . @ # # # # $ %                                                         ",
"                                                      . # # # # # & * = - ;                                                     ",
"                                                      @ # # # # > , ' ) ! ) ~                                                   ",
"                                                    . # # # # # { { ] ^ = # @                                                   ",
"                                                    + # # # # + / ( $ $ _ # #                                                   ",
"                                                    ] # # # ^ : < [ ^ } | @ ^ 1                                                 ",
"                                                    2 # # ^ 3 4 5 6 7 8 9 . 2 0                                                 ",
"                                                    a = = b c d e f g h i j 0                                                   ",
"                                                    k k l m n o p e q r s                                                       ",
"                                                    k k t u v w x x y z A                                                       ",
"                                                    k k B C D E x x F G H I                                                     ",
"                                                    k k J K L M l x N O P Q                                                     ",
"                                                  R k S T U V W X : Y Q Z `                                                     ",
"                                                  x k !  ...+.@.#.$.%.&.*.                                                      ",
"                                                  =.k ; -.;.>.,.'.).                                                            ",
"                                                  k k ; !.~.{.{.].^./.                                                          ",
"                                                  - - (._.:.<.<.[.}.|.1.2.                                                      ",
"                                                  3.; 4.5.6.<.<.7.8.9.0.a.b.                                                    ",
"                                                x c.d.e.f.g.<.<.h.i.j.k.l.m.                                                    ",
"                                                n.c.o.e.p.q.<.<.r.s.t.u.v.w.x.                                                  ",
"                                                          q.<.<.y.z.A.u.u.u.B.                                                  ",
"                                                            <.<.y.C.D.u.u.u.E.                                                  ",
"                                                            <.<.F.G.H.v.u.k.I.                                                  ",
"                                                            <.<.J.K.L.M.N.O.P.                                                  ",
"                                                          Q.h.<.R.S.T.U.V.W.                                                    ",
"                                                          X.Y.<.Z.`. +.+++@+                                                    ",
"                                                        #+$+%+<.&+*+=+-+;+                                                      ",
"                                                        >+,+Y.<.Y.'+)+!+~+                                                      ",
"                                                        {+]+h.<.Y.^+/+(+_+:+                                                    ",
"                                                        <+[+<.<.}+|+1+2+3+4+                                                    ",
"                                                        5+6+7+8+9+0+a+b+3+3+                                                    ",
"                                                        c+d+e+f+g+h+i+3+3+3+b+                                                  ",
"                                                          <+j+k+l+m+n+3+3+3+n+                                                  ",
"                                                          o+p+q+r+s+t+3+3+u+                                                    ",
"                                                          y.<.v+w+x+3+3+u+                                                      ",
"                                                          y+Q z+A+n+3+u+                                                        ",
"                                                        B+C+D+4+i+t+u+                                                          ",
"                                                        3+3+3+u+E+F+                                                            ",
"                                                        t+3+3+G+H+                                                              ",
"                                                        b+3+3+I+J+                                                              ",
"                                                          3+3+K+                                                                ",
"                                                          3+3+L+                                                                ",
"                                                          u+4+3+J+                                                              ",
"                                                                                                                                ",
"                                                                                                                                ",
"                                                                                                                                ",
"                                                                                                                                ",
"                                                                                                                                ",
"                                                                                                                                ",
"                                                                                                                                ",
"                                                                                                                                ",
"                                                                                                                                ",
"                                                                                                                                ",
"                                                                                                                                ",
"                                                                                                                                "};
