/* XPM */
static char * r7_xpm[] = {
"64 64 248 2",
"  	c #AADA50",
". 	c #5C69BF",
"+ 	c #616FCA",
"@ 	c #616FCB",
"# 	c #606EC8",
"$ 	c #606ECA",
"% 	c #5A66BB",
"& 	c #515DAA",
"* 	c #3E4680",
"= 	c #606EC9",
"- 	c #5A67BC",
"; 	c #5C69C0",
"> 	c #5C6AC2",
", 	c #505CA8",
"' 	c #5764B7",
") 	c #505AA6",
"! 	c #5864B7",
"~ 	c #5D6AC2",
"{ 	c #525DAB",
"] 	c #4F5AA6",
"^ 	c #5F6DC7",
"/ 	c #495398",
"( 	c #4E59A3",
"_ 	c #5662B4",
": 	c #5865B9",
"< 	c #606DC8",
"[ 	c #4F5AA4",
"} 	c #434B8A",
"| 	c #5763B6",
"1 	c #5F6DC8",
"2 	c #5864B8",
"3 	c #5B68BE",
"4 	c #404884",
"5 	c #434C8B",
"6 	c #545FAF",
"7 	c #3C427A",
"8 	c #5460B0",
"9 	c #5B68BF",
"0 	c #424B88",
"a 	c #3D437B",
"b 	c #454E8F",
"c 	c #525EAC",
"d 	c #525491",
"e 	c #714C4A",
"f 	c #575B9E",
"g 	c #535EAD",
"h 	c #4F5AA5",
"i 	c #505BA7",
"j 	c #5E4261",
"k 	c #654449",
"l 	c #42467D",
"m 	c #475093",
"n 	c #3E457F",
"o 	c #876762",
"p 	c #D2957D",
"q 	c #F2B391",
"r 	c #B78B74",
"s 	c #4D58A1",
"t 	c #464B88",
"u 	c #C49A7F",
"v 	c #EAB796",
"w 	c #585481",
"x 	c #4E58A2",
"y 	c #6F444E",
"z 	c #432A27",
"A 	c #7C4B45",
"B 	c #454A88",
"C 	c #C2937A",
"D 	c #F6B392",
"E 	c #BAA18F",
"F 	c #654653",
"G 	c #9D97A2",
"H 	c #B19791",
"I 	c #424A88",
"J 	c #6D475A",
"K 	c #E9A68A",
"L 	c #D9B191",
"M 	c #535A9B",
"N 	c #B7927F",
"O 	c #C2B1C9",
"P 	c #C4A7B5",
"Q 	c #FCD4A9",
"R 	c #495499",
"S 	c #4A559B",
"T 	c #3C457D",
"U 	c #3C3E6F",
"V 	c #916157",
"W 	c #A67565",
"X 	c #73517A",
"Y 	c #BDA589",
"Z 	c #F9CBA6",
"` 	c #FBD7AD",
" .	c #FDD6AA",
"..	c #424B89",
"+.	c #3C447C",
"@.	c #3B4279",
"#.	c #4B2C3C",
"$.	c #C36C6E",
"%.	c #804752",
"&.	c #414379",
"*.	c #BD9A80",
"=.	c #FCD0A6",
"-.	c #EBBF9A",
";.	c #3D457E",
">.	c #413861",
",.	c #955967",
"'.	c #9E6377",
").	c #9C6175",
"!.	c #A45A5F",
"~.	c #BF746C",
"{.	c #3B437A",
"].	c #433C5E",
"^.	c #7E85AE",
"/.	c #9198C5",
"(.	c #9098C5",
"_.	c #987B9B",
":.	c #465092",
"<.	c #333763",
"[.	c #636381",
"}.	c #C2AC98",
"|.	c #F9DBB0",
"1.	c #E1C7A7",
"2.	c #C9C9D6",
"3.	c #A89BA5",
"4.	c #C19A89",
"5.	c #333662",
"6.	c #B88F77",
"7.	c #FEDFB0",
"8.	c #FFE0B1",
"9.	c #DFBBA0",
"0.	c #CFD3E5",
"a.	c #B8C0DA",
"b.	c #B5BCD2",
"c.	c #99A4CE",
"d.	c #4B559C",
"e.	c #6E484A",
"f.	c #FBDBAD",
"g.	c #E6B496",
"h.	c #947E9C",
"i.	c #F4F6FC",
"j.	c #FEFEFF",
"k.	c #FAFAFB",
"l.	c #B1B5CD",
"m.	c #4D57A0",
"n.	c #3C437B",
"o.	c #493551",
"p.	c #E4B895",
"q.	c #EFBD9A",
"r.	c #8D6B82",
"s.	c #FBFBFC",
"t.	c #FFFFFF",
"u.	c #FBFBFB",
"v.	c #424171",
"w.	c #34355E",
"x.	c #C0A484",
"y.	c #FCDBAE",
"z.	c #BBA8AF",
"A.	c #FDFDFE",
"B.	c #D2D6E6",
"C.	c #B5796A",
"D.	c #A36D60",
"E.	c #FDDDAF",
"F.	c #CBABA5",
"G.	c #F5F7FC",
"H.	c #E2E6F6",
"I.	c #EFA086",
"J.	c #785056",
"K.	c #C2A78A",
"L.	c #B2BADC",
"M.	c #FEFFFF",
"N.	c #F4F6FD",
"O.	c #B8BFE6",
"P.	c #C5987D",
"Q.	c #9D867B",
"R.	c #CBAB8C",
"S.	c #848BB3",
"T.	c #FBFBFD",
"U.	c #DCE1F5",
"V.	c #AAB2E2",
"W.	c #875E6D",
"X.	c #F5D7AD",
"Y.	c #C59C7F",
"Z.	c #FFDFB0",
"`.	c #F8CFA5",
" +	c #A69BAA",
".+	c #F1F4FB",
"++	c #8593BA",
"@+	c #C5CBE1",
"#+	c #CED1DD",
"$+	c #B1B6D3",
"%+	c #AD9391",
"&+	c #F8CFA6",
"*+	c #CA9E87",
"=+	c #A9ADC1",
"-+	c #6C7398",
";+	c #C3C8DA",
">+	c #C7C5CA",
",+	c #C7C7D2",
"'+	c #C3C8DD",
")+	c #C99C86",
"!+	c #795261",
"~+	c #FBDCAF",
"{+	c #FBDCB0",
"]+	c #E1C7A6",
"^+	c #AD8C7A",
"/+	c #FBCAA2",
"(+	c #C88371",
"_+	c #F9DAAD",
":+	c #D0AD8C",
"<+	c #FED8AC",
"[+	c #FAC69F",
"}+	c #F5BA97",
"|+	c #BF7E6C",
"1+	c #FBDCAE",
"2+	c #B3796A",
"3+	c #FCD5A9",
"4+	c #EAB192",
"5+	c #F7CFA5",
"6+	c #D7937E",
"7+	c #FEDDAF",
"8+	c #F4B996",
"9+	c #C0746C",
"0+	c #C67B70",
"a+	c #EA9B85",
"b+	c #CB7C72",
"c+	c #AA6960",
"d+	c #B87867",
"e+	c #BA7868",
"f+	c #A65B5E",
"g+	c #AC6961",
"h+	c #ED9E85",
"i+	c #D68E78",
"j+	c #9F5A5B",
"k+	c #B16E64",
"l+	c #F4A389",
"m+	c #F5A489",
"n+	c #F1A187",
"o+	c #F1A087",
"p+	c #F3AB8D",
"q+	c #FAD4A8",
"r+	c #F3A288",
"s+	c #E79782",
"t+	c #F5A78B",
"u+	c #F8BC98",
"v+	c #F0A086",
"w+	c #E79781",
"x+	c #E99883",
"y+	c #F2A187",
"                                                                                                                                ",
"                                                                                                                                ",
"                                                                                                                                ",
"                                                                                                                                ",
"                                                                                                                                ",
"                                                                                                                                ",
"                                                                                                                                ",
"                                                                                                                                ",
"                                                                                                                                ",
"                                                          . + @ @ @ #                                                           ",
"                                                        + @ @ @ @ $ % & *                                                       ",
"                                                      # @ @ @ @ = - ; > , ' '                                                   ",
"                                                      @ @ @ @ @ ) ! ~ = { + + ]                                                 ",
"                                                    ^ @ @ @ @ ^ / ( + = _ @ @ :                                                 ",
"                                                    < @ @ @ @ [ } | @ 1 { @ @ 2                                                 ",
"                                                    ~ @ @ @ 3 4 5 ] ; 6 7 # ~ (                                                 ",
"                                                    8 = $ 9 0 a b c ( d e f g                                                   ",
"                                                    h i [ j k l m n o p q r                                                     ",
"                                                  s h h t u v w h x y z A                                                       ",
"                                                  ( h h B C D E ( x F G H                                                       ",
"                                                  h h [ I J K L M x N O P Q                                                     ",
"                                                R h h S T U V W X s Y Z `  .                                                    ",
"                                                ( h [ ..+.@.#.$.%.&.*.=.-.                                                      ",
"                                                h h ( ;.+.>.,.'.).!.~.                                                          ",
"                                                h h m +.{.].^./.(._.                                                            ",
"                                                h h :.+.<.[.}.|.1.2.3.4.                                                        ",
"                                                h h :.+.5.6.7.8.8.9.0.a.b.c.                                                    ",
"                                                ( d.:.+.@.e.f.8.8.g.h.i.j.k.l.                                                  ",
"                                                m.* s ;.n.o.p.8.8.q.r.s.t.t.u.                                                  ",
"                                                        v.w.x.8.8.y.z.A.t.t.t.B.                                                ",
"                                                          C.D.E.8.E.F.G.t.t.t.H.                                                ",
"                                                          I.J.f.8.8.K.L.A.M.N.O.                                                ",
"                                                          P.Q.p.8.8.R.S.T.U.V.                                                  ",
"                                                        W.X.X.Y.Z.8.`. +.+++                                                    ",
"                                                        @+#+$+%+&+8.Z.*+=+-+                                                    ",
"                                                        ;+>+,+'+)+Z.8.`.!+                                                      ",
"                                                        |.~+{+]+^+`.Z./+(+                                                      ",
"                                                        8.8.8.8._+:+<+[+}+|+                                                    ",
"                                                        8.8.8.8.1+2+3+8.Z.4+                                                    ",
"                                                        8.8.8.8.5+  6+3+7+8+                                                    ",
"                                                        8.8.8.Z.    9+0+a+b+c+                                                  ",
"                                                        8.8.8.f.      d+e+f+g+                                                  ",
"                                                        8.8.8.      h+i+j+k+                                                    ",
"                                                        8.8.Z.      l+m+n+o+                                                    ",
"                                                      p+ .Z.q+      r+m+m+s+                                                    ",
"                                                      m+t+u+        n+m+m+                                                      ",
"                                                    v+m+m+l+        w+m+m+                                                      ",
"                                                    v+m+m+n+          m+m+                                                      ",
"                                                      m+m+            m+m+x+                                                    ",
"                                                      m+m+              y+m+h+                                                  ",
"                                                      m+m+x+                                                                    ",
"                                                      n+l+m+h+                                                                  ",
"                                                                                                                                ",
"                                                                                                                                ",
"                                                                                                                                ",
"                                                                                                                                ",
"                                                                                                                                ",
"                                                                                                                                ",
"                                                                                                                                ",
"                                                                                                                                ",
"                                                                                                                                ",
"                                                                                                                                ",
"                                                                                                                                ",
"                                                                                                                                "};
