/* XPM */
static char * r8_xpm[] = {
"64 64 251 2",
"  	c #AADA50",
". 	c #5B68BF",
"+ 	c #5F6DC7",
"@ 	c #616FCA",
"# 	c #616FCB",
"$ 	c #606EC9",
"% 	c #5461B1",
"& 	c #5D6AC2",
"* 	c #5966BA",
"= 	c #5865B9",
"- 	c #4F5AA4",
"; 	c #465093",
"> 	c #464F91",
", 	c #5763B6",
"' 	c #5B69BF",
") 	c #5A67BC",
"! 	c #5F6DC8",
"~ 	c #4A559B",
"{ 	c #606DC8",
"] 	c #4A549A",
"^ 	c #4E59A3",
"/ 	c #606ECA",
"( 	c #5864B7",
"_ 	c #5662B4",
": 	c #4B559C",
"< 	c #5561B2",
"[ 	c #535FAD",
"} 	c #5965B9",
"| 	c #606EC8",
"1 	c #495398",
"2 	c #434C8B",
"3 	c #535FAE",
"4 	c #4A5499",
"5 	c #5460B0",
"6 	c #505BA6",
"7 	c #3D447C",
"8 	c #404883",
"9 	c #5460AF",
"0 	c #2F335B",
"a 	c #505BA7",
"b 	c #4B5296",
"c 	c #373762",
"d 	c #3E447D",
"e 	c #424A88",
"f 	c #353B6A",
"g 	c #48497D",
"h 	c #8F6F70",
"i 	c #B88D75",
"j 	c #8F7486",
"k 	c #3E457E",
"l 	c #4D58A2",
"m 	c #4F5AA5",
"n 	c #4C5499",
"o 	c #A4746A",
"p 	c #C4A183",
"q 	c #4C4D7F",
"r 	c #4C579F",
"s 	c #A07068",
"t 	c #B37864",
"u 	c #CD8E78",
"v 	c #40457F",
"w 	c #C1A282",
"x 	c #EAA58A",
"y 	c #4F4B7F",
"z 	c #494C89",
"A 	c #77464C",
"B 	c #564C58",
"C 	c #4A3733",
"D 	c #484F8F",
"E 	c #9D6860",
"F 	c #E8A58A",
"G 	c #585180",
"H 	c #535081",
"I 	c #E0A98F",
"J 	c #BEBAC4",
"K 	c #D6B3AC",
"L 	c #ECB695",
"M 	c #4E59A4",
"N 	c #3D467F",
"O 	c #5E4266",
"P 	c #D6977D",
"Q 	c #B69688",
"R 	c #4E58A2",
"S 	c #545482",
"T 	c #FAD9AC",
"U 	c #DEAFB6",
"V 	c #E1C0BD",
"W 	c #FEDDAF",
"X 	c #3C457D",
"Y 	c #3B4279",
"Z 	c #4A2E3C",
"` 	c #9A575A",
" .	c #4E4D88",
"..	c #535380",
"+.	c #FADBAD",
"@.	c #FDDCAE",
"#.	c #F5C09A",
"$.	c #465092",
"%.	c #3C447C",
"&.	c #383C6D",
"*.	c #79434D",
"=.	c #C66E72",
"-.	c #AC6168",
";.	c #6C3F49",
">.	c #E8A78B",
",.	c #F6BD97",
"'.	c #E0A386",
").	c #3B4379",
"!.	c #463550",
"~.	c #8C7395",
"{.	c #8585B1",
"].	c #8684AF",
"^.	c #9D677A",
"/.	c #9B5865",
"(.	c #4B569D",
"_.	c #333763",
":.	c #5A5A7F",
"<.	c #A49BA4",
"[.	c #C9B7B1",
"}.	c #A9A0AA",
"|.	c #C7CADD",
"1.	c #98819E",
"2.	c #475194",
"3.	c #373D6E",
"4.	c #895457",
"5.	c #FADBAE",
"6.	c #FFE0B1",
"7.	c #FDDEB0",
"8.	c #C8B5A8",
"9.	c #D6DBE8",
"0.	c #BAC2DA",
"a.	c #949BB5",
"b.	c #7681A8",
"c.	c #3B437A",
"d.	c #513D42",
"e.	c #DAAF93",
"f.	c #B3B9D0",
"g.	c #F7F9FE",
"h.	c #FCFDFE",
"i.	c #F3F5FA",
"j.	c #CACEDC",
"k.	c #454F91",
"l.	c #3D457E",
"m.	c #56516A",
"n.	c #E5B997",
"o.	c #DDB293",
"p.	c #CDC4CD",
"q.	c #FFFFFF",
"r.	c #FEFFFF",
"s.	c #DEE2EE",
"t.	c #3C437B",
"u.	c #373E70",
"v.	c #373D6F",
"w.	c #5F698B",
"x.	c #C2A789",
"y.	c #FBDBAD",
"z.	c #B8A7BA",
"A.	c #FEFEFF",
"B.	c #EDF1FB",
"C.	c #8D6267",
"D.	c #977788",
"E.	c #A67E82",
"F.	c #FDDDAF",
"G.	c #AB8589",
"H.	c #CFD4EE",
"I.	c #F6F8FD",
"J.	c #FDFDFE",
"K.	c #EAF0FD",
"L.	c #D0D4E6",
"M.	c #EE9F85",
"N.	c #B8807E",
"O.	c #726F8A",
"P.	c #F7CFA5",
"Q.	c #CCAA8E",
"R.	c #9AA2D1",
"S.	c #D9DCF1",
"T.	c #CFD4EA",
"U.	c #B8C0E8",
"V.	c #D68E78",
"W.	c #BC7F74",
"X.	c #A48597",
"Y.	c #CCAB8D",
"Z.	c #F9D0A6",
"`.	c #9A6D67",
" +	c #A7A6B9",
".+	c #E9EEF8",
"++	c #B0B9DE",
"@+	c #AB8FA5",
"#+	c #CEA9B2",
"$+	c #DCC1A2",
"%+	c #C6AB89",
"&+	c #FBDCAE",
"*+	c #C6977D",
"=+	c #A19098",
"-+	c #EEF0F7",
";+	c #EFF1F8",
">+	c #BCC3E1",
",+	c #ADA4B3",
"'+	c #9F897C",
")+	c #E4B896",
"!+	c #FFDFB0",
"~+	c #F8CFA5",
"{+	c #A197A1",
"]+	c #C7B19D",
"^+	c #B3A9B6",
"/+	c #CBCEE1",
"(+	c #CACDE0",
"_+	c #B9B7C3",
":+	c #B18B96",
"<+	c #CBA98A",
"[+	c #FAD1A7",
"}+	c #D88C7B",
"|+	c #FCDCAF",
"1+	c #E1C7A7",
"2+	c #B3AAB6",
"3+	c #BCC4E1",
"4+	c #7F89B9",
"5+	c #967185",
"6+	c #CDA989",
"7+	c #F6C09B",
"8+	c #F0A086",
"9+	c #B16163",
"0+	c #DEC3A3",
"a+	c #986C71",
"b+	c #F1A188",
"c+	c #DA937B",
"d+	c #BF826E",
"e+	c #A5675D",
"f+	c #D07D75",
"g+	c #E6B895",
"h+	c #DA917A",
"i+	c #F5A489",
"j+	c #F1A187",
"k+	c #8D5251",
"l+	c #FFDEB0",
"m+	c #A77061",
"n+	c #ED9E84",
"o+	c #F3A388",
"p+	c #F4A389",
"q+	c #F9C8A0",
"r+	c #FFDFB1",
"s+	c #F2A187",
"t+	c #F5A68A",
"u+	c #F9BC98",
"v+	c #FAC49E",
"w+	c #F1AB8C",
"x+	c #E99883",
"y+	c #F3A288",
"z+	c #E79781",
"A+	c #E69681",
"B+	c #EFA086",
"                                                                                                                                ",
"                                                                                                                                ",
"                                                                                                                                ",
"                                                                                                                                ",
"                                                                                                                                ",
"                                                                                                                                ",
"                                                                                                                                ",
"                                                                                                                                ",
"                                                                                                                                ",
"                                                            . + + +                                                             ",
"                                                        . @ # # # # $ %                                                         ",
"                                                      . # # # # # & * = - ; >                                                   ",
"                                                      @ # # # # , ' ) ! ~ ! {                                                   ",
"                                                    . # # # # $ ] ^ $ / = # # (                                                 ",
"                                                    + # # # # _ : < # $ [ # # }                                                 ",
"                                                    | # # # $ 1 2 3 / ' 4 @ / 5                                                 ",
"                                                    } # # / 6 7 8 ^ 9 ] 0 . } ]                                                 ",
"                                                    a = = b c d e f g h i j k                                                   ",
"                                                  l m m n o p q m r s t u                                                       ",
"                                                  - m m v w x y m z A B C                                                       ",
"                                                  m m m D E F G m H I J K L                                                     ",
"                                                l m m M N O P Q R S T U V W                                                     ",
"                                                - m m ~ X Y Z `  ...+.W @.#.                                                    ",
"                                                m m m $.%.&.*.=.-.;.>.,.'.                                                      ",
"                                              l m m M N ).!.~.{.].^./.                                                          ",
"                                              l (.- ~ X _.:.<.[.}.|.1.                                                          ",
"                                                2.^ $.%.3.4.5.6.7.8.9.0.a.b.                                                    ",
"                                                $.] N %.c.d.+.6.6.e.f.g.h.i.j.                                                  ",
"                                                  k.l.%.c.m.n.6.6.o.p.q.q.q.r.s.                                                ",
"                                                  l.t.u.v.w.x.6.6.y.z.h.q.q.A.B.                                                ",
"                                                        C.D.E.F.6.F.G.H.I.J.K.L.                                                ",
"                                                        M.N.O.P.6.6.Q.R.S.T.U.                                                  ",
"                                                        V.W.X.Y.6.6.Z.`. +.+++                                                  ",
"                                                        @+#+$+%+&+6.6.Z.*+=+                                                    ",
"                                                        -+;+>+,+'+)+@.6.!+~+                                                    ",
"                                                      {+]+]+^+/+(+_+:+<+[+6.W }+                                                ",
"                                                      |+6.6.7.1+2+3+4+5+6+y.7+8+9+                                              ",
"                                                      6.6.6.6.6.7.0+a+b+c+d+e+f+                                                ",
"                                                      6.6.6.6.6.6.g+h+i+i+j+k+                                                  ",
"                                                      l+6.6.6.6.F.m+j+i+i+i+n+                                                  ",
"                                                      &+6.6.6.6.P.    i+i+i+j+                                                  ",
"                                                      &+6.6.6.6.      o+i+i+p+                                                  ",
"                                                      &+6.6.6.F.        i+i+i+                                                  ",
"                                                      +.6.6.6.P.        i+i+i+                                                  ",
"                                                      q+r+6.W           s+i+i+8+                                                ",
"                                                    8+t+u+v+w+            i+i+j+                                                ",
"                                                    i+i+i+j+              x+i+y+                                                ",
"                                                  z+i+i+j+                  p+i+                                                ",
"                                                  j+i+j+                    j+i+s+                                              ",
"                                                  p+x+                        j+p+                                              ",
"                                                A+i+                                                                            ",
"                                                  i+B+                                                                          ",
"                                                                                                                                ",
"                                                                                                                                ",
"                                                                                                                                ",
"                                                                                                                                ",
"                                                                                                                                ",
"                                                                                                                                ",
"                                                                                                                                ",
"                                                                                                                                ",
"                                                                                                                                ",
"                                                                                                                                ",
"                                                                                                                                ",
"                                                                                                                                "};
