/* XPM */
static char * r9_xpm[] = {
"64 64 249 2",
"  	c #AADA50",
". 	c #5B68BF",
"+ 	c #5F6DC7",
"@ 	c #616FCA",
"# 	c #616FCB",
"$ 	c #606EC9",
"% 	c #5461B1",
"& 	c #5D6AC2",
"* 	c #5966BA",
"= 	c #5865B9",
"- 	c #4F5AA4",
"; 	c #465092",
"> 	c #5763B6",
", 	c #5C69C0",
"' 	c #5A67BC",
") 	c #5F6DC8",
"! 	c #4A559B",
"~ 	c #4B559C",
"{ 	c #5561B2",
"] 	c #606EC8",
"^ 	c #606ECA",
"/ 	c #5662B4",
"( 	c #535FAE",
"_ 	c #495499",
": 	c #535FAD",
"< 	c #5764B7",
"[ 	c #454E8F",
"} 	c #475092",
"| 	c #4A5499",
"1 	c #5965B9",
"2 	c #505CA8",
"3 	c #343A68",
"4 	c #4D57A0",
"5 	c #444D8E",
"6 	c #5460B0",
"7 	c #4F59A4",
"8 	c #34355D",
"9 	c #505BA7",
"0 	c #4B5296",
"a 	c #383865",
"b 	c #333763",
"c 	c #3E4680",
"d 	c #515DAA",
"e 	c #4E59A2",
"f 	c #545289",
"g 	c #BC8C75",
"h 	c #57558B",
"i 	c #4A549A",
"j 	c #4F5AA5",
"k 	c #4C5499",
"l 	c #A4746A",
"m 	c #C5A183",
"n 	c #62414D",
"o 	c #495398",
"p 	c #3E457F",
"q 	c #694051",
"r 	c #83564D",
"s 	c #CD8E77",
"t 	c #40457F",
"u 	c #C1A282",
"v 	c #EFA98D",
"w 	c #B9917C",
"x 	c #4E58A2",
"y 	c #3E2C3F",
"z 	c #564C58",
"A 	c #4A3733",
"B 	c #4D58A2",
"C 	c #484F90",
"D 	c #9D6861",
"E 	c #EDA98D",
"F 	c #F2BD99",
"G 	c #55558B",
"H 	c #9B6E6C",
"I 	c #BEBAC4",
"J 	c #D6B3AC",
"K 	c #ECB695",
"L 	c #4E59A3",
"M 	c #464F92",
"N 	c #5E4266",
"O 	c #D6977D",
"P 	c #E2B794",
"Q 	c #524E7F",
"R 	c #BDA387",
"S 	c #DEAFB6",
"T 	c #E1C0BC",
"U 	c #FEDDAF",
"V 	c #4E59A4",
"W 	c #3D467F",
"X 	c #3B4279",
"Y 	c #4A2E3C",
"Z 	c #9E585A",
"` 	c #764962",
" .	c #BDA589",
"..	c #FDDCAE",
"+.	c #F5C09A",
"@.	c #3D457E",
"#.	c #373C6D",
"$.	c #76424C",
"%.	c #C66E72",
"&.	c #AD6268",
"*.	c #4F477B",
"=.	c #B68572",
"-.	c #F6BD97",
";.	c #E0A386",
">.	c #475093",
",.	c #3C437A",
"'.	c #484265",
").	c #8082AE",
"!.	c #8585B1",
"~.	c #97799A",
"{.	c #C36D71",
"].	c #9D5964",
"^.	c #3D406D",
"/.	c #8487AD",
"(.	c #C7B6B2",
"_.	c #C6AFAE",
":.	c #C0C4DD",
"<.	c #9B7F9C",
"[.	c #D68D80",
"}.	c #414A87",
"|.	c #4E3B44",
"1.	c #F5D2A8",
"2.	c #FFE0B1",
"3.	c #FDDEB0",
"4.	c #A99E9F",
"5.	c #C1C7DF",
"6.	c #C4AFA6",
"7.	c #A87E8F",
"8.	c #B5BAD5",
"9.	c #F8F9FB",
"0.	c #F0F2F8",
"a.	c #475195",
"b.	c #4D58A1",
"c.	c #3C447C",
"d.	c #4F3D42",
"e.	c #FBDCAE",
"f.	c #D4B098",
"g.	c #B7BFDA",
"h.	c #E6ECFA",
"i.	c #EDF1FB",
"j.	c #EDF2FC",
"k.	c #D7DBEA",
"l.	c #DDE1EE",
"m.	c #424B89",
"n.	c #3D447D",
"o.	c #DBB093",
"p.	c #C6C5D1",
"q.	c #FEFFFF",
"r.	c #FFFFFF",
"s.	c #FEFEFE",
"t.	c #EAEBF6",
"u.	c #959FC9",
"v.	c #3A4177",
"w.	c #D5AF92",
"x.	c #E5E6EC",
"y.	c #F5F7FC",
"z.	c #FADBAD",
"A.	c #CFAE91",
"B.	c #DBDFF1",
"C.	c #FEFEFF",
"D.	c #F5F7FD",
"E.	c #F6C8A0",
"F.	c #9285A2",
"G.	c #DCE2F5",
"H.	c #FCFCFE",
"I.	c #F4F6FC",
"J.	c #D6DDEE",
"K.	c #949FCA",
"L.	c #FFDFB1",
"M.	c #AB7372",
"N.	c #B5BCD3",
"O.	c #EEF2FC",
"P.	c #A6AFDB",
"Q.	c #A8B0E1",
"R.	c #B4BFDB",
"S.	c #C58672",
"T.	c #FDDDAF",
"U.	c #E4B091",
"V.	c #B0AAC4",
"W.	c #ECF1FC",
"X.	c #AFB8DF",
"Y.	c #8D96C8",
"Z.	c #818CB7",
"`.	c #C4A0A5",
" +	c #BAADB9",
".+	c #E1C6A1",
"++	c #A97774",
"@+	c #C1B8CC",
"#+	c #B0BAD8",
"$+	c #818DBC",
"%+	c #E7ECF7",
"&+	c #F8F8FA",
"*+	c #DDDBDA",
"=+	c #E0C49E",
"-+	c #FFDFB0",
";+	c #FBCDA3",
">+	c #F2AA8E",
",+	c #A1788F",
"'+	c #8583AC",
")+	c #AEA6B3",
"!+	c #C9B6A8",
"~+	c #C7B19C",
"{+	c #C6B19B",
"]+	c #C4AB8E",
"^+	c #D8B291",
"/+	c #FEDCAE",
"(+	c #FBCBA2",
"_+	c #F7C39D",
":+	c #DDB194",
"<+	c #F8D9AC",
"[+	c #D0AE8C",
"}+	c #F8D8AB",
"|+	c #F4CDA5",
"1+	c #FBDAAD",
"2+	c #DFB293",
"3+	c #E8B596",
"4+	c #F7C29D",
"5+	c #F8B795",
"6+	c #FAD5A9",
"7+	c #CE8775",
"8+	c #CB8272",
"9+	c #BC7369",
"0+	c #E69581",
"a+	c #E6B895",
"b+	c #C7806F",
"c+	c #C88170",
"d+	c #DE917C",
"e+	c #C47E6D",
"f+	c #F9D4A8",
"g+	c #FFDEB0",
"h+	c #C38D74",
"i+	c #F1A187",
"j+	c #F5A489",
"k+	c #C88471",
"l+	c #F0A086",
"m+	c #DA917A",
"n+	c #EDB293",
"o+	c #FBD4A9",
"p+	c #E79782",
"q+	c #EFA086",
"r+	c #F5A58A",
"s+	c #FAC29C",
"t+	c #FDD5A9",
"u+	c #F3A288",
"v+	c #F5A589",
"w+	c #F1A388",
"x+	c #EA9883",
"y+	c #E99782",
"z+	c #F4A389",
"                                                                                                                                ",
"                                                                                                                                ",
"                                                                                                                                ",
"                                                                                                                                ",
"                                                                                                                                ",
"                                                                                                                                ",
"                                                                                                                                ",
"                                                                                                                                ",
"                                                                                                                                ",
"                                                            . + + +                                                             ",
"                                                        . @ # # # # $ %                                                         ",
"                                                      . # # # # # & * = - ;                                                     ",
"                                                      @ # # # # > , ' ) ! ) +                                                   ",
"                                                    . # # # # $ ~ { ] ^ = # #                                                   ",
"                                                    + # # # # / ( _ $ $ : # # <                                                 ",
"                                                    ] # # # ^ [ { } ^ . | @ ^ (                                                 ",
"                                                    1 # # ^ 2 3 4 5 6 7 8 . 1                                                   ",
"                                                    9 = = 0 a b c d e f g h i                                                   ",
"                                                    j j k l m n o p q r s                                                       ",
"                                                    j j t u v w x x y z A                                                       ",
"                                                  B j j C D E F G x H I J K                                                     ",
"                                                  L j j M N O P Q x R S T U                                                     ",
"                                                  j j V W X Y Z ` 4  .U ..+.                                                    ",
"                                                  j j L @.#.$.%.&.*.=.-.;.                                                      ",
"                                                  j j >.,.'.).!.~.{.].                                                          ",
"                                                x j j ; ^./.(._.:.<.[.                                                          ",
"                                                - - - }.|.1.2.3.4.5.6.7.8.9.0.                                                  ",
"                                                j a.b.c.d.e.2.2.f.g.h.i.j.k.l.                                                  ",
"                                                j m.n.X d.e.2.2.o.p.q.r.r.s.t.u.                                                ",
"                                                x     v.d.e.2.2.w.x.r.r.r.r.y.                                                  ",
"                                                          z.2.2.A.B.C.r.r.r.D.                                                  ",
"                                                          E.2.2.E.F.G.C.H.I.J.K.                                                ",
"                                                            L.2...M.N.O.P.Q.R.                                                  ",
"                                                          S.T.2.L.U.V.W.X.Y.Z.                                                  ",
"                                                        `. +.+2.2...++@+#+$+                                                    ",
"                                                        %+&+*+=+-+;+>+,+'+                                                      ",
"                                                      )+!+~+{+]+^+/+(+_+:+                                                      ",
"                                                      <+2.2.2.2.[+}+T.|+2.1+                                                    ",
"                                                      E.2.2.2.2.e.[+2+3+4+5+                                                    ",
"                                                        L.2.2.2.2.6+7+8+9+0+                                                    ",
"                                                        T.2.2.2.2.a+b+c+d+e+                                                    ",
"                                                        f+2.2.2.g+h+i+j+j+i+                                                    ",
"                                                          2.2.2.6+k+j+j+j+l+                                                    ",
"                                                          2.2.2.a+m+j+j+j+                                                      ",
"                                                        n+-+2.o+  p+j+j+j+                                                      ",
"                                                      q+r+s+t+      j+j+j+                                                      ",
"                                                      u+j+v+w+      u+j+j+                                                      ",
"                                                      j+j+i+        l+j+j+                                                      ",
"                                                    x+j+i+            j+j+                                                      ",
"                                                  i+j+i+              j+j+y+                                                    ",
"                                                  z+i+                  p+i+                                                    ",
"                                                                                                                                ",
"                                                                                                                                ",
"                                                                                                                                ",
"                                                                                                                                ",
"                                                                                                                                ",
"                                                                                                                                ",
"                                                                                                                                ",
"                                                                                                                                ",
"                                                                                                                                ",
"                                                                                                                                ",
"                                                                                                                                ",
"                                                                                                                                ",
"                                                                                                                                "};
