/* XPM */
static char * pr_img_xpm[] = {
"64 64 12 1",
" 	c #AADA50",
".	c #000000",
"+	c #2D2D2D",
"@	c #5F7638",
"#	c #221D06",
"$	c #3A3109",
"%	c #FFFFFF",
"&	c #9F8D2D",
"*	c #424242",
"=	c #110E03",
"-	c #201A06",
";	c #1A1A1A",
"                                                                ",
"                                                                ",
"                                                                ",
"                                                                ",
"                                                                ",
"                                                                ",
"                                                                ",
"                                                                ",
"                                                                ",
"                                                                ",
"             .............                                      ",
"            ...............                                     ",
"           .................                                    ",
"          ............+.+....                                   ",
"         ..........+++...+....                                  ",
"         .............+++......                                 ",
"         ....@.....@.....++....                                 ",
"         ...@@@...@@@......+...                                 ",
"         ..@@@@@.@@@@@...@..+..                                 ",
"         .@@@@@@@@@@@@@.@@.+.+............                      ",
"         .@@@@@@@@@@@@@@@@..+..###########.                     ",
"         .@...@@....@@@@@@.+.+.#####$$$$$$#..                   ",
"         .@%%.@@%%%.@@@@@@..+..#####$$$$$$$##.                  ",
"         .@%%.@@%%%.@@@@@@@..+.##########$$$#.                  ",
"         .@&&.@@&&%.@@@@@@@@...#####$##$##$$$#.                 ",
"         .@.&.@@.&%.@@@@@@@@...#########$##$$#.                 ",
"         .@...@@....@@@@@@@@@..############$$$#.                ",
"         .@@@@@@@@@@@@@@@@@@@@.########$###$$$##.               ",
"         .@@@@@@@@@@@@@@@@@@@@.##########$###$$#.               ",
"         .@@@@@@@@@@@@@@@@@@@@.##############$$#.               ",
"         .@@@@@@@@@@@@@@@@@@@@.###############$$.               ",
"         .@@@@@@@@@@@@@@@@@@@@.#############$#$$.               ",
"         .@@@@@@@@@@@@@@@@@@@.##################.               ",
"         ..@@@@@@@@@@@@@@@@@.#################$#.               ",
"          ..................####################.               ",
"           .....################################.               ",
"               .###############################$.               ",
"               .################################.               ",
"               .################################.               ",
"               .#......########################$.               ",
"         .......#*****.####........#############.               ",
"         .@@@@@..*...*......@@@@@@...............               ",
"         .@@@@@.=*.==*.====.@@@@@@.===========--.               ",
"         .@@@@@.=***=*.====.@@@@@@.======-------.               ",
"         .@@@@@.=*..=*.====.@@@@@@.=============.               ",
"         .@@@@@..*.==*......@@@@@@...............               ",
"         .......#*****.####........#############.               ",
"               .#......#########################.               ",
"               .###############################$.               ",
"               .################################.               ",
"               .##############################$#.               ",
"               .###############################$.               ",
"               .##############################$#.               ",
"               .###############################$.               ",
"               ..................................               ",
"               .######.....;.######.....;.#####$.               ",
"               ............;............;........               ",
"                      .....;.      .....;.                      ",
"                      .....;.      .....;.                      ",
"                      .....;.      .....;.                      ",
"                      .....;.      .....;.                      ",
"                      .....;.      .....;.                      ",
"                      .......      .......                      ",
"                      .......      .......                      "};
